{
  "fileType": "o46-song",
  "version": "2.0",
  "tempo": 160,
  "timeSignature": "4/4",
  "orgMsPerTick": 94,
  "loop": {
    "enabled": true,
    "startMeasure": 12,
    "endMeasure": 44
  },
  "notes": [
    {
      "pitch": 77,
      "measure": 0,
      "beat": 0,
      "duration": 2,
      "velocity": 100,
      "pan": 0,
      "instrument": "ORG_M92",
      "pipi": 0,
      "volumeAutomation": [
        {
          "tick": 1,
          "volume": 76
        }
      ],
      "panAutomation": []
    },
    {
      "pitch": 77,
      "measure": 0,
      "beat": 2,
      "duration": 2,
      "velocity": 100,
      "pan": 0,
      "instrument": "ORG_M92",
      "pipi": 0,
      "volumeAutomation": [],
      "panAutomation": []
    },
    {
      "pitch": 65,
      "measure": 1,
      "beat": 14,
      "duration": 1,
      "velocity": 100,
      "pan": 0,
      "instrument": "ORG_M92",
      "pipi": 0,
      "volumeAutomation": [],
      "panAutomation": []
    },
    {
      "pitch": 65,
      "measure": 1,
      "beat": 15,
      "duration": 1,
      "velocity": 100,
      "pan": 0,
      "instrument": "ORG_M92",
      "pipi": 0,
      "volumeAutomation": [],
      "panAutomation": []
    },
    {
      "pitch": 73,
      "measure": 2,
      "beat": 0,
      "duration": 2,
      "velocity": 100,
      "pan": 0,
      "instrument": "ORG_M92",
      "pipi": 0,
      "volumeAutomation": [
        {
          "tick": 1,
          "volume": 76
        }
      ],
      "panAutomation": []
    },
    {
      "pitch": 73,
      "measure": 2,
      "beat": 2,
      "duration": 2,
      "velocity": 100,
      "pan": 0,
      "instrument": "ORG_M92",
      "pipi": 0,
      "volumeAutomation": [],
      "panAutomation": []
    },
    {
      "pitch": 62,
      "measure": 3,
      "beat": 14,
      "duration": 1,
      "velocity": 100,
      "pan": 0,
      "instrument": "ORG_M92",
      "pipi": 0,
      "volumeAutomation": [],
      "panAutomation": []
    },
    {
      "pitch": 62,
      "measure": 3,
      "beat": 15,
      "duration": 1,
      "velocity": 100,
      "pan": 0,
      "instrument": "ORG_M92",
      "pipi": 0,
      "volumeAutomation": [],
      "panAutomation": []
    },
    {
      "pitch": 69,
      "measure": 4,
      "beat": 0,
      "duration": 2,
      "velocity": 100,
      "pan": 0,
      "instrument": "ORG_M92",
      "pipi": 0,
      "volumeAutomation": [
        {
          "tick": 1,
          "volume": 76
        }
      ],
      "panAutomation": []
    },
    {
      "pitch": 69,
      "measure": 4,
      "beat": 2,
      "duration": 2,
      "velocity": 100,
      "pan": 0,
      "instrument": "ORG_M92",
      "pipi": 0,
      "volumeAutomation": [],
      "panAutomation": []
    },
    {
      "pitch": 58,
      "measure": 5,
      "beat": 14,
      "duration": 1,
      "velocity": 100,
      "pan": 0,
      "instrument": "ORG_M92",
      "pipi": 0,
      "volumeAutomation": [],
      "panAutomation": []
    },
    {
      "pitch": 58,
      "measure": 5,
      "beat": 15,
      "duration": 1,
      "velocity": 100,
      "pan": 0,
      "instrument": "ORG_M92",
      "pipi": 0,
      "volumeAutomation": [],
      "panAutomation": []
    },
    {
      "pitch": 65,
      "measure": 6,
      "beat": 0,
      "duration": 2,
      "velocity": 100,
      "pan": 0,
      "instrument": "ORG_M92",
      "pipi": 0,
      "volumeAutomation": [
        {
          "tick": 1,
          "volume": 76
        }
      ],
      "panAutomation": []
    },
    {
      "pitch": 65,
      "measure": 6,
      "beat": 2,
      "duration": 2,
      "velocity": 100,
      "pan": 0,
      "instrument": "ORG_M92",
      "pipi": 0,
      "volumeAutomation": [],
      "panAutomation": []
    },
    {
      "pitch": 54,
      "measure": 7,
      "beat": 14,
      "duration": 1,
      "velocity": 100,
      "pan": 0,
      "instrument": "ORG_M92",
      "pipi": 0,
      "volumeAutomation": [],
      "panAutomation": []
    },
    {
      "pitch": 54,
      "measure": 7,
      "beat": 15,
      "duration": 1,
      "velocity": 100,
      "pan": 0,
      "instrument": "ORG_M92",
      "pipi": 0,
      "volumeAutomation": [],
      "panAutomation": []
    },
    {
      "pitch": 62,
      "measure": 8,
      "beat": 0,
      "duration": 2,
      "velocity": 100,
      "pan": 0,
      "instrument": "ORG_M92",
      "pipi": 0,
      "volumeAutomation": [
        {
          "tick": 1,
          "volume": 76
        }
      ],
      "panAutomation": []
    },
    {
      "pitch": 62,
      "measure": 8,
      "beat": 2,
      "duration": 2,
      "velocity": 100,
      "pan": 0,
      "instrument": "ORG_M92",
      "pipi": 0,
      "volumeAutomation": [],
      "panAutomation": []
    },
    {
      "pitch": 62,
      "measure": 9,
      "beat": 14,
      "duration": 1,
      "velocity": 100,
      "pan": 0,
      "instrument": "ORG_M92",
      "pipi": 0,
      "volumeAutomation": [],
      "panAutomation": []
    },
    {
      "pitch": 62,
      "measure": 9,
      "beat": 15,
      "duration": 1,
      "velocity": 100,
      "pan": 0,
      "instrument": "ORG_M92",
      "pipi": 0,
      "volumeAutomation": [],
      "panAutomation": []
    },
    {
      "pitch": 69,
      "measure": 10,
      "beat": 0,
      "duration": 2,
      "velocity": 100,
      "pan": 0,
      "instrument": "ORG_M92",
      "pipi": 0,
      "volumeAutomation": [
        {
          "tick": 1,
          "volume": 76
        }
      ],
      "panAutomation": []
    },
    {
      "pitch": 69,
      "measure": 10,
      "beat": 2,
      "duration": 2,
      "velocity": 100,
      "pan": 0,
      "instrument": "ORG_M92",
      "pipi": 0,
      "volumeAutomation": [],
      "panAutomation": []
    },
    {
      "pitch": 69,
      "measure": 11,
      "beat": 14,
      "duration": 1,
      "velocity": 100,
      "pan": 0,
      "instrument": "ORG_M92",
      "pipi": 0,
      "volumeAutomation": [],
      "panAutomation": []
    },
    {
      "pitch": 69,
      "measure": 11,
      "beat": 15,
      "duration": 1,
      "velocity": 100,
      "pan": 0,
      "instrument": "ORG_M92",
      "pipi": 0,
      "volumeAutomation": [],
      "panAutomation": []
    },
    {
      "pitch": 77,
      "measure": 12,
      "beat": 0,
      "duration": 2,
      "velocity": 100,
      "pan": 0,
      "instrument": "ORG_M92",
      "pipi": 0,
      "volumeAutomation": [
        {
          "tick": 1,
          "volume": 76
        }
      ],
      "panAutomation": []
    },
    {
      "pitch": 77,
      "measure": 12,
      "beat": 2,
      "duration": 2,
      "velocity": 100,
      "pan": 0,
      "instrument": "ORG_M92",
      "pipi": 0,
      "volumeAutomation": [],
      "panAutomation": []
    },
    {
      "pitch": 65,
      "measure": 13,
      "beat": 14,
      "duration": 1,
      "velocity": 100,
      "pan": 0,
      "instrument": "ORG_M92",
      "pipi": 0,
      "volumeAutomation": [],
      "panAutomation": []
    },
    {
      "pitch": 65,
      "measure": 13,
      "beat": 15,
      "duration": 1,
      "velocity": 100,
      "pan": 0,
      "instrument": "ORG_M92",
      "pipi": 0,
      "volumeAutomation": [],
      "panAutomation": []
    },
    {
      "pitch": 73,
      "measure": 14,
      "beat": 0,
      "duration": 2,
      "velocity": 100,
      "pan": 0,
      "instrument": "ORG_M92",
      "pipi": 0,
      "volumeAutomation": [
        {
          "tick": 1,
          "volume": 76
        }
      ],
      "panAutomation": []
    },
    {
      "pitch": 73,
      "measure": 14,
      "beat": 2,
      "duration": 2,
      "velocity": 100,
      "pan": 0,
      "instrument": "ORG_M92",
      "pipi": 0,
      "volumeAutomation": [],
      "panAutomation": []
    },
    {
      "pitch": 62,
      "measure": 15,
      "beat": 14,
      "duration": 1,
      "velocity": 100,
      "pan": 0,
      "instrument": "ORG_M92",
      "pipi": 0,
      "volumeAutomation": [],
      "panAutomation": []
    },
    {
      "pitch": 62,
      "measure": 15,
      "beat": 15,
      "duration": 1,
      "velocity": 100,
      "pan": 0,
      "instrument": "ORG_M92",
      "pipi": 0,
      "volumeAutomation": [],
      "panAutomation": []
    },
    {
      "pitch": 69,
      "measure": 16,
      "beat": 0,
      "duration": 2,
      "velocity": 100,
      "pan": 0,
      "instrument": "ORG_M92",
      "pipi": 0,
      "volumeAutomation": [
        {
          "tick": 1,
          "volume": 76
        }
      ],
      "panAutomation": []
    },
    {
      "pitch": 69,
      "measure": 16,
      "beat": 2,
      "duration": 2,
      "velocity": 100,
      "pan": 0,
      "instrument": "ORG_M92",
      "pipi": 0,
      "volumeAutomation": [],
      "panAutomation": []
    },
    {
      "pitch": 58,
      "measure": 17,
      "beat": 14,
      "duration": 1,
      "velocity": 100,
      "pan": 0,
      "instrument": "ORG_M92",
      "pipi": 0,
      "volumeAutomation": [],
      "panAutomation": []
    },
    {
      "pitch": 58,
      "measure": 17,
      "beat": 15,
      "duration": 1,
      "velocity": 100,
      "pan": 0,
      "instrument": "ORG_M92",
      "pipi": 0,
      "volumeAutomation": [],
      "panAutomation": []
    },
    {
      "pitch": 65,
      "measure": 18,
      "beat": 0,
      "duration": 2,
      "velocity": 100,
      "pan": 0,
      "instrument": "ORG_M92",
      "pipi": 0,
      "volumeAutomation": [
        {
          "tick": 1,
          "volume": 76
        }
      ],
      "panAutomation": []
    },
    {
      "pitch": 65,
      "measure": 18,
      "beat": 2,
      "duration": 2,
      "velocity": 100,
      "pan": 0,
      "instrument": "ORG_M92",
      "pipi": 0,
      "volumeAutomation": [],
      "panAutomation": []
    },
    {
      "pitch": 54,
      "measure": 19,
      "beat": 14,
      "duration": 1,
      "velocity": 100,
      "pan": 0,
      "instrument": "ORG_M92",
      "pipi": 0,
      "volumeAutomation": [],
      "panAutomation": []
    },
    {
      "pitch": 54,
      "measure": 19,
      "beat": 15,
      "duration": 1,
      "velocity": 100,
      "pan": 0,
      "instrument": "ORG_M92",
      "pipi": 0,
      "volumeAutomation": [],
      "panAutomation": []
    },
    {
      "pitch": 62,
      "measure": 20,
      "beat": 0,
      "duration": 2,
      "velocity": 100,
      "pan": 0,
      "instrument": "ORG_M92",
      "pipi": 0,
      "volumeAutomation": [
        {
          "tick": 1,
          "volume": 76
        }
      ],
      "panAutomation": []
    },
    {
      "pitch": 62,
      "measure": 20,
      "beat": 2,
      "duration": 2,
      "velocity": 100,
      "pan": 0,
      "instrument": "ORG_M92",
      "pipi": 0,
      "volumeAutomation": [],
      "panAutomation": []
    },
    {
      "pitch": 62,
      "measure": 21,
      "beat": 14,
      "duration": 1,
      "velocity": 100,
      "pan": 0,
      "instrument": "ORG_M92",
      "pipi": 0,
      "volumeAutomation": [],
      "panAutomation": []
    },
    {
      "pitch": 62,
      "measure": 21,
      "beat": 15,
      "duration": 1,
      "velocity": 100,
      "pan": 0,
      "instrument": "ORG_M92",
      "pipi": 0,
      "volumeAutomation": [],
      "panAutomation": []
    },
    {
      "pitch": 69,
      "measure": 22,
      "beat": 0,
      "duration": 2,
      "velocity": 100,
      "pan": 0,
      "instrument": "ORG_M92",
      "pipi": 0,
      "volumeAutomation": [
        {
          "tick": 1,
          "volume": 76
        }
      ],
      "panAutomation": []
    },
    {
      "pitch": 69,
      "measure": 22,
      "beat": 2,
      "duration": 2,
      "velocity": 100,
      "pan": 0,
      "instrument": "ORG_M92",
      "pipi": 0,
      "volumeAutomation": [],
      "panAutomation": []
    },
    {
      "pitch": 69,
      "measure": 23,
      "beat": 14,
      "duration": 1,
      "velocity": 100,
      "pan": 0,
      "instrument": "ORG_M92",
      "pipi": 0,
      "volumeAutomation": [],
      "panAutomation": []
    },
    {
      "pitch": 69,
      "measure": 23,
      "beat": 15,
      "duration": 1,
      "velocity": 100,
      "pan": 0,
      "instrument": "ORG_M92",
      "pipi": 0,
      "volumeAutomation": [],
      "panAutomation": []
    },
    {
      "pitch": 77,
      "measure": 24,
      "beat": 0,
      "duration": 2,
      "velocity": 100,
      "pan": 0,
      "instrument": "ORG_M92",
      "pipi": 0,
      "volumeAutomation": [
        {
          "tick": 1,
          "volume": 76
        }
      ],
      "panAutomation": []
    },
    {
      "pitch": 77,
      "measure": 24,
      "beat": 2,
      "duration": 2,
      "velocity": 100,
      "pan": 0,
      "instrument": "ORG_M92",
      "pipi": 0,
      "volumeAutomation": [],
      "panAutomation": []
    },
    {
      "pitch": 69,
      "measure": 25,
      "beat": 14,
      "duration": 1,
      "velocity": 100,
      "pan": 0,
      "instrument": "ORG_M92",
      "pipi": 0,
      "volumeAutomation": [],
      "panAutomation": []
    },
    {
      "pitch": 69,
      "measure": 25,
      "beat": 15,
      "duration": 1,
      "velocity": 100,
      "pan": 0,
      "instrument": "ORG_M92",
      "pipi": 0,
      "volumeAutomation": [],
      "panAutomation": []
    },
    {
      "pitch": 77,
      "measure": 26,
      "beat": 0,
      "duration": 2,
      "velocity": 100,
      "pan": 0,
      "instrument": "ORG_M92",
      "pipi": 0,
      "volumeAutomation": [
        {
          "tick": 1,
          "volume": 76
        }
      ],
      "panAutomation": []
    },
    {
      "pitch": 77,
      "measure": 26,
      "beat": 2,
      "duration": 2,
      "velocity": 100,
      "pan": 0,
      "instrument": "ORG_M92",
      "pipi": 0,
      "volumeAutomation": [],
      "panAutomation": []
    },
    {
      "pitch": 69,
      "measure": 27,
      "beat": 14,
      "duration": 1,
      "velocity": 100,
      "pan": 0,
      "instrument": "ORG_M92",
      "pipi": 0,
      "volumeAutomation": [],
      "panAutomation": []
    },
    {
      "pitch": 69,
      "measure": 27,
      "beat": 15,
      "duration": 1,
      "velocity": 100,
      "pan": 0,
      "instrument": "ORG_M92",
      "pipi": 0,
      "volumeAutomation": [],
      "panAutomation": []
    },
    {
      "pitch": 62,
      "measure": 28,
      "beat": 0,
      "duration": 3,
      "velocity": 100,
      "pan": 0,
      "instrument": "ORG_M92",
      "pipi": 0,
      "volumeAutomation": [
        {
          "tick": 2,
          "volume": 60
        }
      ],
      "panAutomation": []
    },
    {
      "pitch": 62,
      "measure": 28,
      "beat": 3,
      "duration": 3,
      "velocity": 100,
      "pan": 0,
      "instrument": "ORG_M92",
      "pipi": 0,
      "volumeAutomation": [
        {
          "tick": 2,
          "volume": 60
        }
      ],
      "panAutomation": []
    },
    {
      "pitch": 62,
      "measure": 28,
      "beat": 6,
      "duration": 2,
      "velocity": 100,
      "pan": 0,
      "instrument": "ORG_M92",
      "pipi": 0,
      "volumeAutomation": [
        {
          "tick": 1,
          "volume": 60
        }
      ],
      "panAutomation": []
    },
    {
      "pitch": 62,
      "measure": 28,
      "beat": 8,
      "duration": 1,
      "velocity": 100,
      "pan": 0,
      "instrument": "ORG_M92",
      "pipi": 0,
      "volumeAutomation": [],
      "panAutomation": []
    },
    {
      "pitch": 43,
      "measure": 28,
      "beat": 10,
      "duration": 1,
      "velocity": 100,
      "pan": 0,
      "instrument": "ORG_M92",
      "pipi": 0,
      "volumeAutomation": [],
      "panAutomation": []
    },
    {
      "pitch": 62,
      "measure": 28,
      "beat": 12,
      "duration": 1,
      "velocity": 100,
      "pan": 0,
      "instrument": "ORG_M92",
      "pipi": 0,
      "volumeAutomation": [],
      "panAutomation": []
    },
    {
      "pitch": 43,
      "measure": 28,
      "beat": 14,
      "duration": 1,
      "velocity": 100,
      "pan": 0,
      "instrument": "ORG_M92",
      "pipi": 0,
      "volumeAutomation": [],
      "panAutomation": []
    },
    {
      "pitch": 62,
      "measure": 29,
      "beat": 0,
      "duration": 3,
      "velocity": 100,
      "pan": 0,
      "instrument": "ORG_M92",
      "pipi": 0,
      "volumeAutomation": [
        {
          "tick": 2,
          "volume": 60
        }
      ],
      "panAutomation": []
    },
    {
      "pitch": 62,
      "measure": 29,
      "beat": 3,
      "duration": 3,
      "velocity": 100,
      "pan": 0,
      "instrument": "ORG_M92",
      "pipi": 0,
      "volumeAutomation": [
        {
          "tick": 2,
          "volume": 60
        }
      ],
      "panAutomation": []
    },
    {
      "pitch": 62,
      "measure": 29,
      "beat": 6,
      "duration": 2,
      "velocity": 100,
      "pan": 0,
      "instrument": "ORG_M92",
      "pipi": 0,
      "volumeAutomation": [
        {
          "tick": 1,
          "volume": 60
        }
      ],
      "panAutomation": []
    },
    {
      "pitch": 62,
      "measure": 29,
      "beat": 8,
      "duration": 1,
      "velocity": 100,
      "pan": 0,
      "instrument": "ORG_M92",
      "pipi": 0,
      "volumeAutomation": [],
      "panAutomation": []
    },
    {
      "pitch": 43,
      "measure": 29,
      "beat": 10,
      "duration": 1,
      "velocity": 100,
      "pan": 0,
      "instrument": "ORG_M92",
      "pipi": 0,
      "volumeAutomation": [],
      "panAutomation": []
    },
    {
      "pitch": 62,
      "measure": 29,
      "beat": 12,
      "duration": 1,
      "velocity": 100,
      "pan": 0,
      "instrument": "ORG_M92",
      "pipi": 0,
      "volumeAutomation": [],
      "panAutomation": []
    },
    {
      "pitch": 43,
      "measure": 29,
      "beat": 14,
      "duration": 1,
      "velocity": 100,
      "pan": 0,
      "instrument": "ORG_M92",
      "pipi": 0,
      "volumeAutomation": [],
      "panAutomation": []
    },
    {
      "pitch": 69,
      "measure": 30,
      "beat": 0,
      "duration": 3,
      "velocity": 100,
      "pan": 0,
      "instrument": "ORG_M92",
      "pipi": 0,
      "volumeAutomation": [
        {
          "tick": 2,
          "volume": 60
        }
      ],
      "panAutomation": []
    },
    {
      "pitch": 69,
      "measure": 30,
      "beat": 3,
      "duration": 3,
      "velocity": 100,
      "pan": 0,
      "instrument": "ORG_M92",
      "pipi": 0,
      "volumeAutomation": [
        {
          "tick": 2,
          "volume": 60
        }
      ],
      "panAutomation": []
    },
    {
      "pitch": 69,
      "measure": 30,
      "beat": 6,
      "duration": 2,
      "velocity": 100,
      "pan": 0,
      "instrument": "ORG_M92",
      "pipi": 0,
      "volumeAutomation": [
        {
          "tick": 1,
          "volume": 60
        }
      ],
      "panAutomation": []
    },
    {
      "pitch": 69,
      "measure": 30,
      "beat": 8,
      "duration": 1,
      "velocity": 100,
      "pan": 0,
      "instrument": "ORG_M92",
      "pipi": 0,
      "volumeAutomation": [],
      "panAutomation": []
    },
    {
      "pitch": 50,
      "measure": 30,
      "beat": 10,
      "duration": 1,
      "velocity": 100,
      "pan": 0,
      "instrument": "ORG_M92",
      "pipi": 0,
      "volumeAutomation": [],
      "panAutomation": []
    },
    {
      "pitch": 69,
      "measure": 30,
      "beat": 12,
      "duration": 1,
      "velocity": 100,
      "pan": 0,
      "instrument": "ORG_M92",
      "pipi": 0,
      "volumeAutomation": [],
      "panAutomation": []
    },
    {
      "pitch": 50,
      "measure": 30,
      "beat": 14,
      "duration": 1,
      "velocity": 100,
      "pan": 0,
      "instrument": "ORG_M92",
      "pipi": 0,
      "volumeAutomation": [],
      "panAutomation": []
    },
    {
      "pitch": 69,
      "measure": 31,
      "beat": 0,
      "duration": 3,
      "velocity": 100,
      "pan": 0,
      "instrument": "ORG_M92",
      "pipi": 0,
      "volumeAutomation": [
        {
          "tick": 2,
          "volume": 60
        }
      ],
      "panAutomation": []
    },
    {
      "pitch": 69,
      "measure": 31,
      "beat": 3,
      "duration": 3,
      "velocity": 100,
      "pan": 0,
      "instrument": "ORG_M92",
      "pipi": 0,
      "volumeAutomation": [
        {
          "tick": 2,
          "volume": 60
        }
      ],
      "panAutomation": []
    },
    {
      "pitch": 69,
      "measure": 31,
      "beat": 6,
      "duration": 2,
      "velocity": 100,
      "pan": 0,
      "instrument": "ORG_M92",
      "pipi": 0,
      "volumeAutomation": [
        {
          "tick": 1,
          "volume": 60
        }
      ],
      "panAutomation": []
    },
    {
      "pitch": 69,
      "measure": 31,
      "beat": 8,
      "duration": 1,
      "velocity": 100,
      "pan": 0,
      "instrument": "ORG_M92",
      "pipi": 0,
      "volumeAutomation": [],
      "panAutomation": []
    },
    {
      "pitch": 81,
      "measure": 31,
      "beat": 10,
      "duration": 1,
      "velocity": 100,
      "pan": 0,
      "instrument": "ORG_M92",
      "pipi": 0,
      "volumeAutomation": [],
      "panAutomation": []
    },
    {
      "pitch": 77,
      "measure": 31,
      "beat": 12,
      "duration": 1,
      "velocity": 100,
      "pan": 0,
      "instrument": "ORG_M92",
      "pipi": 0,
      "volumeAutomation": [],
      "panAutomation": []
    },
    {
      "pitch": 69,
      "measure": 31,
      "beat": 14,
      "duration": 1,
      "velocity": 100,
      "pan": 0,
      "instrument": "ORG_M92",
      "pipi": 0,
      "volumeAutomation": [],
      "panAutomation": []
    },
    {
      "pitch": 62,
      "measure": 32,
      "beat": 0,
      "duration": 3,
      "velocity": 100,
      "pan": 0,
      "instrument": "ORG_M92",
      "pipi": 0,
      "volumeAutomation": [
        {
          "tick": 2,
          "volume": 60
        }
      ],
      "panAutomation": []
    },
    {
      "pitch": 62,
      "measure": 32,
      "beat": 3,
      "duration": 3,
      "velocity": 100,
      "pan": 0,
      "instrument": "ORG_M92",
      "pipi": 0,
      "volumeAutomation": [
        {
          "tick": 2,
          "volume": 60
        }
      ],
      "panAutomation": []
    },
    {
      "pitch": 62,
      "measure": 32,
      "beat": 6,
      "duration": 2,
      "velocity": 100,
      "pan": 0,
      "instrument": "ORG_M92",
      "pipi": 0,
      "volumeAutomation": [
        {
          "tick": 1,
          "volume": 60
        }
      ],
      "panAutomation": []
    },
    {
      "pitch": 62,
      "measure": 32,
      "beat": 8,
      "duration": 1,
      "velocity": 100,
      "pan": 0,
      "instrument": "ORG_M92",
      "pipi": 0,
      "volumeAutomation": [],
      "panAutomation": []
    },
    {
      "pitch": 43,
      "measure": 32,
      "beat": 10,
      "duration": 1,
      "velocity": 100,
      "pan": 0,
      "instrument": "ORG_M92",
      "pipi": 0,
      "volumeAutomation": [],
      "panAutomation": []
    },
    {
      "pitch": 62,
      "measure": 32,
      "beat": 12,
      "duration": 1,
      "velocity": 100,
      "pan": 0,
      "instrument": "ORG_M92",
      "pipi": 0,
      "volumeAutomation": [],
      "panAutomation": []
    },
    {
      "pitch": 43,
      "measure": 32,
      "beat": 14,
      "duration": 1,
      "velocity": 100,
      "pan": 0,
      "instrument": "ORG_M92",
      "pipi": 0,
      "volumeAutomation": [],
      "panAutomation": []
    },
    {
      "pitch": 62,
      "measure": 33,
      "beat": 0,
      "duration": 3,
      "velocity": 100,
      "pan": 0,
      "instrument": "ORG_M92",
      "pipi": 0,
      "volumeAutomation": [
        {
          "tick": 2,
          "volume": 60
        }
      ],
      "panAutomation": []
    },
    {
      "pitch": 62,
      "measure": 33,
      "beat": 3,
      "duration": 3,
      "velocity": 100,
      "pan": 0,
      "instrument": "ORG_M92",
      "pipi": 0,
      "volumeAutomation": [
        {
          "tick": 2,
          "volume": 60
        }
      ],
      "panAutomation": []
    },
    {
      "pitch": 62,
      "measure": 33,
      "beat": 6,
      "duration": 2,
      "velocity": 100,
      "pan": 0,
      "instrument": "ORG_M92",
      "pipi": 0,
      "volumeAutomation": [
        {
          "tick": 1,
          "volume": 60
        }
      ],
      "panAutomation": []
    },
    {
      "pitch": 62,
      "measure": 33,
      "beat": 8,
      "duration": 1,
      "velocity": 100,
      "pan": 0,
      "instrument": "ORG_M92",
      "pipi": 0,
      "volumeAutomation": [],
      "panAutomation": []
    },
    {
      "pitch": 43,
      "measure": 33,
      "beat": 10,
      "duration": 1,
      "velocity": 100,
      "pan": 0,
      "instrument": "ORG_M92",
      "pipi": 0,
      "volumeAutomation": [],
      "panAutomation": []
    },
    {
      "pitch": 62,
      "measure": 33,
      "beat": 12,
      "duration": 1,
      "velocity": 100,
      "pan": 0,
      "instrument": "ORG_M92",
      "pipi": 0,
      "volumeAutomation": [],
      "panAutomation": []
    },
    {
      "pitch": 43,
      "measure": 33,
      "beat": 14,
      "duration": 1,
      "velocity": 100,
      "pan": 0,
      "instrument": "ORG_M92",
      "pipi": 0,
      "volumeAutomation": [],
      "panAutomation": []
    },
    {
      "pitch": 69,
      "measure": 34,
      "beat": 0,
      "duration": 3,
      "velocity": 100,
      "pan": 0,
      "instrument": "ORG_M92",
      "pipi": 0,
      "volumeAutomation": [
        {
          "tick": 2,
          "volume": 60
        }
      ],
      "panAutomation": []
    },
    {
      "pitch": 69,
      "measure": 34,
      "beat": 3,
      "duration": 3,
      "velocity": 100,
      "pan": 0,
      "instrument": "ORG_M92",
      "pipi": 0,
      "volumeAutomation": [
        {
          "tick": 2,
          "volume": 60
        }
      ],
      "panAutomation": []
    },
    {
      "pitch": 69,
      "measure": 34,
      "beat": 6,
      "duration": 2,
      "velocity": 100,
      "pan": 0,
      "instrument": "ORG_M92",
      "pipi": 0,
      "volumeAutomation": [
        {
          "tick": 1,
          "volume": 60
        }
      ],
      "panAutomation": []
    },
    {
      "pitch": 69,
      "measure": 34,
      "beat": 8,
      "duration": 1,
      "velocity": 100,
      "pan": 0,
      "instrument": "ORG_M92",
      "pipi": 0,
      "volumeAutomation": [],
      "panAutomation": []
    },
    {
      "pitch": 50,
      "measure": 34,
      "beat": 10,
      "duration": 1,
      "velocity": 100,
      "pan": 0,
      "instrument": "ORG_M92",
      "pipi": 0,
      "volumeAutomation": [],
      "panAutomation": []
    },
    {
      "pitch": 69,
      "measure": 34,
      "beat": 12,
      "duration": 1,
      "velocity": 100,
      "pan": 0,
      "instrument": "ORG_M92",
      "pipi": 0,
      "volumeAutomation": [],
      "panAutomation": []
    },
    {
      "pitch": 50,
      "measure": 34,
      "beat": 14,
      "duration": 1,
      "velocity": 100,
      "pan": 0,
      "instrument": "ORG_M92",
      "pipi": 0,
      "volumeAutomation": [],
      "panAutomation": []
    },
    {
      "pitch": 69,
      "measure": 35,
      "beat": 0,
      "duration": 3,
      "velocity": 100,
      "pan": 0,
      "instrument": "ORG_M92",
      "pipi": 0,
      "volumeAutomation": [
        {
          "tick": 2,
          "volume": 60
        }
      ],
      "panAutomation": []
    },
    {
      "pitch": 69,
      "measure": 35,
      "beat": 3,
      "duration": 3,
      "velocity": 100,
      "pan": 0,
      "instrument": "ORG_M92",
      "pipi": 0,
      "volumeAutomation": [
        {
          "tick": 2,
          "volume": 60
        }
      ],
      "panAutomation": []
    },
    {
      "pitch": 69,
      "measure": 35,
      "beat": 6,
      "duration": 2,
      "velocity": 100,
      "pan": 0,
      "instrument": "ORG_M92",
      "pipi": 0,
      "volumeAutomation": [
        {
          "tick": 1,
          "volume": 60
        }
      ],
      "panAutomation": []
    },
    {
      "pitch": 69,
      "measure": 35,
      "beat": 8,
      "duration": 4,
      "velocity": 100,
      "pan": 0,
      "instrument": "ORG_M92",
      "pipi": 0,
      "volumeAutomation": [
        {
          "tick": 3,
          "volume": 60
        }
      ],
      "panAutomation": []
    },
    {
      "pitch": 69,
      "measure": 35,
      "beat": 12,
      "duration": 4,
      "velocity": 100,
      "pan": 0,
      "instrument": "ORG_M92",
      "pipi": 0,
      "volumeAutomation": [
        {
          "tick": 3,
          "volume": 60
        }
      ],
      "panAutomation": []
    },
    {
      "pitch": 62,
      "measure": 36,
      "beat": 0,
      "duration": 3,
      "velocity": 100,
      "pan": 0,
      "instrument": "ORG_M92",
      "pipi": 0,
      "volumeAutomation": [
        {
          "tick": 2,
          "volume": 60
        }
      ],
      "panAutomation": []
    },
    {
      "pitch": 62,
      "measure": 36,
      "beat": 3,
      "duration": 3,
      "velocity": 100,
      "pan": 0,
      "instrument": "ORG_M92",
      "pipi": 0,
      "volumeAutomation": [
        {
          "tick": 2,
          "volume": 60
        }
      ],
      "panAutomation": []
    },
    {
      "pitch": 62,
      "measure": 36,
      "beat": 6,
      "duration": 2,
      "velocity": 100,
      "pan": 0,
      "instrument": "ORG_M92",
      "pipi": 0,
      "volumeAutomation": [
        {
          "tick": 1,
          "volume": 60
        }
      ],
      "panAutomation": []
    },
    {
      "pitch": 62,
      "measure": 36,
      "beat": 8,
      "duration": 1,
      "velocity": 100,
      "pan": 0,
      "instrument": "ORG_M92",
      "pipi": 0,
      "volumeAutomation": [],
      "panAutomation": []
    },
    {
      "pitch": 43,
      "measure": 36,
      "beat": 10,
      "duration": 1,
      "velocity": 100,
      "pan": 0,
      "instrument": "ORG_M92",
      "pipi": 0,
      "volumeAutomation": [],
      "panAutomation": []
    },
    {
      "pitch": 62,
      "measure": 36,
      "beat": 12,
      "duration": 1,
      "velocity": 100,
      "pan": 0,
      "instrument": "ORG_M92",
      "pipi": 0,
      "volumeAutomation": [],
      "panAutomation": []
    },
    {
      "pitch": 43,
      "measure": 36,
      "beat": 14,
      "duration": 1,
      "velocity": 100,
      "pan": 0,
      "instrument": "ORG_M92",
      "pipi": 0,
      "volumeAutomation": [],
      "panAutomation": []
    },
    {
      "pitch": 62,
      "measure": 37,
      "beat": 0,
      "duration": 3,
      "velocity": 100,
      "pan": 0,
      "instrument": "ORG_M92",
      "pipi": 0,
      "volumeAutomation": [
        {
          "tick": 2,
          "volume": 60
        }
      ],
      "panAutomation": []
    },
    {
      "pitch": 62,
      "measure": 37,
      "beat": 3,
      "duration": 3,
      "velocity": 100,
      "pan": 0,
      "instrument": "ORG_M92",
      "pipi": 0,
      "volumeAutomation": [
        {
          "tick": 2,
          "volume": 60
        }
      ],
      "panAutomation": []
    },
    {
      "pitch": 62,
      "measure": 37,
      "beat": 6,
      "duration": 2,
      "velocity": 100,
      "pan": 0,
      "instrument": "ORG_M92",
      "pipi": 0,
      "volumeAutomation": [
        {
          "tick": 1,
          "volume": 60
        }
      ],
      "panAutomation": []
    },
    {
      "pitch": 62,
      "measure": 37,
      "beat": 8,
      "duration": 1,
      "velocity": 100,
      "pan": 0,
      "instrument": "ORG_M92",
      "pipi": 0,
      "volumeAutomation": [],
      "panAutomation": []
    },
    {
      "pitch": 43,
      "measure": 37,
      "beat": 10,
      "duration": 1,
      "velocity": 100,
      "pan": 0,
      "instrument": "ORG_M92",
      "pipi": 0,
      "volumeAutomation": [],
      "panAutomation": []
    },
    {
      "pitch": 62,
      "measure": 37,
      "beat": 12,
      "duration": 1,
      "velocity": 100,
      "pan": 0,
      "instrument": "ORG_M92",
      "pipi": 0,
      "volumeAutomation": [],
      "panAutomation": []
    },
    {
      "pitch": 43,
      "measure": 37,
      "beat": 14,
      "duration": 1,
      "velocity": 100,
      "pan": 0,
      "instrument": "ORG_M92",
      "pipi": 0,
      "volumeAutomation": [],
      "panAutomation": []
    },
    {
      "pitch": 69,
      "measure": 38,
      "beat": 0,
      "duration": 3,
      "velocity": 100,
      "pan": 0,
      "instrument": "ORG_M92",
      "pipi": 0,
      "volumeAutomation": [
        {
          "tick": 2,
          "volume": 60
        }
      ],
      "panAutomation": []
    },
    {
      "pitch": 69,
      "measure": 38,
      "beat": 3,
      "duration": 3,
      "velocity": 100,
      "pan": 0,
      "instrument": "ORG_M92",
      "pipi": 0,
      "volumeAutomation": [
        {
          "tick": 2,
          "volume": 60
        }
      ],
      "panAutomation": []
    },
    {
      "pitch": 69,
      "measure": 38,
      "beat": 6,
      "duration": 2,
      "velocity": 100,
      "pan": 0,
      "instrument": "ORG_M92",
      "pipi": 0,
      "volumeAutomation": [
        {
          "tick": 1,
          "volume": 60
        }
      ],
      "panAutomation": []
    },
    {
      "pitch": 69,
      "measure": 38,
      "beat": 8,
      "duration": 1,
      "velocity": 100,
      "pan": 0,
      "instrument": "ORG_M92",
      "pipi": 0,
      "volumeAutomation": [],
      "panAutomation": []
    },
    {
      "pitch": 50,
      "measure": 38,
      "beat": 10,
      "duration": 1,
      "velocity": 100,
      "pan": 0,
      "instrument": "ORG_M92",
      "pipi": 0,
      "volumeAutomation": [],
      "panAutomation": []
    },
    {
      "pitch": 69,
      "measure": 38,
      "beat": 12,
      "duration": 1,
      "velocity": 100,
      "pan": 0,
      "instrument": "ORG_M92",
      "pipi": 0,
      "volumeAutomation": [],
      "panAutomation": []
    },
    {
      "pitch": 50,
      "measure": 38,
      "beat": 14,
      "duration": 1,
      "velocity": 100,
      "pan": 0,
      "instrument": "ORG_M92",
      "pipi": 0,
      "volumeAutomation": [],
      "panAutomation": []
    },
    {
      "pitch": 69,
      "measure": 39,
      "beat": 0,
      "duration": 3,
      "velocity": 100,
      "pan": 0,
      "instrument": "ORG_M92",
      "pipi": 0,
      "volumeAutomation": [
        {
          "tick": 2,
          "volume": 60
        }
      ],
      "panAutomation": []
    },
    {
      "pitch": 69,
      "measure": 39,
      "beat": 3,
      "duration": 3,
      "velocity": 100,
      "pan": 0,
      "instrument": "ORG_M92",
      "pipi": 0,
      "volumeAutomation": [
        {
          "tick": 2,
          "volume": 60
        }
      ],
      "panAutomation": []
    },
    {
      "pitch": 69,
      "measure": 39,
      "beat": 6,
      "duration": 2,
      "velocity": 100,
      "pan": 0,
      "instrument": "ORG_M92",
      "pipi": 0,
      "volumeAutomation": [
        {
          "tick": 1,
          "volume": 60
        }
      ],
      "panAutomation": []
    },
    {
      "pitch": 69,
      "measure": 39,
      "beat": 8,
      "duration": 1,
      "velocity": 100,
      "pan": 0,
      "instrument": "ORG_M92",
      "pipi": 0,
      "volumeAutomation": [],
      "panAutomation": []
    },
    {
      "pitch": 81,
      "measure": 39,
      "beat": 10,
      "duration": 1,
      "velocity": 100,
      "pan": 0,
      "instrument": "ORG_M92",
      "pipi": 0,
      "volumeAutomation": [],
      "panAutomation": []
    },
    {
      "pitch": 77,
      "measure": 39,
      "beat": 12,
      "duration": 1,
      "velocity": 100,
      "pan": 0,
      "instrument": "ORG_M92",
      "pipi": 0,
      "volumeAutomation": [],
      "panAutomation": []
    },
    {
      "pitch": 69,
      "measure": 39,
      "beat": 14,
      "duration": 1,
      "velocity": 100,
      "pan": 0,
      "instrument": "ORG_M92",
      "pipi": 0,
      "volumeAutomation": [],
      "panAutomation": []
    },
    {
      "pitch": 62,
      "measure": 40,
      "beat": 0,
      "duration": 3,
      "velocity": 100,
      "pan": 0,
      "instrument": "ORG_M92",
      "pipi": 0,
      "volumeAutomation": [
        {
          "tick": 2,
          "volume": 60
        }
      ],
      "panAutomation": []
    },
    {
      "pitch": 62,
      "measure": 40,
      "beat": 3,
      "duration": 3,
      "velocity": 100,
      "pan": 0,
      "instrument": "ORG_M92",
      "pipi": 0,
      "volumeAutomation": [
        {
          "tick": 2,
          "volume": 60
        }
      ],
      "panAutomation": []
    },
    {
      "pitch": 62,
      "measure": 40,
      "beat": 6,
      "duration": 2,
      "velocity": 100,
      "pan": 0,
      "instrument": "ORG_M92",
      "pipi": 0,
      "volumeAutomation": [
        {
          "tick": 1,
          "volume": 60
        }
      ],
      "panAutomation": []
    },
    {
      "pitch": 62,
      "measure": 40,
      "beat": 8,
      "duration": 1,
      "velocity": 100,
      "pan": 0,
      "instrument": "ORG_M92",
      "pipi": 0,
      "volumeAutomation": [],
      "panAutomation": []
    },
    {
      "pitch": 43,
      "measure": 40,
      "beat": 10,
      "duration": 1,
      "velocity": 100,
      "pan": 0,
      "instrument": "ORG_M92",
      "pipi": 0,
      "volumeAutomation": [],
      "panAutomation": []
    },
    {
      "pitch": 62,
      "measure": 40,
      "beat": 12,
      "duration": 1,
      "velocity": 100,
      "pan": 0,
      "instrument": "ORG_M92",
      "pipi": 0,
      "volumeAutomation": [],
      "panAutomation": []
    },
    {
      "pitch": 43,
      "measure": 40,
      "beat": 14,
      "duration": 1,
      "velocity": 100,
      "pan": 0,
      "instrument": "ORG_M92",
      "pipi": 0,
      "volumeAutomation": [],
      "panAutomation": []
    },
    {
      "pitch": 62,
      "measure": 41,
      "beat": 0,
      "duration": 3,
      "velocity": 100,
      "pan": 0,
      "instrument": "ORG_M92",
      "pipi": 0,
      "volumeAutomation": [
        {
          "tick": 2,
          "volume": 60
        }
      ],
      "panAutomation": []
    },
    {
      "pitch": 62,
      "measure": 41,
      "beat": 3,
      "duration": 3,
      "velocity": 100,
      "pan": 0,
      "instrument": "ORG_M92",
      "pipi": 0,
      "volumeAutomation": [
        {
          "tick": 2,
          "volume": 60
        }
      ],
      "panAutomation": []
    },
    {
      "pitch": 62,
      "measure": 41,
      "beat": 6,
      "duration": 2,
      "velocity": 100,
      "pan": 0,
      "instrument": "ORG_M92",
      "pipi": 0,
      "volumeAutomation": [
        {
          "tick": 1,
          "volume": 60
        }
      ],
      "panAutomation": []
    },
    {
      "pitch": 62,
      "measure": 41,
      "beat": 8,
      "duration": 1,
      "velocity": 100,
      "pan": 0,
      "instrument": "ORG_M92",
      "pipi": 0,
      "volumeAutomation": [],
      "panAutomation": []
    },
    {
      "pitch": 43,
      "measure": 41,
      "beat": 10,
      "duration": 1,
      "velocity": 100,
      "pan": 0,
      "instrument": "ORG_M92",
      "pipi": 0,
      "volumeAutomation": [],
      "panAutomation": []
    },
    {
      "pitch": 62,
      "measure": 41,
      "beat": 12,
      "duration": 1,
      "velocity": 100,
      "pan": 0,
      "instrument": "ORG_M92",
      "pipi": 0,
      "volumeAutomation": [],
      "panAutomation": []
    },
    {
      "pitch": 43,
      "measure": 41,
      "beat": 14,
      "duration": 1,
      "velocity": 100,
      "pan": 0,
      "instrument": "ORG_M92",
      "pipi": 0,
      "volumeAutomation": [],
      "panAutomation": []
    },
    {
      "pitch": 69,
      "measure": 42,
      "beat": 0,
      "duration": 3,
      "velocity": 100,
      "pan": 0,
      "instrument": "ORG_M92",
      "pipi": 0,
      "volumeAutomation": [
        {
          "tick": 2,
          "volume": 60
        }
      ],
      "panAutomation": []
    },
    {
      "pitch": 69,
      "measure": 42,
      "beat": 3,
      "duration": 3,
      "velocity": 100,
      "pan": 0,
      "instrument": "ORG_M92",
      "pipi": 0,
      "volumeAutomation": [
        {
          "tick": 2,
          "volume": 60
        }
      ],
      "panAutomation": []
    },
    {
      "pitch": 69,
      "measure": 42,
      "beat": 6,
      "duration": 2,
      "velocity": 100,
      "pan": 0,
      "instrument": "ORG_M92",
      "pipi": 0,
      "volumeAutomation": [
        {
          "tick": 1,
          "volume": 60
        }
      ],
      "panAutomation": []
    },
    {
      "pitch": 69,
      "measure": 42,
      "beat": 8,
      "duration": 1,
      "velocity": 100,
      "pan": 0,
      "instrument": "ORG_M92",
      "pipi": 0,
      "volumeAutomation": [],
      "panAutomation": []
    },
    {
      "pitch": 50,
      "measure": 42,
      "beat": 10,
      "duration": 1,
      "velocity": 100,
      "pan": 0,
      "instrument": "ORG_M92",
      "pipi": 0,
      "volumeAutomation": [],
      "panAutomation": []
    },
    {
      "pitch": 69,
      "measure": 42,
      "beat": 12,
      "duration": 1,
      "velocity": 100,
      "pan": 0,
      "instrument": "ORG_M92",
      "pipi": 0,
      "volumeAutomation": [],
      "panAutomation": []
    },
    {
      "pitch": 50,
      "measure": 42,
      "beat": 14,
      "duration": 1,
      "velocity": 100,
      "pan": 0,
      "instrument": "ORG_M92",
      "pipi": 0,
      "volumeAutomation": [],
      "panAutomation": []
    },
    {
      "pitch": 69,
      "measure": 43,
      "beat": 0,
      "duration": 3,
      "velocity": 100,
      "pan": 0,
      "instrument": "ORG_M92",
      "pipi": 0,
      "volumeAutomation": [
        {
          "tick": 2,
          "volume": 60
        }
      ],
      "panAutomation": []
    },
    {
      "pitch": 69,
      "measure": 43,
      "beat": 3,
      "duration": 3,
      "velocity": 100,
      "pan": 0,
      "instrument": "ORG_M92",
      "pipi": 0,
      "volumeAutomation": [
        {
          "tick": 2,
          "volume": 60
        }
      ],
      "panAutomation": []
    },
    {
      "pitch": 69,
      "measure": 43,
      "beat": 6,
      "duration": 2,
      "velocity": 100,
      "pan": 0,
      "instrument": "ORG_M92",
      "pipi": 0,
      "volumeAutomation": [
        {
          "tick": 1,
          "volume": 60
        }
      ],
      "panAutomation": []
    },
    {
      "pitch": 69,
      "measure": 43,
      "beat": 8,
      "duration": 4,
      "velocity": 100,
      "pan": 0,
      "instrument": "ORG_M92",
      "pipi": 0,
      "volumeAutomation": [
        {
          "tick": 3,
          "volume": 60
        }
      ],
      "panAutomation": []
    },
    {
      "pitch": 69,
      "measure": 43,
      "beat": 12,
      "duration": 4,
      "velocity": 100,
      "pan": 0,
      "instrument": "ORG_M92",
      "pipi": 0,
      "volumeAutomation": [
        {
          "tick": 3,
          "volume": 60
        }
      ],
      "panAutomation": []
    },
    {
      "pitch": 215,
      "measure": 32,
      "beat": 4,
      "duration": 1,
      "velocity": 100,
      "pan": 0,
      "instrument": "ORG_M99",
      "pipi": 0,
      "volumeAutomation": [],
      "panAutomation": []
    },
    {
      "pitch": 219,
      "measure": 32,
      "beat": 5,
      "duration": 1,
      "velocity": 100,
      "pan": 0,
      "instrument": "ORG_M99",
      "pipi": 0,
      "volumeAutomation": [],
      "panAutomation": []
    },
    {
      "pitch": 223,
      "measure": 32,
      "beat": 6,
      "duration": 1,
      "velocity": 100,
      "pan": 0,
      "instrument": "ORG_M99",
      "pipi": 0,
      "volumeAutomation": [],
      "panAutomation": []
    },
    {
      "pitch": 227,
      "measure": 32,
      "beat": 7,
      "duration": 1,
      "velocity": 100,
      "pan": 0,
      "instrument": "ORG_M99",
      "pipi": 0,
      "volumeAutomation": [],
      "panAutomation": []
    },
    {
      "pitch": 200,
      "measure": 32,
      "beat": 8,
      "duration": 3,
      "velocity": 100,
      "pan": 0,
      "instrument": "ORG_M99",
      "pipi": 0,
      "volumeAutomation": [],
      "panAutomation": []
    },
    {
      "pitch": 207,
      "measure": 32,
      "beat": 11,
      "duration": 3,
      "velocity": 100,
      "pan": 0,
      "instrument": "ORG_M99",
      "pipi": 0,
      "volumeAutomation": [],
      "panAutomation": []
    },
    {
      "pitch": 211,
      "measure": 32,
      "beat": 14,
      "duration": 2,
      "velocity": 100,
      "pan": 0,
      "instrument": "ORG_M99",
      "pipi": 0,
      "volumeAutomation": [],
      "panAutomation": []
    },
    {
      "pitch": 215,
      "measure": 33,
      "beat": 0,
      "duration": 3,
      "velocity": 100,
      "pan": 0,
      "instrument": "ORG_M99",
      "pipi": 0,
      "volumeAutomation": [],
      "panAutomation": []
    },
    {
      "pitch": 207,
      "measure": 33,
      "beat": 3,
      "duration": 3,
      "velocity": 100,
      "pan": 0,
      "instrument": "ORG_M99",
      "pipi": 0,
      "volumeAutomation": [],
      "panAutomation": []
    },
    {
      "pitch": 200,
      "measure": 33,
      "beat": 6,
      "duration": 2,
      "velocity": 100,
      "pan": 0,
      "instrument": "ORG_M99",
      "pipi": 0,
      "volumeAutomation": [],
      "panAutomation": []
    },
    {
      "pitch": 227,
      "measure": 33,
      "beat": 8,
      "duration": 3,
      "velocity": 100,
      "pan": 0,
      "instrument": "ORG_M99",
      "pipi": 0,
      "volumeAutomation": [],
      "panAutomation": []
    },
    {
      "pitch": 231,
      "measure": 33,
      "beat": 11,
      "duration": 2,
      "velocity": 100,
      "pan": 0,
      "instrument": "ORG_M99",
      "pipi": 0,
      "volumeAutomation": [],
      "panAutomation": []
    },
    {
      "pitch": 234,
      "measure": 33,
      "beat": 13,
      "duration": 3,
      "velocity": 100,
      "pan": 0,
      "instrument": "ORG_M99",
      "pipi": 0,
      "volumeAutomation": [],
      "panAutomation": []
    },
    {
      "pitch": 246,
      "measure": 34,
      "beat": 0,
      "duration": 4,
      "velocity": 100,
      "pan": 0,
      "instrument": "ORG_M99",
      "pipi": 0,
      "volumeAutomation": [],
      "panAutomation": []
    },
    {
      "pitch": 242,
      "measure": 34,
      "beat": 4,
      "duration": 4,
      "velocity": 100,
      "pan": 0,
      "instrument": "ORG_M99",
      "pipi": 0,
      "volumeAutomation": [],
      "panAutomation": []
    },
    {
      "pitch": 234,
      "measure": 34,
      "beat": 8,
      "duration": 4,
      "velocity": 100,
      "pan": 0,
      "instrument": "ORG_M99",
      "pipi": 0,
      "volumeAutomation": [],
      "panAutomation": []
    },
    {
      "pitch": 242,
      "measure": 34,
      "beat": 12,
      "duration": 4,
      "velocity": 100,
      "pan": 0,
      "instrument": "ORG_M99",
      "pipi": 0,
      "volumeAutomation": [],
      "panAutomation": []
    },
    {
      "pitch": 234,
      "measure": 35,
      "beat": 0,
      "duration": 8,
      "velocity": 100,
      "pan": 0,
      "instrument": "ORG_M99",
      "pipi": 0,
      "volumeAutomation": [],
      "panAutomation": []
    },
    {
      "pitch": 207,
      "measure": 40,
      "beat": 0,
      "duration": 3,
      "velocity": 100,
      "pan": 0,
      "instrument": "ORG_M99",
      "pipi": 0,
      "volumeAutomation": [
        {
          "tick": 2,
          "volume": 60
        }
      ],
      "panAutomation": []
    },
    {
      "pitch": 207,
      "measure": 40,
      "beat": 3,
      "duration": 3,
      "velocity": 100,
      "pan": 0,
      "instrument": "ORG_M99",
      "pipi": 0,
      "volumeAutomation": [
        {
          "tick": 2,
          "volume": 62
        }
      ],
      "panAutomation": []
    },
    {
      "pitch": 200,
      "measure": 40,
      "beat": 6,
      "duration": 4,
      "velocity": 100,
      "pan": 0,
      "instrument": "ORG_M99",
      "pipi": 0,
      "volumeAutomation": [
        {
          "tick": 3,
          "volume": 60
        }
      ],
      "panAutomation": []
    },
    {
      "pitch": 200,
      "measure": 40,
      "beat": 10,
      "duration": 2,
      "velocity": 100,
      "pan": 0,
      "instrument": "ORG_M99",
      "pipi": 0,
      "volumeAutomation": [],
      "panAutomation": []
    },
    {
      "pitch": 196,
      "measure": 40,
      "beat": 12,
      "duration": 2,
      "velocity": 100,
      "pan": 0,
      "instrument": "ORG_M99",
      "pipi": 0,
      "volumeAutomation": [],
      "panAutomation": []
    },
    {
      "pitch": 200,
      "measure": 40,
      "beat": 14,
      "duration": 2,
      "velocity": 100,
      "pan": 0,
      "instrument": "ORG_M99",
      "pipi": 0,
      "volumeAutomation": [],
      "panAutomation": []
    },
    {
      "pitch": 207,
      "measure": 41,
      "beat": 0,
      "duration": 3,
      "velocity": 100,
      "pan": 0,
      "instrument": "ORG_M99",
      "pipi": 0,
      "volumeAutomation": [
        {
          "tick": 2,
          "volume": 60
        }
      ],
      "panAutomation": []
    },
    {
      "pitch": 207,
      "measure": 41,
      "beat": 3,
      "duration": 3,
      "velocity": 100,
      "pan": 0,
      "instrument": "ORG_M99",
      "pipi": 0,
      "volumeAutomation": [
        {
          "tick": 2,
          "volume": 60
        }
      ],
      "panAutomation": []
    },
    {
      "pitch": 200,
      "measure": 41,
      "beat": 6,
      "duration": 4,
      "velocity": 100,
      "pan": 0,
      "instrument": "ORG_M99",
      "pipi": 0,
      "volumeAutomation": [
        {
          "tick": 3,
          "volume": 62
        }
      ],
      "panAutomation": []
    },
    {
      "pitch": 200,
      "measure": 41,
      "beat": 10,
      "duration": 2,
      "velocity": 100,
      "pan": 0,
      "instrument": "ORG_M99",
      "pipi": 0,
      "volumeAutomation": [],
      "panAutomation": []
    },
    {
      "pitch": 196,
      "measure": 41,
      "beat": 12,
      "duration": 2,
      "velocity": 100,
      "pan": 0,
      "instrument": "ORG_M99",
      "pipi": 0,
      "volumeAutomation": [],
      "panAutomation": []
    },
    {
      "pitch": 200,
      "measure": 41,
      "beat": 14,
      "duration": 2,
      "velocity": 100,
      "pan": 0,
      "instrument": "ORG_M99",
      "pipi": 0,
      "volumeAutomation": [],
      "panAutomation": []
    },
    {
      "pitch": 215,
      "measure": 42,
      "beat": 0,
      "duration": 3,
      "velocity": 100,
      "pan": 0,
      "instrument": "ORG_M99",
      "pipi": 0,
      "volumeAutomation": [
        {
          "tick": 2,
          "volume": 60
        }
      ],
      "panAutomation": []
    },
    {
      "pitch": 215,
      "measure": 42,
      "beat": 3,
      "duration": 3,
      "velocity": 100,
      "pan": 0,
      "instrument": "ORG_M99",
      "pipi": 0,
      "volumeAutomation": [
        {
          "tick": 2,
          "volume": 64
        }
      ],
      "panAutomation": []
    },
    {
      "pitch": 207,
      "measure": 42,
      "beat": 6,
      "duration": 4,
      "velocity": 100,
      "pan": 0,
      "instrument": "ORG_M99",
      "pipi": 0,
      "volumeAutomation": [
        {
          "tick": 3,
          "volume": 60
        }
      ],
      "panAutomation": []
    },
    {
      "pitch": 207,
      "measure": 42,
      "beat": 10,
      "duration": 2,
      "velocity": 100,
      "pan": 0,
      "instrument": "ORG_M99",
      "pipi": 0,
      "volumeAutomation": [],
      "panAutomation": []
    },
    {
      "pitch": 200,
      "measure": 42,
      "beat": 12,
      "duration": 2,
      "velocity": 100,
      "pan": 0,
      "instrument": "ORG_M99",
      "pipi": 0,
      "volumeAutomation": [],
      "panAutomation": []
    },
    {
      "pitch": 207,
      "measure": 42,
      "beat": 14,
      "duration": 2,
      "velocity": 100,
      "pan": 0,
      "instrument": "ORG_M99",
      "pipi": 0,
      "volumeAutomation": [],
      "panAutomation": []
    },
    {
      "pitch": 292,
      "measure": 43,
      "beat": 0,
      "duration": 3,
      "velocity": 100,
      "pan": 0,
      "instrument": "ORG_M99",
      "pipi": 0,
      "volumeAutomation": [],
      "panAutomation": []
    },
    {
      "pitch": 288,
      "measure": 43,
      "beat": 3,
      "duration": 3,
      "velocity": 100,
      "pan": 0,
      "instrument": "ORG_M99",
      "pipi": 0,
      "volumeAutomation": [],
      "panAutomation": []
    },
    {
      "pitch": 284,
      "measure": 43,
      "beat": 6,
      "duration": 2,
      "velocity": 100,
      "pan": 0,
      "instrument": "ORG_M99",
      "pipi": 0,
      "volumeAutomation": [],
      "panAutomation": []
    },
    {
      "pitch": 280,
      "measure": 43,
      "beat": 8,
      "duration": 3,
      "velocity": 100,
      "pan": 0,
      "instrument": "ORG_M99",
      "pipi": 0,
      "volumeAutomation": [],
      "panAutomation": []
    },
    {
      "pitch": 277,
      "measure": 43,
      "beat": 11,
      "duration": 3,
      "velocity": 100,
      "pan": 0,
      "instrument": "ORG_M99",
      "pipi": 0,
      "volumeAutomation": [],
      "panAutomation": []
    },
    {
      "pitch": 273,
      "measure": 43,
      "beat": 14,
      "duration": 2,
      "velocity": 100,
      "pan": 0,
      "instrument": "ORG_M99",
      "pipi": 0,
      "volumeAutomation": [],
      "panAutomation": []
    },
    {
      "pitch": 169,
      "measure": 0,
      "beat": 0,
      "duration": 1,
      "velocity": 100,
      "pan": 0,
      "instrument": "ORG_M60",
      "pipi": 0,
      "volumeAutomation": [],
      "panAutomation": []
    },
    {
      "pitch": 196,
      "measure": 0,
      "beat": 2,
      "duration": 1,
      "velocity": 100,
      "pan": 0,
      "instrument": "ORG_M60",
      "pipi": 0,
      "volumeAutomation": [],
      "panAutomation": []
    },
    {
      "pitch": 181,
      "measure": 0,
      "beat": 4,
      "duration": 1,
      "velocity": 100,
      "pan": 0,
      "instrument": "ORG_M60",
      "pipi": 0,
      "volumeAutomation": [],
      "panAutomation": []
    },
    {
      "pitch": 196,
      "measure": 0,
      "beat": 6,
      "duration": 1,
      "velocity": 100,
      "pan": 0,
      "instrument": "ORG_M60",
      "pipi": 0,
      "volumeAutomation": [],
      "panAutomation": []
    },
    {
      "pitch": 169,
      "measure": 0,
      "beat": 8,
      "duration": 1,
      "velocity": 100,
      "pan": 0,
      "instrument": "ORG_M60",
      "pipi": 0,
      "volumeAutomation": [],
      "panAutomation": []
    },
    {
      "pitch": 196,
      "measure": 0,
      "beat": 10,
      "duration": 1,
      "velocity": 100,
      "pan": 0,
      "instrument": "ORG_M60",
      "pipi": 0,
      "volumeAutomation": [],
      "panAutomation": []
    },
    {
      "pitch": 181,
      "measure": 0,
      "beat": 12,
      "duration": 1,
      "velocity": 100,
      "pan": 0,
      "instrument": "ORG_M60",
      "pipi": 0,
      "volumeAutomation": [],
      "panAutomation": []
    },
    {
      "pitch": 196,
      "measure": 0,
      "beat": 14,
      "duration": 1,
      "velocity": 100,
      "pan": 0,
      "instrument": "ORG_M60",
      "pipi": 0,
      "volumeAutomation": [],
      "panAutomation": []
    },
    {
      "pitch": 196,
      "measure": 1,
      "beat": 2,
      "duration": 1,
      "velocity": 100,
      "pan": 0,
      "instrument": "ORG_M60",
      "pipi": 0,
      "volumeAutomation": [],
      "panAutomation": []
    },
    {
      "pitch": 181,
      "measure": 1,
      "beat": 4,
      "duration": 1,
      "velocity": 100,
      "pan": 0,
      "instrument": "ORG_M60",
      "pipi": 0,
      "volumeAutomation": [],
      "panAutomation": []
    },
    {
      "pitch": 196,
      "measure": 1,
      "beat": 6,
      "duration": 1,
      "velocity": 100,
      "pan": 0,
      "instrument": "ORG_M60",
      "pipi": 0,
      "volumeAutomation": [],
      "panAutomation": []
    },
    {
      "pitch": 196,
      "measure": 1,
      "beat": 10,
      "duration": 1,
      "velocity": 100,
      "pan": 0,
      "instrument": "ORG_M60",
      "pipi": 0,
      "volumeAutomation": [],
      "panAutomation": []
    },
    {
      "pitch": 181,
      "measure": 1,
      "beat": 12,
      "duration": 1,
      "velocity": 100,
      "pan": 0,
      "instrument": "ORG_M60",
      "pipi": 0,
      "volumeAutomation": [],
      "panAutomation": []
    },
    {
      "pitch": 196,
      "measure": 1,
      "beat": 14,
      "duration": 1,
      "velocity": 100,
      "pan": 0,
      "instrument": "ORG_M60",
      "pipi": 0,
      "volumeAutomation": [],
      "panAutomation": []
    },
    {
      "pitch": 165,
      "measure": 2,
      "beat": 0,
      "duration": 1,
      "velocity": 100,
      "pan": 0,
      "instrument": "ORG_M60",
      "pipi": 0,
      "volumeAutomation": [],
      "panAutomation": []
    },
    {
      "pitch": 196,
      "measure": 2,
      "beat": 2,
      "duration": 1,
      "velocity": 100,
      "pan": 0,
      "instrument": "ORG_M60",
      "pipi": 0,
      "volumeAutomation": [],
      "panAutomation": []
    },
    {
      "pitch": 177,
      "measure": 2,
      "beat": 4,
      "duration": 1,
      "velocity": 100,
      "pan": 0,
      "instrument": "ORG_M60",
      "pipi": 0,
      "volumeAutomation": [],
      "panAutomation": []
    },
    {
      "pitch": 196,
      "measure": 2,
      "beat": 6,
      "duration": 1,
      "velocity": 100,
      "pan": 0,
      "instrument": "ORG_M60",
      "pipi": 0,
      "volumeAutomation": [],
      "panAutomation": []
    },
    {
      "pitch": 196,
      "measure": 2,
      "beat": 10,
      "duration": 1,
      "velocity": 100,
      "pan": 0,
      "instrument": "ORG_M60",
      "pipi": 0,
      "volumeAutomation": [],
      "panAutomation": []
    },
    {
      "pitch": 177,
      "measure": 2,
      "beat": 12,
      "duration": 1,
      "velocity": 100,
      "pan": 0,
      "instrument": "ORG_M60",
      "pipi": 0,
      "volumeAutomation": [],
      "panAutomation": []
    },
    {
      "pitch": 196,
      "measure": 2,
      "beat": 14,
      "duration": 1,
      "velocity": 100,
      "pan": 0,
      "instrument": "ORG_M60",
      "pipi": 0,
      "volumeAutomation": [],
      "panAutomation": []
    },
    {
      "pitch": 196,
      "measure": 3,
      "beat": 2,
      "duration": 1,
      "velocity": 100,
      "pan": 0,
      "instrument": "ORG_M60",
      "pipi": 0,
      "volumeAutomation": [],
      "panAutomation": []
    },
    {
      "pitch": 177,
      "measure": 3,
      "beat": 4,
      "duration": 1,
      "velocity": 100,
      "pan": 0,
      "instrument": "ORG_M60",
      "pipi": 0,
      "volumeAutomation": [],
      "panAutomation": []
    },
    {
      "pitch": 196,
      "measure": 3,
      "beat": 6,
      "duration": 1,
      "velocity": 100,
      "pan": 0,
      "instrument": "ORG_M60",
      "pipi": 0,
      "volumeAutomation": [],
      "panAutomation": []
    },
    {
      "pitch": 165,
      "measure": 3,
      "beat": 8,
      "duration": 1,
      "velocity": 100,
      "pan": 0,
      "instrument": "ORG_M60",
      "pipi": 0,
      "volumeAutomation": [],
      "panAutomation": []
    },
    {
      "pitch": 196,
      "measure": 3,
      "beat": 10,
      "duration": 1,
      "velocity": 100,
      "pan": 0,
      "instrument": "ORG_M60",
      "pipi": 0,
      "volumeAutomation": [],
      "panAutomation": []
    },
    {
      "pitch": 177,
      "measure": 3,
      "beat": 12,
      "duration": 1,
      "velocity": 100,
      "pan": 0,
      "instrument": "ORG_M60",
      "pipi": 0,
      "volumeAutomation": [],
      "panAutomation": []
    },
    {
      "pitch": 157,
      "measure": 3,
      "beat": 14,
      "duration": 1,
      "velocity": 100,
      "pan": 0,
      "instrument": "ORG_M60",
      "pipi": 0,
      "volumeAutomation": [],
      "panAutomation": []
    },
    {
      "pitch": 157,
      "measure": 3,
      "beat": 15,
      "duration": 1,
      "velocity": 100,
      "pan": 0,
      "instrument": "ORG_M60",
      "pipi": 0,
      "volumeAutomation": [],
      "panAutomation": []
    },
    {
      "pitch": 161,
      "measure": 4,
      "beat": 0,
      "duration": 1,
      "velocity": 100,
      "pan": 0,
      "instrument": "ORG_M60",
      "pipi": 0,
      "volumeAutomation": [],
      "panAutomation": []
    },
    {
      "pitch": 189,
      "measure": 4,
      "beat": 2,
      "duration": 1,
      "velocity": 100,
      "pan": 0,
      "instrument": "ORG_M60",
      "pipi": 0,
      "volumeAutomation": [],
      "panAutomation": []
    },
    {
      "pitch": 177,
      "measure": 4,
      "beat": 4,
      "duration": 1,
      "velocity": 100,
      "pan": 0,
      "instrument": "ORG_M60",
      "pipi": 0,
      "volumeAutomation": [],
      "panAutomation": []
    },
    {
      "pitch": 189,
      "measure": 4,
      "beat": 6,
      "duration": 1,
      "velocity": 100,
      "pan": 0,
      "instrument": "ORG_M60",
      "pipi": 0,
      "volumeAutomation": [],
      "panAutomation": []
    },
    {
      "pitch": 189,
      "measure": 4,
      "beat": 10,
      "duration": 1,
      "velocity": 100,
      "pan": 0,
      "instrument": "ORG_M60",
      "pipi": 0,
      "volumeAutomation": [],
      "panAutomation": []
    },
    {
      "pitch": 177,
      "measure": 4,
      "beat": 12,
      "duration": 1,
      "velocity": 100,
      "pan": 0,
      "instrument": "ORG_M60",
      "pipi": 0,
      "volumeAutomation": [],
      "panAutomation": []
    },
    {
      "pitch": 189,
      "measure": 4,
      "beat": 14,
      "duration": 1,
      "velocity": 100,
      "pan": 0,
      "instrument": "ORG_M60",
      "pipi": 0,
      "volumeAutomation": [],
      "panAutomation": []
    },
    {
      "pitch": 161,
      "measure": 5,
      "beat": 0,
      "duration": 1,
      "velocity": 100,
      "pan": 0,
      "instrument": "ORG_M60",
      "pipi": 0,
      "volumeAutomation": [],
      "panAutomation": []
    },
    {
      "pitch": 189,
      "measure": 5,
      "beat": 2,
      "duration": 1,
      "velocity": 100,
      "pan": 0,
      "instrument": "ORG_M60",
      "pipi": 0,
      "volumeAutomation": [],
      "panAutomation": []
    },
    {
      "pitch": 177,
      "measure": 5,
      "beat": 4,
      "duration": 1,
      "velocity": 100,
      "pan": 0,
      "instrument": "ORG_M60",
      "pipi": 0,
      "volumeAutomation": [],
      "panAutomation": []
    },
    {
      "pitch": 189,
      "measure": 5,
      "beat": 6,
      "duration": 1,
      "velocity": 100,
      "pan": 0,
      "instrument": "ORG_M60",
      "pipi": 0,
      "volumeAutomation": [],
      "panAutomation": []
    },
    {
      "pitch": 161,
      "measure": 5,
      "beat": 8,
      "duration": 1,
      "velocity": 100,
      "pan": 0,
      "instrument": "ORG_M60",
      "pipi": 0,
      "volumeAutomation": [],
      "panAutomation": []
    },
    {
      "pitch": 189,
      "measure": 5,
      "beat": 10,
      "duration": 1,
      "velocity": 100,
      "pan": 0,
      "instrument": "ORG_M60",
      "pipi": 0,
      "volumeAutomation": [],
      "panAutomation": []
    },
    {
      "pitch": 177,
      "measure": 5,
      "beat": 12,
      "duration": 1,
      "velocity": 100,
      "pan": 0,
      "instrument": "ORG_M60",
      "pipi": 0,
      "volumeAutomation": [],
      "panAutomation": []
    },
    {
      "pitch": 189,
      "measure": 5,
      "beat": 14,
      "duration": 1,
      "velocity": 100,
      "pan": 0,
      "instrument": "ORG_M60",
      "pipi": 0,
      "volumeAutomation": [],
      "panAutomation": []
    },
    {
      "pitch": 157,
      "measure": 6,
      "beat": 0,
      "duration": 1,
      "velocity": 100,
      "pan": 0,
      "instrument": "ORG_M60",
      "pipi": 0,
      "volumeAutomation": [],
      "panAutomation": []
    },
    {
      "pitch": 185,
      "measure": 6,
      "beat": 2,
      "duration": 1,
      "velocity": 100,
      "pan": 0,
      "instrument": "ORG_M60",
      "pipi": 0,
      "volumeAutomation": [],
      "panAutomation": []
    },
    {
      "pitch": 169,
      "measure": 6,
      "beat": 4,
      "duration": 1,
      "velocity": 100,
      "pan": 0,
      "instrument": "ORG_M60",
      "pipi": 0,
      "volumeAutomation": [],
      "panAutomation": []
    },
    {
      "pitch": 185,
      "measure": 6,
      "beat": 6,
      "duration": 1,
      "velocity": 100,
      "pan": 0,
      "instrument": "ORG_M60",
      "pipi": 0,
      "volumeAutomation": [],
      "panAutomation": []
    },
    {
      "pitch": 185,
      "measure": 6,
      "beat": 10,
      "duration": 1,
      "velocity": 100,
      "pan": 0,
      "instrument": "ORG_M60",
      "pipi": 0,
      "volumeAutomation": [],
      "panAutomation": []
    },
    {
      "pitch": 169,
      "measure": 6,
      "beat": 12,
      "duration": 1,
      "velocity": 100,
      "pan": 0,
      "instrument": "ORG_M60",
      "pipi": 0,
      "volumeAutomation": [],
      "panAutomation": []
    },
    {
      "pitch": 185,
      "measure": 6,
      "beat": 14,
      "duration": 1,
      "velocity": 100,
      "pan": 0,
      "instrument": "ORG_M60",
      "pipi": 0,
      "volumeAutomation": [],
      "panAutomation": []
    },
    {
      "pitch": 157,
      "measure": 7,
      "beat": 0,
      "duration": 1,
      "velocity": 100,
      "pan": 0,
      "instrument": "ORG_M60",
      "pipi": 0,
      "volumeAutomation": [],
      "panAutomation": []
    },
    {
      "pitch": 157,
      "measure": 7,
      "beat": 1,
      "duration": 1,
      "velocity": 100,
      "pan": 0,
      "instrument": "ORG_M60",
      "pipi": 0,
      "volumeAutomation": [],
      "panAutomation": []
    },
    {
      "pitch": 169,
      "measure": 7,
      "beat": 2,
      "duration": 1,
      "velocity": 100,
      "pan": 0,
      "instrument": "ORG_M60",
      "pipi": 0,
      "volumeAutomation": [],
      "panAutomation": []
    },
    {
      "pitch": 169,
      "measure": 7,
      "beat": 3,
      "duration": 1,
      "velocity": 100,
      "pan": 0,
      "instrument": "ORG_M60",
      "pipi": 0,
      "volumeAutomation": [],
      "panAutomation": []
    },
    {
      "pitch": 185,
      "measure": 7,
      "beat": 4,
      "duration": 1,
      "velocity": 100,
      "pan": 0,
      "instrument": "ORG_M60",
      "pipi": 0,
      "volumeAutomation": [],
      "panAutomation": []
    },
    {
      "pitch": 185,
      "measure": 7,
      "beat": 5,
      "duration": 1,
      "velocity": 100,
      "pan": 0,
      "instrument": "ORG_M60",
      "pipi": 0,
      "volumeAutomation": [],
      "panAutomation": []
    },
    {
      "pitch": 200,
      "measure": 7,
      "beat": 6,
      "duration": 1,
      "velocity": 100,
      "pan": 0,
      "instrument": "ORG_M60",
      "pipi": 0,
      "volumeAutomation": [],
      "panAutomation": []
    },
    {
      "pitch": 200,
      "measure": 7,
      "beat": 7,
      "duration": 1,
      "velocity": 100,
      "pan": 0,
      "instrument": "ORG_M60",
      "pipi": 0,
      "volumeAutomation": [],
      "panAutomation": []
    },
    {
      "pitch": 203,
      "measure": 7,
      "beat": 8,
      "duration": 1,
      "velocity": 100,
      "pan": 0,
      "instrument": "ORG_M60",
      "pipi": 0,
      "volumeAutomation": [],
      "panAutomation": []
    },
    {
      "pitch": 203,
      "measure": 7,
      "beat": 9,
      "duration": 1,
      "velocity": 100,
      "pan": 0,
      "instrument": "ORG_M60",
      "pipi": 0,
      "volumeAutomation": [],
      "panAutomation": []
    },
    {
      "pitch": 185,
      "measure": 7,
      "beat": 10,
      "duration": 1,
      "velocity": 100,
      "pan": 0,
      "instrument": "ORG_M60",
      "pipi": 0,
      "volumeAutomation": [],
      "panAutomation": []
    },
    {
      "pitch": 185,
      "measure": 7,
      "beat": 11,
      "duration": 1,
      "velocity": 100,
      "pan": 0,
      "instrument": "ORG_M60",
      "pipi": 0,
      "volumeAutomation": [],
      "panAutomation": []
    },
    {
      "pitch": 169,
      "measure": 7,
      "beat": 12,
      "duration": 1,
      "velocity": 100,
      "pan": 0,
      "instrument": "ORG_M60",
      "pipi": 0,
      "volumeAutomation": [],
      "panAutomation": []
    },
    {
      "pitch": 169,
      "measure": 7,
      "beat": 13,
      "duration": 1,
      "velocity": 100,
      "pan": 0,
      "instrument": "ORG_M60",
      "pipi": 0,
      "volumeAutomation": [],
      "panAutomation": []
    },
    {
      "pitch": 157,
      "measure": 7,
      "beat": 14,
      "duration": 1,
      "velocity": 100,
      "pan": 0,
      "instrument": "ORG_M60",
      "pipi": 0,
      "volumeAutomation": [],
      "panAutomation": []
    },
    {
      "pitch": 157,
      "measure": 7,
      "beat": 15,
      "duration": 1,
      "velocity": 100,
      "pan": 0,
      "instrument": "ORG_M60",
      "pipi": 0,
      "volumeAutomation": [],
      "panAutomation": []
    },
    {
      "pitch": 154,
      "measure": 8,
      "beat": 0,
      "duration": 1,
      "velocity": 100,
      "pan": 0,
      "instrument": "ORG_M60",
      "pipi": 0,
      "volumeAutomation": [],
      "panAutomation": []
    },
    {
      "pitch": 181,
      "measure": 8,
      "beat": 2,
      "duration": 1,
      "velocity": 100,
      "pan": 0,
      "instrument": "ORG_M60",
      "pipi": 0,
      "volumeAutomation": [],
      "panAutomation": []
    },
    {
      "pitch": 169,
      "measure": 8,
      "beat": 4,
      "duration": 1,
      "velocity": 100,
      "pan": 0,
      "instrument": "ORG_M60",
      "pipi": 0,
      "volumeAutomation": [],
      "panAutomation": []
    },
    {
      "pitch": 181,
      "measure": 8,
      "beat": 6,
      "duration": 1,
      "velocity": 100,
      "pan": 0,
      "instrument": "ORG_M60",
      "pipi": 0,
      "volumeAutomation": [],
      "panAutomation": []
    },
    {
      "pitch": 154,
      "measure": 8,
      "beat": 8,
      "duration": 1,
      "velocity": 100,
      "pan": 0,
      "instrument": "ORG_M60",
      "pipi": 0,
      "volumeAutomation": [],
      "panAutomation": []
    },
    {
      "pitch": 181,
      "measure": 8,
      "beat": 10,
      "duration": 1,
      "velocity": 100,
      "pan": 0,
      "instrument": "ORG_M60",
      "pipi": 0,
      "volumeAutomation": [],
      "panAutomation": []
    },
    {
      "pitch": 169,
      "measure": 8,
      "beat": 12,
      "duration": 1,
      "velocity": 100,
      "pan": 0,
      "instrument": "ORG_M60",
      "pipi": 0,
      "volumeAutomation": [],
      "panAutomation": []
    },
    {
      "pitch": 181,
      "measure": 8,
      "beat": 14,
      "duration": 1,
      "velocity": 100,
      "pan": 0,
      "instrument": "ORG_M60",
      "pipi": 0,
      "volumeAutomation": [],
      "panAutomation": []
    },
    {
      "pitch": 181,
      "measure": 9,
      "beat": 2,
      "duration": 1,
      "velocity": 100,
      "pan": 0,
      "instrument": "ORG_M60",
      "pipi": 0,
      "volumeAutomation": [],
      "panAutomation": []
    },
    {
      "pitch": 169,
      "measure": 9,
      "beat": 4,
      "duration": 1,
      "velocity": 100,
      "pan": 0,
      "instrument": "ORG_M60",
      "pipi": 0,
      "volumeAutomation": [],
      "panAutomation": []
    },
    {
      "pitch": 181,
      "measure": 9,
      "beat": 6,
      "duration": 1,
      "velocity": 100,
      "pan": 0,
      "instrument": "ORG_M60",
      "pipi": 0,
      "volumeAutomation": [],
      "panAutomation": []
    },
    {
      "pitch": 154,
      "measure": 9,
      "beat": 8,
      "duration": 1,
      "velocity": 100,
      "pan": 0,
      "instrument": "ORG_M60",
      "pipi": 0,
      "volumeAutomation": [],
      "panAutomation": []
    },
    {
      "pitch": 181,
      "measure": 9,
      "beat": 10,
      "duration": 1,
      "velocity": 100,
      "pan": 0,
      "instrument": "ORG_M60",
      "pipi": 0,
      "volumeAutomation": [],
      "panAutomation": []
    },
    {
      "pitch": 169,
      "measure": 9,
      "beat": 12,
      "duration": 1,
      "velocity": 100,
      "pan": 0,
      "instrument": "ORG_M60",
      "pipi": 0,
      "volumeAutomation": [],
      "panAutomation": []
    },
    {
      "pitch": 181,
      "measure": 9,
      "beat": 14,
      "duration": 1,
      "velocity": 100,
      "pan": 0,
      "instrument": "ORG_M60",
      "pipi": 0,
      "volumeAutomation": [],
      "panAutomation": []
    },
    {
      "pitch": 161,
      "measure": 10,
      "beat": 0,
      "duration": 1,
      "velocity": 100,
      "pan": 0,
      "instrument": "ORG_M60",
      "pipi": 0,
      "volumeAutomation": [],
      "panAutomation": []
    },
    {
      "pitch": 189,
      "measure": 10,
      "beat": 2,
      "duration": 1,
      "velocity": 100,
      "pan": 0,
      "instrument": "ORG_M60",
      "pipi": 0,
      "volumeAutomation": [],
      "panAutomation": []
    },
    {
      "pitch": 177,
      "measure": 10,
      "beat": 4,
      "duration": 1,
      "velocity": 100,
      "pan": 0,
      "instrument": "ORG_M60",
      "pipi": 0,
      "volumeAutomation": [],
      "panAutomation": []
    },
    {
      "pitch": 189,
      "measure": 10,
      "beat": 6,
      "duration": 1,
      "velocity": 100,
      "pan": 0,
      "instrument": "ORG_M60",
      "pipi": 0,
      "volumeAutomation": [],
      "panAutomation": []
    },
    {
      "pitch": 161,
      "measure": 10,
      "beat": 8,
      "duration": 1,
      "velocity": 100,
      "pan": 0,
      "instrument": "ORG_M60",
      "pipi": 0,
      "volumeAutomation": [],
      "panAutomation": []
    },
    {
      "pitch": 189,
      "measure": 10,
      "beat": 10,
      "duration": 1,
      "velocity": 100,
      "pan": 0,
      "instrument": "ORG_M60",
      "pipi": 0,
      "volumeAutomation": [],
      "panAutomation": []
    },
    {
      "pitch": 177,
      "measure": 10,
      "beat": 12,
      "duration": 1,
      "velocity": 100,
      "pan": 0,
      "instrument": "ORG_M60",
      "pipi": 0,
      "volumeAutomation": [],
      "panAutomation": []
    },
    {
      "pitch": 189,
      "measure": 10,
      "beat": 14,
      "duration": 1,
      "velocity": 100,
      "pan": 0,
      "instrument": "ORG_M60",
      "pipi": 0,
      "volumeAutomation": [],
      "panAutomation": []
    },
    {
      "pitch": 189,
      "measure": 11,
      "beat": 2,
      "duration": 1,
      "velocity": 100,
      "pan": 0,
      "instrument": "ORG_M60",
      "pipi": 0,
      "volumeAutomation": [],
      "panAutomation": []
    },
    {
      "pitch": 177,
      "measure": 11,
      "beat": 4,
      "duration": 1,
      "velocity": 100,
      "pan": 0,
      "instrument": "ORG_M60",
      "pipi": 0,
      "volumeAutomation": [],
      "panAutomation": []
    },
    {
      "pitch": 189,
      "measure": 11,
      "beat": 6,
      "duration": 1,
      "velocity": 100,
      "pan": 0,
      "instrument": "ORG_M60",
      "pipi": 0,
      "volumeAutomation": [],
      "panAutomation": []
    },
    {
      "pitch": 161,
      "measure": 11,
      "beat": 8,
      "duration": 1,
      "velocity": 100,
      "pan": 0,
      "instrument": "ORG_M60",
      "pipi": 0,
      "volumeAutomation": [],
      "panAutomation": []
    },
    {
      "pitch": 189,
      "measure": 11,
      "beat": 10,
      "duration": 1,
      "velocity": 100,
      "pan": 0,
      "instrument": "ORG_M60",
      "pipi": 0,
      "volumeAutomation": [],
      "panAutomation": []
    },
    {
      "pitch": 177,
      "measure": 11,
      "beat": 12,
      "duration": 1,
      "velocity": 100,
      "pan": 0,
      "instrument": "ORG_M60",
      "pipi": 0,
      "volumeAutomation": [],
      "panAutomation": []
    },
    {
      "pitch": 189,
      "measure": 11,
      "beat": 14,
      "duration": 1,
      "velocity": 100,
      "pan": 0,
      "instrument": "ORG_M60",
      "pipi": 0,
      "volumeAutomation": [],
      "panAutomation": []
    },
    {
      "pitch": 169,
      "measure": 12,
      "beat": 0,
      "duration": 1,
      "velocity": 100,
      "pan": 0,
      "instrument": "ORG_M60",
      "pipi": 0,
      "volumeAutomation": [],
      "panAutomation": []
    },
    {
      "pitch": 196,
      "measure": 12,
      "beat": 2,
      "duration": 1,
      "velocity": 100,
      "pan": 0,
      "instrument": "ORG_M60",
      "pipi": 0,
      "volumeAutomation": [],
      "panAutomation": []
    },
    {
      "pitch": 181,
      "measure": 12,
      "beat": 4,
      "duration": 1,
      "velocity": 100,
      "pan": 0,
      "instrument": "ORG_M60",
      "pipi": 0,
      "volumeAutomation": [],
      "panAutomation": []
    },
    {
      "pitch": 196,
      "measure": 12,
      "beat": 6,
      "duration": 1,
      "velocity": 100,
      "pan": 0,
      "instrument": "ORG_M60",
      "pipi": 0,
      "volumeAutomation": [],
      "panAutomation": []
    },
    {
      "pitch": 169,
      "measure": 12,
      "beat": 8,
      "duration": 1,
      "velocity": 100,
      "pan": 0,
      "instrument": "ORG_M60",
      "pipi": 0,
      "volumeAutomation": [],
      "panAutomation": []
    },
    {
      "pitch": 196,
      "measure": 12,
      "beat": 10,
      "duration": 1,
      "velocity": 100,
      "pan": 0,
      "instrument": "ORG_M60",
      "pipi": 0,
      "volumeAutomation": [],
      "panAutomation": []
    },
    {
      "pitch": 181,
      "measure": 12,
      "beat": 12,
      "duration": 1,
      "velocity": 100,
      "pan": 0,
      "instrument": "ORG_M60",
      "pipi": 0,
      "volumeAutomation": [],
      "panAutomation": []
    },
    {
      "pitch": 196,
      "measure": 12,
      "beat": 14,
      "duration": 1,
      "velocity": 100,
      "pan": 0,
      "instrument": "ORG_M60",
      "pipi": 0,
      "volumeAutomation": [],
      "panAutomation": []
    },
    {
      "pitch": 196,
      "measure": 13,
      "beat": 2,
      "duration": 1,
      "velocity": 100,
      "pan": 0,
      "instrument": "ORG_M60",
      "pipi": 0,
      "volumeAutomation": [],
      "panAutomation": []
    },
    {
      "pitch": 181,
      "measure": 13,
      "beat": 4,
      "duration": 1,
      "velocity": 100,
      "pan": 0,
      "instrument": "ORG_M60",
      "pipi": 0,
      "volumeAutomation": [],
      "panAutomation": []
    },
    {
      "pitch": 196,
      "measure": 13,
      "beat": 6,
      "duration": 1,
      "velocity": 100,
      "pan": 0,
      "instrument": "ORG_M60",
      "pipi": 0,
      "volumeAutomation": [],
      "panAutomation": []
    },
    {
      "pitch": 196,
      "measure": 13,
      "beat": 10,
      "duration": 1,
      "velocity": 100,
      "pan": 0,
      "instrument": "ORG_M60",
      "pipi": 0,
      "volumeAutomation": [],
      "panAutomation": []
    },
    {
      "pitch": 181,
      "measure": 13,
      "beat": 12,
      "duration": 1,
      "velocity": 100,
      "pan": 0,
      "instrument": "ORG_M60",
      "pipi": 0,
      "volumeAutomation": [],
      "panAutomation": []
    },
    {
      "pitch": 196,
      "measure": 13,
      "beat": 14,
      "duration": 1,
      "velocity": 100,
      "pan": 0,
      "instrument": "ORG_M60",
      "pipi": 0,
      "volumeAutomation": [],
      "panAutomation": []
    },
    {
      "pitch": 165,
      "measure": 14,
      "beat": 0,
      "duration": 1,
      "velocity": 100,
      "pan": 0,
      "instrument": "ORG_M60",
      "pipi": 0,
      "volumeAutomation": [],
      "panAutomation": []
    },
    {
      "pitch": 196,
      "measure": 14,
      "beat": 2,
      "duration": 1,
      "velocity": 100,
      "pan": 0,
      "instrument": "ORG_M60",
      "pipi": 0,
      "volumeAutomation": [],
      "panAutomation": []
    },
    {
      "pitch": 177,
      "measure": 14,
      "beat": 4,
      "duration": 1,
      "velocity": 100,
      "pan": 0,
      "instrument": "ORG_M60",
      "pipi": 0,
      "volumeAutomation": [],
      "panAutomation": []
    },
    {
      "pitch": 196,
      "measure": 14,
      "beat": 6,
      "duration": 1,
      "velocity": 100,
      "pan": 0,
      "instrument": "ORG_M60",
      "pipi": 0,
      "volumeAutomation": [],
      "panAutomation": []
    },
    {
      "pitch": 196,
      "measure": 14,
      "beat": 10,
      "duration": 1,
      "velocity": 100,
      "pan": 0,
      "instrument": "ORG_M60",
      "pipi": 0,
      "volumeAutomation": [],
      "panAutomation": []
    },
    {
      "pitch": 177,
      "measure": 14,
      "beat": 12,
      "duration": 1,
      "velocity": 100,
      "pan": 0,
      "instrument": "ORG_M60",
      "pipi": 0,
      "volumeAutomation": [],
      "panAutomation": []
    },
    {
      "pitch": 196,
      "measure": 14,
      "beat": 14,
      "duration": 1,
      "velocity": 100,
      "pan": 0,
      "instrument": "ORG_M60",
      "pipi": 0,
      "volumeAutomation": [],
      "panAutomation": []
    },
    {
      "pitch": 196,
      "measure": 15,
      "beat": 2,
      "duration": 1,
      "velocity": 100,
      "pan": 0,
      "instrument": "ORG_M60",
      "pipi": 0,
      "volumeAutomation": [],
      "panAutomation": []
    },
    {
      "pitch": 177,
      "measure": 15,
      "beat": 4,
      "duration": 1,
      "velocity": 100,
      "pan": 0,
      "instrument": "ORG_M60",
      "pipi": 0,
      "volumeAutomation": [],
      "panAutomation": []
    },
    {
      "pitch": 196,
      "measure": 15,
      "beat": 6,
      "duration": 1,
      "velocity": 100,
      "pan": 0,
      "instrument": "ORG_M60",
      "pipi": 0,
      "volumeAutomation": [],
      "panAutomation": []
    },
    {
      "pitch": 207,
      "measure": 15,
      "beat": 8,
      "duration": 1,
      "velocity": 100,
      "pan": 0,
      "instrument": "ORG_M60",
      "pipi": 0,
      "volumeAutomation": [],
      "panAutomation": []
    },
    {
      "pitch": 203,
      "measure": 15,
      "beat": 10,
      "duration": 1,
      "velocity": 100,
      "pan": 0,
      "instrument": "ORG_M60",
      "pipi": 0,
      "volumeAutomation": [],
      "panAutomation": []
    },
    {
      "pitch": 189,
      "measure": 15,
      "beat": 12,
      "duration": 1,
      "velocity": 100,
      "pan": 0,
      "instrument": "ORG_M60",
      "pipi": 0,
      "volumeAutomation": [],
      "panAutomation": []
    },
    {
      "pitch": 169,
      "measure": 15,
      "beat": 14,
      "duration": 1,
      "velocity": 100,
      "pan": 0,
      "instrument": "ORG_M60",
      "pipi": 0,
      "volumeAutomation": [],
      "panAutomation": []
    },
    {
      "pitch": 157,
      "measure": 15,
      "beat": 15,
      "duration": 1,
      "velocity": 100,
      "pan": 0,
      "instrument": "ORG_M60",
      "pipi": 0,
      "volumeAutomation": [],
      "panAutomation": []
    },
    {
      "pitch": 161,
      "measure": 16,
      "beat": 0,
      "duration": 1,
      "velocity": 100,
      "pan": 0,
      "instrument": "ORG_M60",
      "pipi": 0,
      "volumeAutomation": [],
      "panAutomation": []
    },
    {
      "pitch": 189,
      "measure": 16,
      "beat": 2,
      "duration": 1,
      "velocity": 100,
      "pan": 0,
      "instrument": "ORG_M60",
      "pipi": 0,
      "volumeAutomation": [],
      "panAutomation": []
    },
    {
      "pitch": 177,
      "measure": 16,
      "beat": 4,
      "duration": 1,
      "velocity": 100,
      "pan": 0,
      "instrument": "ORG_M60",
      "pipi": 0,
      "volumeAutomation": [],
      "panAutomation": []
    },
    {
      "pitch": 189,
      "measure": 16,
      "beat": 6,
      "duration": 1,
      "velocity": 100,
      "pan": 0,
      "instrument": "ORG_M60",
      "pipi": 0,
      "volumeAutomation": [],
      "panAutomation": []
    },
    {
      "pitch": 189,
      "measure": 16,
      "beat": 10,
      "duration": 1,
      "velocity": 100,
      "pan": 0,
      "instrument": "ORG_M60",
      "pipi": 0,
      "volumeAutomation": [],
      "panAutomation": []
    },
    {
      "pitch": 177,
      "measure": 16,
      "beat": 12,
      "duration": 1,
      "velocity": 100,
      "pan": 0,
      "instrument": "ORG_M60",
      "pipi": 0,
      "volumeAutomation": [],
      "panAutomation": []
    },
    {
      "pitch": 189,
      "measure": 16,
      "beat": 14,
      "duration": 1,
      "velocity": 100,
      "pan": 0,
      "instrument": "ORG_M60",
      "pipi": 0,
      "volumeAutomation": [],
      "panAutomation": []
    },
    {
      "pitch": 161,
      "measure": 17,
      "beat": 0,
      "duration": 1,
      "velocity": 100,
      "pan": 0,
      "instrument": "ORG_M60",
      "pipi": 0,
      "volumeAutomation": [],
      "panAutomation": []
    },
    {
      "pitch": 189,
      "measure": 17,
      "beat": 2,
      "duration": 1,
      "velocity": 100,
      "pan": 0,
      "instrument": "ORG_M60",
      "pipi": 0,
      "volumeAutomation": [],
      "panAutomation": []
    },
    {
      "pitch": 177,
      "measure": 17,
      "beat": 4,
      "duration": 1,
      "velocity": 100,
      "pan": 0,
      "instrument": "ORG_M60",
      "pipi": 0,
      "volumeAutomation": [],
      "panAutomation": []
    },
    {
      "pitch": 189,
      "measure": 17,
      "beat": 6,
      "duration": 1,
      "velocity": 100,
      "pan": 0,
      "instrument": "ORG_M60",
      "pipi": 0,
      "volumeAutomation": [],
      "panAutomation": []
    },
    {
      "pitch": 161,
      "measure": 17,
      "beat": 8,
      "duration": 1,
      "velocity": 100,
      "pan": 0,
      "instrument": "ORG_M60",
      "pipi": 0,
      "volumeAutomation": [],
      "panAutomation": []
    },
    {
      "pitch": 189,
      "measure": 17,
      "beat": 10,
      "duration": 1,
      "velocity": 100,
      "pan": 0,
      "instrument": "ORG_M60",
      "pipi": 0,
      "volumeAutomation": [],
      "panAutomation": []
    },
    {
      "pitch": 177,
      "measure": 17,
      "beat": 12,
      "duration": 1,
      "velocity": 100,
      "pan": 0,
      "instrument": "ORG_M60",
      "pipi": 0,
      "volumeAutomation": [],
      "panAutomation": []
    },
    {
      "pitch": 189,
      "measure": 17,
      "beat": 14,
      "duration": 1,
      "velocity": 100,
      "pan": 0,
      "instrument": "ORG_M60",
      "pipi": 0,
      "volumeAutomation": [],
      "panAutomation": []
    },
    {
      "pitch": 157,
      "measure": 18,
      "beat": 0,
      "duration": 1,
      "velocity": 100,
      "pan": 0,
      "instrument": "ORG_M60",
      "pipi": 0,
      "volumeAutomation": [],
      "panAutomation": []
    },
    {
      "pitch": 185,
      "measure": 18,
      "beat": 2,
      "duration": 1,
      "velocity": 100,
      "pan": 0,
      "instrument": "ORG_M60",
      "pipi": 0,
      "volumeAutomation": [],
      "panAutomation": []
    },
    {
      "pitch": 169,
      "measure": 18,
      "beat": 4,
      "duration": 1,
      "velocity": 100,
      "pan": 0,
      "instrument": "ORG_M60",
      "pipi": 0,
      "volumeAutomation": [],
      "panAutomation": []
    },
    {
      "pitch": 185,
      "measure": 18,
      "beat": 6,
      "duration": 1,
      "velocity": 100,
      "pan": 0,
      "instrument": "ORG_M60",
      "pipi": 0,
      "volumeAutomation": [],
      "panAutomation": []
    },
    {
      "pitch": 185,
      "measure": 18,
      "beat": 10,
      "duration": 1,
      "velocity": 100,
      "pan": 0,
      "instrument": "ORG_M60",
      "pipi": 0,
      "volumeAutomation": [],
      "panAutomation": []
    },
    {
      "pitch": 169,
      "measure": 18,
      "beat": 12,
      "duration": 1,
      "velocity": 100,
      "pan": 0,
      "instrument": "ORG_M60",
      "pipi": 0,
      "volumeAutomation": [],
      "panAutomation": []
    },
    {
      "pitch": 185,
      "measure": 18,
      "beat": 14,
      "duration": 1,
      "velocity": 100,
      "pan": 0,
      "instrument": "ORG_M60",
      "pipi": 0,
      "volumeAutomation": [],
      "panAutomation": []
    },
    {
      "pitch": 157,
      "measure": 19,
      "beat": 0,
      "duration": 1,
      "velocity": 100,
      "pan": 0,
      "instrument": "ORG_M60",
      "pipi": 0,
      "volumeAutomation": [],
      "panAutomation": []
    },
    {
      "pitch": 157,
      "measure": 19,
      "beat": 1,
      "duration": 1,
      "velocity": 100,
      "pan": 0,
      "instrument": "ORG_M60",
      "pipi": 0,
      "volumeAutomation": [],
      "panAutomation": []
    },
    {
      "pitch": 169,
      "measure": 19,
      "beat": 2,
      "duration": 1,
      "velocity": 100,
      "pan": 0,
      "instrument": "ORG_M60",
      "pipi": 0,
      "volumeAutomation": [],
      "panAutomation": []
    },
    {
      "pitch": 169,
      "measure": 19,
      "beat": 3,
      "duration": 1,
      "velocity": 100,
      "pan": 0,
      "instrument": "ORG_M60",
      "pipi": 0,
      "volumeAutomation": [],
      "panAutomation": []
    },
    {
      "pitch": 185,
      "measure": 19,
      "beat": 4,
      "duration": 1,
      "velocity": 100,
      "pan": 0,
      "instrument": "ORG_M60",
      "pipi": 0,
      "volumeAutomation": [],
      "panAutomation": []
    },
    {
      "pitch": 185,
      "measure": 19,
      "beat": 5,
      "duration": 1,
      "velocity": 100,
      "pan": 0,
      "instrument": "ORG_M60",
      "pipi": 0,
      "volumeAutomation": [],
      "panAutomation": []
    },
    {
      "pitch": 200,
      "measure": 19,
      "beat": 6,
      "duration": 1,
      "velocity": 100,
      "pan": 0,
      "instrument": "ORG_M60",
      "pipi": 0,
      "volumeAutomation": [],
      "panAutomation": []
    },
    {
      "pitch": 200,
      "measure": 19,
      "beat": 7,
      "duration": 1,
      "velocity": 100,
      "pan": 0,
      "instrument": "ORG_M60",
      "pipi": 0,
      "volumeAutomation": [],
      "panAutomation": []
    },
    {
      "pitch": 203,
      "measure": 19,
      "beat": 8,
      "duration": 1,
      "velocity": 100,
      "pan": 0,
      "instrument": "ORG_M60",
      "pipi": 0,
      "volumeAutomation": [],
      "panAutomation": []
    },
    {
      "pitch": 203,
      "measure": 19,
      "beat": 9,
      "duration": 1,
      "velocity": 100,
      "pan": 0,
      "instrument": "ORG_M60",
      "pipi": 0,
      "volumeAutomation": [],
      "panAutomation": []
    },
    {
      "pitch": 185,
      "measure": 19,
      "beat": 10,
      "duration": 1,
      "velocity": 100,
      "pan": 0,
      "instrument": "ORG_M60",
      "pipi": 0,
      "volumeAutomation": [],
      "panAutomation": []
    },
    {
      "pitch": 185,
      "measure": 19,
      "beat": 11,
      "duration": 1,
      "velocity": 100,
      "pan": 0,
      "instrument": "ORG_M60",
      "pipi": 0,
      "volumeAutomation": [],
      "panAutomation": []
    },
    {
      "pitch": 169,
      "measure": 19,
      "beat": 12,
      "duration": 1,
      "velocity": 100,
      "pan": 0,
      "instrument": "ORG_M60",
      "pipi": 0,
      "volumeAutomation": [],
      "panAutomation": []
    },
    {
      "pitch": 169,
      "measure": 19,
      "beat": 13,
      "duration": 1,
      "velocity": 100,
      "pan": 0,
      "instrument": "ORG_M60",
      "pipi": 0,
      "volumeAutomation": [],
      "panAutomation": []
    },
    {
      "pitch": 157,
      "measure": 19,
      "beat": 14,
      "duration": 1,
      "velocity": 100,
      "pan": 0,
      "instrument": "ORG_M60",
      "pipi": 0,
      "volumeAutomation": [],
      "panAutomation": []
    },
    {
      "pitch": 157,
      "measure": 19,
      "beat": 15,
      "duration": 1,
      "velocity": 100,
      "pan": 0,
      "instrument": "ORG_M60",
      "pipi": 0,
      "volumeAutomation": [],
      "panAutomation": []
    },
    {
      "pitch": 154,
      "measure": 20,
      "beat": 0,
      "duration": 1,
      "velocity": 100,
      "pan": 0,
      "instrument": "ORG_M60",
      "pipi": 0,
      "volumeAutomation": [],
      "panAutomation": []
    },
    {
      "pitch": 181,
      "measure": 20,
      "beat": 2,
      "duration": 1,
      "velocity": 100,
      "pan": 0,
      "instrument": "ORG_M60",
      "pipi": 0,
      "volumeAutomation": [],
      "panAutomation": []
    },
    {
      "pitch": 169,
      "measure": 20,
      "beat": 4,
      "duration": 1,
      "velocity": 100,
      "pan": 0,
      "instrument": "ORG_M60",
      "pipi": 0,
      "volumeAutomation": [],
      "panAutomation": []
    },
    {
      "pitch": 181,
      "measure": 20,
      "beat": 6,
      "duration": 1,
      "velocity": 100,
      "pan": 0,
      "instrument": "ORG_M60",
      "pipi": 0,
      "volumeAutomation": [],
      "panAutomation": []
    },
    {
      "pitch": 154,
      "measure": 20,
      "beat": 8,
      "duration": 1,
      "velocity": 100,
      "pan": 0,
      "instrument": "ORG_M60",
      "pipi": 0,
      "volumeAutomation": [],
      "panAutomation": []
    },
    {
      "pitch": 181,
      "measure": 20,
      "beat": 10,
      "duration": 1,
      "velocity": 100,
      "pan": 0,
      "instrument": "ORG_M60",
      "pipi": 0,
      "volumeAutomation": [],
      "panAutomation": []
    },
    {
      "pitch": 169,
      "measure": 20,
      "beat": 12,
      "duration": 1,
      "velocity": 100,
      "pan": 0,
      "instrument": "ORG_M60",
      "pipi": 0,
      "volumeAutomation": [],
      "panAutomation": []
    },
    {
      "pitch": 181,
      "measure": 20,
      "beat": 14,
      "duration": 1,
      "velocity": 100,
      "pan": 0,
      "instrument": "ORG_M60",
      "pipi": 0,
      "volumeAutomation": [],
      "panAutomation": []
    },
    {
      "pitch": 181,
      "measure": 21,
      "beat": 2,
      "duration": 1,
      "velocity": 100,
      "pan": 0,
      "instrument": "ORG_M60",
      "pipi": 0,
      "volumeAutomation": [],
      "panAutomation": []
    },
    {
      "pitch": 169,
      "measure": 21,
      "beat": 4,
      "duration": 1,
      "velocity": 100,
      "pan": 0,
      "instrument": "ORG_M60",
      "pipi": 0,
      "volumeAutomation": [],
      "panAutomation": []
    },
    {
      "pitch": 181,
      "measure": 21,
      "beat": 6,
      "duration": 1,
      "velocity": 100,
      "pan": 0,
      "instrument": "ORG_M60",
      "pipi": 0,
      "volumeAutomation": [],
      "panAutomation": []
    },
    {
      "pitch": 154,
      "measure": 21,
      "beat": 8,
      "duration": 1,
      "velocity": 100,
      "pan": 0,
      "instrument": "ORG_M60",
      "pipi": 0,
      "volumeAutomation": [],
      "panAutomation": []
    },
    {
      "pitch": 181,
      "measure": 21,
      "beat": 10,
      "duration": 1,
      "velocity": 100,
      "pan": 0,
      "instrument": "ORG_M60",
      "pipi": 0,
      "volumeAutomation": [],
      "panAutomation": []
    },
    {
      "pitch": 169,
      "measure": 21,
      "beat": 12,
      "duration": 1,
      "velocity": 100,
      "pan": 0,
      "instrument": "ORG_M60",
      "pipi": 0,
      "volumeAutomation": [],
      "panAutomation": []
    },
    {
      "pitch": 181,
      "measure": 21,
      "beat": 14,
      "duration": 1,
      "velocity": 100,
      "pan": 0,
      "instrument": "ORG_M60",
      "pipi": 0,
      "volumeAutomation": [],
      "panAutomation": []
    },
    {
      "pitch": 161,
      "measure": 22,
      "beat": 0,
      "duration": 1,
      "velocity": 100,
      "pan": 0,
      "instrument": "ORG_M60",
      "pipi": 0,
      "volumeAutomation": [],
      "panAutomation": []
    },
    {
      "pitch": 189,
      "measure": 22,
      "beat": 2,
      "duration": 1,
      "velocity": 100,
      "pan": 0,
      "instrument": "ORG_M60",
      "pipi": 0,
      "volumeAutomation": [],
      "panAutomation": []
    },
    {
      "pitch": 177,
      "measure": 22,
      "beat": 4,
      "duration": 1,
      "velocity": 100,
      "pan": 0,
      "instrument": "ORG_M60",
      "pipi": 0,
      "volumeAutomation": [],
      "panAutomation": []
    },
    {
      "pitch": 189,
      "measure": 22,
      "beat": 6,
      "duration": 1,
      "velocity": 100,
      "pan": 0,
      "instrument": "ORG_M60",
      "pipi": 0,
      "volumeAutomation": [],
      "panAutomation": []
    },
    {
      "pitch": 161,
      "measure": 22,
      "beat": 8,
      "duration": 1,
      "velocity": 100,
      "pan": 0,
      "instrument": "ORG_M60",
      "pipi": 0,
      "volumeAutomation": [],
      "panAutomation": []
    },
    {
      "pitch": 189,
      "measure": 22,
      "beat": 10,
      "duration": 1,
      "velocity": 100,
      "pan": 0,
      "instrument": "ORG_M60",
      "pipi": 0,
      "volumeAutomation": [],
      "panAutomation": []
    },
    {
      "pitch": 177,
      "measure": 22,
      "beat": 12,
      "duration": 1,
      "velocity": 100,
      "pan": 0,
      "instrument": "ORG_M60",
      "pipi": 0,
      "volumeAutomation": [],
      "panAutomation": []
    },
    {
      "pitch": 189,
      "measure": 22,
      "beat": 14,
      "duration": 1,
      "velocity": 100,
      "pan": 0,
      "instrument": "ORG_M60",
      "pipi": 0,
      "volumeAutomation": [],
      "panAutomation": []
    },
    {
      "pitch": 189,
      "measure": 23,
      "beat": 2,
      "duration": 1,
      "velocity": 100,
      "pan": 0,
      "instrument": "ORG_M60",
      "pipi": 0,
      "volumeAutomation": [],
      "panAutomation": []
    },
    {
      "pitch": 177,
      "measure": 23,
      "beat": 4,
      "duration": 1,
      "velocity": 100,
      "pan": 0,
      "instrument": "ORG_M60",
      "pipi": 0,
      "volumeAutomation": [],
      "panAutomation": []
    },
    {
      "pitch": 189,
      "measure": 23,
      "beat": 6,
      "duration": 1,
      "velocity": 100,
      "pan": 0,
      "instrument": "ORG_M60",
      "pipi": 0,
      "volumeAutomation": [],
      "panAutomation": []
    },
    {
      "pitch": 161,
      "measure": 23,
      "beat": 8,
      "duration": 1,
      "velocity": 100,
      "pan": 0,
      "instrument": "ORG_M60",
      "pipi": 0,
      "volumeAutomation": [],
      "panAutomation": []
    },
    {
      "pitch": 189,
      "measure": 23,
      "beat": 10,
      "duration": 1,
      "velocity": 100,
      "pan": 0,
      "instrument": "ORG_M60",
      "pipi": 0,
      "volumeAutomation": [],
      "panAutomation": []
    },
    {
      "pitch": 177,
      "measure": 23,
      "beat": 12,
      "duration": 1,
      "velocity": 100,
      "pan": 0,
      "instrument": "ORG_M60",
      "pipi": 0,
      "volumeAutomation": [],
      "panAutomation": []
    },
    {
      "pitch": 189,
      "measure": 23,
      "beat": 14,
      "duration": 1,
      "velocity": 100,
      "pan": 0,
      "instrument": "ORG_M60",
      "pipi": 0,
      "volumeAutomation": [],
      "panAutomation": []
    },
    {
      "pitch": 169,
      "measure": 24,
      "beat": 0,
      "duration": 1,
      "velocity": 100,
      "pan": 0,
      "instrument": "ORG_M60",
      "pipi": 0,
      "volumeAutomation": [],
      "panAutomation": []
    },
    {
      "pitch": 196,
      "measure": 24,
      "beat": 2,
      "duration": 1,
      "velocity": 100,
      "pan": 0,
      "instrument": "ORG_M60",
      "pipi": 0,
      "volumeAutomation": [],
      "panAutomation": []
    },
    {
      "pitch": 181,
      "measure": 24,
      "beat": 4,
      "duration": 1,
      "velocity": 100,
      "pan": 0,
      "instrument": "ORG_M60",
      "pipi": 0,
      "volumeAutomation": [],
      "panAutomation": []
    },
    {
      "pitch": 196,
      "measure": 24,
      "beat": 6,
      "duration": 1,
      "velocity": 100,
      "pan": 0,
      "instrument": "ORG_M60",
      "pipi": 0,
      "volumeAutomation": [],
      "panAutomation": []
    },
    {
      "pitch": 169,
      "measure": 24,
      "beat": 8,
      "duration": 1,
      "velocity": 100,
      "pan": 0,
      "instrument": "ORG_M60",
      "pipi": 0,
      "volumeAutomation": [],
      "panAutomation": []
    },
    {
      "pitch": 196,
      "measure": 24,
      "beat": 10,
      "duration": 1,
      "velocity": 100,
      "pan": 0,
      "instrument": "ORG_M60",
      "pipi": 0,
      "volumeAutomation": [],
      "panAutomation": []
    },
    {
      "pitch": 181,
      "measure": 24,
      "beat": 12,
      "duration": 1,
      "velocity": 100,
      "pan": 0,
      "instrument": "ORG_M60",
      "pipi": 0,
      "volumeAutomation": [],
      "panAutomation": []
    },
    {
      "pitch": 196,
      "measure": 24,
      "beat": 14,
      "duration": 1,
      "velocity": 100,
      "pan": 0,
      "instrument": "ORG_M60",
      "pipi": 0,
      "volumeAutomation": [],
      "panAutomation": []
    },
    {
      "pitch": 169,
      "measure": 25,
      "beat": 0,
      "duration": 1,
      "velocity": 100,
      "pan": 0,
      "instrument": "ORG_M60",
      "pipi": 0,
      "volumeAutomation": [],
      "panAutomation": []
    },
    {
      "pitch": 196,
      "measure": 25,
      "beat": 2,
      "duration": 1,
      "velocity": 100,
      "pan": 0,
      "instrument": "ORG_M60",
      "pipi": 0,
      "volumeAutomation": [],
      "panAutomation": []
    },
    {
      "pitch": 181,
      "measure": 25,
      "beat": 4,
      "duration": 1,
      "velocity": 100,
      "pan": 0,
      "instrument": "ORG_M60",
      "pipi": 0,
      "volumeAutomation": [],
      "panAutomation": []
    },
    {
      "pitch": 196,
      "measure": 25,
      "beat": 6,
      "duration": 1,
      "velocity": 100,
      "pan": 0,
      "instrument": "ORG_M60",
      "pipi": 0,
      "volumeAutomation": [],
      "panAutomation": []
    },
    {
      "pitch": 169,
      "measure": 25,
      "beat": 8,
      "duration": 1,
      "velocity": 100,
      "pan": 0,
      "instrument": "ORG_M60",
      "pipi": 0,
      "volumeAutomation": [],
      "panAutomation": []
    },
    {
      "pitch": 196,
      "measure": 25,
      "beat": 10,
      "duration": 1,
      "velocity": 100,
      "pan": 0,
      "instrument": "ORG_M60",
      "pipi": 0,
      "volumeAutomation": [],
      "panAutomation": []
    },
    {
      "pitch": 181,
      "measure": 25,
      "beat": 12,
      "duration": 1,
      "velocity": 100,
      "pan": 0,
      "instrument": "ORG_M60",
      "pipi": 0,
      "volumeAutomation": [],
      "panAutomation": []
    },
    {
      "pitch": 196,
      "measure": 25,
      "beat": 14,
      "duration": 1,
      "velocity": 100,
      "pan": 0,
      "instrument": "ORG_M60",
      "pipi": 0,
      "volumeAutomation": [],
      "panAutomation": []
    },
    {
      "pitch": 196,
      "measure": 26,
      "beat": 2,
      "duration": 1,
      "velocity": 100,
      "pan": 0,
      "instrument": "ORG_M60",
      "pipi": 0,
      "volumeAutomation": [],
      "panAutomation": []
    },
    {
      "pitch": 181,
      "measure": 26,
      "beat": 4,
      "duration": 1,
      "velocity": 100,
      "pan": 0,
      "instrument": "ORG_M60",
      "pipi": 0,
      "volumeAutomation": [],
      "panAutomation": []
    },
    {
      "pitch": 196,
      "measure": 26,
      "beat": 6,
      "duration": 1,
      "velocity": 100,
      "pan": 0,
      "instrument": "ORG_M60",
      "pipi": 0,
      "volumeAutomation": [],
      "panAutomation": []
    },
    {
      "pitch": 169,
      "measure": 26,
      "beat": 8,
      "duration": 1,
      "velocity": 100,
      "pan": 0,
      "instrument": "ORG_M60",
      "pipi": 0,
      "volumeAutomation": [],
      "panAutomation": []
    },
    {
      "pitch": 196,
      "measure": 26,
      "beat": 10,
      "duration": 1,
      "velocity": 100,
      "pan": 0,
      "instrument": "ORG_M60",
      "pipi": 0,
      "volumeAutomation": [],
      "panAutomation": []
    },
    {
      "pitch": 181,
      "measure": 26,
      "beat": 12,
      "duration": 1,
      "velocity": 100,
      "pan": 0,
      "instrument": "ORG_M60",
      "pipi": 0,
      "volumeAutomation": [],
      "panAutomation": []
    },
    {
      "pitch": 196,
      "measure": 26,
      "beat": 14,
      "duration": 1,
      "velocity": 100,
      "pan": 0,
      "instrument": "ORG_M60",
      "pipi": 0,
      "volumeAutomation": [],
      "panAutomation": []
    },
    {
      "pitch": 169,
      "measure": 27,
      "beat": 0,
      "duration": 1,
      "velocity": 100,
      "pan": 0,
      "instrument": "ORG_M60",
      "pipi": 0,
      "volumeAutomation": [],
      "panAutomation": []
    },
    {
      "pitch": 196,
      "measure": 27,
      "beat": 2,
      "duration": 1,
      "velocity": 100,
      "pan": 0,
      "instrument": "ORG_M60",
      "pipi": 0,
      "volumeAutomation": [],
      "panAutomation": []
    },
    {
      "pitch": 181,
      "measure": 27,
      "beat": 4,
      "duration": 1,
      "velocity": 100,
      "pan": 0,
      "instrument": "ORG_M60",
      "pipi": 0,
      "volumeAutomation": [],
      "panAutomation": []
    },
    {
      "pitch": 196,
      "measure": 27,
      "beat": 6,
      "duration": 1,
      "velocity": 100,
      "pan": 0,
      "instrument": "ORG_M60",
      "pipi": 0,
      "volumeAutomation": [],
      "panAutomation": []
    },
    {
      "pitch": 169,
      "measure": 27,
      "beat": 8,
      "duration": 1,
      "velocity": 100,
      "pan": 0,
      "instrument": "ORG_M60",
      "pipi": 0,
      "volumeAutomation": [],
      "panAutomation": []
    },
    {
      "pitch": 196,
      "measure": 27,
      "beat": 10,
      "duration": 1,
      "velocity": 100,
      "pan": 0,
      "instrument": "ORG_M60",
      "pipi": 0,
      "volumeAutomation": [],
      "panAutomation": []
    },
    {
      "pitch": 181,
      "measure": 27,
      "beat": 12,
      "duration": 1,
      "velocity": 100,
      "pan": 0,
      "instrument": "ORG_M60",
      "pipi": 0,
      "volumeAutomation": [],
      "panAutomation": []
    },
    {
      "pitch": 196,
      "measure": 27,
      "beat": 14,
      "duration": 1,
      "velocity": 100,
      "pan": 0,
      "instrument": "ORG_M60",
      "pipi": 0,
      "volumeAutomation": [],
      "panAutomation": []
    },
    {
      "pitch": 200,
      "measure": 28,
      "beat": 0,
      "duration": 1,
      "velocity": 100,
      "pan": 0,
      "instrument": "ORG_M60",
      "pipi": 0,
      "volumeAutomation": [],
      "panAutomation": []
    },
    {
      "pitch": 227,
      "measure": 28,
      "beat": 2,
      "duration": 1,
      "velocity": 100,
      "pan": 0,
      "instrument": "ORG_M60",
      "pipi": 0,
      "volumeAutomation": [],
      "panAutomation": []
    },
    {
      "pitch": 207,
      "measure": 28,
      "beat": 4,
      "duration": 1,
      "velocity": 100,
      "pan": 0,
      "instrument": "ORG_M60",
      "pipi": 0,
      "volumeAutomation": [],
      "panAutomation": []
    },
    {
      "pitch": 227,
      "measure": 28,
      "beat": 6,
      "duration": 1,
      "velocity": 100,
      "pan": 0,
      "instrument": "ORG_M60",
      "pipi": 0,
      "volumeAutomation": [],
      "panAutomation": []
    },
    {
      "pitch": 200,
      "measure": 28,
      "beat": 8,
      "duration": 1,
      "velocity": 100,
      "pan": 0,
      "instrument": "ORG_M60",
      "pipi": 0,
      "volumeAutomation": [],
      "panAutomation": []
    },
    {
      "pitch": 227,
      "measure": 28,
      "beat": 10,
      "duration": 1,
      "velocity": 100,
      "pan": 0,
      "instrument": "ORG_M60",
      "pipi": 0,
      "volumeAutomation": [],
      "panAutomation": []
    },
    {
      "pitch": 207,
      "measure": 28,
      "beat": 12,
      "duration": 1,
      "velocity": 100,
      "pan": 0,
      "instrument": "ORG_M60",
      "pipi": 0,
      "volumeAutomation": [],
      "panAutomation": []
    },
    {
      "pitch": 227,
      "measure": 28,
      "beat": 14,
      "duration": 1,
      "velocity": 100,
      "pan": 0,
      "instrument": "ORG_M60",
      "pipi": 0,
      "volumeAutomation": [],
      "panAutomation": []
    },
    {
      "pitch": 200,
      "measure": 29,
      "beat": 0,
      "duration": 1,
      "velocity": 100,
      "pan": 0,
      "instrument": "ORG_M60",
      "pipi": 0,
      "volumeAutomation": [],
      "panAutomation": []
    },
    {
      "pitch": 227,
      "measure": 29,
      "beat": 2,
      "duration": 1,
      "velocity": 100,
      "pan": 0,
      "instrument": "ORG_M60",
      "pipi": 0,
      "volumeAutomation": [],
      "panAutomation": []
    },
    {
      "pitch": 207,
      "measure": 29,
      "beat": 4,
      "duration": 1,
      "velocity": 100,
      "pan": 0,
      "instrument": "ORG_M60",
      "pipi": 0,
      "volumeAutomation": [],
      "panAutomation": []
    },
    {
      "pitch": 227,
      "measure": 29,
      "beat": 6,
      "duration": 1,
      "velocity": 100,
      "pan": 0,
      "instrument": "ORG_M60",
      "pipi": 0,
      "volumeAutomation": [],
      "panAutomation": []
    },
    {
      "pitch": 200,
      "measure": 29,
      "beat": 8,
      "duration": 1,
      "velocity": 100,
      "pan": 0,
      "instrument": "ORG_M60",
      "pipi": 0,
      "volumeAutomation": [],
      "panAutomation": []
    },
    {
      "pitch": 227,
      "measure": 29,
      "beat": 10,
      "duration": 1,
      "velocity": 100,
      "pan": 0,
      "instrument": "ORG_M60",
      "pipi": 0,
      "volumeAutomation": [],
      "panAutomation": []
    },
    {
      "pitch": 207,
      "measure": 29,
      "beat": 12,
      "duration": 1,
      "velocity": 100,
      "pan": 0,
      "instrument": "ORG_M60",
      "pipi": 0,
      "volumeAutomation": [],
      "panAutomation": []
    },
    {
      "pitch": 227,
      "measure": 29,
      "beat": 14,
      "duration": 1,
      "velocity": 100,
      "pan": 0,
      "instrument": "ORG_M60",
      "pipi": 0,
      "volumeAutomation": [],
      "panAutomation": []
    },
    {
      "pitch": 207,
      "measure": 30,
      "beat": 0,
      "duration": 1,
      "velocity": 100,
      "pan": 0,
      "instrument": "ORG_M60",
      "pipi": 0,
      "volumeAutomation": [],
      "panAutomation": []
    },
    {
      "pitch": 234,
      "measure": 30,
      "beat": 2,
      "duration": 1,
      "velocity": 100,
      "pan": 0,
      "instrument": "ORG_M60",
      "pipi": 0,
      "volumeAutomation": [],
      "panAutomation": []
    },
    {
      "pitch": 215,
      "measure": 30,
      "beat": 4,
      "duration": 1,
      "velocity": 100,
      "pan": 0,
      "instrument": "ORG_M60",
      "pipi": 0,
      "volumeAutomation": [],
      "panAutomation": []
    },
    {
      "pitch": 234,
      "measure": 30,
      "beat": 6,
      "duration": 1,
      "velocity": 100,
      "pan": 0,
      "instrument": "ORG_M60",
      "pipi": 0,
      "volumeAutomation": [],
      "panAutomation": []
    },
    {
      "pitch": 207,
      "measure": 30,
      "beat": 8,
      "duration": 1,
      "velocity": 100,
      "pan": 0,
      "instrument": "ORG_M60",
      "pipi": 0,
      "volumeAutomation": [],
      "panAutomation": []
    },
    {
      "pitch": 234,
      "measure": 30,
      "beat": 10,
      "duration": 1,
      "velocity": 100,
      "pan": 0,
      "instrument": "ORG_M60",
      "pipi": 0,
      "volumeAutomation": [],
      "panAutomation": []
    },
    {
      "pitch": 215,
      "measure": 30,
      "beat": 12,
      "duration": 1,
      "velocity": 100,
      "pan": 0,
      "instrument": "ORG_M60",
      "pipi": 0,
      "volumeAutomation": [],
      "panAutomation": []
    },
    {
      "pitch": 234,
      "measure": 30,
      "beat": 14,
      "duration": 1,
      "velocity": 100,
      "pan": 0,
      "instrument": "ORG_M60",
      "pipi": 0,
      "volumeAutomation": [],
      "panAutomation": []
    },
    {
      "pitch": 207,
      "measure": 31,
      "beat": 0,
      "duration": 1,
      "velocity": 100,
      "pan": 0,
      "instrument": "ORG_M60",
      "pipi": 0,
      "volumeAutomation": [],
      "panAutomation": []
    },
    {
      "pitch": 234,
      "measure": 31,
      "beat": 2,
      "duration": 1,
      "velocity": 100,
      "pan": 0,
      "instrument": "ORG_M60",
      "pipi": 0,
      "volumeAutomation": [],
      "panAutomation": []
    },
    {
      "pitch": 215,
      "measure": 31,
      "beat": 4,
      "duration": 1,
      "velocity": 100,
      "pan": 0,
      "instrument": "ORG_M60",
      "pipi": 0,
      "volumeAutomation": [],
      "panAutomation": []
    },
    {
      "pitch": 234,
      "measure": 31,
      "beat": 6,
      "duration": 1,
      "velocity": 100,
      "pan": 0,
      "instrument": "ORG_M60",
      "pipi": 0,
      "volumeAutomation": [],
      "panAutomation": []
    },
    {
      "pitch": 207,
      "measure": 31,
      "beat": 8,
      "duration": 1,
      "velocity": 100,
      "pan": 0,
      "instrument": "ORG_M60",
      "pipi": 0,
      "volumeAutomation": [],
      "panAutomation": []
    },
    {
      "pitch": 234,
      "measure": 31,
      "beat": 10,
      "duration": 1,
      "velocity": 100,
      "pan": 0,
      "instrument": "ORG_M60",
      "pipi": 0,
      "volumeAutomation": [],
      "panAutomation": []
    },
    {
      "pitch": 215,
      "measure": 31,
      "beat": 12,
      "duration": 1,
      "velocity": 100,
      "pan": 0,
      "instrument": "ORG_M60",
      "pipi": 0,
      "volumeAutomation": [],
      "panAutomation": []
    },
    {
      "pitch": 234,
      "measure": 31,
      "beat": 14,
      "duration": 1,
      "velocity": 100,
      "pan": 0,
      "instrument": "ORG_M60",
      "pipi": 0,
      "volumeAutomation": [],
      "panAutomation": []
    },
    {
      "pitch": 200,
      "measure": 32,
      "beat": 0,
      "duration": 1,
      "velocity": 100,
      "pan": 0,
      "instrument": "ORG_M60",
      "pipi": 0,
      "volumeAutomation": [],
      "panAutomation": []
    },
    {
      "pitch": 227,
      "measure": 32,
      "beat": 2,
      "duration": 1,
      "velocity": 100,
      "pan": 0,
      "instrument": "ORG_M60",
      "pipi": 0,
      "volumeAutomation": [],
      "panAutomation": []
    },
    {
      "pitch": 207,
      "measure": 32,
      "beat": 4,
      "duration": 1,
      "velocity": 100,
      "pan": 0,
      "instrument": "ORG_M60",
      "pipi": 0,
      "volumeAutomation": [],
      "panAutomation": []
    },
    {
      "pitch": 227,
      "measure": 32,
      "beat": 6,
      "duration": 1,
      "velocity": 100,
      "pan": 0,
      "instrument": "ORG_M60",
      "pipi": 0,
      "volumeAutomation": [],
      "panAutomation": []
    },
    {
      "pitch": 200,
      "measure": 32,
      "beat": 8,
      "duration": 1,
      "velocity": 100,
      "pan": 0,
      "instrument": "ORG_M60",
      "pipi": 0,
      "volumeAutomation": [],
      "panAutomation": []
    },
    {
      "pitch": 227,
      "measure": 32,
      "beat": 10,
      "duration": 1,
      "velocity": 100,
      "pan": 0,
      "instrument": "ORG_M60",
      "pipi": 0,
      "volumeAutomation": [],
      "panAutomation": []
    },
    {
      "pitch": 207,
      "measure": 32,
      "beat": 12,
      "duration": 1,
      "velocity": 100,
      "pan": 0,
      "instrument": "ORG_M60",
      "pipi": 0,
      "volumeAutomation": [],
      "panAutomation": []
    },
    {
      "pitch": 227,
      "measure": 32,
      "beat": 14,
      "duration": 1,
      "velocity": 100,
      "pan": 0,
      "instrument": "ORG_M60",
      "pipi": 0,
      "volumeAutomation": [],
      "panAutomation": []
    },
    {
      "pitch": 200,
      "measure": 33,
      "beat": 0,
      "duration": 1,
      "velocity": 100,
      "pan": 0,
      "instrument": "ORG_M60",
      "pipi": 0,
      "volumeAutomation": [],
      "panAutomation": []
    },
    {
      "pitch": 227,
      "measure": 33,
      "beat": 2,
      "duration": 1,
      "velocity": 100,
      "pan": 0,
      "instrument": "ORG_M60",
      "pipi": 0,
      "volumeAutomation": [],
      "panAutomation": []
    },
    {
      "pitch": 207,
      "measure": 33,
      "beat": 4,
      "duration": 1,
      "velocity": 100,
      "pan": 0,
      "instrument": "ORG_M60",
      "pipi": 0,
      "volumeAutomation": [],
      "panAutomation": []
    },
    {
      "pitch": 227,
      "measure": 33,
      "beat": 6,
      "duration": 1,
      "velocity": 100,
      "pan": 0,
      "instrument": "ORG_M60",
      "pipi": 0,
      "volumeAutomation": [],
      "panAutomation": []
    },
    {
      "pitch": 200,
      "measure": 33,
      "beat": 8,
      "duration": 1,
      "velocity": 100,
      "pan": 0,
      "instrument": "ORG_M60",
      "pipi": 0,
      "volumeAutomation": [],
      "panAutomation": []
    },
    {
      "pitch": 227,
      "measure": 33,
      "beat": 10,
      "duration": 1,
      "velocity": 100,
      "pan": 0,
      "instrument": "ORG_M60",
      "pipi": 0,
      "volumeAutomation": [],
      "panAutomation": []
    },
    {
      "pitch": 207,
      "measure": 33,
      "beat": 12,
      "duration": 1,
      "velocity": 100,
      "pan": 0,
      "instrument": "ORG_M60",
      "pipi": 0,
      "volumeAutomation": [],
      "panAutomation": []
    },
    {
      "pitch": 227,
      "measure": 33,
      "beat": 14,
      "duration": 1,
      "velocity": 100,
      "pan": 0,
      "instrument": "ORG_M60",
      "pipi": 0,
      "volumeAutomation": [],
      "panAutomation": []
    },
    {
      "pitch": 207,
      "measure": 34,
      "beat": 0,
      "duration": 1,
      "velocity": 100,
      "pan": 0,
      "instrument": "ORG_M60",
      "pipi": 0,
      "volumeAutomation": [],
      "panAutomation": []
    },
    {
      "pitch": 234,
      "measure": 34,
      "beat": 2,
      "duration": 1,
      "velocity": 100,
      "pan": 0,
      "instrument": "ORG_M60",
      "pipi": 0,
      "volumeAutomation": [],
      "panAutomation": []
    },
    {
      "pitch": 215,
      "measure": 34,
      "beat": 4,
      "duration": 1,
      "velocity": 100,
      "pan": 0,
      "instrument": "ORG_M60",
      "pipi": 0,
      "volumeAutomation": [],
      "panAutomation": []
    },
    {
      "pitch": 234,
      "measure": 34,
      "beat": 6,
      "duration": 1,
      "velocity": 100,
      "pan": 0,
      "instrument": "ORG_M60",
      "pipi": 0,
      "volumeAutomation": [],
      "panAutomation": []
    },
    {
      "pitch": 207,
      "measure": 34,
      "beat": 8,
      "duration": 1,
      "velocity": 100,
      "pan": 0,
      "instrument": "ORG_M60",
      "pipi": 0,
      "volumeAutomation": [],
      "panAutomation": []
    },
    {
      "pitch": 234,
      "measure": 34,
      "beat": 10,
      "duration": 1,
      "velocity": 100,
      "pan": 0,
      "instrument": "ORG_M60",
      "pipi": 0,
      "volumeAutomation": [],
      "panAutomation": []
    },
    {
      "pitch": 215,
      "measure": 34,
      "beat": 12,
      "duration": 1,
      "velocity": 100,
      "pan": 0,
      "instrument": "ORG_M60",
      "pipi": 0,
      "volumeAutomation": [],
      "panAutomation": []
    },
    {
      "pitch": 234,
      "measure": 34,
      "beat": 14,
      "duration": 1,
      "velocity": 100,
      "pan": 0,
      "instrument": "ORG_M60",
      "pipi": 0,
      "volumeAutomation": [],
      "panAutomation": []
    },
    {
      "pitch": 207,
      "measure": 35,
      "beat": 0,
      "duration": 1,
      "velocity": 100,
      "pan": 0,
      "instrument": "ORG_M60",
      "pipi": 0,
      "volumeAutomation": [],
      "panAutomation": []
    },
    {
      "pitch": 234,
      "measure": 35,
      "beat": 2,
      "duration": 1,
      "velocity": 100,
      "pan": 0,
      "instrument": "ORG_M60",
      "pipi": 0,
      "volumeAutomation": [],
      "panAutomation": []
    },
    {
      "pitch": 215,
      "measure": 35,
      "beat": 4,
      "duration": 1,
      "velocity": 100,
      "pan": 0,
      "instrument": "ORG_M60",
      "pipi": 0,
      "volumeAutomation": [],
      "panAutomation": []
    },
    {
      "pitch": 234,
      "measure": 35,
      "beat": 6,
      "duration": 1,
      "velocity": 100,
      "pan": 0,
      "instrument": "ORG_M60",
      "pipi": 0,
      "volumeAutomation": [],
      "panAutomation": []
    },
    {
      "pitch": 207,
      "measure": 35,
      "beat": 8,
      "duration": 1,
      "velocity": 100,
      "pan": 0,
      "instrument": "ORG_M60",
      "pipi": 0,
      "volumeAutomation": [],
      "panAutomation": []
    },
    {
      "pitch": 234,
      "measure": 35,
      "beat": 10,
      "duration": 1,
      "velocity": 100,
      "pan": 0,
      "instrument": "ORG_M60",
      "pipi": 0,
      "volumeAutomation": [],
      "panAutomation": []
    },
    {
      "pitch": 215,
      "measure": 35,
      "beat": 12,
      "duration": 1,
      "velocity": 100,
      "pan": 0,
      "instrument": "ORG_M60",
      "pipi": 0,
      "volumeAutomation": [],
      "panAutomation": []
    },
    {
      "pitch": 234,
      "measure": 35,
      "beat": 14,
      "duration": 1,
      "velocity": 100,
      "pan": 0,
      "instrument": "ORG_M60",
      "pipi": 0,
      "volumeAutomation": [],
      "panAutomation": []
    },
    {
      "pitch": 200,
      "measure": 36,
      "beat": 0,
      "duration": 1,
      "velocity": 100,
      "pan": 0,
      "instrument": "ORG_M60",
      "pipi": 0,
      "volumeAutomation": [],
      "panAutomation": []
    },
    {
      "pitch": 227,
      "measure": 36,
      "beat": 2,
      "duration": 1,
      "velocity": 100,
      "pan": 0,
      "instrument": "ORG_M60",
      "pipi": 0,
      "volumeAutomation": [],
      "panAutomation": []
    },
    {
      "pitch": 207,
      "measure": 36,
      "beat": 4,
      "duration": 1,
      "velocity": 100,
      "pan": 0,
      "instrument": "ORG_M60",
      "pipi": 0,
      "volumeAutomation": [],
      "panAutomation": []
    },
    {
      "pitch": 227,
      "measure": 36,
      "beat": 6,
      "duration": 1,
      "velocity": 100,
      "pan": 0,
      "instrument": "ORG_M60",
      "pipi": 0,
      "volumeAutomation": [],
      "panAutomation": []
    },
    {
      "pitch": 200,
      "measure": 36,
      "beat": 8,
      "duration": 1,
      "velocity": 100,
      "pan": 0,
      "instrument": "ORG_M60",
      "pipi": 0,
      "volumeAutomation": [],
      "panAutomation": []
    },
    {
      "pitch": 227,
      "measure": 36,
      "beat": 10,
      "duration": 1,
      "velocity": 100,
      "pan": 0,
      "instrument": "ORG_M60",
      "pipi": 0,
      "volumeAutomation": [],
      "panAutomation": []
    },
    {
      "pitch": 207,
      "measure": 36,
      "beat": 12,
      "duration": 1,
      "velocity": 100,
      "pan": 0,
      "instrument": "ORG_M60",
      "pipi": 0,
      "volumeAutomation": [],
      "panAutomation": []
    },
    {
      "pitch": 227,
      "measure": 36,
      "beat": 14,
      "duration": 1,
      "velocity": 100,
      "pan": 0,
      "instrument": "ORG_M60",
      "pipi": 0,
      "volumeAutomation": [],
      "panAutomation": []
    },
    {
      "pitch": 200,
      "measure": 37,
      "beat": 0,
      "duration": 1,
      "velocity": 100,
      "pan": 0,
      "instrument": "ORG_M60",
      "pipi": 0,
      "volumeAutomation": [],
      "panAutomation": []
    },
    {
      "pitch": 227,
      "measure": 37,
      "beat": 2,
      "duration": 1,
      "velocity": 100,
      "pan": 0,
      "instrument": "ORG_M60",
      "pipi": 0,
      "volumeAutomation": [],
      "panAutomation": []
    },
    {
      "pitch": 207,
      "measure": 37,
      "beat": 4,
      "duration": 1,
      "velocity": 100,
      "pan": 0,
      "instrument": "ORG_M60",
      "pipi": 0,
      "volumeAutomation": [],
      "panAutomation": []
    },
    {
      "pitch": 227,
      "measure": 37,
      "beat": 6,
      "duration": 1,
      "velocity": 100,
      "pan": 0,
      "instrument": "ORG_M60",
      "pipi": 0,
      "volumeAutomation": [],
      "panAutomation": []
    },
    {
      "pitch": 200,
      "measure": 37,
      "beat": 8,
      "duration": 1,
      "velocity": 100,
      "pan": 0,
      "instrument": "ORG_M60",
      "pipi": 0,
      "volumeAutomation": [],
      "panAutomation": []
    },
    {
      "pitch": 227,
      "measure": 37,
      "beat": 10,
      "duration": 1,
      "velocity": 100,
      "pan": 0,
      "instrument": "ORG_M60",
      "pipi": 0,
      "volumeAutomation": [],
      "panAutomation": []
    },
    {
      "pitch": 207,
      "measure": 37,
      "beat": 12,
      "duration": 1,
      "velocity": 100,
      "pan": 0,
      "instrument": "ORG_M60",
      "pipi": 0,
      "volumeAutomation": [],
      "panAutomation": []
    },
    {
      "pitch": 227,
      "measure": 37,
      "beat": 14,
      "duration": 1,
      "velocity": 100,
      "pan": 0,
      "instrument": "ORG_M60",
      "pipi": 0,
      "volumeAutomation": [],
      "panAutomation": []
    },
    {
      "pitch": 207,
      "measure": 38,
      "beat": 0,
      "duration": 1,
      "velocity": 100,
      "pan": 0,
      "instrument": "ORG_M60",
      "pipi": 0,
      "volumeAutomation": [],
      "panAutomation": []
    },
    {
      "pitch": 234,
      "measure": 38,
      "beat": 2,
      "duration": 1,
      "velocity": 100,
      "pan": 0,
      "instrument": "ORG_M60",
      "pipi": 0,
      "volumeAutomation": [],
      "panAutomation": []
    },
    {
      "pitch": 215,
      "measure": 38,
      "beat": 4,
      "duration": 1,
      "velocity": 100,
      "pan": 0,
      "instrument": "ORG_M60",
      "pipi": 0,
      "volumeAutomation": [],
      "panAutomation": []
    },
    {
      "pitch": 234,
      "measure": 38,
      "beat": 6,
      "duration": 1,
      "velocity": 100,
      "pan": 0,
      "instrument": "ORG_M60",
      "pipi": 0,
      "volumeAutomation": [],
      "panAutomation": []
    },
    {
      "pitch": 207,
      "measure": 38,
      "beat": 8,
      "duration": 1,
      "velocity": 100,
      "pan": 0,
      "instrument": "ORG_M60",
      "pipi": 0,
      "volumeAutomation": [],
      "panAutomation": []
    },
    {
      "pitch": 234,
      "measure": 38,
      "beat": 10,
      "duration": 1,
      "velocity": 100,
      "pan": 0,
      "instrument": "ORG_M60",
      "pipi": 0,
      "volumeAutomation": [],
      "panAutomation": []
    },
    {
      "pitch": 215,
      "measure": 38,
      "beat": 12,
      "duration": 1,
      "velocity": 100,
      "pan": 0,
      "instrument": "ORG_M60",
      "pipi": 0,
      "volumeAutomation": [],
      "panAutomation": []
    },
    {
      "pitch": 234,
      "measure": 38,
      "beat": 14,
      "duration": 1,
      "velocity": 100,
      "pan": 0,
      "instrument": "ORG_M60",
      "pipi": 0,
      "volumeAutomation": [],
      "panAutomation": []
    },
    {
      "pitch": 207,
      "measure": 39,
      "beat": 0,
      "duration": 1,
      "velocity": 100,
      "pan": 0,
      "instrument": "ORG_M60",
      "pipi": 0,
      "volumeAutomation": [],
      "panAutomation": []
    },
    {
      "pitch": 234,
      "measure": 39,
      "beat": 2,
      "duration": 1,
      "velocity": 100,
      "pan": 0,
      "instrument": "ORG_M60",
      "pipi": 0,
      "volumeAutomation": [],
      "panAutomation": []
    },
    {
      "pitch": 215,
      "measure": 39,
      "beat": 4,
      "duration": 1,
      "velocity": 100,
      "pan": 0,
      "instrument": "ORG_M60",
      "pipi": 0,
      "volumeAutomation": [],
      "panAutomation": []
    },
    {
      "pitch": 234,
      "measure": 39,
      "beat": 6,
      "duration": 1,
      "velocity": 100,
      "pan": 0,
      "instrument": "ORG_M60",
      "pipi": 0,
      "volumeAutomation": [],
      "panAutomation": []
    },
    {
      "pitch": 207,
      "measure": 39,
      "beat": 8,
      "duration": 1,
      "velocity": 100,
      "pan": 0,
      "instrument": "ORG_M60",
      "pipi": 0,
      "volumeAutomation": [],
      "panAutomation": []
    },
    {
      "pitch": 234,
      "measure": 39,
      "beat": 10,
      "duration": 1,
      "velocity": 100,
      "pan": 0,
      "instrument": "ORG_M60",
      "pipi": 0,
      "volumeAutomation": [],
      "panAutomation": []
    },
    {
      "pitch": 215,
      "measure": 39,
      "beat": 12,
      "duration": 1,
      "velocity": 100,
      "pan": 0,
      "instrument": "ORG_M60",
      "pipi": 0,
      "volumeAutomation": [],
      "panAutomation": []
    },
    {
      "pitch": 234,
      "measure": 39,
      "beat": 14,
      "duration": 1,
      "velocity": 100,
      "pan": 0,
      "instrument": "ORG_M60",
      "pipi": 0,
      "volumeAutomation": [],
      "panAutomation": []
    },
    {
      "pitch": 200,
      "measure": 40,
      "beat": 0,
      "duration": 1,
      "velocity": 100,
      "pan": 0,
      "instrument": "ORG_M60",
      "pipi": 0,
      "volumeAutomation": [],
      "panAutomation": []
    },
    {
      "pitch": 227,
      "measure": 40,
      "beat": 2,
      "duration": 1,
      "velocity": 100,
      "pan": 0,
      "instrument": "ORG_M60",
      "pipi": 0,
      "volumeAutomation": [],
      "panAutomation": []
    },
    {
      "pitch": 207,
      "measure": 40,
      "beat": 4,
      "duration": 1,
      "velocity": 100,
      "pan": 0,
      "instrument": "ORG_M60",
      "pipi": 0,
      "volumeAutomation": [],
      "panAutomation": []
    },
    {
      "pitch": 227,
      "measure": 40,
      "beat": 6,
      "duration": 1,
      "velocity": 100,
      "pan": 0,
      "instrument": "ORG_M60",
      "pipi": 0,
      "volumeAutomation": [],
      "panAutomation": []
    },
    {
      "pitch": 200,
      "measure": 40,
      "beat": 8,
      "duration": 1,
      "velocity": 100,
      "pan": 0,
      "instrument": "ORG_M60",
      "pipi": 0,
      "volumeAutomation": [],
      "panAutomation": []
    },
    {
      "pitch": 227,
      "measure": 40,
      "beat": 10,
      "duration": 1,
      "velocity": 100,
      "pan": 0,
      "instrument": "ORG_M60",
      "pipi": 0,
      "volumeAutomation": [],
      "panAutomation": []
    },
    {
      "pitch": 207,
      "measure": 40,
      "beat": 12,
      "duration": 1,
      "velocity": 100,
      "pan": 0,
      "instrument": "ORG_M60",
      "pipi": 0,
      "volumeAutomation": [],
      "panAutomation": []
    },
    {
      "pitch": 227,
      "measure": 40,
      "beat": 14,
      "duration": 1,
      "velocity": 100,
      "pan": 0,
      "instrument": "ORG_M60",
      "pipi": 0,
      "volumeAutomation": [],
      "panAutomation": []
    },
    {
      "pitch": 200,
      "measure": 41,
      "beat": 0,
      "duration": 1,
      "velocity": 100,
      "pan": 0,
      "instrument": "ORG_M60",
      "pipi": 0,
      "volumeAutomation": [],
      "panAutomation": []
    },
    {
      "pitch": 227,
      "measure": 41,
      "beat": 2,
      "duration": 1,
      "velocity": 100,
      "pan": 0,
      "instrument": "ORG_M60",
      "pipi": 0,
      "volumeAutomation": [],
      "panAutomation": []
    },
    {
      "pitch": 207,
      "measure": 41,
      "beat": 4,
      "duration": 1,
      "velocity": 100,
      "pan": 0,
      "instrument": "ORG_M60",
      "pipi": 0,
      "volumeAutomation": [],
      "panAutomation": []
    },
    {
      "pitch": 227,
      "measure": 41,
      "beat": 6,
      "duration": 1,
      "velocity": 100,
      "pan": 0,
      "instrument": "ORG_M60",
      "pipi": 0,
      "volumeAutomation": [],
      "panAutomation": []
    },
    {
      "pitch": 200,
      "measure": 41,
      "beat": 8,
      "duration": 1,
      "velocity": 100,
      "pan": 0,
      "instrument": "ORG_M60",
      "pipi": 0,
      "volumeAutomation": [],
      "panAutomation": []
    },
    {
      "pitch": 227,
      "measure": 41,
      "beat": 10,
      "duration": 1,
      "velocity": 100,
      "pan": 0,
      "instrument": "ORG_M60",
      "pipi": 0,
      "volumeAutomation": [],
      "panAutomation": []
    },
    {
      "pitch": 207,
      "measure": 41,
      "beat": 12,
      "duration": 1,
      "velocity": 100,
      "pan": 0,
      "instrument": "ORG_M60",
      "pipi": 0,
      "volumeAutomation": [],
      "panAutomation": []
    },
    {
      "pitch": 227,
      "measure": 41,
      "beat": 14,
      "duration": 1,
      "velocity": 100,
      "pan": 0,
      "instrument": "ORG_M60",
      "pipi": 0,
      "volumeAutomation": [],
      "panAutomation": []
    },
    {
      "pitch": 207,
      "measure": 42,
      "beat": 0,
      "duration": 1,
      "velocity": 100,
      "pan": 0,
      "instrument": "ORG_M60",
      "pipi": 0,
      "volumeAutomation": [],
      "panAutomation": []
    },
    {
      "pitch": 234,
      "measure": 42,
      "beat": 2,
      "duration": 1,
      "velocity": 100,
      "pan": 0,
      "instrument": "ORG_M60",
      "pipi": 0,
      "volumeAutomation": [],
      "panAutomation": []
    },
    {
      "pitch": 215,
      "measure": 42,
      "beat": 4,
      "duration": 1,
      "velocity": 100,
      "pan": 0,
      "instrument": "ORG_M60",
      "pipi": 0,
      "volumeAutomation": [],
      "panAutomation": []
    },
    {
      "pitch": 234,
      "measure": 42,
      "beat": 6,
      "duration": 1,
      "velocity": 100,
      "pan": 0,
      "instrument": "ORG_M60",
      "pipi": 0,
      "volumeAutomation": [],
      "panAutomation": []
    },
    {
      "pitch": 207,
      "measure": 42,
      "beat": 8,
      "duration": 1,
      "velocity": 100,
      "pan": 0,
      "instrument": "ORG_M60",
      "pipi": 0,
      "volumeAutomation": [],
      "panAutomation": []
    },
    {
      "pitch": 234,
      "measure": 42,
      "beat": 10,
      "duration": 1,
      "velocity": 100,
      "pan": 0,
      "instrument": "ORG_M60",
      "pipi": 0,
      "volumeAutomation": [],
      "panAutomation": []
    },
    {
      "pitch": 215,
      "measure": 42,
      "beat": 12,
      "duration": 1,
      "velocity": 100,
      "pan": 0,
      "instrument": "ORG_M60",
      "pipi": 0,
      "volumeAutomation": [],
      "panAutomation": []
    },
    {
      "pitch": 234,
      "measure": 42,
      "beat": 14,
      "duration": 1,
      "velocity": 100,
      "pan": 0,
      "instrument": "ORG_M60",
      "pipi": 0,
      "volumeAutomation": [],
      "panAutomation": []
    },
    {
      "pitch": 207,
      "measure": 43,
      "beat": 0,
      "duration": 1,
      "velocity": 100,
      "pan": 0,
      "instrument": "ORG_M60",
      "pipi": 0,
      "volumeAutomation": [],
      "panAutomation": []
    },
    {
      "pitch": 234,
      "measure": 43,
      "beat": 2,
      "duration": 1,
      "velocity": 100,
      "pan": 0,
      "instrument": "ORG_M60",
      "pipi": 0,
      "volumeAutomation": [],
      "panAutomation": []
    },
    {
      "pitch": 215,
      "measure": 43,
      "beat": 4,
      "duration": 1,
      "velocity": 100,
      "pan": 0,
      "instrument": "ORG_M60",
      "pipi": 0,
      "volumeAutomation": [],
      "panAutomation": []
    },
    {
      "pitch": 234,
      "measure": 43,
      "beat": 6,
      "duration": 1,
      "velocity": 100,
      "pan": 0,
      "instrument": "ORG_M60",
      "pipi": 0,
      "volumeAutomation": [],
      "panAutomation": []
    },
    {
      "pitch": 207,
      "measure": 43,
      "beat": 8,
      "duration": 1,
      "velocity": 100,
      "pan": 0,
      "instrument": "ORG_M60",
      "pipi": 0,
      "volumeAutomation": [],
      "panAutomation": []
    },
    {
      "pitch": 234,
      "measure": 43,
      "beat": 10,
      "duration": 1,
      "velocity": 100,
      "pan": 0,
      "instrument": "ORG_M60",
      "pipi": 0,
      "volumeAutomation": [],
      "panAutomation": []
    },
    {
      "pitch": 215,
      "measure": 43,
      "beat": 12,
      "duration": 1,
      "velocity": 100,
      "pan": 0,
      "instrument": "ORG_M60",
      "pipi": 0,
      "volumeAutomation": [],
      "panAutomation": []
    },
    {
      "pitch": 234,
      "measure": 43,
      "beat": 14,
      "duration": 1,
      "velocity": 100,
      "pan": 0,
      "instrument": "ORG_M60",
      "pipi": 0,
      "volumeAutomation": [],
      "panAutomation": []
    },
    {
      "pitch": 169,
      "measure": 0,
      "beat": 0,
      "duration": 28,
      "velocity": 100,
      "pan": 0,
      "instrument": "ORG_M66",
      "pipi": 0,
      "volumeAutomation": [],
      "panAutomation": []
    },
    {
      "pitch": 150,
      "measure": 1,
      "beat": 12,
      "duration": 4,
      "velocity": 100,
      "pan": 0,
      "instrument": "ORG_M66",
      "pipi": 0,
      "volumeAutomation": [],
      "panAutomation": []
    },
    {
      "pitch": 165,
      "measure": 2,
      "beat": 0,
      "duration": 24,
      "velocity": 100,
      "pan": 0,
      "instrument": "ORG_M66",
      "pipi": 0,
      "volumeAutomation": [],
      "panAutomation": []
    },
    {
      "pitch": 150,
      "measure": 3,
      "beat": 12,
      "duration": 4,
      "velocity": 100,
      "pan": 0,
      "instrument": "ORG_M66",
      "pipi": 0,
      "volumeAutomation": [],
      "panAutomation": []
    },
    {
      "pitch": 161,
      "measure": 4,
      "beat": 0,
      "duration": 26,
      "velocity": 100,
      "pan": 0,
      "instrument": "ORG_M66",
      "pipi": 0,
      "volumeAutomation": [],
      "panAutomation": []
    },
    {
      "pitch": 157,
      "measure": 5,
      "beat": 10,
      "duration": 2,
      "velocity": 100,
      "pan": 0,
      "instrument": "ORG_M66",
      "pipi": 0,
      "volumeAutomation": [],
      "panAutomation": []
    },
    {
      "pitch": 142,
      "measure": 5,
      "beat": 12,
      "duration": 2,
      "velocity": 100,
      "pan": 0,
      "instrument": "ORG_M66",
      "pipi": 0,
      "volumeAutomation": [],
      "panAutomation": []
    },
    {
      "pitch": 123,
      "measure": 5,
      "beat": 14,
      "duration": 2,
      "velocity": 100,
      "pan": 0,
      "instrument": "ORG_M66",
      "pipi": 0,
      "volumeAutomation": [],
      "panAutomation": []
    },
    {
      "pitch": 150,
      "measure": 6,
      "beat": 0,
      "duration": 16,
      "velocity": 100,
      "pan": 0,
      "instrument": "ORG_M66",
      "pipi": 0,
      "volumeAutomation": [],
      "panAutomation": []
    },
    {
      "pitch": 139,
      "measure": 7,
      "beat": 0,
      "duration": 12,
      "velocity": 100,
      "pan": 0,
      "instrument": "ORG_M66",
      "pipi": 0,
      "volumeAutomation": [],
      "panAutomation": []
    },
    {
      "pitch": 142,
      "measure": 8,
      "beat": 0,
      "duration": 30,
      "velocity": 100,
      "pan": 0,
      "instrument": "ORG_M66",
      "pipi": 0,
      "volumeAutomation": [],
      "panAutomation": []
    },
    {
      "pitch": 135,
      "measure": 9,
      "beat": 14,
      "duration": 1,
      "velocity": 100,
      "pan": 0,
      "instrument": "ORG_M66",
      "pipi": 0,
      "volumeAutomation": [],
      "panAutomation": []
    },
    {
      "pitch": 142,
      "measure": 9,
      "beat": 15,
      "duration": 1,
      "velocity": 100,
      "pan": 0,
      "instrument": "ORG_M66",
      "pipi": 0,
      "volumeAutomation": [],
      "panAutomation": []
    },
    {
      "pitch": 150,
      "measure": 10,
      "beat": 0,
      "duration": 14,
      "velocity": 100,
      "pan": 0,
      "instrument": "ORG_M66",
      "pipi": 0,
      "volumeAutomation": [],
      "panAutomation": []
    },
    {
      "pitch": 154,
      "measure": 10,
      "beat": 14,
      "duration": 1,
      "velocity": 100,
      "pan": 0,
      "instrument": "ORG_M66",
      "pipi": 0,
      "volumeAutomation": [],
      "panAutomation": []
    },
    {
      "pitch": 150,
      "measure": 10,
      "beat": 15,
      "duration": 1,
      "velocity": 100,
      "pan": 0,
      "instrument": "ORG_M66",
      "pipi": 0,
      "volumeAutomation": [],
      "panAutomation": []
    },
    {
      "pitch": 142,
      "measure": 11,
      "beat": 0,
      "duration": 12,
      "velocity": 100,
      "pan": 0,
      "instrument": "ORG_M66",
      "pipi": 0,
      "volumeAutomation": [],
      "panAutomation": []
    },
    {
      "pitch": 169,
      "measure": 12,
      "beat": 0,
      "duration": 28,
      "velocity": 100,
      "pan": 0,
      "instrument": "ORG_M66",
      "pipi": 0,
      "volumeAutomation": [],
      "panAutomation": []
    },
    {
      "pitch": 150,
      "measure": 13,
      "beat": 12,
      "duration": 4,
      "velocity": 100,
      "pan": 0,
      "instrument": "ORG_M66",
      "pipi": 0,
      "volumeAutomation": [],
      "panAutomation": []
    },
    {
      "pitch": 165,
      "measure": 14,
      "beat": 0,
      "duration": 28,
      "velocity": 100,
      "pan": 0,
      "instrument": "ORG_M66",
      "pipi": 0,
      "volumeAutomation": [],
      "panAutomation": []
    },
    {
      "pitch": 150,
      "measure": 15,
      "beat": 12,
      "duration": 4,
      "velocity": 100,
      "pan": 0,
      "instrument": "ORG_M66",
      "pipi": 0,
      "volumeAutomation": [],
      "panAutomation": []
    },
    {
      "pitch": 161,
      "measure": 16,
      "beat": 0,
      "duration": 26,
      "velocity": 100,
      "pan": 0,
      "instrument": "ORG_M66",
      "pipi": 0,
      "volumeAutomation": [],
      "panAutomation": []
    },
    {
      "pitch": 157,
      "measure": 17,
      "beat": 10,
      "duration": 2,
      "velocity": 100,
      "pan": 0,
      "instrument": "ORG_M66",
      "pipi": 0,
      "volumeAutomation": [],
      "panAutomation": []
    },
    {
      "pitch": 142,
      "measure": 17,
      "beat": 12,
      "duration": 2,
      "velocity": 100,
      "pan": 0,
      "instrument": "ORG_M66",
      "pipi": 0,
      "volumeAutomation": [],
      "panAutomation": []
    },
    {
      "pitch": 123,
      "measure": 17,
      "beat": 14,
      "duration": 2,
      "velocity": 100,
      "pan": 0,
      "instrument": "ORG_M66",
      "pipi": 0,
      "volumeAutomation": [],
      "panAutomation": []
    },
    {
      "pitch": 150,
      "measure": 18,
      "beat": 0,
      "duration": 16,
      "velocity": 100,
      "pan": 0,
      "instrument": "ORG_M66",
      "pipi": 0,
      "volumeAutomation": [],
      "panAutomation": []
    },
    {
      "pitch": 139,
      "measure": 19,
      "beat": 0,
      "duration": 12,
      "velocity": 100,
      "pan": 0,
      "instrument": "ORG_M66",
      "pipi": 0,
      "volumeAutomation": [],
      "panAutomation": []
    },
    {
      "pitch": 142,
      "measure": 20,
      "beat": 0,
      "duration": 30,
      "velocity": 100,
      "pan": 0,
      "instrument": "ORG_M66",
      "pipi": 0,
      "volumeAutomation": [],
      "panAutomation": []
    },
    {
      "pitch": 135,
      "measure": 21,
      "beat": 14,
      "duration": 1,
      "velocity": 100,
      "pan": 0,
      "instrument": "ORG_M66",
      "pipi": 0,
      "volumeAutomation": [],
      "panAutomation": []
    },
    {
      "pitch": 142,
      "measure": 21,
      "beat": 15,
      "duration": 1,
      "velocity": 100,
      "pan": 0,
      "instrument": "ORG_M66",
      "pipi": 0,
      "volumeAutomation": [],
      "panAutomation": []
    },
    {
      "pitch": 150,
      "measure": 22,
      "beat": 0,
      "duration": 14,
      "velocity": 100,
      "pan": 0,
      "instrument": "ORG_M66",
      "pipi": 0,
      "volumeAutomation": [],
      "panAutomation": []
    },
    {
      "pitch": 154,
      "measure": 22,
      "beat": 14,
      "duration": 1,
      "velocity": 100,
      "pan": 0,
      "instrument": "ORG_M66",
      "pipi": 0,
      "volumeAutomation": [],
      "panAutomation": []
    },
    {
      "pitch": 150,
      "measure": 22,
      "beat": 15,
      "duration": 1,
      "velocity": 100,
      "pan": 0,
      "instrument": "ORG_M66",
      "pipi": 0,
      "volumeAutomation": [],
      "panAutomation": []
    },
    {
      "pitch": 142,
      "measure": 23,
      "beat": 0,
      "duration": 12,
      "velocity": 100,
      "pan": 0,
      "instrument": "ORG_M66",
      "pipi": 0,
      "volumeAutomation": [],
      "panAutomation": []
    },
    {
      "pitch": 169,
      "measure": 24,
      "beat": 0,
      "duration": 30,
      "velocity": 100,
      "pan": 0,
      "instrument": "ORG_M66",
      "pipi": 0,
      "volumeAutomation": [],
      "panAutomation": []
    },
    {
      "pitch": 135,
      "measure": 25,
      "beat": 14,
      "duration": 1,
      "velocity": 100,
      "pan": 0,
      "instrument": "ORG_M66",
      "pipi": 0,
      "volumeAutomation": [],
      "panAutomation": []
    },
    {
      "pitch": 142,
      "measure": 25,
      "beat": 15,
      "duration": 1,
      "velocity": 100,
      "pan": 0,
      "instrument": "ORG_M66",
      "pipi": 0,
      "volumeAutomation": [],
      "panAutomation": []
    },
    {
      "pitch": 150,
      "measure": 26,
      "beat": 0,
      "duration": 16,
      "velocity": 100,
      "pan": 0,
      "instrument": "ORG_M66",
      "pipi": 0,
      "volumeAutomation": [],
      "panAutomation": []
    },
    {
      "pitch": 150,
      "measure": 27,
      "beat": 0,
      "duration": 14,
      "velocity": 100,
      "pan": 0,
      "instrument": "ORG_M66",
      "pipi": 0,
      "volumeAutomation": [],
      "panAutomation": []
    },
    {
      "pitch": 154,
      "measure": 28,
      "beat": 0,
      "duration": 3,
      "velocity": 100,
      "pan": 0,
      "instrument": "ORG_M66",
      "pipi": 0,
      "volumeAutomation": [
        {
          "tick": 2,
          "volume": 60
        }
      ],
      "panAutomation": []
    },
    {
      "pitch": 154,
      "measure": 28,
      "beat": 3,
      "duration": 3,
      "velocity": 100,
      "pan": 0,
      "instrument": "ORG_M66",
      "pipi": 0,
      "volumeAutomation": [
        {
          "tick": 2,
          "volume": 60
        }
      ],
      "panAutomation": []
    },
    {
      "pitch": 154,
      "measure": 28,
      "beat": 6,
      "duration": 2,
      "velocity": 100,
      "pan": 0,
      "instrument": "ORG_M66",
      "pipi": 0,
      "volumeAutomation": [
        {
          "tick": 1,
          "volume": 60
        }
      ],
      "panAutomation": []
    },
    {
      "pitch": 154,
      "measure": 28,
      "beat": 8,
      "duration": 1,
      "velocity": 100,
      "pan": 0,
      "instrument": "ORG_M66",
      "pipi": 0,
      "volumeAutomation": [],
      "panAutomation": []
    },
    {
      "pitch": 135,
      "measure": 28,
      "beat": 10,
      "duration": 1,
      "velocity": 100,
      "pan": 0,
      "instrument": "ORG_M66",
      "pipi": 0,
      "volumeAutomation": [],
      "panAutomation": []
    },
    {
      "pitch": 154,
      "measure": 28,
      "beat": 12,
      "duration": 1,
      "velocity": 100,
      "pan": 0,
      "instrument": "ORG_M66",
      "pipi": 0,
      "volumeAutomation": [],
      "panAutomation": []
    },
    {
      "pitch": 135,
      "measure": 28,
      "beat": 14,
      "duration": 1,
      "velocity": 100,
      "pan": 0,
      "instrument": "ORG_M66",
      "pipi": 0,
      "volumeAutomation": [],
      "panAutomation": []
    },
    {
      "pitch": 154,
      "measure": 29,
      "beat": 0,
      "duration": 3,
      "velocity": 100,
      "pan": 0,
      "instrument": "ORG_M66",
      "pipi": 0,
      "volumeAutomation": [
        {
          "tick": 2,
          "volume": 60
        }
      ],
      "panAutomation": []
    },
    {
      "pitch": 154,
      "measure": 29,
      "beat": 3,
      "duration": 3,
      "velocity": 100,
      "pan": 0,
      "instrument": "ORG_M66",
      "pipi": 0,
      "volumeAutomation": [
        {
          "tick": 2,
          "volume": 60
        }
      ],
      "panAutomation": []
    },
    {
      "pitch": 154,
      "measure": 29,
      "beat": 6,
      "duration": 2,
      "velocity": 100,
      "pan": 0,
      "instrument": "ORG_M66",
      "pipi": 0,
      "volumeAutomation": [
        {
          "tick": 1,
          "volume": 60
        }
      ],
      "panAutomation": []
    },
    {
      "pitch": 154,
      "measure": 29,
      "beat": 8,
      "duration": 1,
      "velocity": 100,
      "pan": 0,
      "instrument": "ORG_M66",
      "pipi": 0,
      "volumeAutomation": [],
      "panAutomation": []
    },
    {
      "pitch": 135,
      "measure": 29,
      "beat": 10,
      "duration": 1,
      "velocity": 100,
      "pan": 0,
      "instrument": "ORG_M66",
      "pipi": 0,
      "volumeAutomation": [],
      "panAutomation": []
    },
    {
      "pitch": 154,
      "measure": 29,
      "beat": 12,
      "duration": 1,
      "velocity": 100,
      "pan": 0,
      "instrument": "ORG_M66",
      "pipi": 0,
      "volumeAutomation": [],
      "panAutomation": []
    },
    {
      "pitch": 135,
      "measure": 29,
      "beat": 14,
      "duration": 1,
      "velocity": 100,
      "pan": 0,
      "instrument": "ORG_M66",
      "pipi": 0,
      "volumeAutomation": [],
      "panAutomation": []
    },
    {
      "pitch": 161,
      "measure": 30,
      "beat": 0,
      "duration": 3,
      "velocity": 100,
      "pan": 0,
      "instrument": "ORG_M66",
      "pipi": 0,
      "volumeAutomation": [
        {
          "tick": 2,
          "volume": 60
        }
      ],
      "panAutomation": []
    },
    {
      "pitch": 161,
      "measure": 30,
      "beat": 3,
      "duration": 3,
      "velocity": 100,
      "pan": 0,
      "instrument": "ORG_M66",
      "pipi": 0,
      "volumeAutomation": [
        {
          "tick": 2,
          "volume": 60
        }
      ],
      "panAutomation": []
    },
    {
      "pitch": 161,
      "measure": 30,
      "beat": 6,
      "duration": 2,
      "velocity": 100,
      "pan": 0,
      "instrument": "ORG_M66",
      "pipi": 0,
      "volumeAutomation": [
        {
          "tick": 1,
          "volume": 60
        }
      ],
      "panAutomation": []
    },
    {
      "pitch": 161,
      "measure": 30,
      "beat": 8,
      "duration": 1,
      "velocity": 100,
      "pan": 0,
      "instrument": "ORG_M66",
      "pipi": 0,
      "volumeAutomation": [],
      "panAutomation": []
    },
    {
      "pitch": 142,
      "measure": 30,
      "beat": 10,
      "duration": 1,
      "velocity": 100,
      "pan": 0,
      "instrument": "ORG_M66",
      "pipi": 0,
      "volumeAutomation": [],
      "panAutomation": []
    },
    {
      "pitch": 161,
      "measure": 30,
      "beat": 12,
      "duration": 1,
      "velocity": 100,
      "pan": 0,
      "instrument": "ORG_M66",
      "pipi": 0,
      "volumeAutomation": [],
      "panAutomation": []
    },
    {
      "pitch": 142,
      "measure": 30,
      "beat": 14,
      "duration": 1,
      "velocity": 100,
      "pan": 0,
      "instrument": "ORG_M66",
      "pipi": 0,
      "volumeAutomation": [],
      "panAutomation": []
    },
    {
      "pitch": 161,
      "measure": 31,
      "beat": 0,
      "duration": 3,
      "velocity": 100,
      "pan": 0,
      "instrument": "ORG_M66",
      "pipi": 0,
      "volumeAutomation": [
        {
          "tick": 2,
          "volume": 60
        }
      ],
      "panAutomation": []
    },
    {
      "pitch": 161,
      "measure": 31,
      "beat": 3,
      "duration": 3,
      "velocity": 100,
      "pan": 0,
      "instrument": "ORG_M66",
      "pipi": 0,
      "volumeAutomation": [
        {
          "tick": 2,
          "volume": 60
        }
      ],
      "panAutomation": []
    },
    {
      "pitch": 161,
      "measure": 31,
      "beat": 6,
      "duration": 2,
      "velocity": 100,
      "pan": 0,
      "instrument": "ORG_M66",
      "pipi": 0,
      "volumeAutomation": [
        {
          "tick": 1,
          "volume": 60
        }
      ],
      "panAutomation": []
    },
    {
      "pitch": 161,
      "measure": 31,
      "beat": 8,
      "duration": 1,
      "velocity": 100,
      "pan": 0,
      "instrument": "ORG_M66",
      "pipi": 0,
      "volumeAutomation": [],
      "panAutomation": []
    },
    {
      "pitch": 142,
      "measure": 31,
      "beat": 10,
      "duration": 1,
      "velocity": 100,
      "pan": 0,
      "instrument": "ORG_M66",
      "pipi": 0,
      "volumeAutomation": [],
      "panAutomation": []
    },
    {
      "pitch": 161,
      "measure": 31,
      "beat": 12,
      "duration": 1,
      "velocity": 100,
      "pan": 0,
      "instrument": "ORG_M66",
      "pipi": 0,
      "volumeAutomation": [],
      "panAutomation": []
    },
    {
      "pitch": 142,
      "measure": 31,
      "beat": 14,
      "duration": 1,
      "velocity": 100,
      "pan": 0,
      "instrument": "ORG_M66",
      "pipi": 0,
      "volumeAutomation": [],
      "panAutomation": []
    },
    {
      "pitch": 154,
      "measure": 32,
      "beat": 0,
      "duration": 3,
      "velocity": 100,
      "pan": 0,
      "instrument": "ORG_M66",
      "pipi": 0,
      "volumeAutomation": [
        {
          "tick": 2,
          "volume": 60
        }
      ],
      "panAutomation": []
    },
    {
      "pitch": 154,
      "measure": 32,
      "beat": 3,
      "duration": 3,
      "velocity": 100,
      "pan": 0,
      "instrument": "ORG_M66",
      "pipi": 0,
      "volumeAutomation": [
        {
          "tick": 2,
          "volume": 60
        }
      ],
      "panAutomation": []
    },
    {
      "pitch": 154,
      "measure": 32,
      "beat": 6,
      "duration": 2,
      "velocity": 100,
      "pan": 0,
      "instrument": "ORG_M66",
      "pipi": 0,
      "volumeAutomation": [
        {
          "tick": 1,
          "volume": 60
        }
      ],
      "panAutomation": []
    },
    {
      "pitch": 154,
      "measure": 32,
      "beat": 8,
      "duration": 1,
      "velocity": 100,
      "pan": 0,
      "instrument": "ORG_M66",
      "pipi": 0,
      "volumeAutomation": [],
      "panAutomation": []
    },
    {
      "pitch": 135,
      "measure": 32,
      "beat": 10,
      "duration": 1,
      "velocity": 100,
      "pan": 0,
      "instrument": "ORG_M66",
      "pipi": 0,
      "volumeAutomation": [],
      "panAutomation": []
    },
    {
      "pitch": 154,
      "measure": 32,
      "beat": 12,
      "duration": 1,
      "velocity": 100,
      "pan": 0,
      "instrument": "ORG_M66",
      "pipi": 0,
      "volumeAutomation": [],
      "panAutomation": []
    },
    {
      "pitch": 135,
      "measure": 32,
      "beat": 14,
      "duration": 1,
      "velocity": 100,
      "pan": 0,
      "instrument": "ORG_M66",
      "pipi": 0,
      "volumeAutomation": [],
      "panAutomation": []
    },
    {
      "pitch": 154,
      "measure": 33,
      "beat": 0,
      "duration": 3,
      "velocity": 100,
      "pan": 0,
      "instrument": "ORG_M66",
      "pipi": 0,
      "volumeAutomation": [
        {
          "tick": 2,
          "volume": 60
        }
      ],
      "panAutomation": []
    },
    {
      "pitch": 154,
      "measure": 33,
      "beat": 3,
      "duration": 3,
      "velocity": 100,
      "pan": 0,
      "instrument": "ORG_M66",
      "pipi": 0,
      "volumeAutomation": [
        {
          "tick": 2,
          "volume": 60
        }
      ],
      "panAutomation": []
    },
    {
      "pitch": 154,
      "measure": 33,
      "beat": 6,
      "duration": 2,
      "velocity": 100,
      "pan": 0,
      "instrument": "ORG_M66",
      "pipi": 0,
      "volumeAutomation": [
        {
          "tick": 1,
          "volume": 60
        }
      ],
      "panAutomation": []
    },
    {
      "pitch": 154,
      "measure": 33,
      "beat": 8,
      "duration": 1,
      "velocity": 100,
      "pan": 0,
      "instrument": "ORG_M66",
      "pipi": 0,
      "volumeAutomation": [],
      "panAutomation": []
    },
    {
      "pitch": 135,
      "measure": 33,
      "beat": 10,
      "duration": 1,
      "velocity": 100,
      "pan": 0,
      "instrument": "ORG_M66",
      "pipi": 0,
      "volumeAutomation": [],
      "panAutomation": []
    },
    {
      "pitch": 154,
      "measure": 33,
      "beat": 12,
      "duration": 1,
      "velocity": 100,
      "pan": 0,
      "instrument": "ORG_M66",
      "pipi": 0,
      "volumeAutomation": [],
      "panAutomation": []
    },
    {
      "pitch": 135,
      "measure": 33,
      "beat": 14,
      "duration": 1,
      "velocity": 100,
      "pan": 0,
      "instrument": "ORG_M66",
      "pipi": 0,
      "volumeAutomation": [],
      "panAutomation": []
    },
    {
      "pitch": 161,
      "measure": 34,
      "beat": 0,
      "duration": 3,
      "velocity": 100,
      "pan": 0,
      "instrument": "ORG_M66",
      "pipi": 0,
      "volumeAutomation": [
        {
          "tick": 2,
          "volume": 60
        }
      ],
      "panAutomation": []
    },
    {
      "pitch": 161,
      "measure": 34,
      "beat": 3,
      "duration": 3,
      "velocity": 100,
      "pan": 0,
      "instrument": "ORG_M66",
      "pipi": 0,
      "volumeAutomation": [
        {
          "tick": 2,
          "volume": 60
        }
      ],
      "panAutomation": []
    },
    {
      "pitch": 161,
      "measure": 34,
      "beat": 6,
      "duration": 2,
      "velocity": 100,
      "pan": 0,
      "instrument": "ORG_M66",
      "pipi": 0,
      "volumeAutomation": [
        {
          "tick": 1,
          "volume": 60
        }
      ],
      "panAutomation": []
    },
    {
      "pitch": 161,
      "measure": 34,
      "beat": 8,
      "duration": 1,
      "velocity": 100,
      "pan": 0,
      "instrument": "ORG_M66",
      "pipi": 0,
      "volumeAutomation": [],
      "panAutomation": []
    },
    {
      "pitch": 142,
      "measure": 34,
      "beat": 10,
      "duration": 1,
      "velocity": 100,
      "pan": 0,
      "instrument": "ORG_M66",
      "pipi": 0,
      "volumeAutomation": [],
      "panAutomation": []
    },
    {
      "pitch": 161,
      "measure": 34,
      "beat": 12,
      "duration": 1,
      "velocity": 100,
      "pan": 0,
      "instrument": "ORG_M66",
      "pipi": 0,
      "volumeAutomation": [],
      "panAutomation": []
    },
    {
      "pitch": 142,
      "measure": 34,
      "beat": 14,
      "duration": 1,
      "velocity": 100,
      "pan": 0,
      "instrument": "ORG_M66",
      "pipi": 0,
      "volumeAutomation": [],
      "panAutomation": []
    },
    {
      "pitch": 161,
      "measure": 35,
      "beat": 0,
      "duration": 3,
      "velocity": 100,
      "pan": 0,
      "instrument": "ORG_M66",
      "pipi": 0,
      "volumeAutomation": [
        {
          "tick": 2,
          "volume": 60
        }
      ],
      "panAutomation": []
    },
    {
      "pitch": 161,
      "measure": 35,
      "beat": 3,
      "duration": 3,
      "velocity": 100,
      "pan": 0,
      "instrument": "ORG_M66",
      "pipi": 0,
      "volumeAutomation": [
        {
          "tick": 2,
          "volume": 60
        }
      ],
      "panAutomation": []
    },
    {
      "pitch": 161,
      "measure": 35,
      "beat": 6,
      "duration": 2,
      "velocity": 100,
      "pan": 0,
      "instrument": "ORG_M66",
      "pipi": 0,
      "volumeAutomation": [
        {
          "tick": 1,
          "volume": 60
        }
      ],
      "panAutomation": []
    },
    {
      "pitch": 161,
      "measure": 35,
      "beat": 8,
      "duration": 1,
      "velocity": 100,
      "pan": 0,
      "instrument": "ORG_M66",
      "pipi": 0,
      "volumeAutomation": [],
      "panAutomation": []
    },
    {
      "pitch": 142,
      "measure": 35,
      "beat": 10,
      "duration": 1,
      "velocity": 100,
      "pan": 0,
      "instrument": "ORG_M66",
      "pipi": 0,
      "volumeAutomation": [],
      "panAutomation": []
    },
    {
      "pitch": 161,
      "measure": 35,
      "beat": 12,
      "duration": 1,
      "velocity": 100,
      "pan": 0,
      "instrument": "ORG_M66",
      "pipi": 0,
      "volumeAutomation": [],
      "panAutomation": []
    },
    {
      "pitch": 142,
      "measure": 35,
      "beat": 14,
      "duration": 1,
      "velocity": 100,
      "pan": 0,
      "instrument": "ORG_M66",
      "pipi": 0,
      "volumeAutomation": [],
      "panAutomation": []
    },
    {
      "pitch": 154,
      "measure": 36,
      "beat": 0,
      "duration": 3,
      "velocity": 100,
      "pan": 0,
      "instrument": "ORG_M66",
      "pipi": 0,
      "volumeAutomation": [
        {
          "tick": 2,
          "volume": 60
        }
      ],
      "panAutomation": []
    },
    {
      "pitch": 154,
      "measure": 36,
      "beat": 3,
      "duration": 3,
      "velocity": 100,
      "pan": 0,
      "instrument": "ORG_M66",
      "pipi": 0,
      "volumeAutomation": [
        {
          "tick": 2,
          "volume": 60
        }
      ],
      "panAutomation": []
    },
    {
      "pitch": 154,
      "measure": 36,
      "beat": 6,
      "duration": 2,
      "velocity": 100,
      "pan": 0,
      "instrument": "ORG_M66",
      "pipi": 0,
      "volumeAutomation": [
        {
          "tick": 1,
          "volume": 60
        }
      ],
      "panAutomation": []
    },
    {
      "pitch": 154,
      "measure": 36,
      "beat": 8,
      "duration": 1,
      "velocity": 100,
      "pan": 0,
      "instrument": "ORG_M66",
      "pipi": 0,
      "volumeAutomation": [],
      "panAutomation": []
    },
    {
      "pitch": 135,
      "measure": 36,
      "beat": 10,
      "duration": 1,
      "velocity": 100,
      "pan": 0,
      "instrument": "ORG_M66",
      "pipi": 0,
      "volumeAutomation": [],
      "panAutomation": []
    },
    {
      "pitch": 154,
      "measure": 36,
      "beat": 12,
      "duration": 1,
      "velocity": 100,
      "pan": 0,
      "instrument": "ORG_M66",
      "pipi": 0,
      "volumeAutomation": [],
      "panAutomation": []
    },
    {
      "pitch": 135,
      "measure": 36,
      "beat": 14,
      "duration": 1,
      "velocity": 100,
      "pan": 0,
      "instrument": "ORG_M66",
      "pipi": 0,
      "volumeAutomation": [],
      "panAutomation": []
    },
    {
      "pitch": 154,
      "measure": 37,
      "beat": 0,
      "duration": 3,
      "velocity": 100,
      "pan": 0,
      "instrument": "ORG_M66",
      "pipi": 0,
      "volumeAutomation": [
        {
          "tick": 2,
          "volume": 60
        }
      ],
      "panAutomation": []
    },
    {
      "pitch": 154,
      "measure": 37,
      "beat": 3,
      "duration": 3,
      "velocity": 100,
      "pan": 0,
      "instrument": "ORG_M66",
      "pipi": 0,
      "volumeAutomation": [
        {
          "tick": 2,
          "volume": 60
        }
      ],
      "panAutomation": []
    },
    {
      "pitch": 154,
      "measure": 37,
      "beat": 6,
      "duration": 2,
      "velocity": 100,
      "pan": 0,
      "instrument": "ORG_M66",
      "pipi": 0,
      "volumeAutomation": [
        {
          "tick": 1,
          "volume": 60
        }
      ],
      "panAutomation": []
    },
    {
      "pitch": 154,
      "measure": 37,
      "beat": 8,
      "duration": 1,
      "velocity": 100,
      "pan": 0,
      "instrument": "ORG_M66",
      "pipi": 0,
      "volumeAutomation": [],
      "panAutomation": []
    },
    {
      "pitch": 135,
      "measure": 37,
      "beat": 10,
      "duration": 1,
      "velocity": 100,
      "pan": 0,
      "instrument": "ORG_M66",
      "pipi": 0,
      "volumeAutomation": [],
      "panAutomation": []
    },
    {
      "pitch": 154,
      "measure": 37,
      "beat": 12,
      "duration": 1,
      "velocity": 100,
      "pan": 0,
      "instrument": "ORG_M66",
      "pipi": 0,
      "volumeAutomation": [],
      "panAutomation": []
    },
    {
      "pitch": 135,
      "measure": 37,
      "beat": 14,
      "duration": 1,
      "velocity": 100,
      "pan": 0,
      "instrument": "ORG_M66",
      "pipi": 0,
      "volumeAutomation": [],
      "panAutomation": []
    },
    {
      "pitch": 161,
      "measure": 38,
      "beat": 0,
      "duration": 3,
      "velocity": 100,
      "pan": 0,
      "instrument": "ORG_M66",
      "pipi": 0,
      "volumeAutomation": [
        {
          "tick": 2,
          "volume": 60
        }
      ],
      "panAutomation": []
    },
    {
      "pitch": 161,
      "measure": 38,
      "beat": 3,
      "duration": 3,
      "velocity": 100,
      "pan": 0,
      "instrument": "ORG_M66",
      "pipi": 0,
      "volumeAutomation": [
        {
          "tick": 2,
          "volume": 60
        }
      ],
      "panAutomation": []
    },
    {
      "pitch": 161,
      "measure": 38,
      "beat": 6,
      "duration": 2,
      "velocity": 100,
      "pan": 0,
      "instrument": "ORG_M66",
      "pipi": 0,
      "volumeAutomation": [
        {
          "tick": 1,
          "volume": 60
        }
      ],
      "panAutomation": []
    },
    {
      "pitch": 161,
      "measure": 38,
      "beat": 8,
      "duration": 1,
      "velocity": 100,
      "pan": 0,
      "instrument": "ORG_M66",
      "pipi": 0,
      "volumeAutomation": [],
      "panAutomation": []
    },
    {
      "pitch": 142,
      "measure": 38,
      "beat": 10,
      "duration": 1,
      "velocity": 100,
      "pan": 0,
      "instrument": "ORG_M66",
      "pipi": 0,
      "volumeAutomation": [],
      "panAutomation": []
    },
    {
      "pitch": 161,
      "measure": 38,
      "beat": 12,
      "duration": 1,
      "velocity": 100,
      "pan": 0,
      "instrument": "ORG_M66",
      "pipi": 0,
      "volumeAutomation": [],
      "panAutomation": []
    },
    {
      "pitch": 142,
      "measure": 38,
      "beat": 14,
      "duration": 1,
      "velocity": 100,
      "pan": 0,
      "instrument": "ORG_M66",
      "pipi": 0,
      "volumeAutomation": [],
      "panAutomation": []
    },
    {
      "pitch": 161,
      "measure": 39,
      "beat": 0,
      "duration": 3,
      "velocity": 100,
      "pan": 0,
      "instrument": "ORG_M66",
      "pipi": 0,
      "volumeAutomation": [
        {
          "tick": 2,
          "volume": 60
        }
      ],
      "panAutomation": []
    },
    {
      "pitch": 161,
      "measure": 39,
      "beat": 3,
      "duration": 3,
      "velocity": 100,
      "pan": 0,
      "instrument": "ORG_M66",
      "pipi": 0,
      "volumeAutomation": [
        {
          "tick": 2,
          "volume": 60
        }
      ],
      "panAutomation": []
    },
    {
      "pitch": 161,
      "measure": 39,
      "beat": 6,
      "duration": 2,
      "velocity": 100,
      "pan": 0,
      "instrument": "ORG_M66",
      "pipi": 0,
      "volumeAutomation": [
        {
          "tick": 1,
          "volume": 60
        }
      ],
      "panAutomation": []
    },
    {
      "pitch": 161,
      "measure": 39,
      "beat": 8,
      "duration": 1,
      "velocity": 100,
      "pan": 0,
      "instrument": "ORG_M66",
      "pipi": 0,
      "volumeAutomation": [],
      "panAutomation": []
    },
    {
      "pitch": 142,
      "measure": 39,
      "beat": 10,
      "duration": 1,
      "velocity": 100,
      "pan": 0,
      "instrument": "ORG_M66",
      "pipi": 0,
      "volumeAutomation": [],
      "panAutomation": []
    },
    {
      "pitch": 161,
      "measure": 39,
      "beat": 12,
      "duration": 1,
      "velocity": 100,
      "pan": 0,
      "instrument": "ORG_M66",
      "pipi": 0,
      "volumeAutomation": [],
      "panAutomation": []
    },
    {
      "pitch": 142,
      "measure": 39,
      "beat": 14,
      "duration": 1,
      "velocity": 100,
      "pan": 0,
      "instrument": "ORG_M66",
      "pipi": 0,
      "volumeAutomation": [],
      "panAutomation": []
    },
    {
      "pitch": 154,
      "measure": 40,
      "beat": 0,
      "duration": 3,
      "velocity": 100,
      "pan": 0,
      "instrument": "ORG_M66",
      "pipi": 0,
      "volumeAutomation": [
        {
          "tick": 2,
          "volume": 60
        }
      ],
      "panAutomation": []
    },
    {
      "pitch": 154,
      "measure": 40,
      "beat": 3,
      "duration": 3,
      "velocity": 100,
      "pan": 0,
      "instrument": "ORG_M66",
      "pipi": 0,
      "volumeAutomation": [
        {
          "tick": 2,
          "volume": 60
        }
      ],
      "panAutomation": []
    },
    {
      "pitch": 154,
      "measure": 40,
      "beat": 6,
      "duration": 2,
      "velocity": 100,
      "pan": 0,
      "instrument": "ORG_M66",
      "pipi": 0,
      "volumeAutomation": [
        {
          "tick": 1,
          "volume": 60
        }
      ],
      "panAutomation": []
    },
    {
      "pitch": 154,
      "measure": 40,
      "beat": 8,
      "duration": 1,
      "velocity": 100,
      "pan": 0,
      "instrument": "ORG_M66",
      "pipi": 0,
      "volumeAutomation": [],
      "panAutomation": []
    },
    {
      "pitch": 135,
      "measure": 40,
      "beat": 10,
      "duration": 1,
      "velocity": 100,
      "pan": 0,
      "instrument": "ORG_M66",
      "pipi": 0,
      "volumeAutomation": [],
      "panAutomation": []
    },
    {
      "pitch": 154,
      "measure": 40,
      "beat": 12,
      "duration": 1,
      "velocity": 100,
      "pan": 0,
      "instrument": "ORG_M66",
      "pipi": 0,
      "volumeAutomation": [],
      "panAutomation": []
    },
    {
      "pitch": 135,
      "measure": 40,
      "beat": 14,
      "duration": 1,
      "velocity": 100,
      "pan": 0,
      "instrument": "ORG_M66",
      "pipi": 0,
      "volumeAutomation": [],
      "panAutomation": []
    },
    {
      "pitch": 154,
      "measure": 41,
      "beat": 0,
      "duration": 3,
      "velocity": 100,
      "pan": 0,
      "instrument": "ORG_M66",
      "pipi": 0,
      "volumeAutomation": [
        {
          "tick": 2,
          "volume": 60
        }
      ],
      "panAutomation": []
    },
    {
      "pitch": 154,
      "measure": 41,
      "beat": 3,
      "duration": 3,
      "velocity": 100,
      "pan": 0,
      "instrument": "ORG_M66",
      "pipi": 0,
      "volumeAutomation": [
        {
          "tick": 2,
          "volume": 60
        }
      ],
      "panAutomation": []
    },
    {
      "pitch": 154,
      "measure": 41,
      "beat": 6,
      "duration": 2,
      "velocity": 100,
      "pan": 0,
      "instrument": "ORG_M66",
      "pipi": 0,
      "volumeAutomation": [
        {
          "tick": 1,
          "volume": 60
        }
      ],
      "panAutomation": []
    },
    {
      "pitch": 154,
      "measure": 41,
      "beat": 8,
      "duration": 1,
      "velocity": 100,
      "pan": 0,
      "instrument": "ORG_M66",
      "pipi": 0,
      "volumeAutomation": [],
      "panAutomation": []
    },
    {
      "pitch": 135,
      "measure": 41,
      "beat": 10,
      "duration": 1,
      "velocity": 100,
      "pan": 0,
      "instrument": "ORG_M66",
      "pipi": 0,
      "volumeAutomation": [],
      "panAutomation": []
    },
    {
      "pitch": 154,
      "measure": 41,
      "beat": 12,
      "duration": 1,
      "velocity": 100,
      "pan": 0,
      "instrument": "ORG_M66",
      "pipi": 0,
      "volumeAutomation": [],
      "panAutomation": []
    },
    {
      "pitch": 135,
      "measure": 41,
      "beat": 14,
      "duration": 1,
      "velocity": 100,
      "pan": 0,
      "instrument": "ORG_M66",
      "pipi": 0,
      "volumeAutomation": [],
      "panAutomation": []
    },
    {
      "pitch": 161,
      "measure": 42,
      "beat": 0,
      "duration": 3,
      "velocity": 100,
      "pan": 0,
      "instrument": "ORG_M66",
      "pipi": 0,
      "volumeAutomation": [
        {
          "tick": 2,
          "volume": 60
        }
      ],
      "panAutomation": []
    },
    {
      "pitch": 161,
      "measure": 42,
      "beat": 3,
      "duration": 3,
      "velocity": 100,
      "pan": 0,
      "instrument": "ORG_M66",
      "pipi": 0,
      "volumeAutomation": [
        {
          "tick": 2,
          "volume": 60
        }
      ],
      "panAutomation": []
    },
    {
      "pitch": 161,
      "measure": 42,
      "beat": 6,
      "duration": 2,
      "velocity": 100,
      "pan": 0,
      "instrument": "ORG_M66",
      "pipi": 0,
      "volumeAutomation": [
        {
          "tick": 1,
          "volume": 60
        }
      ],
      "panAutomation": []
    },
    {
      "pitch": 161,
      "measure": 42,
      "beat": 8,
      "duration": 1,
      "velocity": 100,
      "pan": 0,
      "instrument": "ORG_M66",
      "pipi": 0,
      "volumeAutomation": [],
      "panAutomation": []
    },
    {
      "pitch": 142,
      "measure": 42,
      "beat": 10,
      "duration": 1,
      "velocity": 100,
      "pan": 0,
      "instrument": "ORG_M66",
      "pipi": 0,
      "volumeAutomation": [],
      "panAutomation": []
    },
    {
      "pitch": 161,
      "measure": 42,
      "beat": 12,
      "duration": 1,
      "velocity": 100,
      "pan": 0,
      "instrument": "ORG_M66",
      "pipi": 0,
      "volumeAutomation": [],
      "panAutomation": []
    },
    {
      "pitch": 142,
      "measure": 42,
      "beat": 14,
      "duration": 1,
      "velocity": 100,
      "pan": 0,
      "instrument": "ORG_M66",
      "pipi": 0,
      "volumeAutomation": [],
      "panAutomation": []
    },
    {
      "pitch": 161,
      "measure": 43,
      "beat": 0,
      "duration": 3,
      "velocity": 100,
      "pan": 0,
      "instrument": "ORG_M66",
      "pipi": 0,
      "volumeAutomation": [
        {
          "tick": 2,
          "volume": 60
        }
      ],
      "panAutomation": []
    },
    {
      "pitch": 161,
      "measure": 43,
      "beat": 3,
      "duration": 3,
      "velocity": 100,
      "pan": 0,
      "instrument": "ORG_M66",
      "pipi": 0,
      "volumeAutomation": [
        {
          "tick": 2,
          "volume": 60
        }
      ],
      "panAutomation": []
    },
    {
      "pitch": 161,
      "measure": 43,
      "beat": 6,
      "duration": 2,
      "velocity": 100,
      "pan": 0,
      "instrument": "ORG_M66",
      "pipi": 0,
      "volumeAutomation": [
        {
          "tick": 1,
          "volume": 60
        }
      ],
      "panAutomation": []
    },
    {
      "pitch": 161,
      "measure": 43,
      "beat": 8,
      "duration": 1,
      "velocity": 100,
      "pan": 0,
      "instrument": "ORG_M66",
      "pipi": 0,
      "volumeAutomation": [],
      "panAutomation": []
    },
    {
      "pitch": 142,
      "measure": 43,
      "beat": 10,
      "duration": 1,
      "velocity": 100,
      "pan": 0,
      "instrument": "ORG_M66",
      "pipi": 0,
      "volumeAutomation": [],
      "panAutomation": []
    },
    {
      "pitch": 161,
      "measure": 43,
      "beat": 12,
      "duration": 1,
      "velocity": 100,
      "pan": 0,
      "instrument": "ORG_M66",
      "pipi": 0,
      "volumeAutomation": [],
      "panAutomation": []
    },
    {
      "pitch": 142,
      "measure": 43,
      "beat": 14,
      "duration": 1,
      "velocity": 100,
      "pan": 0,
      "instrument": "ORG_M66",
      "pipi": 0,
      "volumeAutomation": [],
      "panAutomation": []
    },
    {
      "pitch": 150,
      "measure": 0,
      "beat": 0,
      "duration": 28,
      "velocity": 100,
      "pan": 0,
      "instrument": "ORG_M47",
      "pipi": 0,
      "volumeAutomation": [],
      "panAutomation": []
    },
    {
      "pitch": 135,
      "measure": 1,
      "beat": 12,
      "duration": 4,
      "velocity": 100,
      "pan": 0,
      "instrument": "ORG_M47",
      "pipi": 0,
      "volumeAutomation": [],
      "panAutomation": []
    },
    {
      "pitch": 150,
      "measure": 2,
      "beat": 0,
      "duration": 24,
      "velocity": 100,
      "pan": 0,
      "instrument": "ORG_M47",
      "pipi": 0,
      "volumeAutomation": [],
      "panAutomation": []
    },
    {
      "pitch": 131,
      "measure": 3,
      "beat": 12,
      "duration": 4,
      "velocity": 100,
      "pan": 0,
      "instrument": "ORG_M47",
      "pipi": 0,
      "volumeAutomation": [],
      "panAutomation": []
    },
    {
      "pitch": 142,
      "measure": 4,
      "beat": 0,
      "duration": 26,
      "velocity": 100,
      "pan": 0,
      "instrument": "ORG_M47",
      "pipi": 0,
      "volumeAutomation": [],
      "panAutomation": []
    },
    {
      "pitch": 131,
      "measure": 5,
      "beat": 10,
      "duration": 2,
      "velocity": 100,
      "pan": 0,
      "instrument": "ORG_M47",
      "pipi": 0,
      "volumeAutomation": [],
      "panAutomation": []
    },
    {
      "pitch": 123,
      "measure": 5,
      "beat": 12,
      "duration": 2,
      "velocity": 100,
      "pan": 0,
      "instrument": "ORG_M47",
      "pipi": 0,
      "volumeAutomation": [],
      "panAutomation": []
    },
    {
      "pitch": 104,
      "measure": 5,
      "beat": 14,
      "duration": 2,
      "velocity": 100,
      "pan": 0,
      "instrument": "ORG_M47",
      "pipi": 0,
      "volumeAutomation": [],
      "panAutomation": []
    },
    {
      "pitch": 139,
      "measure": 6,
      "beat": 0,
      "duration": 16,
      "velocity": 100,
      "pan": 0,
      "instrument": "ORG_M47",
      "pipi": 0,
      "volumeAutomation": [],
      "panAutomation": []
    },
    {
      "pitch": 123,
      "measure": 7,
      "beat": 0,
      "duration": 12,
      "velocity": 100,
      "pan": 0,
      "instrument": "ORG_M47",
      "pipi": 0,
      "volumeAutomation": [],
      "panAutomation": []
    },
    {
      "pitch": 123,
      "measure": 8,
      "beat": 0,
      "duration": 30,
      "velocity": 100,
      "pan": 0,
      "instrument": "ORG_M47",
      "pipi": 0,
      "volumeAutomation": [],
      "panAutomation": []
    },
    {
      "pitch": 119,
      "measure": 9,
      "beat": 14,
      "duration": 1,
      "velocity": 100,
      "pan": 0,
      "instrument": "ORG_M47",
      "pipi": 0,
      "volumeAutomation": [],
      "panAutomation": []
    },
    {
      "pitch": 123,
      "measure": 9,
      "beat": 15,
      "duration": 1,
      "velocity": 100,
      "pan": 0,
      "instrument": "ORG_M47",
      "pipi": 0,
      "volumeAutomation": [],
      "panAutomation": []
    },
    {
      "pitch": 131,
      "measure": 10,
      "beat": 0,
      "duration": 30,
      "velocity": 100,
      "pan": 0,
      "instrument": "ORG_M47",
      "pipi": 0,
      "volumeAutomation": [],
      "panAutomation": []
    },
    {
      "pitch": 150,
      "measure": 12,
      "beat": 0,
      "duration": 28,
      "velocity": 100,
      "pan": 0,
      "instrument": "ORG_M47",
      "pipi": 0,
      "volumeAutomation": [],
      "panAutomation": []
    },
    {
      "pitch": 135,
      "measure": 13,
      "beat": 12,
      "duration": 4,
      "velocity": 100,
      "pan": 0,
      "instrument": "ORG_M47",
      "pipi": 0,
      "volumeAutomation": [],
      "panAutomation": []
    },
    {
      "pitch": 150,
      "measure": 14,
      "beat": 0,
      "duration": 28,
      "velocity": 100,
      "pan": 0,
      "instrument": "ORG_M47",
      "pipi": 0,
      "volumeAutomation": [],
      "panAutomation": []
    },
    {
      "pitch": 131,
      "measure": 15,
      "beat": 12,
      "duration": 4,
      "velocity": 100,
      "pan": 0,
      "instrument": "ORG_M47",
      "pipi": 0,
      "volumeAutomation": [],
      "panAutomation": []
    },
    {
      "pitch": 142,
      "measure": 16,
      "beat": 0,
      "duration": 26,
      "velocity": 100,
      "pan": 0,
      "instrument": "ORG_M47",
      "pipi": 0,
      "volumeAutomation": [],
      "panAutomation": []
    },
    {
      "pitch": 131,
      "measure": 17,
      "beat": 10,
      "duration": 2,
      "velocity": 100,
      "pan": 0,
      "instrument": "ORG_M47",
      "pipi": 0,
      "volumeAutomation": [],
      "panAutomation": []
    },
    {
      "pitch": 123,
      "measure": 17,
      "beat": 12,
      "duration": 2,
      "velocity": 100,
      "pan": 0,
      "instrument": "ORG_M47",
      "pipi": 0,
      "volumeAutomation": [],
      "panAutomation": []
    },
    {
      "pitch": 104,
      "measure": 17,
      "beat": 14,
      "duration": 2,
      "velocity": 100,
      "pan": 0,
      "instrument": "ORG_M47",
      "pipi": 0,
      "volumeAutomation": [],
      "panAutomation": []
    },
    {
      "pitch": 139,
      "measure": 18,
      "beat": 0,
      "duration": 16,
      "velocity": 100,
      "pan": 0,
      "instrument": "ORG_M47",
      "pipi": 0,
      "volumeAutomation": [],
      "panAutomation": []
    },
    {
      "pitch": 123,
      "measure": 19,
      "beat": 0,
      "duration": 12,
      "velocity": 100,
      "pan": 0,
      "instrument": "ORG_M47",
      "pipi": 0,
      "volumeAutomation": [],
      "panAutomation": []
    },
    {
      "pitch": 123,
      "measure": 20,
      "beat": 0,
      "duration": 30,
      "velocity": 100,
      "pan": 0,
      "instrument": "ORG_M47",
      "pipi": 0,
      "volumeAutomation": [],
      "panAutomation": []
    },
    {
      "pitch": 119,
      "measure": 21,
      "beat": 14,
      "duration": 1,
      "velocity": 100,
      "pan": 0,
      "instrument": "ORG_M47",
      "pipi": 0,
      "volumeAutomation": [],
      "panAutomation": []
    },
    {
      "pitch": 123,
      "measure": 21,
      "beat": 15,
      "duration": 1,
      "velocity": 100,
      "pan": 0,
      "instrument": "ORG_M47",
      "pipi": 0,
      "volumeAutomation": [],
      "panAutomation": []
    },
    {
      "pitch": 131,
      "measure": 22,
      "beat": 0,
      "duration": 30,
      "velocity": 100,
      "pan": 0,
      "instrument": "ORG_M47",
      "pipi": 0,
      "volumeAutomation": [],
      "panAutomation": []
    },
    {
      "pitch": 150,
      "measure": 24,
      "beat": 0,
      "duration": 30,
      "velocity": 100,
      "pan": 0,
      "instrument": "ORG_M47",
      "pipi": 0,
      "volumeAutomation": [],
      "panAutomation": []
    },
    {
      "pitch": 119,
      "measure": 25,
      "beat": 14,
      "duration": 1,
      "velocity": 100,
      "pan": 0,
      "instrument": "ORG_M47",
      "pipi": 0,
      "volumeAutomation": [],
      "panAutomation": []
    },
    {
      "pitch": 123,
      "measure": 25,
      "beat": 15,
      "duration": 1,
      "velocity": 100,
      "pan": 0,
      "instrument": "ORG_M47",
      "pipi": 0,
      "volumeAutomation": [],
      "panAutomation": []
    },
    {
      "pitch": 135,
      "measure": 26,
      "beat": 0,
      "duration": 30,
      "velocity": 100,
      "pan": 0,
      "instrument": "ORG_M47",
      "pipi": 0,
      "volumeAutomation": [],
      "panAutomation": []
    },
    {
      "pitch": 135,
      "measure": 28,
      "beat": 0,
      "duration": 3,
      "velocity": 100,
      "pan": 0,
      "instrument": "ORG_M47",
      "pipi": 0,
      "volumeAutomation": [
        {
          "tick": 2,
          "volume": 60
        }
      ],
      "panAutomation": []
    },
    {
      "pitch": 135,
      "measure": 28,
      "beat": 3,
      "duration": 3,
      "velocity": 100,
      "pan": 0,
      "instrument": "ORG_M47",
      "pipi": 0,
      "volumeAutomation": [
        {
          "tick": 2,
          "volume": 60
        }
      ],
      "panAutomation": []
    },
    {
      "pitch": 135,
      "measure": 28,
      "beat": 6,
      "duration": 2,
      "velocity": 100,
      "pan": 0,
      "instrument": "ORG_M47",
      "pipi": 0,
      "volumeAutomation": [
        {
          "tick": 1,
          "volume": 60
        }
      ],
      "panAutomation": []
    },
    {
      "pitch": 135,
      "measure": 28,
      "beat": 8,
      "duration": 1,
      "velocity": 100,
      "pan": 0,
      "instrument": "ORG_M47",
      "pipi": 0,
      "volumeAutomation": [],
      "panAutomation": []
    },
    {
      "pitch": 123,
      "measure": 28,
      "beat": 10,
      "duration": 1,
      "velocity": 100,
      "pan": 0,
      "instrument": "ORG_M47",
      "pipi": 0,
      "volumeAutomation": [],
      "panAutomation": []
    },
    {
      "pitch": 135,
      "measure": 28,
      "beat": 12,
      "duration": 1,
      "velocity": 100,
      "pan": 0,
      "instrument": "ORG_M47",
      "pipi": 0,
      "volumeAutomation": [],
      "panAutomation": []
    },
    {
      "pitch": 123,
      "measure": 28,
      "beat": 14,
      "duration": 1,
      "velocity": 100,
      "pan": 0,
      "instrument": "ORG_M47",
      "pipi": 0,
      "volumeAutomation": [],
      "panAutomation": []
    },
    {
      "pitch": 135,
      "measure": 29,
      "beat": 0,
      "duration": 3,
      "velocity": 100,
      "pan": 0,
      "instrument": "ORG_M47",
      "pipi": 0,
      "volumeAutomation": [
        {
          "tick": 2,
          "volume": 60
        }
      ],
      "panAutomation": []
    },
    {
      "pitch": 135,
      "measure": 29,
      "beat": 3,
      "duration": 3,
      "velocity": 100,
      "pan": 0,
      "instrument": "ORG_M47",
      "pipi": 0,
      "volumeAutomation": [
        {
          "tick": 2,
          "volume": 60
        }
      ],
      "panAutomation": []
    },
    {
      "pitch": 135,
      "measure": 29,
      "beat": 6,
      "duration": 2,
      "velocity": 100,
      "pan": 0,
      "instrument": "ORG_M47",
      "pipi": 0,
      "volumeAutomation": [
        {
          "tick": 1,
          "volume": 60
        }
      ],
      "panAutomation": []
    },
    {
      "pitch": 135,
      "measure": 29,
      "beat": 8,
      "duration": 1,
      "velocity": 100,
      "pan": 0,
      "instrument": "ORG_M47",
      "pipi": 0,
      "volumeAutomation": [],
      "panAutomation": []
    },
    {
      "pitch": 123,
      "measure": 29,
      "beat": 10,
      "duration": 1,
      "velocity": 100,
      "pan": 0,
      "instrument": "ORG_M47",
      "pipi": 0,
      "volumeAutomation": [],
      "panAutomation": []
    },
    {
      "pitch": 135,
      "measure": 29,
      "beat": 12,
      "duration": 1,
      "velocity": 100,
      "pan": 0,
      "instrument": "ORG_M47",
      "pipi": 0,
      "volumeAutomation": [],
      "panAutomation": []
    },
    {
      "pitch": 123,
      "measure": 29,
      "beat": 14,
      "duration": 1,
      "velocity": 100,
      "pan": 0,
      "instrument": "ORG_M47",
      "pipi": 0,
      "volumeAutomation": [],
      "panAutomation": []
    },
    {
      "pitch": 142,
      "measure": 30,
      "beat": 0,
      "duration": 3,
      "velocity": 100,
      "pan": 0,
      "instrument": "ORG_M47",
      "pipi": 0,
      "volumeAutomation": [
        {
          "tick": 2,
          "volume": 60
        }
      ],
      "panAutomation": []
    },
    {
      "pitch": 142,
      "measure": 30,
      "beat": 3,
      "duration": 3,
      "velocity": 100,
      "pan": 0,
      "instrument": "ORG_M47",
      "pipi": 0,
      "volumeAutomation": [
        {
          "tick": 2,
          "volume": 60
        }
      ],
      "panAutomation": []
    },
    {
      "pitch": 142,
      "measure": 30,
      "beat": 6,
      "duration": 2,
      "velocity": 100,
      "pan": 0,
      "instrument": "ORG_M47",
      "pipi": 0,
      "volumeAutomation": [
        {
          "tick": 1,
          "volume": 60
        }
      ],
      "panAutomation": []
    },
    {
      "pitch": 142,
      "measure": 30,
      "beat": 8,
      "duration": 1,
      "velocity": 100,
      "pan": 0,
      "instrument": "ORG_M47",
      "pipi": 0,
      "volumeAutomation": [],
      "panAutomation": []
    },
    {
      "pitch": 115,
      "measure": 30,
      "beat": 10,
      "duration": 1,
      "velocity": 100,
      "pan": 0,
      "instrument": "ORG_M47",
      "pipi": 0,
      "volumeAutomation": [],
      "panAutomation": []
    },
    {
      "pitch": 131,
      "measure": 30,
      "beat": 12,
      "duration": 1,
      "velocity": 100,
      "pan": 0,
      "instrument": "ORG_M47",
      "pipi": 0,
      "volumeAutomation": [],
      "panAutomation": []
    },
    {
      "pitch": 115,
      "measure": 30,
      "beat": 14,
      "duration": 1,
      "velocity": 100,
      "pan": 0,
      "instrument": "ORG_M47",
      "pipi": 0,
      "volumeAutomation": [],
      "panAutomation": []
    },
    {
      "pitch": 142,
      "measure": 31,
      "beat": 0,
      "duration": 3,
      "velocity": 100,
      "pan": 0,
      "instrument": "ORG_M47",
      "pipi": 0,
      "volumeAutomation": [
        {
          "tick": 2,
          "volume": 60
        }
      ],
      "panAutomation": []
    },
    {
      "pitch": 142,
      "measure": 31,
      "beat": 3,
      "duration": 3,
      "velocity": 100,
      "pan": 0,
      "instrument": "ORG_M47",
      "pipi": 0,
      "volumeAutomation": [
        {
          "tick": 2,
          "volume": 60
        }
      ],
      "panAutomation": []
    },
    {
      "pitch": 142,
      "measure": 31,
      "beat": 6,
      "duration": 2,
      "velocity": 100,
      "pan": 0,
      "instrument": "ORG_M47",
      "pipi": 0,
      "volumeAutomation": [
        {
          "tick": 1,
          "volume": 60
        }
      ],
      "panAutomation": []
    },
    {
      "pitch": 142,
      "measure": 31,
      "beat": 8,
      "duration": 1,
      "velocity": 100,
      "pan": 0,
      "instrument": "ORG_M47",
      "pipi": 0,
      "volumeAutomation": [],
      "panAutomation": []
    },
    {
      "pitch": 115,
      "measure": 31,
      "beat": 10,
      "duration": 1,
      "velocity": 100,
      "pan": 0,
      "instrument": "ORG_M47",
      "pipi": 0,
      "volumeAutomation": [],
      "panAutomation": []
    },
    {
      "pitch": 131,
      "measure": 31,
      "beat": 12,
      "duration": 1,
      "velocity": 100,
      "pan": 0,
      "instrument": "ORG_M47",
      "pipi": 0,
      "volumeAutomation": [],
      "panAutomation": []
    },
    {
      "pitch": 115,
      "measure": 31,
      "beat": 14,
      "duration": 1,
      "velocity": 100,
      "pan": 0,
      "instrument": "ORG_M47",
      "pipi": 0,
      "volumeAutomation": [],
      "panAutomation": []
    },
    {
      "pitch": 135,
      "measure": 32,
      "beat": 0,
      "duration": 3,
      "velocity": 100,
      "pan": 0,
      "instrument": "ORG_M47",
      "pipi": 0,
      "volumeAutomation": [
        {
          "tick": 2,
          "volume": 60
        }
      ],
      "panAutomation": []
    },
    {
      "pitch": 135,
      "measure": 32,
      "beat": 3,
      "duration": 3,
      "velocity": 100,
      "pan": 0,
      "instrument": "ORG_M47",
      "pipi": 0,
      "volumeAutomation": [
        {
          "tick": 2,
          "volume": 60
        }
      ],
      "panAutomation": []
    },
    {
      "pitch": 135,
      "measure": 32,
      "beat": 6,
      "duration": 2,
      "velocity": 100,
      "pan": 0,
      "instrument": "ORG_M47",
      "pipi": 0,
      "volumeAutomation": [
        {
          "tick": 1,
          "volume": 60
        }
      ],
      "panAutomation": []
    },
    {
      "pitch": 135,
      "measure": 32,
      "beat": 8,
      "duration": 1,
      "velocity": 100,
      "pan": 0,
      "instrument": "ORG_M47",
      "pipi": 0,
      "volumeAutomation": [],
      "panAutomation": []
    },
    {
      "pitch": 123,
      "measure": 32,
      "beat": 10,
      "duration": 1,
      "velocity": 100,
      "pan": 0,
      "instrument": "ORG_M47",
      "pipi": 0,
      "volumeAutomation": [],
      "panAutomation": []
    },
    {
      "pitch": 135,
      "measure": 32,
      "beat": 12,
      "duration": 1,
      "velocity": 100,
      "pan": 0,
      "instrument": "ORG_M47",
      "pipi": 0,
      "volumeAutomation": [],
      "panAutomation": []
    },
    {
      "pitch": 123,
      "measure": 32,
      "beat": 14,
      "duration": 1,
      "velocity": 100,
      "pan": 0,
      "instrument": "ORG_M47",
      "pipi": 0,
      "volumeAutomation": [],
      "panAutomation": []
    },
    {
      "pitch": 135,
      "measure": 33,
      "beat": 0,
      "duration": 3,
      "velocity": 100,
      "pan": 0,
      "instrument": "ORG_M47",
      "pipi": 0,
      "volumeAutomation": [
        {
          "tick": 2,
          "volume": 60
        }
      ],
      "panAutomation": []
    },
    {
      "pitch": 135,
      "measure": 33,
      "beat": 3,
      "duration": 3,
      "velocity": 100,
      "pan": 0,
      "instrument": "ORG_M47",
      "pipi": 0,
      "volumeAutomation": [
        {
          "tick": 2,
          "volume": 60
        }
      ],
      "panAutomation": []
    },
    {
      "pitch": 135,
      "measure": 33,
      "beat": 6,
      "duration": 2,
      "velocity": 100,
      "pan": 0,
      "instrument": "ORG_M47",
      "pipi": 0,
      "volumeAutomation": [
        {
          "tick": 1,
          "volume": 60
        }
      ],
      "panAutomation": []
    },
    {
      "pitch": 135,
      "measure": 33,
      "beat": 8,
      "duration": 1,
      "velocity": 100,
      "pan": 0,
      "instrument": "ORG_M47",
      "pipi": 0,
      "volumeAutomation": [],
      "panAutomation": []
    },
    {
      "pitch": 123,
      "measure": 33,
      "beat": 10,
      "duration": 1,
      "velocity": 100,
      "pan": 0,
      "instrument": "ORG_M47",
      "pipi": 0,
      "volumeAutomation": [],
      "panAutomation": []
    },
    {
      "pitch": 135,
      "measure": 33,
      "beat": 12,
      "duration": 1,
      "velocity": 100,
      "pan": 0,
      "instrument": "ORG_M47",
      "pipi": 0,
      "volumeAutomation": [],
      "panAutomation": []
    },
    {
      "pitch": 123,
      "measure": 33,
      "beat": 14,
      "duration": 1,
      "velocity": 100,
      "pan": 0,
      "instrument": "ORG_M47",
      "pipi": 0,
      "volumeAutomation": [],
      "panAutomation": []
    },
    {
      "pitch": 142,
      "measure": 34,
      "beat": 0,
      "duration": 3,
      "velocity": 100,
      "pan": 0,
      "instrument": "ORG_M47",
      "pipi": 0,
      "volumeAutomation": [
        {
          "tick": 2,
          "volume": 60
        }
      ],
      "panAutomation": []
    },
    {
      "pitch": 142,
      "measure": 34,
      "beat": 3,
      "duration": 3,
      "velocity": 100,
      "pan": 0,
      "instrument": "ORG_M47",
      "pipi": 0,
      "volumeAutomation": [
        {
          "tick": 2,
          "volume": 60
        }
      ],
      "panAutomation": []
    },
    {
      "pitch": 142,
      "measure": 34,
      "beat": 6,
      "duration": 2,
      "velocity": 100,
      "pan": 0,
      "instrument": "ORG_M47",
      "pipi": 0,
      "volumeAutomation": [
        {
          "tick": 1,
          "volume": 60
        }
      ],
      "panAutomation": []
    },
    {
      "pitch": 142,
      "measure": 34,
      "beat": 8,
      "duration": 1,
      "velocity": 100,
      "pan": 0,
      "instrument": "ORG_M47",
      "pipi": 0,
      "volumeAutomation": [],
      "panAutomation": []
    },
    {
      "pitch": 115,
      "measure": 34,
      "beat": 10,
      "duration": 1,
      "velocity": 100,
      "pan": 0,
      "instrument": "ORG_M47",
      "pipi": 0,
      "volumeAutomation": [],
      "panAutomation": []
    },
    {
      "pitch": 131,
      "measure": 34,
      "beat": 12,
      "duration": 1,
      "velocity": 100,
      "pan": 0,
      "instrument": "ORG_M47",
      "pipi": 0,
      "volumeAutomation": [],
      "panAutomation": []
    },
    {
      "pitch": 115,
      "measure": 34,
      "beat": 14,
      "duration": 1,
      "velocity": 100,
      "pan": 0,
      "instrument": "ORG_M47",
      "pipi": 0,
      "volumeAutomation": [],
      "panAutomation": []
    },
    {
      "pitch": 142,
      "measure": 35,
      "beat": 0,
      "duration": 3,
      "velocity": 100,
      "pan": 0,
      "instrument": "ORG_M47",
      "pipi": 0,
      "volumeAutomation": [
        {
          "tick": 2,
          "volume": 60
        }
      ],
      "panAutomation": []
    },
    {
      "pitch": 142,
      "measure": 35,
      "beat": 3,
      "duration": 3,
      "velocity": 100,
      "pan": 0,
      "instrument": "ORG_M47",
      "pipi": 0,
      "volumeAutomation": [
        {
          "tick": 2,
          "volume": 60
        }
      ],
      "panAutomation": []
    },
    {
      "pitch": 142,
      "measure": 35,
      "beat": 6,
      "duration": 2,
      "velocity": 100,
      "pan": 0,
      "instrument": "ORG_M47",
      "pipi": 0,
      "volumeAutomation": [
        {
          "tick": 1,
          "volume": 60
        }
      ],
      "panAutomation": []
    },
    {
      "pitch": 142,
      "measure": 35,
      "beat": 8,
      "duration": 1,
      "velocity": 100,
      "pan": 0,
      "instrument": "ORG_M47",
      "pipi": 0,
      "volumeAutomation": [],
      "panAutomation": []
    },
    {
      "pitch": 115,
      "measure": 35,
      "beat": 10,
      "duration": 1,
      "velocity": 100,
      "pan": 0,
      "instrument": "ORG_M47",
      "pipi": 0,
      "volumeAutomation": [],
      "panAutomation": []
    },
    {
      "pitch": 131,
      "measure": 35,
      "beat": 12,
      "duration": 1,
      "velocity": 100,
      "pan": 0,
      "instrument": "ORG_M47",
      "pipi": 0,
      "volumeAutomation": [],
      "panAutomation": []
    },
    {
      "pitch": 115,
      "measure": 35,
      "beat": 14,
      "duration": 1,
      "velocity": 100,
      "pan": 0,
      "instrument": "ORG_M47",
      "pipi": 0,
      "volumeAutomation": [],
      "panAutomation": []
    },
    {
      "pitch": 135,
      "measure": 36,
      "beat": 0,
      "duration": 3,
      "velocity": 100,
      "pan": 0,
      "instrument": "ORG_M47",
      "pipi": 0,
      "volumeAutomation": [
        {
          "tick": 2,
          "volume": 60
        }
      ],
      "panAutomation": []
    },
    {
      "pitch": 135,
      "measure": 36,
      "beat": 3,
      "duration": 3,
      "velocity": 100,
      "pan": 0,
      "instrument": "ORG_M47",
      "pipi": 0,
      "volumeAutomation": [
        {
          "tick": 2,
          "volume": 60
        }
      ],
      "panAutomation": []
    },
    {
      "pitch": 135,
      "measure": 36,
      "beat": 6,
      "duration": 2,
      "velocity": 100,
      "pan": 0,
      "instrument": "ORG_M47",
      "pipi": 0,
      "volumeAutomation": [
        {
          "tick": 1,
          "volume": 60
        }
      ],
      "panAutomation": []
    },
    {
      "pitch": 135,
      "measure": 36,
      "beat": 8,
      "duration": 1,
      "velocity": 100,
      "pan": 0,
      "instrument": "ORG_M47",
      "pipi": 0,
      "volumeAutomation": [],
      "panAutomation": []
    },
    {
      "pitch": 123,
      "measure": 36,
      "beat": 10,
      "duration": 1,
      "velocity": 100,
      "pan": 0,
      "instrument": "ORG_M47",
      "pipi": 0,
      "volumeAutomation": [],
      "panAutomation": []
    },
    {
      "pitch": 135,
      "measure": 36,
      "beat": 12,
      "duration": 1,
      "velocity": 100,
      "pan": 0,
      "instrument": "ORG_M47",
      "pipi": 0,
      "volumeAutomation": [],
      "panAutomation": []
    },
    {
      "pitch": 123,
      "measure": 36,
      "beat": 14,
      "duration": 1,
      "velocity": 100,
      "pan": 0,
      "instrument": "ORG_M47",
      "pipi": 0,
      "volumeAutomation": [],
      "panAutomation": []
    },
    {
      "pitch": 135,
      "measure": 37,
      "beat": 0,
      "duration": 3,
      "velocity": 100,
      "pan": 0,
      "instrument": "ORG_M47",
      "pipi": 0,
      "volumeAutomation": [
        {
          "tick": 2,
          "volume": 60
        }
      ],
      "panAutomation": []
    },
    {
      "pitch": 135,
      "measure": 37,
      "beat": 3,
      "duration": 3,
      "velocity": 100,
      "pan": 0,
      "instrument": "ORG_M47",
      "pipi": 0,
      "volumeAutomation": [
        {
          "tick": 2,
          "volume": 60
        }
      ],
      "panAutomation": []
    },
    {
      "pitch": 135,
      "measure": 37,
      "beat": 6,
      "duration": 2,
      "velocity": 100,
      "pan": 0,
      "instrument": "ORG_M47",
      "pipi": 0,
      "volumeAutomation": [
        {
          "tick": 1,
          "volume": 60
        }
      ],
      "panAutomation": []
    },
    {
      "pitch": 135,
      "measure": 37,
      "beat": 8,
      "duration": 1,
      "velocity": 100,
      "pan": 0,
      "instrument": "ORG_M47",
      "pipi": 0,
      "volumeAutomation": [],
      "panAutomation": []
    },
    {
      "pitch": 123,
      "measure": 37,
      "beat": 10,
      "duration": 1,
      "velocity": 100,
      "pan": 0,
      "instrument": "ORG_M47",
      "pipi": 0,
      "volumeAutomation": [],
      "panAutomation": []
    },
    {
      "pitch": 135,
      "measure": 37,
      "beat": 12,
      "duration": 1,
      "velocity": 100,
      "pan": 0,
      "instrument": "ORG_M47",
      "pipi": 0,
      "volumeAutomation": [],
      "panAutomation": []
    },
    {
      "pitch": 123,
      "measure": 37,
      "beat": 14,
      "duration": 1,
      "velocity": 100,
      "pan": 0,
      "instrument": "ORG_M47",
      "pipi": 0,
      "volumeAutomation": [],
      "panAutomation": []
    },
    {
      "pitch": 142,
      "measure": 38,
      "beat": 0,
      "duration": 3,
      "velocity": 100,
      "pan": 0,
      "instrument": "ORG_M47",
      "pipi": 0,
      "volumeAutomation": [
        {
          "tick": 2,
          "volume": 60
        }
      ],
      "panAutomation": []
    },
    {
      "pitch": 142,
      "measure": 38,
      "beat": 3,
      "duration": 3,
      "velocity": 100,
      "pan": 0,
      "instrument": "ORG_M47",
      "pipi": 0,
      "volumeAutomation": [
        {
          "tick": 2,
          "volume": 60
        }
      ],
      "panAutomation": []
    },
    {
      "pitch": 142,
      "measure": 38,
      "beat": 6,
      "duration": 2,
      "velocity": 100,
      "pan": 0,
      "instrument": "ORG_M47",
      "pipi": 0,
      "volumeAutomation": [
        {
          "tick": 1,
          "volume": 60
        }
      ],
      "panAutomation": []
    },
    {
      "pitch": 142,
      "measure": 38,
      "beat": 8,
      "duration": 1,
      "velocity": 100,
      "pan": 0,
      "instrument": "ORG_M47",
      "pipi": 0,
      "volumeAutomation": [],
      "panAutomation": []
    },
    {
      "pitch": 115,
      "measure": 38,
      "beat": 10,
      "duration": 1,
      "velocity": 100,
      "pan": 0,
      "instrument": "ORG_M47",
      "pipi": 0,
      "volumeAutomation": [],
      "panAutomation": []
    },
    {
      "pitch": 131,
      "measure": 38,
      "beat": 12,
      "duration": 1,
      "velocity": 100,
      "pan": 0,
      "instrument": "ORG_M47",
      "pipi": 0,
      "volumeAutomation": [],
      "panAutomation": []
    },
    {
      "pitch": 115,
      "measure": 38,
      "beat": 14,
      "duration": 1,
      "velocity": 100,
      "pan": 0,
      "instrument": "ORG_M47",
      "pipi": 0,
      "volumeAutomation": [],
      "panAutomation": []
    },
    {
      "pitch": 142,
      "measure": 39,
      "beat": 0,
      "duration": 3,
      "velocity": 100,
      "pan": 0,
      "instrument": "ORG_M47",
      "pipi": 0,
      "volumeAutomation": [
        {
          "tick": 2,
          "volume": 60
        }
      ],
      "panAutomation": []
    },
    {
      "pitch": 142,
      "measure": 39,
      "beat": 3,
      "duration": 3,
      "velocity": 100,
      "pan": 0,
      "instrument": "ORG_M47",
      "pipi": 0,
      "volumeAutomation": [
        {
          "tick": 2,
          "volume": 60
        }
      ],
      "panAutomation": []
    },
    {
      "pitch": 142,
      "measure": 39,
      "beat": 6,
      "duration": 2,
      "velocity": 100,
      "pan": 0,
      "instrument": "ORG_M47",
      "pipi": 0,
      "volumeAutomation": [
        {
          "tick": 1,
          "volume": 60
        }
      ],
      "panAutomation": []
    },
    {
      "pitch": 142,
      "measure": 39,
      "beat": 8,
      "duration": 1,
      "velocity": 100,
      "pan": 0,
      "instrument": "ORG_M47",
      "pipi": 0,
      "volumeAutomation": [],
      "panAutomation": []
    },
    {
      "pitch": 115,
      "measure": 39,
      "beat": 10,
      "duration": 1,
      "velocity": 100,
      "pan": 0,
      "instrument": "ORG_M47",
      "pipi": 0,
      "volumeAutomation": [],
      "panAutomation": []
    },
    {
      "pitch": 131,
      "measure": 39,
      "beat": 12,
      "duration": 1,
      "velocity": 100,
      "pan": 0,
      "instrument": "ORG_M47",
      "pipi": 0,
      "volumeAutomation": [],
      "panAutomation": []
    },
    {
      "pitch": 115,
      "measure": 39,
      "beat": 14,
      "duration": 1,
      "velocity": 100,
      "pan": 0,
      "instrument": "ORG_M47",
      "pipi": 0,
      "volumeAutomation": [],
      "panAutomation": []
    },
    {
      "pitch": 135,
      "measure": 40,
      "beat": 0,
      "duration": 3,
      "velocity": 100,
      "pan": 0,
      "instrument": "ORG_M47",
      "pipi": 0,
      "volumeAutomation": [
        {
          "tick": 2,
          "volume": 60
        }
      ],
      "panAutomation": []
    },
    {
      "pitch": 135,
      "measure": 40,
      "beat": 3,
      "duration": 3,
      "velocity": 100,
      "pan": 0,
      "instrument": "ORG_M47",
      "pipi": 0,
      "volumeAutomation": [
        {
          "tick": 2,
          "volume": 60
        }
      ],
      "panAutomation": []
    },
    {
      "pitch": 135,
      "measure": 40,
      "beat": 6,
      "duration": 2,
      "velocity": 100,
      "pan": 0,
      "instrument": "ORG_M47",
      "pipi": 0,
      "volumeAutomation": [
        {
          "tick": 1,
          "volume": 60
        }
      ],
      "panAutomation": []
    },
    {
      "pitch": 135,
      "measure": 40,
      "beat": 8,
      "duration": 1,
      "velocity": 100,
      "pan": 0,
      "instrument": "ORG_M47",
      "pipi": 0,
      "volumeAutomation": [],
      "panAutomation": []
    },
    {
      "pitch": 123,
      "measure": 40,
      "beat": 10,
      "duration": 1,
      "velocity": 100,
      "pan": 0,
      "instrument": "ORG_M47",
      "pipi": 0,
      "volumeAutomation": [],
      "panAutomation": []
    },
    {
      "pitch": 135,
      "measure": 40,
      "beat": 12,
      "duration": 1,
      "velocity": 100,
      "pan": 0,
      "instrument": "ORG_M47",
      "pipi": 0,
      "volumeAutomation": [],
      "panAutomation": []
    },
    {
      "pitch": 123,
      "measure": 40,
      "beat": 14,
      "duration": 1,
      "velocity": 100,
      "pan": 0,
      "instrument": "ORG_M47",
      "pipi": 0,
      "volumeAutomation": [],
      "panAutomation": []
    },
    {
      "pitch": 135,
      "measure": 41,
      "beat": 0,
      "duration": 3,
      "velocity": 100,
      "pan": 0,
      "instrument": "ORG_M47",
      "pipi": 0,
      "volumeAutomation": [
        {
          "tick": 2,
          "volume": 60
        }
      ],
      "panAutomation": []
    },
    {
      "pitch": 135,
      "measure": 41,
      "beat": 3,
      "duration": 3,
      "velocity": 100,
      "pan": 0,
      "instrument": "ORG_M47",
      "pipi": 0,
      "volumeAutomation": [
        {
          "tick": 2,
          "volume": 60
        }
      ],
      "panAutomation": []
    },
    {
      "pitch": 135,
      "measure": 41,
      "beat": 6,
      "duration": 2,
      "velocity": 100,
      "pan": 0,
      "instrument": "ORG_M47",
      "pipi": 0,
      "volumeAutomation": [
        {
          "tick": 1,
          "volume": 60
        }
      ],
      "panAutomation": []
    },
    {
      "pitch": 135,
      "measure": 41,
      "beat": 8,
      "duration": 1,
      "velocity": 100,
      "pan": 0,
      "instrument": "ORG_M47",
      "pipi": 0,
      "volumeAutomation": [],
      "panAutomation": []
    },
    {
      "pitch": 123,
      "measure": 41,
      "beat": 10,
      "duration": 1,
      "velocity": 100,
      "pan": 0,
      "instrument": "ORG_M47",
      "pipi": 0,
      "volumeAutomation": [],
      "panAutomation": []
    },
    {
      "pitch": 135,
      "measure": 41,
      "beat": 12,
      "duration": 1,
      "velocity": 100,
      "pan": 0,
      "instrument": "ORG_M47",
      "pipi": 0,
      "volumeAutomation": [],
      "panAutomation": []
    },
    {
      "pitch": 123,
      "measure": 41,
      "beat": 14,
      "duration": 1,
      "velocity": 100,
      "pan": 0,
      "instrument": "ORG_M47",
      "pipi": 0,
      "volumeAutomation": [],
      "panAutomation": []
    },
    {
      "pitch": 142,
      "measure": 42,
      "beat": 0,
      "duration": 3,
      "velocity": 100,
      "pan": 0,
      "instrument": "ORG_M47",
      "pipi": 0,
      "volumeAutomation": [
        {
          "tick": 2,
          "volume": 60
        }
      ],
      "panAutomation": []
    },
    {
      "pitch": 142,
      "measure": 42,
      "beat": 3,
      "duration": 3,
      "velocity": 100,
      "pan": 0,
      "instrument": "ORG_M47",
      "pipi": 0,
      "volumeAutomation": [
        {
          "tick": 2,
          "volume": 60
        }
      ],
      "panAutomation": []
    },
    {
      "pitch": 142,
      "measure": 42,
      "beat": 6,
      "duration": 2,
      "velocity": 100,
      "pan": 0,
      "instrument": "ORG_M47",
      "pipi": 0,
      "volumeAutomation": [
        {
          "tick": 1,
          "volume": 60
        }
      ],
      "panAutomation": []
    },
    {
      "pitch": 142,
      "measure": 42,
      "beat": 8,
      "duration": 1,
      "velocity": 100,
      "pan": 0,
      "instrument": "ORG_M47",
      "pipi": 0,
      "volumeAutomation": [],
      "panAutomation": []
    },
    {
      "pitch": 115,
      "measure": 42,
      "beat": 10,
      "duration": 1,
      "velocity": 100,
      "pan": 0,
      "instrument": "ORG_M47",
      "pipi": 0,
      "volumeAutomation": [],
      "panAutomation": []
    },
    {
      "pitch": 131,
      "measure": 42,
      "beat": 12,
      "duration": 1,
      "velocity": 100,
      "pan": 0,
      "instrument": "ORG_M47",
      "pipi": 0,
      "volumeAutomation": [],
      "panAutomation": []
    },
    {
      "pitch": 115,
      "measure": 42,
      "beat": 14,
      "duration": 1,
      "velocity": 100,
      "pan": 0,
      "instrument": "ORG_M47",
      "pipi": 0,
      "volumeAutomation": [],
      "panAutomation": []
    },
    {
      "pitch": 142,
      "measure": 43,
      "beat": 0,
      "duration": 3,
      "velocity": 100,
      "pan": 0,
      "instrument": "ORG_M47",
      "pipi": 0,
      "volumeAutomation": [
        {
          "tick": 2,
          "volume": 60
        }
      ],
      "panAutomation": []
    },
    {
      "pitch": 142,
      "measure": 43,
      "beat": 3,
      "duration": 3,
      "velocity": 100,
      "pan": 0,
      "instrument": "ORG_M47",
      "pipi": 0,
      "volumeAutomation": [
        {
          "tick": 2,
          "volume": 60
        }
      ],
      "panAutomation": []
    },
    {
      "pitch": 142,
      "measure": 43,
      "beat": 6,
      "duration": 2,
      "velocity": 100,
      "pan": 0,
      "instrument": "ORG_M47",
      "pipi": 0,
      "volumeAutomation": [
        {
          "tick": 1,
          "volume": 60
        }
      ],
      "panAutomation": []
    },
    {
      "pitch": 142,
      "measure": 43,
      "beat": 8,
      "duration": 1,
      "velocity": 100,
      "pan": 0,
      "instrument": "ORG_M47",
      "pipi": 0,
      "volumeAutomation": [],
      "panAutomation": []
    },
    {
      "pitch": 115,
      "measure": 43,
      "beat": 10,
      "duration": 1,
      "velocity": 100,
      "pan": 0,
      "instrument": "ORG_M47",
      "pipi": 0,
      "volumeAutomation": [],
      "panAutomation": []
    },
    {
      "pitch": 131,
      "measure": 43,
      "beat": 12,
      "duration": 1,
      "velocity": 100,
      "pan": 0,
      "instrument": "ORG_M47",
      "pipi": 0,
      "volumeAutomation": [],
      "panAutomation": []
    },
    {
      "pitch": 115,
      "measure": 43,
      "beat": 14,
      "duration": 1,
      "velocity": 100,
      "pan": 0,
      "instrument": "ORG_M47",
      "pipi": 0,
      "volumeAutomation": [],
      "panAutomation": []
    },
    {
      "pitch": 177,
      "measure": 11,
      "beat": 12,
      "duration": 1,
      "velocity": 100,
      "pan": 0,
      "instrument": "ORG_M00",
      "pipi": 0,
      "volumeAutomation": [],
      "panAutomation": []
    },
    {
      "pitch": 189,
      "measure": 11,
      "beat": 13,
      "duration": 1,
      "velocity": 100,
      "pan": 0,
      "instrument": "ORG_M00",
      "pipi": 0,
      "volumeAutomation": [],
      "panAutomation": []
    },
    {
      "pitch": 215,
      "measure": 11,
      "beat": 14,
      "duration": 1,
      "velocity": 100,
      "pan": 0,
      "instrument": "ORG_M00",
      "pipi": 0,
      "volumeAutomation": [],
      "panAutomation": []
    },
    {
      "pitch": 227,
      "measure": 11,
      "beat": 15,
      "duration": 1,
      "velocity": 100,
      "pan": 0,
      "instrument": "ORG_M00",
      "pipi": 0,
      "volumeAutomation": [],
      "panAutomation": []
    },
    {
      "pitch": 235,
      "measure": 12,
      "beat": 0,
      "duration": 3,
      "velocity": 100,
      "pan": 0,
      "instrument": "ORG_M00",
      "pipi": 0,
      "volumeAutomation": [
        {
          "tick": 2,
          "volume": 60
        }
      ],
      "panAutomation": []
    },
    {
      "pitch": 235,
      "measure": 12,
      "beat": 3,
      "duration": 3,
      "velocity": 100,
      "pan": 0,
      "instrument": "ORG_M00",
      "pipi": 0,
      "volumeAutomation": [
        {
          "tick": 2,
          "volume": 60
        }
      ],
      "panAutomation": []
    },
    {
      "pitch": 227,
      "measure": 12,
      "beat": 6,
      "duration": 4,
      "velocity": 100,
      "pan": 0,
      "instrument": "ORG_M00",
      "pipi": 0,
      "volumeAutomation": [
        {
          "tick": 2,
          "volume": 60
        }
      ],
      "panAutomation": []
    },
    {
      "pitch": 227,
      "measure": 12,
      "beat": 10,
      "duration": 2,
      "velocity": 100,
      "pan": 0,
      "instrument": "ORG_M00",
      "pipi": 0,
      "volumeAutomation": [
        {
          "tick": 1,
          "volume": 60
        }
      ],
      "panAutomation": []
    },
    {
      "pitch": 223,
      "measure": 12,
      "beat": 12,
      "duration": 2,
      "velocity": 100,
      "pan": 0,
      "instrument": "ORG_M00",
      "pipi": 0,
      "volumeAutomation": [
        {
          "tick": 1,
          "volume": 60
        }
      ],
      "panAutomation": []
    },
    {
      "pitch": 227,
      "measure": 12,
      "beat": 14,
      "duration": 2,
      "velocity": 100,
      "pan": 0,
      "instrument": "ORG_M00",
      "pipi": 0,
      "volumeAutomation": [
        {
          "tick": 1,
          "volume": 60
        }
      ],
      "panAutomation": []
    },
    {
      "pitch": 235,
      "measure": 13,
      "beat": 0,
      "duration": 3,
      "velocity": 100,
      "pan": 0,
      "instrument": "ORG_M00",
      "pipi": 0,
      "volumeAutomation": [
        {
          "tick": 2,
          "volume": 60
        }
      ],
      "panAutomation": []
    },
    {
      "pitch": 235,
      "measure": 13,
      "beat": 3,
      "duration": 3,
      "velocity": 100,
      "pan": 0,
      "instrument": "ORG_M00",
      "pipi": 0,
      "volumeAutomation": [
        {
          "tick": 2,
          "volume": 60
        }
      ],
      "panAutomation": []
    },
    {
      "pitch": 227,
      "measure": 13,
      "beat": 6,
      "duration": 4,
      "velocity": 100,
      "pan": 0,
      "instrument": "ORG_M00",
      "pipi": 0,
      "volumeAutomation": [
        {
          "tick": 2,
          "volume": 60
        }
      ],
      "panAutomation": []
    },
    {
      "pitch": 227,
      "measure": 13,
      "beat": 10,
      "duration": 2,
      "velocity": 100,
      "pan": 0,
      "instrument": "ORG_M00",
      "pipi": 0,
      "volumeAutomation": [
        {
          "tick": 1,
          "volume": 60
        }
      ],
      "panAutomation": []
    },
    {
      "pitch": 223,
      "measure": 13,
      "beat": 12,
      "duration": 2,
      "velocity": 100,
      "pan": 0,
      "instrument": "ORG_M00",
      "pipi": 0,
      "volumeAutomation": [
        {
          "tick": 1,
          "volume": 60
        }
      ],
      "panAutomation": []
    },
    {
      "pitch": 227,
      "measure": 13,
      "beat": 14,
      "duration": 2,
      "velocity": 100,
      "pan": 0,
      "instrument": "ORG_M00",
      "pipi": 0,
      "volumeAutomation": [
        {
          "tick": 1,
          "volume": 60
        }
      ],
      "panAutomation": []
    },
    {
      "pitch": 242,
      "measure": 14,
      "beat": 0,
      "duration": 3,
      "velocity": 100,
      "pan": 0,
      "instrument": "ORG_M00",
      "pipi": 0,
      "volumeAutomation": [
        {
          "tick": 2,
          "volume": 60
        }
      ],
      "panAutomation": []
    },
    {
      "pitch": 242,
      "measure": 14,
      "beat": 3,
      "duration": 3,
      "velocity": 100,
      "pan": 0,
      "instrument": "ORG_M00",
      "pipi": 0,
      "volumeAutomation": [
        {
          "tick": 2,
          "volume": 60
        }
      ],
      "panAutomation": []
    },
    {
      "pitch": 223,
      "measure": 14,
      "beat": 6,
      "duration": 4,
      "velocity": 100,
      "pan": 0,
      "instrument": "ORG_M00",
      "pipi": 0,
      "volumeAutomation": [
        {
          "tick": 2,
          "volume": 60
        }
      ],
      "panAutomation": []
    },
    {
      "pitch": 223,
      "measure": 14,
      "beat": 10,
      "duration": 2,
      "velocity": 100,
      "pan": 0,
      "instrument": "ORG_M00",
      "pipi": 0,
      "volumeAutomation": [
        {
          "tick": 1,
          "volume": 60
        }
      ],
      "panAutomation": []
    },
    {
      "pitch": 211,
      "measure": 14,
      "beat": 12,
      "duration": 2,
      "velocity": 100,
      "pan": 0,
      "instrument": "ORG_M00",
      "pipi": 0,
      "volumeAutomation": [
        {
          "tick": 1,
          "volume": 60
        }
      ],
      "panAutomation": []
    },
    {
      "pitch": 223,
      "measure": 14,
      "beat": 14,
      "duration": 2,
      "velocity": 100,
      "pan": 0,
      "instrument": "ORG_M00",
      "pipi": 0,
      "volumeAutomation": [
        {
          "tick": 1,
          "volume": 60
        }
      ],
      "panAutomation": []
    },
    {
      "pitch": 242,
      "measure": 15,
      "beat": 0,
      "duration": 3,
      "velocity": 100,
      "pan": 0,
      "instrument": "ORG_M00",
      "pipi": 0,
      "volumeAutomation": [
        {
          "tick": 2,
          "volume": 60
        }
      ],
      "panAutomation": []
    },
    {
      "pitch": 242,
      "measure": 15,
      "beat": 3,
      "duration": 3,
      "velocity": 100,
      "pan": 0,
      "instrument": "ORG_M00",
      "pipi": 0,
      "volumeAutomation": [
        {
          "tick": 2,
          "volume": 60
        }
      ],
      "panAutomation": []
    },
    {
      "pitch": 223,
      "measure": 15,
      "beat": 6,
      "duration": 4,
      "velocity": 100,
      "pan": 0,
      "instrument": "ORG_M00",
      "pipi": 0,
      "volumeAutomation": [
        {
          "tick": 2,
          "volume": 60
        }
      ],
      "panAutomation": []
    },
    {
      "pitch": 223,
      "measure": 15,
      "beat": 10,
      "duration": 2,
      "velocity": 100,
      "pan": 0,
      "instrument": "ORG_M00",
      "pipi": 0,
      "volumeAutomation": [
        {
          "tick": 1,
          "volume": 60
        }
      ],
      "panAutomation": []
    },
    {
      "pitch": 227,
      "measure": 15,
      "beat": 12,
      "duration": 2,
      "velocity": 100,
      "pan": 0,
      "instrument": "ORG_M00",
      "pipi": 0,
      "volumeAutomation": [
        {
          "tick": 1,
          "volume": 60
        }
      ],
      "panAutomation": []
    },
    {
      "pitch": 223,
      "measure": 15,
      "beat": 14,
      "duration": 2,
      "velocity": 100,
      "pan": 0,
      "instrument": "ORG_M00",
      "pipi": 0,
      "volumeAutomation": [
        {
          "tick": 1,
          "volume": 60
        }
      ],
      "panAutomation": []
    },
    {
      "pitch": 235,
      "measure": 16,
      "beat": 0,
      "duration": 3,
      "velocity": 100,
      "pan": 0,
      "instrument": "ORG_M00",
      "pipi": 0,
      "volumeAutomation": [
        {
          "tick": 2,
          "volume": 60
        }
      ],
      "panAutomation": []
    },
    {
      "pitch": 207,
      "measure": 16,
      "beat": 3,
      "duration": 3,
      "velocity": 100,
      "pan": 0,
      "instrument": "ORG_M00",
      "pipi": 0,
      "volumeAutomation": [
        {
          "tick": 2,
          "volume": 60
        }
      ],
      "panAutomation": []
    },
    {
      "pitch": 215,
      "measure": 16,
      "beat": 6,
      "duration": 3,
      "velocity": 100,
      "pan": 0,
      "instrument": "ORG_M00",
      "pipi": 0,
      "volumeAutomation": [
        {
          "tick": 2,
          "volume": 60
        }
      ],
      "panAutomation": []
    },
    {
      "pitch": 223,
      "measure": 16,
      "beat": 9,
      "duration": 3,
      "velocity": 100,
      "pan": 0,
      "instrument": "ORG_M00",
      "pipi": 0,
      "volumeAutomation": [
        {
          "tick": 2,
          "volume": 60
        }
      ],
      "panAutomation": []
    },
    {
      "pitch": 227,
      "measure": 16,
      "beat": 12,
      "duration": 2,
      "velocity": 100,
      "pan": 0,
      "instrument": "ORG_M00",
      "pipi": 0,
      "volumeAutomation": [],
      "panAutomation": []
    },
    {
      "pitch": 231,
      "measure": 16,
      "beat": 14,
      "duration": 2,
      "velocity": 100,
      "pan": 0,
      "instrument": "ORG_M00",
      "pipi": 0,
      "volumeAutomation": [],
      "panAutomation": []
    },
    {
      "pitch": 235,
      "measure": 17,
      "beat": 0,
      "duration": 3,
      "velocity": 100,
      "pan": 0,
      "instrument": "ORG_M00",
      "pipi": 0,
      "volumeAutomation": [
        {
          "tick": 2,
          "volume": 60
        }
      ],
      "panAutomation": []
    },
    {
      "pitch": 207,
      "measure": 17,
      "beat": 3,
      "duration": 3,
      "velocity": 100,
      "pan": 0,
      "instrument": "ORG_M00",
      "pipi": 0,
      "volumeAutomation": [
        {
          "tick": 2,
          "volume": 60
        }
      ],
      "panAutomation": []
    },
    {
      "pitch": 215,
      "measure": 17,
      "beat": 6,
      "duration": 3,
      "velocity": 100,
      "pan": 0,
      "instrument": "ORG_M00",
      "pipi": 0,
      "volumeAutomation": [
        {
          "tick": 2,
          "volume": 60
        }
      ],
      "panAutomation": []
    },
    {
      "pitch": 223,
      "measure": 17,
      "beat": 9,
      "duration": 3,
      "velocity": 100,
      "pan": 0,
      "instrument": "ORG_M00",
      "pipi": 0,
      "volumeAutomation": [
        {
          "tick": 2,
          "volume": 60
        }
      ],
      "panAutomation": []
    },
    {
      "pitch": 227,
      "measure": 17,
      "beat": 12,
      "duration": 2,
      "velocity": 100,
      "pan": 0,
      "instrument": "ORG_M00",
      "pipi": 0,
      "volumeAutomation": [
        {
          "tick": 1,
          "volume": 60
        }
      ],
      "panAutomation": []
    },
    {
      "pitch": 223,
      "measure": 17,
      "beat": 14,
      "duration": 2,
      "velocity": 100,
      "pan": 0,
      "instrument": "ORG_M00",
      "pipi": 0,
      "volumeAutomation": [
        {
          "tick": 1,
          "volume": 60
        }
      ],
      "panAutomation": []
    },
    {
      "pitch": 169,
      "measure": 18,
      "beat": 0,
      "duration": 3,
      "velocity": 100,
      "pan": 0,
      "instrument": "ORG_M00",
      "pipi": 0,
      "volumeAutomation": [
        {
          "tick": 2,
          "volume": 60
        }
      ],
      "panAutomation": []
    },
    {
      "pitch": 169,
      "measure": 18,
      "beat": 3,
      "duration": 3,
      "velocity": 100,
      "pan": 0,
      "instrument": "ORG_M00",
      "pipi": 0,
      "volumeAutomation": [
        {
          "tick": 2,
          "volume": 60
        }
      ],
      "panAutomation": []
    },
    {
      "pitch": 185,
      "measure": 18,
      "beat": 6,
      "duration": 3,
      "velocity": 100,
      "pan": 0,
      "instrument": "ORG_M00",
      "pipi": 0,
      "volumeAutomation": [
        {
          "tick": 2,
          "volume": 60
        }
      ],
      "panAutomation": []
    },
    {
      "pitch": 185,
      "measure": 18,
      "beat": 9,
      "duration": 3,
      "velocity": 100,
      "pan": 0,
      "instrument": "ORG_M00",
      "pipi": 0,
      "volumeAutomation": [
        {
          "tick": 2,
          "volume": 60
        }
      ],
      "panAutomation": []
    },
    {
      "pitch": 196,
      "measure": 18,
      "beat": 12,
      "duration": 2,
      "velocity": 100,
      "pan": 0,
      "instrument": "ORG_M00",
      "pipi": 0,
      "volumeAutomation": [
        {
          "tick": 1,
          "volume": 60
        }
      ],
      "panAutomation": []
    },
    {
      "pitch": 196,
      "measure": 18,
      "beat": 14,
      "duration": 2,
      "velocity": 100,
      "pan": 0,
      "instrument": "ORG_M00",
      "pipi": 0,
      "volumeAutomation": [],
      "panAutomation": []
    },
    {
      "pitch": 150,
      "measure": 19,
      "beat": 0,
      "duration": 3,
      "velocity": 100,
      "pan": 0,
      "instrument": "ORG_M00",
      "pipi": 0,
      "volumeAutomation": [
        {
          "tick": 2,
          "volume": 62
        }
      ],
      "panAutomation": []
    },
    {
      "pitch": 150,
      "measure": 19,
      "beat": 3,
      "duration": 3,
      "velocity": 100,
      "pan": 0,
      "instrument": "ORG_M00",
      "pipi": 0,
      "volumeAutomation": [
        {
          "tick": 2,
          "volume": 60
        }
      ],
      "panAutomation": []
    },
    {
      "pitch": 123,
      "measure": 19,
      "beat": 6,
      "duration": 3,
      "velocity": 100,
      "pan": 0,
      "instrument": "ORG_M00",
      "pipi": 0,
      "volumeAutomation": [],
      "panAutomation": []
    },
    {
      "pitch": 123,
      "measure": 19,
      "beat": 9,
      "duration": 3,
      "velocity": 100,
      "pan": 0,
      "instrument": "ORG_M00",
      "pipi": 0,
      "volumeAutomation": [
        {
          "tick": 2,
          "volume": 60
        }
      ],
      "panAutomation": []
    },
    {
      "pitch": 135,
      "measure": 19,
      "beat": 12,
      "duration": 2,
      "velocity": 100,
      "pan": 0,
      "instrument": "ORG_M00",
      "pipi": 0,
      "volumeAutomation": [
        {
          "tick": 1,
          "volume": 60
        }
      ],
      "panAutomation": []
    },
    {
      "pitch": 207,
      "measure": 19,
      "beat": 14,
      "duration": 1,
      "velocity": 100,
      "pan": 0,
      "instrument": "ORG_M00",
      "pipi": 0,
      "volumeAutomation": [],
      "panAutomation": []
    },
    {
      "pitch": 215,
      "measure": 19,
      "beat": 15,
      "duration": 1,
      "velocity": 60,
      "pan": 0,
      "instrument": "ORG_M00",
      "pipi": 0,
      "volumeAutomation": [],
      "panAutomation": []
    },
    {
      "pitch": 227,
      "measure": 20,
      "beat": 0,
      "duration": 3,
      "velocity": 100,
      "pan": 0,
      "instrument": "ORG_M00",
      "pipi": 0,
      "volumeAutomation": [
        {
          "tick": 2,
          "volume": 60
        }
      ],
      "panAutomation": []
    },
    {
      "pitch": 227,
      "measure": 20,
      "beat": 3,
      "duration": 3,
      "velocity": 100,
      "pan": 0,
      "instrument": "ORG_M00",
      "pipi": 0,
      "volumeAutomation": [
        {
          "tick": 2,
          "volume": 60
        }
      ],
      "panAutomation": []
    },
    {
      "pitch": 215,
      "measure": 20,
      "beat": 6,
      "duration": 3,
      "velocity": 100,
      "pan": 0,
      "instrument": "ORG_M00",
      "pipi": 0,
      "volumeAutomation": [
        {
          "tick": 2,
          "volume": 60
        }
      ],
      "panAutomation": []
    },
    {
      "pitch": 215,
      "measure": 20,
      "beat": 9,
      "duration": 3,
      "velocity": 100,
      "pan": 0,
      "instrument": "ORG_M00",
      "pipi": 0,
      "volumeAutomation": [
        {
          "tick": 2,
          "volume": 60
        }
      ],
      "panAutomation": []
    },
    {
      "pitch": 207,
      "measure": 20,
      "beat": 12,
      "duration": 2,
      "velocity": 100,
      "pan": 0,
      "instrument": "ORG_M00",
      "pipi": 0,
      "volumeAutomation": [],
      "panAutomation": []
    },
    {
      "pitch": 215,
      "measure": 20,
      "beat": 14,
      "duration": 2,
      "velocity": 100,
      "pan": 0,
      "instrument": "ORG_M00",
      "pipi": 0,
      "volumeAutomation": [],
      "panAutomation": []
    },
    {
      "pitch": 227,
      "measure": 21,
      "beat": 0,
      "duration": 3,
      "velocity": 100,
      "pan": 0,
      "instrument": "ORG_M00",
      "pipi": 0,
      "volumeAutomation": [
        {
          "tick": 2,
          "volume": 60
        }
      ],
      "panAutomation": []
    },
    {
      "pitch": 227,
      "measure": 21,
      "beat": 3,
      "duration": 3,
      "velocity": 100,
      "pan": 0,
      "instrument": "ORG_M00",
      "pipi": 0,
      "volumeAutomation": [
        {
          "tick": 2,
          "volume": 60
        }
      ],
      "panAutomation": []
    },
    {
      "pitch": 215,
      "measure": 21,
      "beat": 6,
      "duration": 3,
      "velocity": 100,
      "pan": 0,
      "instrument": "ORG_M00",
      "pipi": 0,
      "volumeAutomation": [
        {
          "tick": 2,
          "volume": 60
        }
      ],
      "panAutomation": []
    },
    {
      "pitch": 215,
      "measure": 21,
      "beat": 9,
      "duration": 3,
      "velocity": 100,
      "pan": 0,
      "instrument": "ORG_M00",
      "pipi": 0,
      "volumeAutomation": [
        {
          "tick": 2,
          "volume": 60
        }
      ],
      "panAutomation": []
    },
    {
      "pitch": 207,
      "measure": 21,
      "beat": 12,
      "duration": 2,
      "velocity": 100,
      "pan": 0,
      "instrument": "ORG_M00",
      "pipi": 0,
      "volumeAutomation": [],
      "panAutomation": []
    },
    {
      "pitch": 215,
      "measure": 21,
      "beat": 14,
      "duration": 2,
      "velocity": 100,
      "pan": 0,
      "instrument": "ORG_M00",
      "pipi": 0,
      "volumeAutomation": [],
      "panAutomation": []
    },
    {
      "pitch": 235,
      "measure": 22,
      "beat": 0,
      "duration": 3,
      "velocity": 100,
      "pan": 0,
      "instrument": "ORG_M00",
      "pipi": 0,
      "volumeAutomation": [
        {
          "tick": 2,
          "volume": 60
        }
      ],
      "panAutomation": []
    },
    {
      "pitch": 235,
      "measure": 22,
      "beat": 3,
      "duration": 3,
      "velocity": 100,
      "pan": 0,
      "instrument": "ORG_M00",
      "pipi": 0,
      "volumeAutomation": [
        {
          "tick": 2,
          "volume": 60
        }
      ],
      "panAutomation": []
    },
    {
      "pitch": 215,
      "measure": 22,
      "beat": 6,
      "duration": 3,
      "velocity": 100,
      "pan": 0,
      "instrument": "ORG_M00",
      "pipi": 0,
      "volumeAutomation": [
        {
          "tick": 2,
          "volume": 60
        }
      ],
      "panAutomation": []
    },
    {
      "pitch": 215,
      "measure": 22,
      "beat": 9,
      "duration": 3,
      "velocity": 100,
      "pan": 0,
      "instrument": "ORG_M00",
      "pipi": 0,
      "volumeAutomation": [
        {
          "tick": 2,
          "volume": 60
        }
      ],
      "panAutomation": []
    },
    {
      "pitch": 207,
      "measure": 22,
      "beat": 12,
      "duration": 2,
      "velocity": 100,
      "pan": 0,
      "instrument": "ORG_M00",
      "pipi": 0,
      "volumeAutomation": [],
      "panAutomation": []
    },
    {
      "pitch": 215,
      "measure": 22,
      "beat": 14,
      "duration": 2,
      "velocity": 100,
      "pan": 0,
      "instrument": "ORG_M00",
      "pipi": 0,
      "volumeAutomation": [],
      "panAutomation": []
    },
    {
      "pitch": 235,
      "measure": 23,
      "beat": 0,
      "duration": 3,
      "velocity": 100,
      "pan": 0,
      "instrument": "ORG_M00",
      "pipi": 0,
      "volumeAutomation": [
        {
          "tick": 2,
          "volume": 60
        }
      ],
      "panAutomation": []
    },
    {
      "pitch": 235,
      "measure": 23,
      "beat": 3,
      "duration": 3,
      "velocity": 100,
      "pan": 0,
      "instrument": "ORG_M00",
      "pipi": 0,
      "volumeAutomation": [
        {
          "tick": 2,
          "volume": 60
        }
      ],
      "panAutomation": []
    },
    {
      "pitch": 215,
      "measure": 23,
      "beat": 6,
      "duration": 3,
      "velocity": 100,
      "pan": 0,
      "instrument": "ORG_M00",
      "pipi": 0,
      "volumeAutomation": [
        {
          "tick": 2,
          "volume": 60
        }
      ],
      "panAutomation": []
    },
    {
      "pitch": 215,
      "measure": 23,
      "beat": 9,
      "duration": 3,
      "velocity": 100,
      "pan": 0,
      "instrument": "ORG_M00",
      "pipi": 0,
      "volumeAutomation": [
        {
          "tick": 2,
          "volume": 60
        }
      ],
      "panAutomation": []
    },
    {
      "pitch": 207,
      "measure": 23,
      "beat": 12,
      "duration": 2,
      "velocity": 100,
      "pan": 0,
      "instrument": "ORG_M00",
      "pipi": 0,
      "volumeAutomation": [],
      "panAutomation": []
    },
    {
      "pitch": 215,
      "measure": 23,
      "beat": 14,
      "duration": 2,
      "velocity": 100,
      "pan": 0,
      "instrument": "ORG_M00",
      "pipi": 0,
      "volumeAutomation": [],
      "panAutomation": []
    },
    {
      "pitch": 242,
      "measure": 24,
      "beat": 0,
      "duration": 3,
      "velocity": 100,
      "pan": 0,
      "instrument": "ORG_M00",
      "pipi": 0,
      "volumeAutomation": [
        {
          "tick": 2,
          "volume": 60
        }
      ],
      "panAutomation": []
    },
    {
      "pitch": 196,
      "measure": 24,
      "beat": 3,
      "duration": 3,
      "velocity": 100,
      "pan": 0,
      "instrument": "ORG_M00",
      "pipi": 0,
      "volumeAutomation": [
        {
          "tick": 2,
          "volume": 60
        }
      ],
      "panAutomation": []
    },
    {
      "pitch": 227,
      "measure": 24,
      "beat": 6,
      "duration": 3,
      "velocity": 100,
      "pan": 0,
      "instrument": "ORG_M00",
      "pipi": 0,
      "volumeAutomation": [
        {
          "tick": 2,
          "volume": 60
        }
      ],
      "panAutomation": []
    },
    {
      "pitch": 223,
      "measure": 24,
      "beat": 9,
      "duration": 3,
      "velocity": 100,
      "pan": 0,
      "instrument": "ORG_M00",
      "pipi": 0,
      "volumeAutomation": [
        {
          "tick": 2,
          "volume": 60
        }
      ],
      "panAutomation": []
    },
    {
      "pitch": 207,
      "measure": 24,
      "beat": 12,
      "duration": 2,
      "velocity": 100,
      "pan": 0,
      "instrument": "ORG_M00",
      "pipi": 0,
      "volumeAutomation": [],
      "panAutomation": []
    },
    {
      "pitch": 196,
      "measure": 24,
      "beat": 14,
      "duration": 2,
      "velocity": 100,
      "pan": 0,
      "instrument": "ORG_M00",
      "pipi": 0,
      "volumeAutomation": [],
      "panAutomation": []
    },
    {
      "pitch": 242,
      "measure": 25,
      "beat": 0,
      "duration": 3,
      "velocity": 100,
      "pan": 0,
      "instrument": "ORG_M00",
      "pipi": 0,
      "volumeAutomation": [
        {
          "tick": 2,
          "volume": 60
        }
      ],
      "panAutomation": []
    },
    {
      "pitch": 196,
      "measure": 25,
      "beat": 3,
      "duration": 3,
      "velocity": 100,
      "pan": 0,
      "instrument": "ORG_M00",
      "pipi": 0,
      "volumeAutomation": [
        {
          "tick": 2,
          "volume": 60
        }
      ],
      "panAutomation": []
    },
    {
      "pitch": 227,
      "measure": 25,
      "beat": 6,
      "duration": 3,
      "velocity": 100,
      "pan": 0,
      "instrument": "ORG_M00",
      "pipi": 0,
      "volumeAutomation": [
        {
          "tick": 2,
          "volume": 60
        }
      ],
      "panAutomation": []
    },
    {
      "pitch": 223,
      "measure": 25,
      "beat": 9,
      "duration": 3,
      "velocity": 100,
      "pan": 0,
      "instrument": "ORG_M00",
      "pipi": 0,
      "volumeAutomation": [
        {
          "tick": 2,
          "volume": 60
        }
      ],
      "panAutomation": []
    },
    {
      "pitch": 207,
      "measure": 25,
      "beat": 12,
      "duration": 2,
      "velocity": 100,
      "pan": 0,
      "instrument": "ORG_M00",
      "pipi": 0,
      "volumeAutomation": [],
      "panAutomation": []
    },
    {
      "pitch": 215,
      "measure": 25,
      "beat": 14,
      "duration": 2,
      "velocity": 100,
      "pan": 0,
      "instrument": "ORG_M00",
      "pipi": 0,
      "volumeAutomation": [],
      "panAutomation": []
    },
    {
      "pitch": 235,
      "measure": 26,
      "beat": 0,
      "duration": 3,
      "velocity": 100,
      "pan": 0,
      "instrument": "ORG_M00",
      "pipi": 0,
      "volumeAutomation": [
        {
          "tick": 2,
          "volume": 60
        }
      ],
      "panAutomation": []
    },
    {
      "pitch": 196,
      "measure": 26,
      "beat": 3,
      "duration": 3,
      "velocity": 100,
      "pan": 0,
      "instrument": "ORG_M00",
      "pipi": 0,
      "volumeAutomation": [
        {
          "tick": 2,
          "volume": 60
        }
      ],
      "panAutomation": []
    },
    {
      "pitch": 227,
      "measure": 26,
      "beat": 6,
      "duration": 3,
      "velocity": 100,
      "pan": 0,
      "instrument": "ORG_M00",
      "pipi": 0,
      "volumeAutomation": [
        {
          "tick": 2,
          "volume": 60
        }
      ],
      "panAutomation": []
    },
    {
      "pitch": 223,
      "measure": 26,
      "beat": 9,
      "duration": 3,
      "velocity": 100,
      "pan": 0,
      "instrument": "ORG_M00",
      "pipi": 0,
      "volumeAutomation": [
        {
          "tick": 2,
          "volume": 60
        }
      ],
      "panAutomation": []
    },
    {
      "pitch": 207,
      "measure": 26,
      "beat": 12,
      "duration": 2,
      "velocity": 100,
      "pan": 0,
      "instrument": "ORG_M00",
      "pipi": 0,
      "volumeAutomation": [],
      "panAutomation": []
    },
    {
      "pitch": 215,
      "measure": 26,
      "beat": 14,
      "duration": 2,
      "velocity": 100,
      "pan": 0,
      "instrument": "ORG_M00",
      "pipi": 0,
      "volumeAutomation": [],
      "panAutomation": []
    },
    {
      "pitch": 235,
      "measure": 27,
      "beat": 0,
      "duration": 3,
      "velocity": 100,
      "pan": 0,
      "instrument": "ORG_M00",
      "pipi": 0,
      "volumeAutomation": [
        {
          "tick": 2,
          "volume": 60
        }
      ],
      "panAutomation": []
    },
    {
      "pitch": 196,
      "measure": 27,
      "beat": 3,
      "duration": 3,
      "velocity": 100,
      "pan": 0,
      "instrument": "ORG_M00",
      "pipi": 0,
      "volumeAutomation": [
        {
          "tick": 2,
          "volume": 60
        }
      ],
      "panAutomation": []
    },
    {
      "pitch": 227,
      "measure": 27,
      "beat": 6,
      "duration": 3,
      "velocity": 100,
      "pan": 0,
      "instrument": "ORG_M00",
      "pipi": 0,
      "volumeAutomation": [
        {
          "tick": 2,
          "volume": 60
        }
      ],
      "panAutomation": []
    },
    {
      "pitch": 223,
      "measure": 27,
      "beat": 9,
      "duration": 3,
      "velocity": 100,
      "pan": 0,
      "instrument": "ORG_M00",
      "pipi": 0,
      "volumeAutomation": [
        {
          "tick": 2,
          "volume": 60
        }
      ],
      "panAutomation": []
    },
    {
      "pitch": 207,
      "measure": 27,
      "beat": 12,
      "duration": 2,
      "velocity": 100,
      "pan": 0,
      "instrument": "ORG_M00",
      "pipi": 0,
      "volumeAutomation": [],
      "panAutomation": []
    },
    {
      "pitch": 196,
      "measure": 27,
      "beat": 14,
      "duration": 2,
      "velocity": 100,
      "pan": 0,
      "instrument": "ORG_M00",
      "pipi": 0,
      "volumeAutomation": [],
      "panAutomation": []
    },
    {
      "pitch": 181,
      "measure": 28,
      "beat": 4,
      "duration": 4,
      "velocity": 100,
      "pan": 0,
      "instrument": "ORG_M00",
      "pipi": 0,
      "volumeAutomation": [],
      "panAutomation": []
    },
    {
      "pitch": 189,
      "measure": 28,
      "beat": 8,
      "duration": 4,
      "velocity": 100,
      "pan": 0,
      "instrument": "ORG_M00",
      "pipi": 0,
      "volumeAutomation": [],
      "panAutomation": []
    },
    {
      "pitch": 196,
      "measure": 28,
      "beat": 12,
      "duration": 4,
      "velocity": 100,
      "pan": 0,
      "instrument": "ORG_M00",
      "pipi": 0,
      "volumeAutomation": [],
      "panAutomation": []
    },
    {
      "pitch": 200,
      "measure": 29,
      "beat": 0,
      "duration": 4,
      "velocity": 100,
      "pan": 0,
      "instrument": "ORG_M00",
      "pipi": 0,
      "volumeAutomation": [],
      "panAutomation": []
    },
    {
      "pitch": 195,
      "measure": 29,
      "beat": 4,
      "duration": 4,
      "velocity": 100,
      "pan": 0,
      "instrument": "ORG_M00",
      "pipi": 0,
      "volumeAutomation": [],
      "panAutomation": []
    },
    {
      "pitch": 188,
      "measure": 29,
      "beat": 8,
      "duration": 4,
      "velocity": 100,
      "pan": 0,
      "instrument": "ORG_M00",
      "pipi": 0,
      "volumeAutomation": [],
      "panAutomation": []
    },
    {
      "pitch": 182,
      "measure": 29,
      "beat": 12,
      "duration": 4,
      "velocity": 100,
      "pan": 0,
      "instrument": "ORG_M00",
      "pipi": 0,
      "volumeAutomation": [],
      "panAutomation": []
    },
    {
      "pitch": 207,
      "measure": 30,
      "beat": 4,
      "duration": 4,
      "velocity": 100,
      "pan": 0,
      "instrument": "ORG_M00",
      "pipi": 0,
      "volumeAutomation": [],
      "panAutomation": []
    },
    {
      "pitch": 188,
      "measure": 30,
      "beat": 8,
      "duration": 4,
      "velocity": 100,
      "pan": 0,
      "instrument": "ORG_M00",
      "pipi": 0,
      "volumeAutomation": [],
      "panAutomation": []
    },
    {
      "pitch": 207,
      "measure": 30,
      "beat": 12,
      "duration": 4,
      "velocity": 100,
      "pan": 0,
      "instrument": "ORG_M00",
      "pipi": 0,
      "volumeAutomation": [],
      "panAutomation": []
    },
    {
      "pitch": 199,
      "measure": 31,
      "beat": 0,
      "duration": 3,
      "velocity": 100,
      "pan": 0,
      "instrument": "ORG_M00",
      "pipi": 0,
      "volumeAutomation": [
        {
          "tick": 2,
          "volume": 60
        }
      ],
      "panAutomation": []
    },
    {
      "pitch": 199,
      "measure": 31,
      "beat": 3,
      "duration": 3,
      "velocity": 100,
      "pan": 0,
      "instrument": "ORG_M00",
      "pipi": 0,
      "volumeAutomation": [
        {
          "tick": 2,
          "volume": 60
        }
      ],
      "panAutomation": []
    },
    {
      "pitch": 199,
      "measure": 31,
      "beat": 6,
      "duration": 2,
      "velocity": 100,
      "pan": 0,
      "instrument": "ORG_M00",
      "pipi": 0,
      "volumeAutomation": [],
      "panAutomation": []
    },
    {
      "pitch": 207,
      "measure": 31,
      "beat": 8,
      "duration": 3,
      "velocity": 100,
      "pan": 0,
      "instrument": "ORG_M00",
      "pipi": 0,
      "volumeAutomation": [
        {
          "tick": 2,
          "volume": 60
        }
      ],
      "panAutomation": []
    },
    {
      "pitch": 207,
      "measure": 31,
      "beat": 11,
      "duration": 3,
      "velocity": 100,
      "pan": 0,
      "instrument": "ORG_M00",
      "pipi": 0,
      "volumeAutomation": [
        {
          "tick": 2,
          "volume": 60
        }
      ],
      "panAutomation": []
    },
    {
      "pitch": 207,
      "measure": 31,
      "beat": 14,
      "duration": 2,
      "velocity": 100,
      "pan": 0,
      "instrument": "ORG_M00",
      "pipi": 0,
      "volumeAutomation": [],
      "panAutomation": []
    },
    {
      "pitch": 181,
      "measure": 36,
      "beat": 4,
      "duration": 4,
      "velocity": 100,
      "pan": 0,
      "instrument": "ORG_M00",
      "pipi": 0,
      "volumeAutomation": [],
      "panAutomation": []
    },
    {
      "pitch": 189,
      "measure": 36,
      "beat": 8,
      "duration": 4,
      "velocity": 100,
      "pan": 0,
      "instrument": "ORG_M00",
      "pipi": 0,
      "volumeAutomation": [],
      "panAutomation": []
    },
    {
      "pitch": 196,
      "measure": 36,
      "beat": 12,
      "duration": 4,
      "velocity": 100,
      "pan": 0,
      "instrument": "ORG_M00",
      "pipi": 0,
      "volumeAutomation": [],
      "panAutomation": []
    },
    {
      "pitch": 200,
      "measure": 37,
      "beat": 0,
      "duration": 4,
      "velocity": 100,
      "pan": 0,
      "instrument": "ORG_M00",
      "pipi": 0,
      "volumeAutomation": [],
      "panAutomation": []
    },
    {
      "pitch": 195,
      "measure": 37,
      "beat": 4,
      "duration": 4,
      "velocity": 100,
      "pan": 0,
      "instrument": "ORG_M00",
      "pipi": 0,
      "volumeAutomation": [],
      "panAutomation": []
    },
    {
      "pitch": 188,
      "measure": 37,
      "beat": 8,
      "duration": 4,
      "velocity": 100,
      "pan": 0,
      "instrument": "ORG_M00",
      "pipi": 0,
      "volumeAutomation": [],
      "panAutomation": []
    },
    {
      "pitch": 182,
      "measure": 37,
      "beat": 12,
      "duration": 4,
      "velocity": 100,
      "pan": 0,
      "instrument": "ORG_M00",
      "pipi": 0,
      "volumeAutomation": [],
      "panAutomation": []
    },
    {
      "pitch": 207,
      "measure": 38,
      "beat": 4,
      "duration": 4,
      "velocity": 100,
      "pan": 0,
      "instrument": "ORG_M00",
      "pipi": 0,
      "volumeAutomation": [],
      "panAutomation": []
    },
    {
      "pitch": 188,
      "measure": 38,
      "beat": 8,
      "duration": 4,
      "velocity": 100,
      "pan": 0,
      "instrument": "ORG_M00",
      "pipi": 0,
      "volumeAutomation": [],
      "panAutomation": []
    },
    {
      "pitch": 207,
      "measure": 38,
      "beat": 12,
      "duration": 4,
      "velocity": 100,
      "pan": 0,
      "instrument": "ORG_M00",
      "pipi": 0,
      "volumeAutomation": [],
      "panAutomation": []
    },
    {
      "pitch": 199,
      "measure": 39,
      "beat": 0,
      "duration": 3,
      "velocity": 100,
      "pan": 0,
      "instrument": "ORG_M00",
      "pipi": 0,
      "volumeAutomation": [
        {
          "tick": 2,
          "volume": 60
        }
      ],
      "panAutomation": []
    },
    {
      "pitch": 199,
      "measure": 39,
      "beat": 3,
      "duration": 3,
      "velocity": 100,
      "pan": 0,
      "instrument": "ORG_M00",
      "pipi": 0,
      "volumeAutomation": [
        {
          "tick": 2,
          "volume": 60
        }
      ],
      "panAutomation": []
    },
    {
      "pitch": 199,
      "measure": 39,
      "beat": 6,
      "duration": 2,
      "velocity": 100,
      "pan": 0,
      "instrument": "ORG_M00",
      "pipi": 0,
      "volumeAutomation": [],
      "panAutomation": []
    },
    {
      "pitch": 207,
      "measure": 39,
      "beat": 8,
      "duration": 3,
      "velocity": 100,
      "pan": 0,
      "instrument": "ORG_M00",
      "pipi": 0,
      "volumeAutomation": [
        {
          "tick": 2,
          "volume": 60
        }
      ],
      "panAutomation": []
    },
    {
      "pitch": 207,
      "measure": 39,
      "beat": 11,
      "duration": 3,
      "velocity": 100,
      "pan": 0,
      "instrument": "ORG_M00",
      "pipi": 0,
      "volumeAutomation": [
        {
          "tick": 2,
          "volume": 60
        }
      ],
      "panAutomation": []
    },
    {
      "pitch": 207,
      "measure": 39,
      "beat": 14,
      "duration": 2,
      "velocity": 100,
      "pan": 0,
      "instrument": "ORG_M00",
      "pipi": 0,
      "volumeAutomation": [],
      "panAutomation": []
    },
    {
      "pitch": 139,
      "measure": 0,
      "beat": 0,
      "duration": 1,
      "velocity": 100,
      "pan": 0,
      "instrument": "ORG_D00",
      "pipi": 0,
      "volumeAutomation": [],
      "panAutomation": []
    },
    {
      "pitch": 139,
      "measure": 0,
      "beat": 8,
      "duration": 1,
      "velocity": 100,
      "pan": 0,
      "instrument": "ORG_D00",
      "pipi": 0,
      "volumeAutomation": [],
      "panAutomation": []
    },
    {
      "pitch": 139,
      "measure": 0,
      "beat": 10,
      "duration": 1,
      "velocity": 100,
      "pan": 0,
      "instrument": "ORG_D00",
      "pipi": 0,
      "volumeAutomation": [],
      "panAutomation": []
    },
    {
      "pitch": 139,
      "measure": 1,
      "beat": 0,
      "duration": 1,
      "velocity": 100,
      "pan": 0,
      "instrument": "ORG_D00",
      "pipi": 0,
      "volumeAutomation": [],
      "panAutomation": []
    },
    {
      "pitch": 139,
      "measure": 1,
      "beat": 8,
      "duration": 1,
      "velocity": 100,
      "pan": 0,
      "instrument": "ORG_D00",
      "pipi": 0,
      "volumeAutomation": [],
      "panAutomation": []
    },
    {
      "pitch": 139,
      "measure": 1,
      "beat": 10,
      "duration": 1,
      "velocity": 100,
      "pan": 0,
      "instrument": "ORG_D00",
      "pipi": 0,
      "volumeAutomation": [],
      "panAutomation": []
    },
    {
      "pitch": 139,
      "measure": 2,
      "beat": 0,
      "duration": 1,
      "velocity": 100,
      "pan": 0,
      "instrument": "ORG_D00",
      "pipi": 0,
      "volumeAutomation": [],
      "panAutomation": []
    },
    {
      "pitch": 139,
      "measure": 2,
      "beat": 8,
      "duration": 1,
      "velocity": 100,
      "pan": 0,
      "instrument": "ORG_D00",
      "pipi": 0,
      "volumeAutomation": [],
      "panAutomation": []
    },
    {
      "pitch": 139,
      "measure": 2,
      "beat": 10,
      "duration": 1,
      "velocity": 100,
      "pan": 0,
      "instrument": "ORG_D00",
      "pipi": 0,
      "volumeAutomation": [],
      "panAutomation": []
    },
    {
      "pitch": 139,
      "measure": 3,
      "beat": 2,
      "duration": 1,
      "velocity": 100,
      "pan": 0,
      "instrument": "ORG_D00",
      "pipi": 0,
      "volumeAutomation": [],
      "panAutomation": []
    },
    {
      "pitch": 139,
      "measure": 3,
      "beat": 6,
      "duration": 1,
      "velocity": 52,
      "pan": 0,
      "instrument": "ORG_D00",
      "pipi": 0,
      "volumeAutomation": [],
      "panAutomation": []
    },
    {
      "pitch": 139,
      "measure": 3,
      "beat": 7,
      "duration": 1,
      "velocity": 74,
      "pan": 0,
      "instrument": "ORG_D00",
      "pipi": 0,
      "volumeAutomation": [],
      "panAutomation": []
    },
    {
      "pitch": 139,
      "measure": 3,
      "beat": 8,
      "duration": 1,
      "velocity": 100,
      "pan": 0,
      "instrument": "ORG_D00",
      "pipi": 0,
      "volumeAutomation": [],
      "panAutomation": []
    },
    {
      "pitch": 139,
      "measure": 3,
      "beat": 10,
      "duration": 1,
      "velocity": 100,
      "pan": 0,
      "instrument": "ORG_D00",
      "pipi": 0,
      "volumeAutomation": [],
      "panAutomation": []
    },
    {
      "pitch": 139,
      "measure": 4,
      "beat": 0,
      "duration": 1,
      "velocity": 100,
      "pan": 0,
      "instrument": "ORG_D00",
      "pipi": 0,
      "volumeAutomation": [],
      "panAutomation": []
    },
    {
      "pitch": 139,
      "measure": 4,
      "beat": 8,
      "duration": 1,
      "velocity": 100,
      "pan": 0,
      "instrument": "ORG_D00",
      "pipi": 0,
      "volumeAutomation": [],
      "panAutomation": []
    },
    {
      "pitch": 139,
      "measure": 4,
      "beat": 10,
      "duration": 1,
      "velocity": 100,
      "pan": 0,
      "instrument": "ORG_D00",
      "pipi": 0,
      "volumeAutomation": [],
      "panAutomation": []
    },
    {
      "pitch": 139,
      "measure": 5,
      "beat": 0,
      "duration": 1,
      "velocity": 100,
      "pan": 0,
      "instrument": "ORG_D00",
      "pipi": 0,
      "volumeAutomation": [],
      "panAutomation": []
    },
    {
      "pitch": 139,
      "measure": 5,
      "beat": 8,
      "duration": 1,
      "velocity": 100,
      "pan": 0,
      "instrument": "ORG_D00",
      "pipi": 0,
      "volumeAutomation": [],
      "panAutomation": []
    },
    {
      "pitch": 139,
      "measure": 5,
      "beat": 10,
      "duration": 1,
      "velocity": 100,
      "pan": 0,
      "instrument": "ORG_D00",
      "pipi": 0,
      "volumeAutomation": [],
      "panAutomation": []
    },
    {
      "pitch": 139,
      "measure": 6,
      "beat": 0,
      "duration": 1,
      "velocity": 100,
      "pan": 0,
      "instrument": "ORG_D00",
      "pipi": 0,
      "volumeAutomation": [],
      "panAutomation": []
    },
    {
      "pitch": 139,
      "measure": 6,
      "beat": 8,
      "duration": 1,
      "velocity": 100,
      "pan": 0,
      "instrument": "ORG_D00",
      "pipi": 0,
      "volumeAutomation": [],
      "panAutomation": []
    },
    {
      "pitch": 139,
      "measure": 6,
      "beat": 10,
      "duration": 1,
      "velocity": 100,
      "pan": 0,
      "instrument": "ORG_D00",
      "pipi": 0,
      "volumeAutomation": [],
      "panAutomation": []
    },
    {
      "pitch": 139,
      "measure": 6,
      "beat": 14,
      "duration": 1,
      "velocity": 56,
      "pan": 0,
      "instrument": "ORG_D00",
      "pipi": 0,
      "volumeAutomation": [],
      "panAutomation": []
    },
    {
      "pitch": 139,
      "measure": 6,
      "beat": 15,
      "duration": 1,
      "velocity": 68,
      "pan": 0,
      "instrument": "ORG_D00",
      "pipi": 0,
      "volumeAutomation": [],
      "panAutomation": []
    },
    {
      "pitch": 139,
      "measure": 7,
      "beat": 0,
      "duration": 1,
      "velocity": 100,
      "pan": 0,
      "instrument": "ORG_D00",
      "pipi": 0,
      "volumeAutomation": [],
      "panAutomation": []
    },
    {
      "pitch": 139,
      "measure": 7,
      "beat": 2,
      "duration": 1,
      "velocity": 100,
      "pan": 0,
      "instrument": "ORG_D00",
      "pipi": 0,
      "volumeAutomation": [],
      "panAutomation": []
    },
    {
      "pitch": 139,
      "measure": 7,
      "beat": 8,
      "duration": 1,
      "velocity": 100,
      "pan": 0,
      "instrument": "ORG_D00",
      "pipi": 0,
      "volumeAutomation": [],
      "panAutomation": []
    },
    {
      "pitch": 139,
      "measure": 7,
      "beat": 10,
      "duration": 1,
      "velocity": 100,
      "pan": 0,
      "instrument": "ORG_D00",
      "pipi": 0,
      "volumeAutomation": [],
      "panAutomation": []
    },
    {
      "pitch": 139,
      "measure": 8,
      "beat": 0,
      "duration": 1,
      "velocity": 100,
      "pan": 0,
      "instrument": "ORG_D00",
      "pipi": 0,
      "volumeAutomation": [],
      "panAutomation": []
    },
    {
      "pitch": 139,
      "measure": 8,
      "beat": 8,
      "duration": 1,
      "velocity": 100,
      "pan": 0,
      "instrument": "ORG_D00",
      "pipi": 0,
      "volumeAutomation": [],
      "panAutomation": []
    },
    {
      "pitch": 139,
      "measure": 8,
      "beat": 10,
      "duration": 1,
      "velocity": 100,
      "pan": 0,
      "instrument": "ORG_D00",
      "pipi": 0,
      "volumeAutomation": [],
      "panAutomation": []
    },
    {
      "pitch": 139,
      "measure": 9,
      "beat": 0,
      "duration": 1,
      "velocity": 100,
      "pan": 0,
      "instrument": "ORG_D00",
      "pipi": 0,
      "volumeAutomation": [],
      "panAutomation": []
    },
    {
      "pitch": 139,
      "measure": 9,
      "beat": 8,
      "duration": 1,
      "velocity": 100,
      "pan": 0,
      "instrument": "ORG_D00",
      "pipi": 0,
      "volumeAutomation": [],
      "panAutomation": []
    },
    {
      "pitch": 139,
      "measure": 9,
      "beat": 10,
      "duration": 1,
      "velocity": 100,
      "pan": 0,
      "instrument": "ORG_D00",
      "pipi": 0,
      "volumeAutomation": [],
      "panAutomation": []
    },
    {
      "pitch": 139,
      "measure": 10,
      "beat": 0,
      "duration": 1,
      "velocity": 100,
      "pan": 0,
      "instrument": "ORG_D00",
      "pipi": 0,
      "volumeAutomation": [],
      "panAutomation": []
    },
    {
      "pitch": 139,
      "measure": 10,
      "beat": 8,
      "duration": 1,
      "velocity": 100,
      "pan": 0,
      "instrument": "ORG_D00",
      "pipi": 0,
      "volumeAutomation": [],
      "panAutomation": []
    },
    {
      "pitch": 139,
      "measure": 10,
      "beat": 10,
      "duration": 1,
      "velocity": 100,
      "pan": 0,
      "instrument": "ORG_D00",
      "pipi": 0,
      "volumeAutomation": [],
      "panAutomation": []
    },
    {
      "pitch": 139,
      "measure": 11,
      "beat": 0,
      "duration": 1,
      "velocity": 100,
      "pan": 0,
      "instrument": "ORG_D00",
      "pipi": 0,
      "volumeAutomation": [],
      "panAutomation": []
    },
    {
      "pitch": 139,
      "measure": 11,
      "beat": 8,
      "duration": 1,
      "velocity": 100,
      "pan": 0,
      "instrument": "ORG_D00",
      "pipi": 0,
      "volumeAutomation": [],
      "panAutomation": []
    },
    {
      "pitch": 139,
      "measure": 11,
      "beat": 10,
      "duration": 1,
      "velocity": 50,
      "pan": 0,
      "instrument": "ORG_D00",
      "pipi": 0,
      "volumeAutomation": [],
      "panAutomation": []
    },
    {
      "pitch": 139,
      "measure": 11,
      "beat": 11,
      "duration": 1,
      "velocity": 58,
      "pan": 0,
      "instrument": "ORG_D00",
      "pipi": 0,
      "volumeAutomation": [],
      "panAutomation": []
    },
    {
      "pitch": 139,
      "measure": 11,
      "beat": 12,
      "duration": 1,
      "velocity": 100,
      "pan": 0,
      "instrument": "ORG_D00",
      "pipi": 0,
      "volumeAutomation": [],
      "panAutomation": []
    },
    {
      "pitch": 139,
      "measure": 12,
      "beat": 0,
      "duration": 1,
      "velocity": 100,
      "pan": 0,
      "instrument": "ORG_D00",
      "pipi": 0,
      "volumeAutomation": [],
      "panAutomation": []
    },
    {
      "pitch": 139,
      "measure": 12,
      "beat": 8,
      "duration": 1,
      "velocity": 100,
      "pan": 0,
      "instrument": "ORG_D00",
      "pipi": 0,
      "volumeAutomation": [],
      "panAutomation": []
    },
    {
      "pitch": 139,
      "measure": 12,
      "beat": 10,
      "duration": 1,
      "velocity": 100,
      "pan": 0,
      "instrument": "ORG_D00",
      "pipi": 0,
      "volumeAutomation": [],
      "panAutomation": []
    },
    {
      "pitch": 139,
      "measure": 13,
      "beat": 0,
      "duration": 1,
      "velocity": 100,
      "pan": 0,
      "instrument": "ORG_D00",
      "pipi": 0,
      "volumeAutomation": [],
      "panAutomation": []
    },
    {
      "pitch": 139,
      "measure": 13,
      "beat": 8,
      "duration": 1,
      "velocity": 100,
      "pan": 0,
      "instrument": "ORG_D00",
      "pipi": 0,
      "volumeAutomation": [],
      "panAutomation": []
    },
    {
      "pitch": 139,
      "measure": 13,
      "beat": 10,
      "duration": 1,
      "velocity": 100,
      "pan": 0,
      "instrument": "ORG_D00",
      "pipi": 0,
      "volumeAutomation": [],
      "panAutomation": []
    },
    {
      "pitch": 139,
      "measure": 14,
      "beat": 0,
      "duration": 1,
      "velocity": 100,
      "pan": 0,
      "instrument": "ORG_D00",
      "pipi": 0,
      "volumeAutomation": [],
      "panAutomation": []
    },
    {
      "pitch": 139,
      "measure": 14,
      "beat": 8,
      "duration": 1,
      "velocity": 100,
      "pan": 0,
      "instrument": "ORG_D00",
      "pipi": 0,
      "volumeAutomation": [],
      "panAutomation": []
    },
    {
      "pitch": 139,
      "measure": 14,
      "beat": 10,
      "duration": 1,
      "velocity": 100,
      "pan": 0,
      "instrument": "ORG_D00",
      "pipi": 0,
      "volumeAutomation": [],
      "panAutomation": []
    },
    {
      "pitch": 139,
      "measure": 15,
      "beat": 2,
      "duration": 1,
      "velocity": 100,
      "pan": 0,
      "instrument": "ORG_D00",
      "pipi": 0,
      "volumeAutomation": [],
      "panAutomation": []
    },
    {
      "pitch": 139,
      "measure": 15,
      "beat": 6,
      "duration": 1,
      "velocity": 52,
      "pan": 0,
      "instrument": "ORG_D00",
      "pipi": 0,
      "volumeAutomation": [],
      "panAutomation": []
    },
    {
      "pitch": 139,
      "measure": 15,
      "beat": 7,
      "duration": 1,
      "velocity": 74,
      "pan": 0,
      "instrument": "ORG_D00",
      "pipi": 0,
      "volumeAutomation": [],
      "panAutomation": []
    },
    {
      "pitch": 139,
      "measure": 15,
      "beat": 8,
      "duration": 1,
      "velocity": 100,
      "pan": 0,
      "instrument": "ORG_D00",
      "pipi": 0,
      "volumeAutomation": [],
      "panAutomation": []
    },
    {
      "pitch": 139,
      "measure": 15,
      "beat": 10,
      "duration": 1,
      "velocity": 100,
      "pan": 0,
      "instrument": "ORG_D00",
      "pipi": 0,
      "volumeAutomation": [],
      "panAutomation": []
    },
    {
      "pitch": 139,
      "measure": 16,
      "beat": 0,
      "duration": 1,
      "velocity": 100,
      "pan": 0,
      "instrument": "ORG_D00",
      "pipi": 0,
      "volumeAutomation": [],
      "panAutomation": []
    },
    {
      "pitch": 139,
      "measure": 16,
      "beat": 8,
      "duration": 1,
      "velocity": 100,
      "pan": 0,
      "instrument": "ORG_D00",
      "pipi": 0,
      "volumeAutomation": [],
      "panAutomation": []
    },
    {
      "pitch": 139,
      "measure": 16,
      "beat": 10,
      "duration": 1,
      "velocity": 100,
      "pan": 0,
      "instrument": "ORG_D00",
      "pipi": 0,
      "volumeAutomation": [],
      "panAutomation": []
    },
    {
      "pitch": 139,
      "measure": 17,
      "beat": 0,
      "duration": 1,
      "velocity": 100,
      "pan": 0,
      "instrument": "ORG_D00",
      "pipi": 0,
      "volumeAutomation": [],
      "panAutomation": []
    },
    {
      "pitch": 139,
      "measure": 17,
      "beat": 8,
      "duration": 1,
      "velocity": 100,
      "pan": 0,
      "instrument": "ORG_D00",
      "pipi": 0,
      "volumeAutomation": [],
      "panAutomation": []
    },
    {
      "pitch": 139,
      "measure": 17,
      "beat": 10,
      "duration": 1,
      "velocity": 100,
      "pan": 0,
      "instrument": "ORG_D00",
      "pipi": 0,
      "volumeAutomation": [],
      "panAutomation": []
    },
    {
      "pitch": 139,
      "measure": 18,
      "beat": 0,
      "duration": 1,
      "velocity": 100,
      "pan": 0,
      "instrument": "ORG_D00",
      "pipi": 0,
      "volumeAutomation": [],
      "panAutomation": []
    },
    {
      "pitch": 139,
      "measure": 18,
      "beat": 8,
      "duration": 1,
      "velocity": 100,
      "pan": 0,
      "instrument": "ORG_D00",
      "pipi": 0,
      "volumeAutomation": [],
      "panAutomation": []
    },
    {
      "pitch": 139,
      "measure": 18,
      "beat": 10,
      "duration": 1,
      "velocity": 100,
      "pan": 0,
      "instrument": "ORG_D00",
      "pipi": 0,
      "volumeAutomation": [],
      "panAutomation": []
    },
    {
      "pitch": 139,
      "measure": 18,
      "beat": 14,
      "duration": 1,
      "velocity": 56,
      "pan": 0,
      "instrument": "ORG_D00",
      "pipi": 0,
      "volumeAutomation": [],
      "panAutomation": []
    },
    {
      "pitch": 139,
      "measure": 18,
      "beat": 15,
      "duration": 1,
      "velocity": 68,
      "pan": 0,
      "instrument": "ORG_D00",
      "pipi": 0,
      "volumeAutomation": [],
      "panAutomation": []
    },
    {
      "pitch": 139,
      "measure": 19,
      "beat": 0,
      "duration": 1,
      "velocity": 100,
      "pan": 0,
      "instrument": "ORG_D00",
      "pipi": 0,
      "volumeAutomation": [],
      "panAutomation": []
    },
    {
      "pitch": 139,
      "measure": 19,
      "beat": 2,
      "duration": 1,
      "velocity": 100,
      "pan": 0,
      "instrument": "ORG_D00",
      "pipi": 0,
      "volumeAutomation": [],
      "panAutomation": []
    },
    {
      "pitch": 139,
      "measure": 19,
      "beat": 8,
      "duration": 1,
      "velocity": 100,
      "pan": 0,
      "instrument": "ORG_D00",
      "pipi": 0,
      "volumeAutomation": [],
      "panAutomation": []
    },
    {
      "pitch": 139,
      "measure": 19,
      "beat": 10,
      "duration": 1,
      "velocity": 100,
      "pan": 0,
      "instrument": "ORG_D00",
      "pipi": 0,
      "volumeAutomation": [],
      "panAutomation": []
    },
    {
      "pitch": 139,
      "measure": 20,
      "beat": 0,
      "duration": 1,
      "velocity": 100,
      "pan": 0,
      "instrument": "ORG_D00",
      "pipi": 0,
      "volumeAutomation": [],
      "panAutomation": []
    },
    {
      "pitch": 139,
      "measure": 20,
      "beat": 8,
      "duration": 1,
      "velocity": 100,
      "pan": 0,
      "instrument": "ORG_D00",
      "pipi": 0,
      "volumeAutomation": [],
      "panAutomation": []
    },
    {
      "pitch": 139,
      "measure": 20,
      "beat": 10,
      "duration": 1,
      "velocity": 100,
      "pan": 0,
      "instrument": "ORG_D00",
      "pipi": 0,
      "volumeAutomation": [],
      "panAutomation": []
    },
    {
      "pitch": 139,
      "measure": 21,
      "beat": 0,
      "duration": 1,
      "velocity": 100,
      "pan": 0,
      "instrument": "ORG_D00",
      "pipi": 0,
      "volumeAutomation": [],
      "panAutomation": []
    },
    {
      "pitch": 139,
      "measure": 21,
      "beat": 8,
      "duration": 1,
      "velocity": 100,
      "pan": 0,
      "instrument": "ORG_D00",
      "pipi": 0,
      "volumeAutomation": [],
      "panAutomation": []
    },
    {
      "pitch": 139,
      "measure": 21,
      "beat": 10,
      "duration": 1,
      "velocity": 100,
      "pan": 0,
      "instrument": "ORG_D00",
      "pipi": 0,
      "volumeAutomation": [],
      "panAutomation": []
    },
    {
      "pitch": 139,
      "measure": 22,
      "beat": 0,
      "duration": 1,
      "velocity": 100,
      "pan": 0,
      "instrument": "ORG_D00",
      "pipi": 0,
      "volumeAutomation": [],
      "panAutomation": []
    },
    {
      "pitch": 139,
      "measure": 22,
      "beat": 8,
      "duration": 1,
      "velocity": 100,
      "pan": 0,
      "instrument": "ORG_D00",
      "pipi": 0,
      "volumeAutomation": [],
      "panAutomation": []
    },
    {
      "pitch": 139,
      "measure": 22,
      "beat": 10,
      "duration": 1,
      "velocity": 100,
      "pan": 0,
      "instrument": "ORG_D00",
      "pipi": 0,
      "volumeAutomation": [],
      "panAutomation": []
    },
    {
      "pitch": 139,
      "measure": 23,
      "beat": 0,
      "duration": 1,
      "velocity": 100,
      "pan": 0,
      "instrument": "ORG_D00",
      "pipi": 0,
      "volumeAutomation": [],
      "panAutomation": []
    },
    {
      "pitch": 139,
      "measure": 23,
      "beat": 8,
      "duration": 1,
      "velocity": 100,
      "pan": 0,
      "instrument": "ORG_D00",
      "pipi": 0,
      "volumeAutomation": [],
      "panAutomation": []
    },
    {
      "pitch": 139,
      "measure": 23,
      "beat": 10,
      "duration": 1,
      "velocity": 50,
      "pan": 0,
      "instrument": "ORG_D00",
      "pipi": 0,
      "volumeAutomation": [],
      "panAutomation": []
    },
    {
      "pitch": 139,
      "measure": 23,
      "beat": 11,
      "duration": 1,
      "velocity": 58,
      "pan": 0,
      "instrument": "ORG_D00",
      "pipi": 0,
      "volumeAutomation": [],
      "panAutomation": []
    },
    {
      "pitch": 139,
      "measure": 23,
      "beat": 12,
      "duration": 1,
      "velocity": 100,
      "pan": 0,
      "instrument": "ORG_D00",
      "pipi": 0,
      "volumeAutomation": [],
      "panAutomation": []
    },
    {
      "pitch": 139,
      "measure": 24,
      "beat": 0,
      "duration": 1,
      "velocity": 100,
      "pan": 0,
      "instrument": "ORG_D00",
      "pipi": 0,
      "volumeAutomation": [],
      "panAutomation": []
    },
    {
      "pitch": 139,
      "measure": 24,
      "beat": 8,
      "duration": 1,
      "velocity": 100,
      "pan": 0,
      "instrument": "ORG_D00",
      "pipi": 0,
      "volumeAutomation": [],
      "panAutomation": []
    },
    {
      "pitch": 139,
      "measure": 24,
      "beat": 10,
      "duration": 1,
      "velocity": 100,
      "pan": 0,
      "instrument": "ORG_D00",
      "pipi": 0,
      "volumeAutomation": [],
      "panAutomation": []
    },
    {
      "pitch": 139,
      "measure": 25,
      "beat": 0,
      "duration": 1,
      "velocity": 100,
      "pan": 0,
      "instrument": "ORG_D00",
      "pipi": 0,
      "volumeAutomation": [],
      "panAutomation": []
    },
    {
      "pitch": 139,
      "measure": 25,
      "beat": 8,
      "duration": 1,
      "velocity": 100,
      "pan": 0,
      "instrument": "ORG_D00",
      "pipi": 0,
      "volumeAutomation": [],
      "panAutomation": []
    },
    {
      "pitch": 139,
      "measure": 25,
      "beat": 10,
      "duration": 1,
      "velocity": 100,
      "pan": 0,
      "instrument": "ORG_D00",
      "pipi": 0,
      "volumeAutomation": [],
      "panAutomation": []
    },
    {
      "pitch": 139,
      "measure": 26,
      "beat": 0,
      "duration": 1,
      "velocity": 100,
      "pan": 0,
      "instrument": "ORG_D00",
      "pipi": 0,
      "volumeAutomation": [],
      "panAutomation": []
    },
    {
      "pitch": 139,
      "measure": 26,
      "beat": 8,
      "duration": 1,
      "velocity": 100,
      "pan": 0,
      "instrument": "ORG_D00",
      "pipi": 0,
      "volumeAutomation": [],
      "panAutomation": []
    },
    {
      "pitch": 139,
      "measure": 26,
      "beat": 10,
      "duration": 1,
      "velocity": 100,
      "pan": 0,
      "instrument": "ORG_D00",
      "pipi": 0,
      "volumeAutomation": [],
      "panAutomation": []
    },
    {
      "pitch": 139,
      "measure": 27,
      "beat": 0,
      "duration": 1,
      "velocity": 100,
      "pan": 0,
      "instrument": "ORG_D00",
      "pipi": 0,
      "volumeAutomation": [],
      "panAutomation": []
    },
    {
      "pitch": 139,
      "measure": 27,
      "beat": 4,
      "duration": 1,
      "velocity": 100,
      "pan": 0,
      "instrument": "ORG_D00",
      "pipi": 0,
      "volumeAutomation": [],
      "panAutomation": []
    },
    {
      "pitch": 139,
      "measure": 27,
      "beat": 8,
      "duration": 1,
      "velocity": 100,
      "pan": 0,
      "instrument": "ORG_D00",
      "pipi": 0,
      "volumeAutomation": [],
      "panAutomation": []
    },
    {
      "pitch": 139,
      "measure": 27,
      "beat": 10,
      "duration": 1,
      "velocity": 100,
      "pan": 0,
      "instrument": "ORG_D00",
      "pipi": 0,
      "volumeAutomation": [],
      "panAutomation": []
    },
    {
      "pitch": 139,
      "measure": 28,
      "beat": 0,
      "duration": 1,
      "velocity": 100,
      "pan": 0,
      "instrument": "ORG_D00",
      "pipi": 0,
      "volumeAutomation": [],
      "panAutomation": []
    },
    {
      "pitch": 139,
      "measure": 28,
      "beat": 2,
      "duration": 1,
      "velocity": 100,
      "pan": 0,
      "instrument": "ORG_D00",
      "pipi": 0,
      "volumeAutomation": [],
      "panAutomation": []
    },
    {
      "pitch": 139,
      "measure": 28,
      "beat": 6,
      "duration": 1,
      "velocity": 72,
      "pan": 0,
      "instrument": "ORG_D00",
      "pipi": 0,
      "volumeAutomation": [],
      "panAutomation": []
    },
    {
      "pitch": 139,
      "measure": 28,
      "beat": 7,
      "duration": 1,
      "velocity": 74,
      "pan": 0,
      "instrument": "ORG_D00",
      "pipi": 0,
      "volumeAutomation": [],
      "panAutomation": []
    },
    {
      "pitch": 139,
      "measure": 28,
      "beat": 8,
      "duration": 1,
      "velocity": 100,
      "pan": 0,
      "instrument": "ORG_D00",
      "pipi": 0,
      "volumeAutomation": [],
      "panAutomation": []
    },
    {
      "pitch": 139,
      "measure": 28,
      "beat": 10,
      "duration": 1,
      "velocity": 100,
      "pan": 0,
      "instrument": "ORG_D00",
      "pipi": 0,
      "volumeAutomation": [],
      "panAutomation": []
    },
    {
      "pitch": 139,
      "measure": 29,
      "beat": 2,
      "duration": 1,
      "velocity": 100,
      "pan": 0,
      "instrument": "ORG_D00",
      "pipi": 0,
      "volumeAutomation": [],
      "panAutomation": []
    },
    {
      "pitch": 139,
      "measure": 29,
      "beat": 6,
      "duration": 1,
      "velocity": 100,
      "pan": 0,
      "instrument": "ORG_D00",
      "pipi": 0,
      "volumeAutomation": [],
      "panAutomation": []
    },
    {
      "pitch": 139,
      "measure": 29,
      "beat": 8,
      "duration": 1,
      "velocity": 100,
      "pan": 0,
      "instrument": "ORG_D00",
      "pipi": 0,
      "volumeAutomation": [],
      "panAutomation": []
    },
    {
      "pitch": 139,
      "measure": 30,
      "beat": 0,
      "duration": 1,
      "velocity": 100,
      "pan": 0,
      "instrument": "ORG_D00",
      "pipi": 0,
      "volumeAutomation": [],
      "panAutomation": []
    },
    {
      "pitch": 139,
      "measure": 30,
      "beat": 2,
      "duration": 1,
      "velocity": 100,
      "pan": 0,
      "instrument": "ORG_D00",
      "pipi": 0,
      "volumeAutomation": [],
      "panAutomation": []
    },
    {
      "pitch": 139,
      "measure": 30,
      "beat": 8,
      "duration": 1,
      "velocity": 100,
      "pan": 0,
      "instrument": "ORG_D00",
      "pipi": 0,
      "volumeAutomation": [],
      "panAutomation": []
    },
    {
      "pitch": 139,
      "measure": 30,
      "beat": 10,
      "duration": 1,
      "velocity": 100,
      "pan": 0,
      "instrument": "ORG_D00",
      "pipi": 0,
      "volumeAutomation": [],
      "panAutomation": []
    },
    {
      "pitch": 139,
      "measure": 31,
      "beat": 0,
      "duration": 1,
      "velocity": 100,
      "pan": 0,
      "instrument": "ORG_D00",
      "pipi": 0,
      "volumeAutomation": [],
      "panAutomation": []
    },
    {
      "pitch": 139,
      "measure": 31,
      "beat": 2,
      "duration": 1,
      "velocity": 100,
      "pan": 0,
      "instrument": "ORG_D00",
      "pipi": 0,
      "volumeAutomation": [],
      "panAutomation": []
    },
    {
      "pitch": 139,
      "measure": 31,
      "beat": 6,
      "duration": 1,
      "velocity": 100,
      "pan": 0,
      "instrument": "ORG_D00",
      "pipi": 0,
      "volumeAutomation": [],
      "panAutomation": []
    },
    {
      "pitch": 139,
      "measure": 31,
      "beat": 8,
      "duration": 1,
      "velocity": 100,
      "pan": 0,
      "instrument": "ORG_D00",
      "pipi": 0,
      "volumeAutomation": [],
      "panAutomation": []
    },
    {
      "pitch": 139,
      "measure": 31,
      "beat": 12,
      "duration": 1,
      "velocity": 100,
      "pan": 0,
      "instrument": "ORG_D00",
      "pipi": 0,
      "volumeAutomation": [],
      "panAutomation": []
    },
    {
      "pitch": 139,
      "measure": 32,
      "beat": 0,
      "duration": 1,
      "velocity": 100,
      "pan": 0,
      "instrument": "ORG_D00",
      "pipi": 0,
      "volumeAutomation": [],
      "panAutomation": []
    },
    {
      "pitch": 139,
      "measure": 32,
      "beat": 2,
      "duration": 1,
      "velocity": 100,
      "pan": 0,
      "instrument": "ORG_D00",
      "pipi": 0,
      "volumeAutomation": [],
      "panAutomation": []
    },
    {
      "pitch": 139,
      "measure": 32,
      "beat": 6,
      "duration": 1,
      "velocity": 100,
      "pan": 0,
      "instrument": "ORG_D00",
      "pipi": 0,
      "volumeAutomation": [],
      "panAutomation": []
    },
    {
      "pitch": 139,
      "measure": 32,
      "beat": 8,
      "duration": 1,
      "velocity": 100,
      "pan": 0,
      "instrument": "ORG_D00",
      "pipi": 0,
      "volumeAutomation": [],
      "panAutomation": []
    },
    {
      "pitch": 139,
      "measure": 33,
      "beat": 2,
      "duration": 1,
      "velocity": 100,
      "pan": 0,
      "instrument": "ORG_D00",
      "pipi": 0,
      "volumeAutomation": [],
      "panAutomation": []
    },
    {
      "pitch": 139,
      "measure": 33,
      "beat": 6,
      "duration": 1,
      "velocity": 60,
      "pan": 0,
      "instrument": "ORG_D00",
      "pipi": 0,
      "volumeAutomation": [],
      "panAutomation": []
    },
    {
      "pitch": 139,
      "measure": 33,
      "beat": 7,
      "duration": 1,
      "velocity": 74,
      "pan": 0,
      "instrument": "ORG_D00",
      "pipi": 0,
      "volumeAutomation": [],
      "panAutomation": []
    },
    {
      "pitch": 139,
      "measure": 33,
      "beat": 8,
      "duration": 1,
      "velocity": 100,
      "pan": 0,
      "instrument": "ORG_D00",
      "pipi": 0,
      "volumeAutomation": [],
      "panAutomation": []
    },
    {
      "pitch": 139,
      "measure": 33,
      "beat": 10,
      "duration": 1,
      "velocity": 100,
      "pan": 0,
      "instrument": "ORG_D00",
      "pipi": 0,
      "volumeAutomation": [],
      "panAutomation": []
    },
    {
      "pitch": 139,
      "measure": 34,
      "beat": 0,
      "duration": 1,
      "velocity": 100,
      "pan": 0,
      "instrument": "ORG_D00",
      "pipi": 0,
      "volumeAutomation": [],
      "panAutomation": []
    },
    {
      "pitch": 139,
      "measure": 34,
      "beat": 2,
      "duration": 1,
      "velocity": 100,
      "pan": 0,
      "instrument": "ORG_D00",
      "pipi": 0,
      "volumeAutomation": [],
      "panAutomation": []
    },
    {
      "pitch": 139,
      "measure": 34,
      "beat": 6,
      "duration": 1,
      "velocity": 100,
      "pan": 0,
      "instrument": "ORG_D00",
      "pipi": 0,
      "volumeAutomation": [],
      "panAutomation": []
    },
    {
      "pitch": 139,
      "measure": 34,
      "beat": 10,
      "duration": 1,
      "velocity": 100,
      "pan": 0,
      "instrument": "ORG_D00",
      "pipi": 0,
      "volumeAutomation": [],
      "panAutomation": []
    },
    {
      "pitch": 139,
      "measure": 34,
      "beat": 12,
      "duration": 1,
      "velocity": 100,
      "pan": 0,
      "instrument": "ORG_D00",
      "pipi": 0,
      "volumeAutomation": [],
      "panAutomation": []
    },
    {
      "pitch": 139,
      "measure": 35,
      "beat": 0,
      "duration": 1,
      "velocity": 100,
      "pan": 0,
      "instrument": "ORG_D00",
      "pipi": 0,
      "volumeAutomation": [],
      "panAutomation": []
    },
    {
      "pitch": 139,
      "measure": 35,
      "beat": 2,
      "duration": 1,
      "velocity": 100,
      "pan": 0,
      "instrument": "ORG_D00",
      "pipi": 0,
      "volumeAutomation": [],
      "panAutomation": []
    },
    {
      "pitch": 139,
      "measure": 35,
      "beat": 6,
      "duration": 1,
      "velocity": 100,
      "pan": 0,
      "instrument": "ORG_D00",
      "pipi": 0,
      "volumeAutomation": [],
      "panAutomation": []
    },
    {
      "pitch": 139,
      "measure": 35,
      "beat": 8,
      "duration": 1,
      "velocity": 100,
      "pan": 0,
      "instrument": "ORG_D00",
      "pipi": 0,
      "volumeAutomation": [],
      "panAutomation": []
    },
    {
      "pitch": 139,
      "measure": 36,
      "beat": 0,
      "duration": 1,
      "velocity": 100,
      "pan": 0,
      "instrument": "ORG_D00",
      "pipi": 0,
      "volumeAutomation": [],
      "panAutomation": []
    },
    {
      "pitch": 139,
      "measure": 36,
      "beat": 2,
      "duration": 1,
      "velocity": 100,
      "pan": 0,
      "instrument": "ORG_D00",
      "pipi": 0,
      "volumeAutomation": [],
      "panAutomation": []
    },
    {
      "pitch": 139,
      "measure": 36,
      "beat": 8,
      "duration": 1,
      "velocity": 100,
      "pan": 0,
      "instrument": "ORG_D00",
      "pipi": 0,
      "volumeAutomation": [],
      "panAutomation": []
    },
    {
      "pitch": 139,
      "measure": 36,
      "beat": 10,
      "duration": 1,
      "velocity": 100,
      "pan": 0,
      "instrument": "ORG_D00",
      "pipi": 0,
      "volumeAutomation": [],
      "panAutomation": []
    },
    {
      "pitch": 139,
      "measure": 37,
      "beat": 0,
      "duration": 1,
      "velocity": 100,
      "pan": 0,
      "instrument": "ORG_D00",
      "pipi": 0,
      "volumeAutomation": [],
      "panAutomation": []
    },
    {
      "pitch": 139,
      "measure": 37,
      "beat": 2,
      "duration": 1,
      "velocity": 100,
      "pan": 0,
      "instrument": "ORG_D00",
      "pipi": 0,
      "volumeAutomation": [],
      "panAutomation": []
    },
    {
      "pitch": 139,
      "measure": 37,
      "beat": 6,
      "duration": 1,
      "velocity": 100,
      "pan": 0,
      "instrument": "ORG_D00",
      "pipi": 0,
      "volumeAutomation": [],
      "panAutomation": []
    },
    {
      "pitch": 139,
      "measure": 37,
      "beat": 10,
      "duration": 1,
      "velocity": 100,
      "pan": 0,
      "instrument": "ORG_D00",
      "pipi": 0,
      "volumeAutomation": [],
      "panAutomation": []
    },
    {
      "pitch": 139,
      "measure": 38,
      "beat": 0,
      "duration": 1,
      "velocity": 100,
      "pan": 0,
      "instrument": "ORG_D00",
      "pipi": 0,
      "volumeAutomation": [],
      "panAutomation": []
    },
    {
      "pitch": 139,
      "measure": 38,
      "beat": 2,
      "duration": 1,
      "velocity": 100,
      "pan": 0,
      "instrument": "ORG_D00",
      "pipi": 0,
      "volumeAutomation": [],
      "panAutomation": []
    },
    {
      "pitch": 139,
      "measure": 38,
      "beat": 6,
      "duration": 1,
      "velocity": 100,
      "pan": 0,
      "instrument": "ORG_D00",
      "pipi": 0,
      "volumeAutomation": [],
      "panAutomation": []
    },
    {
      "pitch": 139,
      "measure": 38,
      "beat": 8,
      "duration": 1,
      "velocity": 100,
      "pan": 0,
      "instrument": "ORG_D00",
      "pipi": 0,
      "volumeAutomation": [],
      "panAutomation": []
    },
    {
      "pitch": 139,
      "measure": 39,
      "beat": 0,
      "duration": 1,
      "velocity": 100,
      "pan": 0,
      "instrument": "ORG_D00",
      "pipi": 0,
      "volumeAutomation": [],
      "panAutomation": []
    },
    {
      "pitch": 139,
      "measure": 39,
      "beat": 2,
      "duration": 1,
      "velocity": 100,
      "pan": 0,
      "instrument": "ORG_D00",
      "pipi": 0,
      "volumeAutomation": [],
      "panAutomation": []
    },
    {
      "pitch": 139,
      "measure": 39,
      "beat": 4,
      "duration": 1,
      "velocity": 100,
      "pan": 0,
      "instrument": "ORG_D00",
      "pipi": 0,
      "volumeAutomation": [],
      "panAutomation": []
    },
    {
      "pitch": 139,
      "measure": 39,
      "beat": 6,
      "duration": 1,
      "velocity": 72,
      "pan": 0,
      "instrument": "ORG_D00",
      "pipi": 0,
      "volumeAutomation": [],
      "panAutomation": []
    },
    {
      "pitch": 139,
      "measure": 39,
      "beat": 7,
      "duration": 1,
      "velocity": 84,
      "pan": 0,
      "instrument": "ORG_D00",
      "pipi": 0,
      "volumeAutomation": [],
      "panAutomation": []
    },
    {
      "pitch": 139,
      "measure": 39,
      "beat": 8,
      "duration": 1,
      "velocity": 100,
      "pan": 0,
      "instrument": "ORG_D00",
      "pipi": 0,
      "volumeAutomation": [],
      "panAutomation": []
    },
    {
      "pitch": 139,
      "measure": 39,
      "beat": 10,
      "duration": 1,
      "velocity": 100,
      "pan": 0,
      "instrument": "ORG_D00",
      "pipi": 0,
      "volumeAutomation": [],
      "panAutomation": []
    },
    {
      "pitch": 139,
      "measure": 39,
      "beat": 12,
      "duration": 1,
      "velocity": 100,
      "pan": 0,
      "instrument": "ORG_D00",
      "pipi": 0,
      "volumeAutomation": [],
      "panAutomation": []
    },
    {
      "pitch": 139,
      "measure": 40,
      "beat": 0,
      "duration": 1,
      "velocity": 100,
      "pan": 0,
      "instrument": "ORG_D00",
      "pipi": 0,
      "volumeAutomation": [],
      "panAutomation": []
    },
    {
      "pitch": 139,
      "measure": 40,
      "beat": 2,
      "duration": 1,
      "velocity": 100,
      "pan": 0,
      "instrument": "ORG_D00",
      "pipi": 0,
      "volumeAutomation": [],
      "panAutomation": []
    },
    {
      "pitch": 139,
      "measure": 40,
      "beat": 8,
      "duration": 1,
      "velocity": 100,
      "pan": 0,
      "instrument": "ORG_D00",
      "pipi": 0,
      "volumeAutomation": [],
      "panAutomation": []
    },
    {
      "pitch": 139,
      "measure": 40,
      "beat": 10,
      "duration": 1,
      "velocity": 100,
      "pan": 0,
      "instrument": "ORG_D00",
      "pipi": 0,
      "volumeAutomation": [],
      "panAutomation": []
    },
    {
      "pitch": 139,
      "measure": 41,
      "beat": 0,
      "duration": 1,
      "velocity": 100,
      "pan": 0,
      "instrument": "ORG_D00",
      "pipi": 0,
      "volumeAutomation": [],
      "panAutomation": []
    },
    {
      "pitch": 139,
      "measure": 41,
      "beat": 2,
      "duration": 1,
      "velocity": 100,
      "pan": 0,
      "instrument": "ORG_D00",
      "pipi": 0,
      "volumeAutomation": [],
      "panAutomation": []
    },
    {
      "pitch": 139,
      "measure": 41,
      "beat": 6,
      "duration": 1,
      "velocity": 100,
      "pan": 0,
      "instrument": "ORG_D00",
      "pipi": 0,
      "volumeAutomation": [],
      "panAutomation": []
    },
    {
      "pitch": 139,
      "measure": 41,
      "beat": 8,
      "duration": 1,
      "velocity": 100,
      "pan": 0,
      "instrument": "ORG_D00",
      "pipi": 0,
      "volumeAutomation": [],
      "panAutomation": []
    },
    {
      "pitch": 139,
      "measure": 42,
      "beat": 0,
      "duration": 1,
      "velocity": 100,
      "pan": 0,
      "instrument": "ORG_D00",
      "pipi": 0,
      "volumeAutomation": [],
      "panAutomation": []
    },
    {
      "pitch": 139,
      "measure": 42,
      "beat": 2,
      "duration": 1,
      "velocity": 100,
      "pan": 0,
      "instrument": "ORG_D00",
      "pipi": 0,
      "volumeAutomation": [],
      "panAutomation": []
    },
    {
      "pitch": 139,
      "measure": 42,
      "beat": 6,
      "duration": 1,
      "velocity": 100,
      "pan": 0,
      "instrument": "ORG_D00",
      "pipi": 0,
      "volumeAutomation": [],
      "panAutomation": []
    },
    {
      "pitch": 139,
      "measure": 42,
      "beat": 8,
      "duration": 1,
      "velocity": 100,
      "pan": 0,
      "instrument": "ORG_D00",
      "pipi": 0,
      "volumeAutomation": [],
      "panAutomation": []
    },
    {
      "pitch": 139,
      "measure": 43,
      "beat": 0,
      "duration": 1,
      "velocity": 100,
      "pan": 0,
      "instrument": "ORG_D00",
      "pipi": 0,
      "volumeAutomation": [],
      "panAutomation": []
    },
    {
      "pitch": 139,
      "measure": 43,
      "beat": 2,
      "duration": 1,
      "velocity": 68,
      "pan": 0,
      "instrument": "ORG_D00",
      "pipi": 0,
      "volumeAutomation": [],
      "panAutomation": []
    },
    {
      "pitch": 139,
      "measure": 43,
      "beat": 4,
      "duration": 1,
      "velocity": 100,
      "pan": 0,
      "instrument": "ORG_D00",
      "pipi": 0,
      "volumeAutomation": [],
      "panAutomation": []
    },
    {
      "pitch": 139,
      "measure": 43,
      "beat": 6,
      "duration": 1,
      "velocity": 70,
      "pan": 0,
      "instrument": "ORG_D00",
      "pipi": 0,
      "volumeAutomation": [],
      "panAutomation": []
    },
    {
      "pitch": 139,
      "measure": 43,
      "beat": 8,
      "duration": 1,
      "velocity": 100,
      "pan": 0,
      "instrument": "ORG_D00",
      "pipi": 0,
      "volumeAutomation": [],
      "panAutomation": []
    },
    {
      "pitch": 139,
      "measure": 43,
      "beat": 11,
      "duration": 1,
      "velocity": 82,
      "pan": 0,
      "instrument": "ORG_D00",
      "pipi": 0,
      "volumeAutomation": [],
      "panAutomation": []
    },
    {
      "pitch": 139,
      "measure": 43,
      "beat": 14,
      "duration": 1,
      "velocity": 56,
      "pan": 0,
      "instrument": "ORG_D00",
      "pipi": 0,
      "volumeAutomation": [],
      "panAutomation": []
    },
    {
      "pitch": 139,
      "measure": 44,
      "beat": 0,
      "duration": 1,
      "velocity": 100,
      "pan": 0,
      "instrument": "ORG_D00",
      "pipi": 0,
      "volumeAutomation": [],
      "panAutomation": []
    },
    {
      "pitch": 139,
      "measure": 44,
      "beat": 2,
      "duration": 1,
      "velocity": 100,
      "pan": 0,
      "instrument": "ORG_D00",
      "pipi": 0,
      "volumeAutomation": [],
      "panAutomation": []
    },
    {
      "pitch": 139,
      "measure": 44,
      "beat": 8,
      "duration": 1,
      "velocity": 100,
      "pan": 0,
      "instrument": "ORG_D00",
      "pipi": 0,
      "volumeAutomation": [],
      "panAutomation": []
    },
    {
      "pitch": 139,
      "measure": 44,
      "beat": 10,
      "duration": 1,
      "velocity": 100,
      "pan": 0,
      "instrument": "ORG_D00",
      "pipi": 0,
      "volumeAutomation": [],
      "panAutomation": []
    },
    {
      "pitch": 139,
      "measure": 45,
      "beat": 0,
      "duration": 1,
      "velocity": 100,
      "pan": 0,
      "instrument": "ORG_D00",
      "pipi": 0,
      "volumeAutomation": [],
      "panAutomation": []
    },
    {
      "pitch": 139,
      "measure": 45,
      "beat": 2,
      "duration": 1,
      "velocity": 100,
      "pan": 0,
      "instrument": "ORG_D00",
      "pipi": 0,
      "volumeAutomation": [],
      "panAutomation": []
    },
    {
      "pitch": 139,
      "measure": 45,
      "beat": 6,
      "duration": 1,
      "velocity": 100,
      "pan": 0,
      "instrument": "ORG_D00",
      "pipi": 0,
      "volumeAutomation": [],
      "panAutomation": []
    },
    {
      "pitch": 139,
      "measure": 45,
      "beat": 8,
      "duration": 1,
      "velocity": 100,
      "pan": 0,
      "instrument": "ORG_D00",
      "pipi": 0,
      "volumeAutomation": [],
      "panAutomation": []
    },
    {
      "pitch": 139,
      "measure": 46,
      "beat": 0,
      "duration": 1,
      "velocity": 100,
      "pan": 0,
      "instrument": "ORG_D00",
      "pipi": 0,
      "volumeAutomation": [],
      "panAutomation": []
    },
    {
      "pitch": 139,
      "measure": 46,
      "beat": 2,
      "duration": 1,
      "velocity": 100,
      "pan": 0,
      "instrument": "ORG_D00",
      "pipi": 0,
      "volumeAutomation": [],
      "panAutomation": []
    },
    {
      "pitch": 139,
      "measure": 46,
      "beat": 6,
      "duration": 1,
      "velocity": 100,
      "pan": 0,
      "instrument": "ORG_D00",
      "pipi": 0,
      "volumeAutomation": [],
      "panAutomation": []
    },
    {
      "pitch": 139,
      "measure": 46,
      "beat": 8,
      "duration": 1,
      "velocity": 100,
      "pan": 0,
      "instrument": "ORG_D00",
      "pipi": 0,
      "volumeAutomation": [],
      "panAutomation": []
    },
    {
      "pitch": 139,
      "measure": 47,
      "beat": 0,
      "duration": 1,
      "velocity": 100,
      "pan": 0,
      "instrument": "ORG_D00",
      "pipi": 0,
      "volumeAutomation": [],
      "panAutomation": []
    },
    {
      "pitch": 139,
      "measure": 47,
      "beat": 2,
      "duration": 1,
      "velocity": 68,
      "pan": 0,
      "instrument": "ORG_D00",
      "pipi": 0,
      "volumeAutomation": [],
      "panAutomation": []
    },
    {
      "pitch": 139,
      "measure": 47,
      "beat": 4,
      "duration": 1,
      "velocity": 100,
      "pan": 0,
      "instrument": "ORG_D00",
      "pipi": 0,
      "volumeAutomation": [],
      "panAutomation": []
    },
    {
      "pitch": 139,
      "measure": 47,
      "beat": 6,
      "duration": 1,
      "velocity": 70,
      "pan": 0,
      "instrument": "ORG_D00",
      "pipi": 0,
      "volumeAutomation": [],
      "panAutomation": []
    },
    {
      "pitch": 139,
      "measure": 47,
      "beat": 8,
      "duration": 1,
      "velocity": 100,
      "pan": 0,
      "instrument": "ORG_D00",
      "pipi": 0,
      "volumeAutomation": [],
      "panAutomation": []
    },
    {
      "pitch": 139,
      "measure": 47,
      "beat": 11,
      "duration": 1,
      "velocity": 82,
      "pan": 0,
      "instrument": "ORG_D00",
      "pipi": 0,
      "volumeAutomation": [],
      "panAutomation": []
    },
    {
      "pitch": 139,
      "measure": 47,
      "beat": 14,
      "duration": 1,
      "velocity": 56,
      "pan": 0,
      "instrument": "ORG_D00",
      "pipi": 0,
      "volumeAutomation": [],
      "panAutomation": []
    },
    {
      "pitch": 65,
      "measure": 0,
      "beat": 0,
      "duration": 1,
      "velocity": 100,
      "pan": 66.66666666666667,
      "instrument": "ORG_D01",
      "pipi": 0,
      "volumeAutomation": [],
      "panAutomation": []
    },
    {
      "pitch": 65,
      "measure": 0,
      "beat": 2,
      "duration": 1,
      "velocity": 100,
      "pan": -66.66666666666667,
      "instrument": "ORG_D01",
      "pipi": 0,
      "volumeAutomation": [],
      "panAutomation": []
    },
    {
      "pitch": 135,
      "measure": 0,
      "beat": 4,
      "duration": 1,
      "velocity": 100,
      "pan": 0,
      "instrument": "ORG_D01",
      "pipi": 0,
      "volumeAutomation": [],
      "panAutomation": []
    },
    {
      "pitch": 73,
      "measure": 0,
      "beat": 7,
      "duration": 1,
      "velocity": 100,
      "pan": 0,
      "instrument": "ORG_D01",
      "pipi": 0,
      "volumeAutomation": [],
      "panAutomation": []
    },
    {
      "pitch": 65,
      "measure": 0,
      "beat": 8,
      "duration": 1,
      "velocity": 100,
      "pan": -66.66666666666667,
      "instrument": "ORG_D01",
      "pipi": 0,
      "volumeAutomation": [],
      "panAutomation": []
    },
    {
      "pitch": 65,
      "measure": 0,
      "beat": 10,
      "duration": 1,
      "velocity": 100,
      "pan": 66.66666666666667,
      "instrument": "ORG_D01",
      "pipi": 0,
      "volumeAutomation": [],
      "panAutomation": []
    },
    {
      "pitch": 135,
      "measure": 0,
      "beat": 12,
      "duration": 1,
      "velocity": 100,
      "pan": 0,
      "instrument": "ORG_D01",
      "pipi": 0,
      "volumeAutomation": [],
      "panAutomation": []
    },
    {
      "pitch": 73,
      "measure": 0,
      "beat": 15,
      "duration": 1,
      "velocity": 100,
      "pan": 0,
      "instrument": "ORG_D01",
      "pipi": 0,
      "volumeAutomation": [],
      "panAutomation": []
    },
    {
      "pitch": 62,
      "measure": 1,
      "beat": 0,
      "duration": 1,
      "velocity": 100,
      "pan": 0,
      "instrument": "ORG_D01",
      "pipi": 0,
      "volumeAutomation": [],
      "panAutomation": []
    },
    {
      "pitch": 62,
      "measure": 1,
      "beat": 2,
      "duration": 1,
      "velocity": 100,
      "pan": 0,
      "instrument": "ORG_D01",
      "pipi": 0,
      "volumeAutomation": [],
      "panAutomation": []
    },
    {
      "pitch": 135,
      "measure": 1,
      "beat": 4,
      "duration": 1,
      "velocity": 100,
      "pan": 0,
      "instrument": "ORG_D01",
      "pipi": 0,
      "volumeAutomation": [],
      "panAutomation": []
    },
    {
      "pitch": 135,
      "measure": 1,
      "beat": 12,
      "duration": 1,
      "velocity": 100,
      "pan": 0,
      "instrument": "ORG_D01",
      "pipi": 0,
      "volumeAutomation": [],
      "panAutomation": []
    },
    {
      "pitch": 65,
      "measure": 2,
      "beat": 0,
      "duration": 1,
      "velocity": 100,
      "pan": 66.66666666666667,
      "instrument": "ORG_D01",
      "pipi": 0,
      "volumeAutomation": [],
      "panAutomation": []
    },
    {
      "pitch": 65,
      "measure": 2,
      "beat": 2,
      "duration": 1,
      "velocity": 100,
      "pan": -66.66666666666667,
      "instrument": "ORG_D01",
      "pipi": 0,
      "volumeAutomation": [],
      "panAutomation": []
    },
    {
      "pitch": 135,
      "measure": 2,
      "beat": 4,
      "duration": 1,
      "velocity": 100,
      "pan": 0,
      "instrument": "ORG_D01",
      "pipi": 0,
      "volumeAutomation": [],
      "panAutomation": []
    },
    {
      "pitch": 73,
      "measure": 2,
      "beat": 7,
      "duration": 1,
      "velocity": 100,
      "pan": 0,
      "instrument": "ORG_D01",
      "pipi": 0,
      "volumeAutomation": [],
      "panAutomation": []
    },
    {
      "pitch": 65,
      "measure": 2,
      "beat": 8,
      "duration": 1,
      "velocity": 100,
      "pan": -66.66666666666667,
      "instrument": "ORG_D01",
      "pipi": 0,
      "volumeAutomation": [],
      "panAutomation": []
    },
    {
      "pitch": 65,
      "measure": 2,
      "beat": 10,
      "duration": 1,
      "velocity": 100,
      "pan": 66.66666666666667,
      "instrument": "ORG_D01",
      "pipi": 0,
      "volumeAutomation": [],
      "panAutomation": []
    },
    {
      "pitch": 135,
      "measure": 2,
      "beat": 12,
      "duration": 1,
      "velocity": 100,
      "pan": 0,
      "instrument": "ORG_D01",
      "pipi": 0,
      "volumeAutomation": [],
      "panAutomation": []
    },
    {
      "pitch": 73,
      "measure": 2,
      "beat": 15,
      "duration": 1,
      "velocity": 100,
      "pan": 0,
      "instrument": "ORG_D01",
      "pipi": 0,
      "volumeAutomation": [],
      "panAutomation": []
    },
    {
      "pitch": 62,
      "measure": 3,
      "beat": 0,
      "duration": 1,
      "velocity": 100,
      "pan": 0,
      "instrument": "ORG_D01",
      "pipi": 0,
      "volumeAutomation": [],
      "panAutomation": []
    },
    {
      "pitch": 62,
      "measure": 3,
      "beat": 2,
      "duration": 1,
      "velocity": 100,
      "pan": 0,
      "instrument": "ORG_D01",
      "pipi": 0,
      "volumeAutomation": [],
      "panAutomation": []
    },
    {
      "pitch": 135,
      "measure": 3,
      "beat": 4,
      "duration": 1,
      "velocity": 100,
      "pan": 0,
      "instrument": "ORG_D01",
      "pipi": 0,
      "volumeAutomation": [],
      "panAutomation": []
    },
    {
      "pitch": 135,
      "measure": 3,
      "beat": 8,
      "duration": 1,
      "velocity": 100,
      "pan": 0,
      "instrument": "ORG_D01",
      "pipi": 0,
      "volumeAutomation": [],
      "panAutomation": []
    },
    {
      "pitch": 135,
      "measure": 3,
      "beat": 12,
      "duration": 1,
      "velocity": 100,
      "pan": 0,
      "instrument": "ORG_D01",
      "pipi": 0,
      "volumeAutomation": [],
      "panAutomation": []
    },
    {
      "pitch": 65,
      "measure": 4,
      "beat": 0,
      "duration": 1,
      "velocity": 100,
      "pan": 66.66666666666667,
      "instrument": "ORG_D01",
      "pipi": 0,
      "volumeAutomation": [],
      "panAutomation": []
    },
    {
      "pitch": 65,
      "measure": 4,
      "beat": 2,
      "duration": 1,
      "velocity": 100,
      "pan": -66.66666666666667,
      "instrument": "ORG_D01",
      "pipi": 0,
      "volumeAutomation": [],
      "panAutomation": []
    },
    {
      "pitch": 135,
      "measure": 4,
      "beat": 4,
      "duration": 1,
      "velocity": 100,
      "pan": 0,
      "instrument": "ORG_D01",
      "pipi": 0,
      "volumeAutomation": [],
      "panAutomation": []
    },
    {
      "pitch": 73,
      "measure": 4,
      "beat": 7,
      "duration": 1,
      "velocity": 100,
      "pan": 0,
      "instrument": "ORG_D01",
      "pipi": 0,
      "volumeAutomation": [],
      "panAutomation": []
    },
    {
      "pitch": 65,
      "measure": 4,
      "beat": 8,
      "duration": 1,
      "velocity": 100,
      "pan": -66.66666666666667,
      "instrument": "ORG_D01",
      "pipi": 0,
      "volumeAutomation": [],
      "panAutomation": []
    },
    {
      "pitch": 65,
      "measure": 4,
      "beat": 10,
      "duration": 1,
      "velocity": 100,
      "pan": 66.66666666666667,
      "instrument": "ORG_D01",
      "pipi": 0,
      "volumeAutomation": [],
      "panAutomation": []
    },
    {
      "pitch": 135,
      "measure": 4,
      "beat": 12,
      "duration": 1,
      "velocity": 100,
      "pan": 0,
      "instrument": "ORG_D01",
      "pipi": 0,
      "volumeAutomation": [],
      "panAutomation": []
    },
    {
      "pitch": 73,
      "measure": 4,
      "beat": 15,
      "duration": 1,
      "velocity": 100,
      "pan": 0,
      "instrument": "ORG_D01",
      "pipi": 0,
      "volumeAutomation": [],
      "panAutomation": []
    },
    {
      "pitch": 62,
      "measure": 5,
      "beat": 0,
      "duration": 1,
      "velocity": 100,
      "pan": 0,
      "instrument": "ORG_D01",
      "pipi": 0,
      "volumeAutomation": [],
      "panAutomation": []
    },
    {
      "pitch": 135,
      "measure": 5,
      "beat": 4,
      "duration": 1,
      "velocity": 100,
      "pan": 0,
      "instrument": "ORG_D01",
      "pipi": 0,
      "volumeAutomation": [],
      "panAutomation": []
    },
    {
      "pitch": 135,
      "measure": 5,
      "beat": 12,
      "duration": 1,
      "velocity": 100,
      "pan": 0,
      "instrument": "ORG_D01",
      "pipi": 0,
      "volumeAutomation": [],
      "panAutomation": []
    },
    {
      "pitch": 65,
      "measure": 6,
      "beat": 0,
      "duration": 1,
      "velocity": 100,
      "pan": 66.66666666666667,
      "instrument": "ORG_D01",
      "pipi": 0,
      "volumeAutomation": [],
      "panAutomation": []
    },
    {
      "pitch": 65,
      "measure": 6,
      "beat": 2,
      "duration": 1,
      "velocity": 100,
      "pan": -66.66666666666667,
      "instrument": "ORG_D01",
      "pipi": 0,
      "volumeAutomation": [],
      "panAutomation": []
    },
    {
      "pitch": 135,
      "measure": 6,
      "beat": 4,
      "duration": 1,
      "velocity": 100,
      "pan": 0,
      "instrument": "ORG_D01",
      "pipi": 0,
      "volumeAutomation": [],
      "panAutomation": []
    },
    {
      "pitch": 73,
      "measure": 6,
      "beat": 7,
      "duration": 1,
      "velocity": 100,
      "pan": 0,
      "instrument": "ORG_D01",
      "pipi": 0,
      "volumeAutomation": [],
      "panAutomation": []
    },
    {
      "pitch": 65,
      "measure": 6,
      "beat": 8,
      "duration": 1,
      "velocity": 100,
      "pan": -66.66666666666667,
      "instrument": "ORG_D01",
      "pipi": 0,
      "volumeAutomation": [],
      "panAutomation": []
    },
    {
      "pitch": 65,
      "measure": 6,
      "beat": 10,
      "duration": 1,
      "velocity": 100,
      "pan": 66.66666666666667,
      "instrument": "ORG_D01",
      "pipi": 0,
      "volumeAutomation": [],
      "panAutomation": []
    },
    {
      "pitch": 135,
      "measure": 6,
      "beat": 12,
      "duration": 1,
      "velocity": 100,
      "pan": 0,
      "instrument": "ORG_D01",
      "pipi": 0,
      "volumeAutomation": [],
      "panAutomation": []
    },
    {
      "pitch": 73,
      "measure": 6,
      "beat": 15,
      "duration": 1,
      "velocity": 100,
      "pan": 0,
      "instrument": "ORG_D01",
      "pipi": 0,
      "volumeAutomation": [],
      "panAutomation": []
    },
    {
      "pitch": 62,
      "measure": 7,
      "beat": 0,
      "duration": 1,
      "velocity": 100,
      "pan": 0,
      "instrument": "ORG_D01",
      "pipi": 0,
      "volumeAutomation": [],
      "panAutomation": []
    },
    {
      "pitch": 62,
      "measure": 7,
      "beat": 2,
      "duration": 1,
      "velocity": 100,
      "pan": 0,
      "instrument": "ORG_D01",
      "pipi": 0,
      "volumeAutomation": [],
      "panAutomation": []
    },
    {
      "pitch": 135,
      "measure": 7,
      "beat": 4,
      "duration": 1,
      "velocity": 100,
      "pan": 0,
      "instrument": "ORG_D01",
      "pipi": 0,
      "volumeAutomation": [],
      "panAutomation": []
    },
    {
      "pitch": 135,
      "measure": 7,
      "beat": 10,
      "duration": 1,
      "velocity": 100,
      "pan": 0,
      "instrument": "ORG_D01",
      "pipi": 0,
      "volumeAutomation": [],
      "panAutomation": []
    },
    {
      "pitch": 135,
      "measure": 7,
      "beat": 12,
      "duration": 1,
      "velocity": 100,
      "pan": 0,
      "instrument": "ORG_D01",
      "pipi": 0,
      "volumeAutomation": [],
      "panAutomation": []
    },
    {
      "pitch": 65,
      "measure": 8,
      "beat": 0,
      "duration": 1,
      "velocity": 100,
      "pan": 66.66666666666667,
      "instrument": "ORG_D01",
      "pipi": 0,
      "volumeAutomation": [],
      "panAutomation": []
    },
    {
      "pitch": 65,
      "measure": 8,
      "beat": 2,
      "duration": 1,
      "velocity": 100,
      "pan": -66.66666666666667,
      "instrument": "ORG_D01",
      "pipi": 0,
      "volumeAutomation": [],
      "panAutomation": []
    },
    {
      "pitch": 135,
      "measure": 8,
      "beat": 4,
      "duration": 1,
      "velocity": 100,
      "pan": 0,
      "instrument": "ORG_D01",
      "pipi": 0,
      "volumeAutomation": [],
      "panAutomation": []
    },
    {
      "pitch": 73,
      "measure": 8,
      "beat": 7,
      "duration": 1,
      "velocity": 100,
      "pan": 0,
      "instrument": "ORG_D01",
      "pipi": 0,
      "volumeAutomation": [],
      "panAutomation": []
    },
    {
      "pitch": 65,
      "measure": 8,
      "beat": 8,
      "duration": 1,
      "velocity": 100,
      "pan": -66.66666666666667,
      "instrument": "ORG_D01",
      "pipi": 0,
      "volumeAutomation": [],
      "panAutomation": []
    },
    {
      "pitch": 65,
      "measure": 8,
      "beat": 10,
      "duration": 1,
      "velocity": 100,
      "pan": 66.66666666666667,
      "instrument": "ORG_D01",
      "pipi": 0,
      "volumeAutomation": [],
      "panAutomation": []
    },
    {
      "pitch": 135,
      "measure": 8,
      "beat": 12,
      "duration": 1,
      "velocity": 100,
      "pan": 0,
      "instrument": "ORG_D01",
      "pipi": 0,
      "volumeAutomation": [],
      "panAutomation": []
    },
    {
      "pitch": 73,
      "measure": 8,
      "beat": 15,
      "duration": 1,
      "velocity": 100,
      "pan": 0,
      "instrument": "ORG_D01",
      "pipi": 0,
      "volumeAutomation": [],
      "panAutomation": []
    },
    {
      "pitch": 62,
      "measure": 9,
      "beat": 0,
      "duration": 1,
      "velocity": 100,
      "pan": 0,
      "instrument": "ORG_D01",
      "pipi": 0,
      "volumeAutomation": [],
      "panAutomation": []
    },
    {
      "pitch": 62,
      "measure": 9,
      "beat": 2,
      "duration": 1,
      "velocity": 100,
      "pan": 0,
      "instrument": "ORG_D01",
      "pipi": 0,
      "volumeAutomation": [],
      "panAutomation": []
    },
    {
      "pitch": 135,
      "measure": 9,
      "beat": 4,
      "duration": 1,
      "velocity": 100,
      "pan": 0,
      "instrument": "ORG_D01",
      "pipi": 0,
      "volumeAutomation": [],
      "panAutomation": []
    },
    {
      "pitch": 135,
      "measure": 9,
      "beat": 12,
      "duration": 1,
      "velocity": 100,
      "pan": 0,
      "instrument": "ORG_D01",
      "pipi": 0,
      "volumeAutomation": [],
      "panAutomation": []
    },
    {
      "pitch": 65,
      "measure": 10,
      "beat": 0,
      "duration": 1,
      "velocity": 100,
      "pan": 66.66666666666667,
      "instrument": "ORG_D01",
      "pipi": 0,
      "volumeAutomation": [],
      "panAutomation": []
    },
    {
      "pitch": 65,
      "measure": 10,
      "beat": 2,
      "duration": 1,
      "velocity": 100,
      "pan": -66.66666666666667,
      "instrument": "ORG_D01",
      "pipi": 0,
      "volumeAutomation": [],
      "panAutomation": []
    },
    {
      "pitch": 135,
      "measure": 10,
      "beat": 4,
      "duration": 1,
      "velocity": 100,
      "pan": 0,
      "instrument": "ORG_D01",
      "pipi": 0,
      "volumeAutomation": [],
      "panAutomation": []
    },
    {
      "pitch": 73,
      "measure": 10,
      "beat": 7,
      "duration": 1,
      "velocity": 100,
      "pan": 0,
      "instrument": "ORG_D01",
      "pipi": 0,
      "volumeAutomation": [],
      "panAutomation": []
    },
    {
      "pitch": 65,
      "measure": 10,
      "beat": 8,
      "duration": 1,
      "velocity": 100,
      "pan": -66.66666666666667,
      "instrument": "ORG_D01",
      "pipi": 0,
      "volumeAutomation": [],
      "panAutomation": []
    },
    {
      "pitch": 65,
      "measure": 10,
      "beat": 10,
      "duration": 1,
      "velocity": 100,
      "pan": 66.66666666666667,
      "instrument": "ORG_D01",
      "pipi": 0,
      "volumeAutomation": [],
      "panAutomation": []
    },
    {
      "pitch": 135,
      "measure": 10,
      "beat": 12,
      "duration": 1,
      "velocity": 100,
      "pan": 0,
      "instrument": "ORG_D01",
      "pipi": 0,
      "volumeAutomation": [],
      "panAutomation": []
    },
    {
      "pitch": 73,
      "measure": 10,
      "beat": 15,
      "duration": 1,
      "velocity": 100,
      "pan": 0,
      "instrument": "ORG_D01",
      "pipi": 0,
      "volumeAutomation": [],
      "panAutomation": []
    },
    {
      "pitch": 62,
      "measure": 11,
      "beat": 0,
      "duration": 1,
      "velocity": 100,
      "pan": 0,
      "instrument": "ORG_D01",
      "pipi": 0,
      "volumeAutomation": [],
      "panAutomation": []
    },
    {
      "pitch": 62,
      "measure": 11,
      "beat": 2,
      "duration": 1,
      "velocity": 100,
      "pan": 0,
      "instrument": "ORG_D01",
      "pipi": 0,
      "volumeAutomation": [],
      "panAutomation": []
    },
    {
      "pitch": 135,
      "measure": 11,
      "beat": 4,
      "duration": 1,
      "velocity": 100,
      "pan": 0,
      "instrument": "ORG_D01",
      "pipi": 0,
      "volumeAutomation": [],
      "panAutomation": []
    },
    {
      "pitch": 135,
      "measure": 11,
      "beat": 8,
      "duration": 1,
      "velocity": 100,
      "pan": 0,
      "instrument": "ORG_D01",
      "pipi": 0,
      "volumeAutomation": [],
      "panAutomation": []
    },
    {
      "pitch": 135,
      "measure": 11,
      "beat": 12,
      "duration": 1,
      "velocity": 100,
      "pan": 0,
      "instrument": "ORG_D01",
      "pipi": 0,
      "volumeAutomation": [],
      "panAutomation": []
    },
    {
      "pitch": 65,
      "measure": 12,
      "beat": 0,
      "duration": 1,
      "velocity": 100,
      "pan": 66.66666666666667,
      "instrument": "ORG_D01",
      "pipi": 0,
      "volumeAutomation": [],
      "panAutomation": []
    },
    {
      "pitch": 65,
      "measure": 12,
      "beat": 2,
      "duration": 1,
      "velocity": 100,
      "pan": -66.66666666666667,
      "instrument": "ORG_D01",
      "pipi": 0,
      "volumeAutomation": [],
      "panAutomation": []
    },
    {
      "pitch": 135,
      "measure": 12,
      "beat": 4,
      "duration": 1,
      "velocity": 100,
      "pan": 0,
      "instrument": "ORG_D01",
      "pipi": 0,
      "volumeAutomation": [],
      "panAutomation": []
    },
    {
      "pitch": 73,
      "measure": 12,
      "beat": 7,
      "duration": 1,
      "velocity": 100,
      "pan": 0,
      "instrument": "ORG_D01",
      "pipi": 0,
      "volumeAutomation": [],
      "panAutomation": []
    },
    {
      "pitch": 65,
      "measure": 12,
      "beat": 8,
      "duration": 1,
      "velocity": 100,
      "pan": -66.66666666666667,
      "instrument": "ORG_D01",
      "pipi": 0,
      "volumeAutomation": [],
      "panAutomation": []
    },
    {
      "pitch": 65,
      "measure": 12,
      "beat": 10,
      "duration": 1,
      "velocity": 100,
      "pan": 66.66666666666667,
      "instrument": "ORG_D01",
      "pipi": 0,
      "volumeAutomation": [],
      "panAutomation": []
    },
    {
      "pitch": 135,
      "measure": 12,
      "beat": 12,
      "duration": 1,
      "velocity": 100,
      "pan": 0,
      "instrument": "ORG_D01",
      "pipi": 0,
      "volumeAutomation": [],
      "panAutomation": []
    },
    {
      "pitch": 73,
      "measure": 12,
      "beat": 15,
      "duration": 1,
      "velocity": 100,
      "pan": 0,
      "instrument": "ORG_D01",
      "pipi": 0,
      "volumeAutomation": [],
      "panAutomation": []
    },
    {
      "pitch": 62,
      "measure": 13,
      "beat": 0,
      "duration": 1,
      "velocity": 100,
      "pan": 0,
      "instrument": "ORG_D01",
      "pipi": 0,
      "volumeAutomation": [],
      "panAutomation": []
    },
    {
      "pitch": 62,
      "measure": 13,
      "beat": 2,
      "duration": 1,
      "velocity": 100,
      "pan": 0,
      "instrument": "ORG_D01",
      "pipi": 0,
      "volumeAutomation": [],
      "panAutomation": []
    },
    {
      "pitch": 135,
      "measure": 13,
      "beat": 4,
      "duration": 1,
      "velocity": 100,
      "pan": 0,
      "instrument": "ORG_D01",
      "pipi": 0,
      "volumeAutomation": [],
      "panAutomation": []
    },
    {
      "pitch": 135,
      "measure": 13,
      "beat": 12,
      "duration": 1,
      "velocity": 100,
      "pan": 0,
      "instrument": "ORG_D01",
      "pipi": 0,
      "volumeAutomation": [],
      "panAutomation": []
    },
    {
      "pitch": 65,
      "measure": 14,
      "beat": 0,
      "duration": 1,
      "velocity": 100,
      "pan": 66.66666666666667,
      "instrument": "ORG_D01",
      "pipi": 0,
      "volumeAutomation": [],
      "panAutomation": []
    },
    {
      "pitch": 65,
      "measure": 14,
      "beat": 2,
      "duration": 1,
      "velocity": 100,
      "pan": -66.66666666666667,
      "instrument": "ORG_D01",
      "pipi": 0,
      "volumeAutomation": [],
      "panAutomation": []
    },
    {
      "pitch": 135,
      "measure": 14,
      "beat": 4,
      "duration": 1,
      "velocity": 100,
      "pan": 0,
      "instrument": "ORG_D01",
      "pipi": 0,
      "volumeAutomation": [],
      "panAutomation": []
    },
    {
      "pitch": 73,
      "measure": 14,
      "beat": 7,
      "duration": 1,
      "velocity": 100,
      "pan": 0,
      "instrument": "ORG_D01",
      "pipi": 0,
      "volumeAutomation": [],
      "panAutomation": []
    },
    {
      "pitch": 65,
      "measure": 14,
      "beat": 8,
      "duration": 1,
      "velocity": 100,
      "pan": -66.66666666666667,
      "instrument": "ORG_D01",
      "pipi": 0,
      "volumeAutomation": [],
      "panAutomation": []
    },
    {
      "pitch": 65,
      "measure": 14,
      "beat": 10,
      "duration": 1,
      "velocity": 100,
      "pan": 66.66666666666667,
      "instrument": "ORG_D01",
      "pipi": 0,
      "volumeAutomation": [],
      "panAutomation": []
    },
    {
      "pitch": 135,
      "measure": 14,
      "beat": 12,
      "duration": 1,
      "velocity": 100,
      "pan": 0,
      "instrument": "ORG_D01",
      "pipi": 0,
      "volumeAutomation": [],
      "panAutomation": []
    },
    {
      "pitch": 73,
      "measure": 14,
      "beat": 15,
      "duration": 1,
      "velocity": 100,
      "pan": 0,
      "instrument": "ORG_D01",
      "pipi": 0,
      "volumeAutomation": [],
      "panAutomation": []
    },
    {
      "pitch": 62,
      "measure": 15,
      "beat": 0,
      "duration": 1,
      "velocity": 100,
      "pan": 0,
      "instrument": "ORG_D01",
      "pipi": 0,
      "volumeAutomation": [],
      "panAutomation": []
    },
    {
      "pitch": 62,
      "measure": 15,
      "beat": 2,
      "duration": 1,
      "velocity": 100,
      "pan": 0,
      "instrument": "ORG_D01",
      "pipi": 0,
      "volumeAutomation": [],
      "panAutomation": []
    },
    {
      "pitch": 135,
      "measure": 15,
      "beat": 4,
      "duration": 1,
      "velocity": 100,
      "pan": 0,
      "instrument": "ORG_D01",
      "pipi": 0,
      "volumeAutomation": [],
      "panAutomation": []
    },
    {
      "pitch": 135,
      "measure": 15,
      "beat": 8,
      "duration": 1,
      "velocity": 100,
      "pan": 0,
      "instrument": "ORG_D01",
      "pipi": 0,
      "volumeAutomation": [],
      "panAutomation": []
    },
    {
      "pitch": 135,
      "measure": 15,
      "beat": 12,
      "duration": 1,
      "velocity": 100,
      "pan": 0,
      "instrument": "ORG_D01",
      "pipi": 0,
      "volumeAutomation": [],
      "panAutomation": []
    },
    {
      "pitch": 65,
      "measure": 16,
      "beat": 0,
      "duration": 1,
      "velocity": 100,
      "pan": 66.66666666666667,
      "instrument": "ORG_D01",
      "pipi": 0,
      "volumeAutomation": [],
      "panAutomation": []
    },
    {
      "pitch": 65,
      "measure": 16,
      "beat": 2,
      "duration": 1,
      "velocity": 100,
      "pan": -66.66666666666667,
      "instrument": "ORG_D01",
      "pipi": 0,
      "volumeAutomation": [],
      "panAutomation": []
    },
    {
      "pitch": 135,
      "measure": 16,
      "beat": 4,
      "duration": 1,
      "velocity": 100,
      "pan": 0,
      "instrument": "ORG_D01",
      "pipi": 0,
      "volumeAutomation": [],
      "panAutomation": []
    },
    {
      "pitch": 73,
      "measure": 16,
      "beat": 7,
      "duration": 1,
      "velocity": 100,
      "pan": 0,
      "instrument": "ORG_D01",
      "pipi": 0,
      "volumeAutomation": [],
      "panAutomation": []
    },
    {
      "pitch": 65,
      "measure": 16,
      "beat": 8,
      "duration": 1,
      "velocity": 100,
      "pan": -66.66666666666667,
      "instrument": "ORG_D01",
      "pipi": 0,
      "volumeAutomation": [],
      "panAutomation": []
    },
    {
      "pitch": 65,
      "measure": 16,
      "beat": 10,
      "duration": 1,
      "velocity": 100,
      "pan": 66.66666666666667,
      "instrument": "ORG_D01",
      "pipi": 0,
      "volumeAutomation": [],
      "panAutomation": []
    },
    {
      "pitch": 135,
      "measure": 16,
      "beat": 12,
      "duration": 1,
      "velocity": 100,
      "pan": 0,
      "instrument": "ORG_D01",
      "pipi": 0,
      "volumeAutomation": [],
      "panAutomation": []
    },
    {
      "pitch": 73,
      "measure": 16,
      "beat": 15,
      "duration": 1,
      "velocity": 100,
      "pan": 0,
      "instrument": "ORG_D01",
      "pipi": 0,
      "volumeAutomation": [],
      "panAutomation": []
    },
    {
      "pitch": 62,
      "measure": 17,
      "beat": 0,
      "duration": 1,
      "velocity": 100,
      "pan": 0,
      "instrument": "ORG_D01",
      "pipi": 0,
      "volumeAutomation": [],
      "panAutomation": []
    },
    {
      "pitch": 135,
      "measure": 17,
      "beat": 4,
      "duration": 1,
      "velocity": 100,
      "pan": 0,
      "instrument": "ORG_D01",
      "pipi": 0,
      "volumeAutomation": [],
      "panAutomation": []
    },
    {
      "pitch": 135,
      "measure": 17,
      "beat": 12,
      "duration": 1,
      "velocity": 100,
      "pan": 0,
      "instrument": "ORG_D01",
      "pipi": 0,
      "volumeAutomation": [],
      "panAutomation": []
    },
    {
      "pitch": 65,
      "measure": 18,
      "beat": 0,
      "duration": 1,
      "velocity": 100,
      "pan": 66.66666666666667,
      "instrument": "ORG_D01",
      "pipi": 0,
      "volumeAutomation": [],
      "panAutomation": []
    },
    {
      "pitch": 65,
      "measure": 18,
      "beat": 2,
      "duration": 1,
      "velocity": 100,
      "pan": -66.66666666666667,
      "instrument": "ORG_D01",
      "pipi": 0,
      "volumeAutomation": [],
      "panAutomation": []
    },
    {
      "pitch": 135,
      "measure": 18,
      "beat": 4,
      "duration": 1,
      "velocity": 100,
      "pan": 0,
      "instrument": "ORG_D01",
      "pipi": 0,
      "volumeAutomation": [],
      "panAutomation": []
    },
    {
      "pitch": 73,
      "measure": 18,
      "beat": 7,
      "duration": 1,
      "velocity": 100,
      "pan": 0,
      "instrument": "ORG_D01",
      "pipi": 0,
      "volumeAutomation": [],
      "panAutomation": []
    },
    {
      "pitch": 65,
      "measure": 18,
      "beat": 8,
      "duration": 1,
      "velocity": 100,
      "pan": -66.66666666666667,
      "instrument": "ORG_D01",
      "pipi": 0,
      "volumeAutomation": [],
      "panAutomation": []
    },
    {
      "pitch": 65,
      "measure": 18,
      "beat": 10,
      "duration": 1,
      "velocity": 100,
      "pan": 66.66666666666667,
      "instrument": "ORG_D01",
      "pipi": 0,
      "volumeAutomation": [],
      "panAutomation": []
    },
    {
      "pitch": 135,
      "measure": 18,
      "beat": 12,
      "duration": 1,
      "velocity": 100,
      "pan": 0,
      "instrument": "ORG_D01",
      "pipi": 0,
      "volumeAutomation": [],
      "panAutomation": []
    },
    {
      "pitch": 73,
      "measure": 18,
      "beat": 15,
      "duration": 1,
      "velocity": 100,
      "pan": 0,
      "instrument": "ORG_D01",
      "pipi": 0,
      "volumeAutomation": [],
      "panAutomation": []
    },
    {
      "pitch": 62,
      "measure": 19,
      "beat": 0,
      "duration": 1,
      "velocity": 100,
      "pan": 0,
      "instrument": "ORG_D01",
      "pipi": 0,
      "volumeAutomation": [],
      "panAutomation": []
    },
    {
      "pitch": 62,
      "measure": 19,
      "beat": 2,
      "duration": 1,
      "velocity": 100,
      "pan": 0,
      "instrument": "ORG_D01",
      "pipi": 0,
      "volumeAutomation": [],
      "panAutomation": []
    },
    {
      "pitch": 135,
      "measure": 19,
      "beat": 4,
      "duration": 1,
      "velocity": 100,
      "pan": 0,
      "instrument": "ORG_D01",
      "pipi": 0,
      "volumeAutomation": [],
      "panAutomation": []
    },
    {
      "pitch": 135,
      "measure": 19,
      "beat": 10,
      "duration": 1,
      "velocity": 100,
      "pan": 0,
      "instrument": "ORG_D01",
      "pipi": 0,
      "volumeAutomation": [],
      "panAutomation": []
    },
    {
      "pitch": 135,
      "measure": 19,
      "beat": 12,
      "duration": 1,
      "velocity": 100,
      "pan": 0,
      "instrument": "ORG_D01",
      "pipi": 0,
      "volumeAutomation": [],
      "panAutomation": []
    },
    {
      "pitch": 65,
      "measure": 20,
      "beat": 0,
      "duration": 1,
      "velocity": 100,
      "pan": 66.66666666666667,
      "instrument": "ORG_D01",
      "pipi": 0,
      "volumeAutomation": [],
      "panAutomation": []
    },
    {
      "pitch": 65,
      "measure": 20,
      "beat": 2,
      "duration": 1,
      "velocity": 100,
      "pan": -66.66666666666667,
      "instrument": "ORG_D01",
      "pipi": 0,
      "volumeAutomation": [],
      "panAutomation": []
    },
    {
      "pitch": 135,
      "measure": 20,
      "beat": 4,
      "duration": 1,
      "velocity": 100,
      "pan": 0,
      "instrument": "ORG_D01",
      "pipi": 0,
      "volumeAutomation": [],
      "panAutomation": []
    },
    {
      "pitch": 73,
      "measure": 20,
      "beat": 7,
      "duration": 1,
      "velocity": 100,
      "pan": 0,
      "instrument": "ORG_D01",
      "pipi": 0,
      "volumeAutomation": [],
      "panAutomation": []
    },
    {
      "pitch": 65,
      "measure": 20,
      "beat": 8,
      "duration": 1,
      "velocity": 100,
      "pan": -66.66666666666667,
      "instrument": "ORG_D01",
      "pipi": 0,
      "volumeAutomation": [],
      "panAutomation": []
    },
    {
      "pitch": 65,
      "measure": 20,
      "beat": 10,
      "duration": 1,
      "velocity": 100,
      "pan": 66.66666666666667,
      "instrument": "ORG_D01",
      "pipi": 0,
      "volumeAutomation": [],
      "panAutomation": []
    },
    {
      "pitch": 135,
      "measure": 20,
      "beat": 12,
      "duration": 1,
      "velocity": 100,
      "pan": 0,
      "instrument": "ORG_D01",
      "pipi": 0,
      "volumeAutomation": [],
      "panAutomation": []
    },
    {
      "pitch": 73,
      "measure": 20,
      "beat": 15,
      "duration": 1,
      "velocity": 100,
      "pan": 0,
      "instrument": "ORG_D01",
      "pipi": 0,
      "volumeAutomation": [],
      "panAutomation": []
    },
    {
      "pitch": 62,
      "measure": 21,
      "beat": 0,
      "duration": 1,
      "velocity": 100,
      "pan": 0,
      "instrument": "ORG_D01",
      "pipi": 0,
      "volumeAutomation": [],
      "panAutomation": []
    },
    {
      "pitch": 62,
      "measure": 21,
      "beat": 2,
      "duration": 1,
      "velocity": 100,
      "pan": 0,
      "instrument": "ORG_D01",
      "pipi": 0,
      "volumeAutomation": [],
      "panAutomation": []
    },
    {
      "pitch": 135,
      "measure": 21,
      "beat": 4,
      "duration": 1,
      "velocity": 100,
      "pan": 0,
      "instrument": "ORG_D01",
      "pipi": 0,
      "volumeAutomation": [],
      "panAutomation": []
    },
    {
      "pitch": 135,
      "measure": 21,
      "beat": 12,
      "duration": 1,
      "velocity": 100,
      "pan": 0,
      "instrument": "ORG_D01",
      "pipi": 0,
      "volumeAutomation": [],
      "panAutomation": []
    },
    {
      "pitch": 65,
      "measure": 22,
      "beat": 0,
      "duration": 1,
      "velocity": 100,
      "pan": 66.66666666666667,
      "instrument": "ORG_D01",
      "pipi": 0,
      "volumeAutomation": [],
      "panAutomation": []
    },
    {
      "pitch": 65,
      "measure": 22,
      "beat": 2,
      "duration": 1,
      "velocity": 100,
      "pan": -66.66666666666667,
      "instrument": "ORG_D01",
      "pipi": 0,
      "volumeAutomation": [],
      "panAutomation": []
    },
    {
      "pitch": 135,
      "measure": 22,
      "beat": 4,
      "duration": 1,
      "velocity": 100,
      "pan": 0,
      "instrument": "ORG_D01",
      "pipi": 0,
      "volumeAutomation": [],
      "panAutomation": []
    },
    {
      "pitch": 73,
      "measure": 22,
      "beat": 7,
      "duration": 1,
      "velocity": 100,
      "pan": 0,
      "instrument": "ORG_D01",
      "pipi": 0,
      "volumeAutomation": [],
      "panAutomation": []
    },
    {
      "pitch": 65,
      "measure": 22,
      "beat": 8,
      "duration": 1,
      "velocity": 100,
      "pan": -66.66666666666667,
      "instrument": "ORG_D01",
      "pipi": 0,
      "volumeAutomation": [],
      "panAutomation": []
    },
    {
      "pitch": 65,
      "measure": 22,
      "beat": 10,
      "duration": 1,
      "velocity": 100,
      "pan": 66.66666666666667,
      "instrument": "ORG_D01",
      "pipi": 0,
      "volumeAutomation": [],
      "panAutomation": []
    },
    {
      "pitch": 135,
      "measure": 22,
      "beat": 12,
      "duration": 1,
      "velocity": 100,
      "pan": 0,
      "instrument": "ORG_D01",
      "pipi": 0,
      "volumeAutomation": [],
      "panAutomation": []
    },
    {
      "pitch": 73,
      "measure": 22,
      "beat": 15,
      "duration": 1,
      "velocity": 100,
      "pan": 0,
      "instrument": "ORG_D01",
      "pipi": 0,
      "volumeAutomation": [],
      "panAutomation": []
    },
    {
      "pitch": 62,
      "measure": 23,
      "beat": 0,
      "duration": 1,
      "velocity": 100,
      "pan": 0,
      "instrument": "ORG_D01",
      "pipi": 0,
      "volumeAutomation": [],
      "panAutomation": []
    },
    {
      "pitch": 62,
      "measure": 23,
      "beat": 2,
      "duration": 1,
      "velocity": 100,
      "pan": 0,
      "instrument": "ORG_D01",
      "pipi": 0,
      "volumeAutomation": [],
      "panAutomation": []
    },
    {
      "pitch": 135,
      "measure": 23,
      "beat": 4,
      "duration": 1,
      "velocity": 100,
      "pan": 0,
      "instrument": "ORG_D01",
      "pipi": 0,
      "volumeAutomation": [],
      "panAutomation": []
    },
    {
      "pitch": 135,
      "measure": 23,
      "beat": 8,
      "duration": 1,
      "velocity": 100,
      "pan": 0,
      "instrument": "ORG_D01",
      "pipi": 0,
      "volumeAutomation": [],
      "panAutomation": []
    },
    {
      "pitch": 135,
      "measure": 23,
      "beat": 12,
      "duration": 1,
      "velocity": 100,
      "pan": 0,
      "instrument": "ORG_D01",
      "pipi": 0,
      "volumeAutomation": [],
      "panAutomation": []
    },
    {
      "pitch": 65,
      "measure": 24,
      "beat": 0,
      "duration": 1,
      "velocity": 100,
      "pan": 66.66666666666667,
      "instrument": "ORG_D01",
      "pipi": 0,
      "volumeAutomation": [],
      "panAutomation": []
    },
    {
      "pitch": 65,
      "measure": 24,
      "beat": 2,
      "duration": 1,
      "velocity": 100,
      "pan": -66.66666666666667,
      "instrument": "ORG_D01",
      "pipi": 0,
      "volumeAutomation": [],
      "panAutomation": []
    },
    {
      "pitch": 135,
      "measure": 24,
      "beat": 4,
      "duration": 1,
      "velocity": 100,
      "pan": 0,
      "instrument": "ORG_D01",
      "pipi": 0,
      "volumeAutomation": [],
      "panAutomation": []
    },
    {
      "pitch": 73,
      "measure": 24,
      "beat": 7,
      "duration": 1,
      "velocity": 100,
      "pan": 0,
      "instrument": "ORG_D01",
      "pipi": 0,
      "volumeAutomation": [],
      "panAutomation": []
    },
    {
      "pitch": 65,
      "measure": 24,
      "beat": 8,
      "duration": 1,
      "velocity": 100,
      "pan": -66.66666666666667,
      "instrument": "ORG_D01",
      "pipi": 0,
      "volumeAutomation": [],
      "panAutomation": []
    },
    {
      "pitch": 65,
      "measure": 24,
      "beat": 10,
      "duration": 1,
      "velocity": 100,
      "pan": 66.66666666666667,
      "instrument": "ORG_D01",
      "pipi": 0,
      "volumeAutomation": [],
      "panAutomation": []
    },
    {
      "pitch": 135,
      "measure": 24,
      "beat": 12,
      "duration": 1,
      "velocity": 100,
      "pan": 0,
      "instrument": "ORG_D01",
      "pipi": 0,
      "volumeAutomation": [],
      "panAutomation": []
    },
    {
      "pitch": 73,
      "measure": 24,
      "beat": 15,
      "duration": 1,
      "velocity": 100,
      "pan": 0,
      "instrument": "ORG_D01",
      "pipi": 0,
      "volumeAutomation": [],
      "panAutomation": []
    },
    {
      "pitch": 62,
      "measure": 25,
      "beat": 0,
      "duration": 1,
      "velocity": 100,
      "pan": 0,
      "instrument": "ORG_D01",
      "pipi": 0,
      "volumeAutomation": [],
      "panAutomation": []
    },
    {
      "pitch": 62,
      "measure": 25,
      "beat": 2,
      "duration": 1,
      "velocity": 100,
      "pan": 0,
      "instrument": "ORG_D01",
      "pipi": 0,
      "volumeAutomation": [],
      "panAutomation": []
    },
    {
      "pitch": 135,
      "measure": 25,
      "beat": 4,
      "duration": 1,
      "velocity": 100,
      "pan": 0,
      "instrument": "ORG_D01",
      "pipi": 0,
      "volumeAutomation": [],
      "panAutomation": []
    },
    {
      "pitch": 135,
      "measure": 25,
      "beat": 12,
      "duration": 1,
      "velocity": 100,
      "pan": 0,
      "instrument": "ORG_D01",
      "pipi": 0,
      "volumeAutomation": [],
      "panAutomation": []
    },
    {
      "pitch": 65,
      "measure": 26,
      "beat": 0,
      "duration": 1,
      "velocity": 100,
      "pan": 66.66666666666667,
      "instrument": "ORG_D01",
      "pipi": 0,
      "volumeAutomation": [],
      "panAutomation": []
    },
    {
      "pitch": 65,
      "measure": 26,
      "beat": 2,
      "duration": 1,
      "velocity": 100,
      "pan": -66.66666666666667,
      "instrument": "ORG_D01",
      "pipi": 0,
      "volumeAutomation": [],
      "panAutomation": []
    },
    {
      "pitch": 135,
      "measure": 26,
      "beat": 4,
      "duration": 1,
      "velocity": 100,
      "pan": 0,
      "instrument": "ORG_D01",
      "pipi": 0,
      "volumeAutomation": [],
      "panAutomation": []
    },
    {
      "pitch": 73,
      "measure": 26,
      "beat": 7,
      "duration": 1,
      "velocity": 100,
      "pan": 0,
      "instrument": "ORG_D01",
      "pipi": 0,
      "volumeAutomation": [],
      "panAutomation": []
    },
    {
      "pitch": 65,
      "measure": 26,
      "beat": 8,
      "duration": 1,
      "velocity": 100,
      "pan": -66.66666666666667,
      "instrument": "ORG_D01",
      "pipi": 0,
      "volumeAutomation": [],
      "panAutomation": []
    },
    {
      "pitch": 65,
      "measure": 26,
      "beat": 10,
      "duration": 1,
      "velocity": 100,
      "pan": 66.66666666666667,
      "instrument": "ORG_D01",
      "pipi": 0,
      "volumeAutomation": [],
      "panAutomation": []
    },
    {
      "pitch": 135,
      "measure": 26,
      "beat": 12,
      "duration": 1,
      "velocity": 100,
      "pan": 0,
      "instrument": "ORG_D01",
      "pipi": 0,
      "volumeAutomation": [],
      "panAutomation": []
    },
    {
      "pitch": 73,
      "measure": 26,
      "beat": 15,
      "duration": 1,
      "velocity": 100,
      "pan": 0,
      "instrument": "ORG_D01",
      "pipi": 0,
      "volumeAutomation": [],
      "panAutomation": []
    },
    {
      "pitch": 89,
      "measure": 27,
      "beat": 0,
      "duration": 1,
      "velocity": 100,
      "pan": 0,
      "instrument": "ORG_D01",
      "pipi": 0,
      "volumeAutomation": [],
      "panAutomation": []
    },
    {
      "pitch": 89,
      "measure": 27,
      "beat": 2,
      "duration": 1,
      "velocity": 100,
      "pan": 0,
      "instrument": "ORG_D01",
      "pipi": 0,
      "volumeAutomation": [],
      "panAutomation": []
    },
    {
      "pitch": 135,
      "measure": 27,
      "beat": 8,
      "duration": 1,
      "velocity": 100,
      "pan": 0,
      "instrument": "ORG_D01",
      "pipi": 0,
      "volumeAutomation": [],
      "panAutomation": []
    },
    {
      "pitch": 135,
      "measure": 27,
      "beat": 10,
      "duration": 1,
      "velocity": 100,
      "pan": 0,
      "instrument": "ORG_D01",
      "pipi": 0,
      "volumeAutomation": [],
      "panAutomation": []
    },
    {
      "pitch": 135,
      "measure": 27,
      "beat": 12,
      "duration": 1,
      "velocity": 100,
      "pan": 0,
      "instrument": "ORG_D01",
      "pipi": 0,
      "volumeAutomation": [],
      "panAutomation": []
    },
    {
      "pitch": 135,
      "measure": 27,
      "beat": 14,
      "duration": 1,
      "velocity": 100,
      "pan": 0,
      "instrument": "ORG_D01",
      "pipi": 0,
      "volumeAutomation": [],
      "panAutomation": []
    },
    {
      "pitch": 135,
      "measure": 28,
      "beat": 4,
      "duration": 1,
      "velocity": 100,
      "pan": 0,
      "instrument": "ORG_D01",
      "pipi": 0,
      "volumeAutomation": [],
      "panAutomation": []
    },
    {
      "pitch": 135,
      "measure": 28,
      "beat": 7,
      "duration": 1,
      "velocity": 64,
      "pan": 0,
      "instrument": "ORG_D01",
      "pipi": 0,
      "volumeAutomation": [],
      "panAutomation": []
    },
    {
      "pitch": 135,
      "measure": 28,
      "beat": 12,
      "duration": 1,
      "velocity": 100,
      "pan": 0,
      "instrument": "ORG_D01",
      "pipi": 0,
      "volumeAutomation": [],
      "panAutomation": []
    },
    {
      "pitch": 135,
      "measure": 29,
      "beat": 4,
      "duration": 1,
      "velocity": 100,
      "pan": 0,
      "instrument": "ORG_D01",
      "pipi": 0,
      "volumeAutomation": [],
      "panAutomation": []
    },
    {
      "pitch": 135,
      "measure": 29,
      "beat": 7,
      "duration": 1,
      "velocity": 64,
      "pan": 0,
      "instrument": "ORG_D01",
      "pipi": 0,
      "volumeAutomation": [],
      "panAutomation": []
    },
    {
      "pitch": 135,
      "measure": 29,
      "beat": 12,
      "duration": 1,
      "velocity": 100,
      "pan": 0,
      "instrument": "ORG_D01",
      "pipi": 0,
      "volumeAutomation": [],
      "panAutomation": []
    },
    {
      "pitch": 135,
      "measure": 30,
      "beat": 4,
      "duration": 1,
      "velocity": 100,
      "pan": 0,
      "instrument": "ORG_D01",
      "pipi": 0,
      "volumeAutomation": [],
      "panAutomation": []
    },
    {
      "pitch": 135,
      "measure": 30,
      "beat": 7,
      "duration": 1,
      "velocity": 64,
      "pan": 0,
      "instrument": "ORG_D01",
      "pipi": 0,
      "volumeAutomation": [],
      "panAutomation": []
    },
    {
      "pitch": 135,
      "measure": 30,
      "beat": 12,
      "duration": 1,
      "velocity": 100,
      "pan": 0,
      "instrument": "ORG_D01",
      "pipi": 0,
      "volumeAutomation": [],
      "panAutomation": []
    },
    {
      "pitch": 135,
      "measure": 31,
      "beat": 4,
      "duration": 1,
      "velocity": 100,
      "pan": 0,
      "instrument": "ORG_D01",
      "pipi": 0,
      "volumeAutomation": [],
      "panAutomation": []
    },
    {
      "pitch": 135,
      "measure": 31,
      "beat": 7,
      "duration": 1,
      "velocity": 64,
      "pan": 0,
      "instrument": "ORG_D01",
      "pipi": 0,
      "volumeAutomation": [],
      "panAutomation": []
    },
    {
      "pitch": 135,
      "measure": 31,
      "beat": 12,
      "duration": 1,
      "velocity": 100,
      "pan": 0,
      "instrument": "ORG_D01",
      "pipi": 0,
      "volumeAutomation": [],
      "panAutomation": []
    },
    {
      "pitch": 135,
      "measure": 32,
      "beat": 4,
      "duration": 1,
      "velocity": 100,
      "pan": 0,
      "instrument": "ORG_D01",
      "pipi": 0,
      "volumeAutomation": [],
      "panAutomation": []
    },
    {
      "pitch": 135,
      "measure": 32,
      "beat": 7,
      "duration": 1,
      "velocity": 64,
      "pan": 0,
      "instrument": "ORG_D01",
      "pipi": 0,
      "volumeAutomation": [],
      "panAutomation": []
    },
    {
      "pitch": 135,
      "measure": 32,
      "beat": 12,
      "duration": 1,
      "velocity": 100,
      "pan": 0,
      "instrument": "ORG_D01",
      "pipi": 0,
      "volumeAutomation": [],
      "panAutomation": []
    },
    {
      "pitch": 135,
      "measure": 33,
      "beat": 4,
      "duration": 1,
      "velocity": 100,
      "pan": 0,
      "instrument": "ORG_D01",
      "pipi": 0,
      "volumeAutomation": [],
      "panAutomation": []
    },
    {
      "pitch": 135,
      "measure": 33,
      "beat": 7,
      "duration": 1,
      "velocity": 64,
      "pan": 0,
      "instrument": "ORG_D01",
      "pipi": 0,
      "volumeAutomation": [],
      "panAutomation": []
    },
    {
      "pitch": 135,
      "measure": 33,
      "beat": 12,
      "duration": 1,
      "velocity": 100,
      "pan": 0,
      "instrument": "ORG_D01",
      "pipi": 0,
      "volumeAutomation": [],
      "panAutomation": []
    },
    {
      "pitch": 135,
      "measure": 34,
      "beat": 4,
      "duration": 1,
      "velocity": 100,
      "pan": 0,
      "instrument": "ORG_D01",
      "pipi": 0,
      "volumeAutomation": [],
      "panAutomation": []
    },
    {
      "pitch": 135,
      "measure": 34,
      "beat": 7,
      "duration": 1,
      "velocity": 64,
      "pan": 0,
      "instrument": "ORG_D01",
      "pipi": 0,
      "volumeAutomation": [],
      "panAutomation": []
    },
    {
      "pitch": 135,
      "measure": 34,
      "beat": 12,
      "duration": 1,
      "velocity": 100,
      "pan": 0,
      "instrument": "ORG_D01",
      "pipi": 0,
      "volumeAutomation": [],
      "panAutomation": []
    },
    {
      "pitch": 135,
      "measure": 35,
      "beat": 4,
      "duration": 1,
      "velocity": 100,
      "pan": 0,
      "instrument": "ORG_D01",
      "pipi": 0,
      "volumeAutomation": [],
      "panAutomation": []
    },
    {
      "pitch": 135,
      "measure": 35,
      "beat": 7,
      "duration": 1,
      "velocity": 64,
      "pan": 0,
      "instrument": "ORG_D01",
      "pipi": 0,
      "volumeAutomation": [],
      "panAutomation": []
    },
    {
      "pitch": 111,
      "measure": 35,
      "beat": 12,
      "duration": 1,
      "velocity": 100,
      "pan": 0,
      "instrument": "ORG_D01",
      "pipi": 0,
      "volumeAutomation": [],
      "panAutomation": []
    },
    {
      "pitch": 135,
      "measure": 35,
      "beat": 14,
      "duration": 1,
      "velocity": 100,
      "pan": 0,
      "instrument": "ORG_D01",
      "pipi": 0,
      "volumeAutomation": [],
      "panAutomation": []
    },
    {
      "pitch": 135,
      "measure": 35,
      "beat": 15,
      "duration": 1,
      "velocity": 100,
      "pan": 0,
      "instrument": "ORG_D01",
      "pipi": 0,
      "volumeAutomation": [],
      "panAutomation": []
    },
    {
      "pitch": 135,
      "measure": 36,
      "beat": 4,
      "duration": 1,
      "velocity": 100,
      "pan": 0,
      "instrument": "ORG_D01",
      "pipi": 0,
      "volumeAutomation": [],
      "panAutomation": []
    },
    {
      "pitch": 135,
      "measure": 36,
      "beat": 7,
      "duration": 1,
      "velocity": 64,
      "pan": 0,
      "instrument": "ORG_D01",
      "pipi": 0,
      "volumeAutomation": [],
      "panAutomation": []
    },
    {
      "pitch": 135,
      "measure": 36,
      "beat": 12,
      "duration": 1,
      "velocity": 100,
      "pan": 0,
      "instrument": "ORG_D01",
      "pipi": 0,
      "volumeAutomation": [],
      "panAutomation": []
    },
    {
      "pitch": 135,
      "measure": 37,
      "beat": 4,
      "duration": 1,
      "velocity": 100,
      "pan": 0,
      "instrument": "ORG_D01",
      "pipi": 0,
      "volumeAutomation": [],
      "panAutomation": []
    },
    {
      "pitch": 135,
      "measure": 37,
      "beat": 7,
      "duration": 1,
      "velocity": 64,
      "pan": 0,
      "instrument": "ORG_D01",
      "pipi": 0,
      "volumeAutomation": [],
      "panAutomation": []
    },
    {
      "pitch": 135,
      "measure": 37,
      "beat": 12,
      "duration": 1,
      "velocity": 100,
      "pan": 0,
      "instrument": "ORG_D01",
      "pipi": 0,
      "volumeAutomation": [],
      "panAutomation": []
    },
    {
      "pitch": 135,
      "measure": 38,
      "beat": 4,
      "duration": 1,
      "velocity": 100,
      "pan": 0,
      "instrument": "ORG_D01",
      "pipi": 0,
      "volumeAutomation": [],
      "panAutomation": []
    },
    {
      "pitch": 135,
      "measure": 38,
      "beat": 7,
      "duration": 1,
      "velocity": 64,
      "pan": 0,
      "instrument": "ORG_D01",
      "pipi": 0,
      "volumeAutomation": [],
      "panAutomation": []
    },
    {
      "pitch": 135,
      "measure": 38,
      "beat": 12,
      "duration": 1,
      "velocity": 100,
      "pan": 0,
      "instrument": "ORG_D01",
      "pipi": 0,
      "volumeAutomation": [],
      "panAutomation": []
    },
    {
      "pitch": 135,
      "measure": 39,
      "beat": 2,
      "duration": 1,
      "velocity": 100,
      "pan": 0,
      "instrument": "ORG_D01",
      "pipi": 0,
      "volumeAutomation": [],
      "panAutomation": []
    },
    {
      "pitch": 135,
      "measure": 39,
      "beat": 6,
      "duration": 1,
      "velocity": 100,
      "pan": 0,
      "instrument": "ORG_D01",
      "pipi": 0,
      "volumeAutomation": [],
      "panAutomation": []
    },
    {
      "pitch": 135,
      "measure": 39,
      "beat": 10,
      "duration": 1,
      "velocity": 68,
      "pan": 0,
      "instrument": "ORG_D01",
      "pipi": 0,
      "volumeAutomation": [],
      "panAutomation": []
    },
    {
      "pitch": 135,
      "measure": 39,
      "beat": 11,
      "duration": 1,
      "velocity": 82,
      "pan": 0,
      "instrument": "ORG_D01",
      "pipi": 0,
      "volumeAutomation": [],
      "panAutomation": []
    },
    {
      "pitch": 135,
      "measure": 39,
      "beat": 12,
      "duration": 1,
      "velocity": 100,
      "pan": 0,
      "instrument": "ORG_D01",
      "pipi": 0,
      "volumeAutomation": [],
      "panAutomation": []
    },
    {
      "pitch": 135,
      "measure": 39,
      "beat": 14,
      "duration": 1,
      "velocity": 74,
      "pan": 0,
      "instrument": "ORG_D01",
      "pipi": 0,
      "volumeAutomation": [],
      "panAutomation": []
    },
    {
      "pitch": 135,
      "measure": 39,
      "beat": 15,
      "duration": 1,
      "velocity": 92,
      "pan": 0,
      "instrument": "ORG_D01",
      "pipi": 0,
      "volumeAutomation": [],
      "panAutomation": []
    },
    {
      "pitch": 135,
      "measure": 40,
      "beat": 4,
      "duration": 1,
      "velocity": 100,
      "pan": 0,
      "instrument": "ORG_D01",
      "pipi": 0,
      "volumeAutomation": [],
      "panAutomation": []
    },
    {
      "pitch": 135,
      "measure": 40,
      "beat": 7,
      "duration": 1,
      "velocity": 64,
      "pan": 0,
      "instrument": "ORG_D01",
      "pipi": 0,
      "volumeAutomation": [],
      "panAutomation": []
    },
    {
      "pitch": 135,
      "measure": 40,
      "beat": 12,
      "duration": 1,
      "velocity": 100,
      "pan": 0,
      "instrument": "ORG_D01",
      "pipi": 0,
      "volumeAutomation": [],
      "panAutomation": []
    },
    {
      "pitch": 135,
      "measure": 41,
      "beat": 4,
      "duration": 1,
      "velocity": 100,
      "pan": 0,
      "instrument": "ORG_D01",
      "pipi": 0,
      "volumeAutomation": [],
      "panAutomation": []
    },
    {
      "pitch": 135,
      "measure": 41,
      "beat": 7,
      "duration": 1,
      "velocity": 64,
      "pan": 0,
      "instrument": "ORG_D01",
      "pipi": 0,
      "volumeAutomation": [],
      "panAutomation": []
    },
    {
      "pitch": 135,
      "measure": 41,
      "beat": 12,
      "duration": 1,
      "velocity": 100,
      "pan": 0,
      "instrument": "ORG_D01",
      "pipi": 0,
      "volumeAutomation": [],
      "panAutomation": []
    },
    {
      "pitch": 135,
      "measure": 42,
      "beat": 4,
      "duration": 1,
      "velocity": 100,
      "pan": 0,
      "instrument": "ORG_D01",
      "pipi": 0,
      "volumeAutomation": [],
      "panAutomation": []
    },
    {
      "pitch": 135,
      "measure": 42,
      "beat": 7,
      "duration": 1,
      "velocity": 64,
      "pan": 0,
      "instrument": "ORG_D01",
      "pipi": 0,
      "volumeAutomation": [],
      "panAutomation": []
    },
    {
      "pitch": 135,
      "measure": 42,
      "beat": 12,
      "duration": 1,
      "velocity": 100,
      "pan": 0,
      "instrument": "ORG_D01",
      "pipi": 0,
      "volumeAutomation": [],
      "panAutomation": []
    },
    {
      "pitch": 135,
      "measure": 43,
      "beat": 0,
      "duration": 1,
      "velocity": 100,
      "pan": 0,
      "instrument": "ORG_D01",
      "pipi": 0,
      "volumeAutomation": [],
      "panAutomation": []
    },
    {
      "pitch": 135,
      "measure": 43,
      "beat": 10,
      "duration": 1,
      "velocity": 100,
      "pan": 0,
      "instrument": "ORG_D01",
      "pipi": 0,
      "volumeAutomation": [],
      "panAutomation": []
    },
    {
      "pitch": 135,
      "measure": 43,
      "beat": 11,
      "duration": 1,
      "velocity": 100,
      "pan": 0,
      "instrument": "ORG_D01",
      "pipi": 0,
      "volumeAutomation": [],
      "panAutomation": []
    },
    {
      "pitch": 135,
      "measure": 43,
      "beat": 14,
      "duration": 1,
      "velocity": 100,
      "pan": 0,
      "instrument": "ORG_D01",
      "pipi": 0,
      "volumeAutomation": [],
      "panAutomation": []
    },
    {
      "pitch": 135,
      "measure": 43,
      "beat": 15,
      "duration": 1,
      "velocity": 100,
      "pan": 0,
      "instrument": "ORG_D01",
      "pipi": 0,
      "volumeAutomation": [],
      "panAutomation": []
    },
    {
      "pitch": 135,
      "measure": 44,
      "beat": 4,
      "duration": 1,
      "velocity": 100,
      "pan": 0,
      "instrument": "ORG_D01",
      "pipi": 0,
      "volumeAutomation": [],
      "panAutomation": []
    },
    {
      "pitch": 135,
      "measure": 44,
      "beat": 7,
      "duration": 1,
      "velocity": 64,
      "pan": 0,
      "instrument": "ORG_D01",
      "pipi": 0,
      "volumeAutomation": [],
      "panAutomation": []
    },
    {
      "pitch": 135,
      "measure": 44,
      "beat": 12,
      "duration": 1,
      "velocity": 100,
      "pan": 0,
      "instrument": "ORG_D01",
      "pipi": 0,
      "volumeAutomation": [],
      "panAutomation": []
    },
    {
      "pitch": 135,
      "measure": 45,
      "beat": 4,
      "duration": 1,
      "velocity": 100,
      "pan": 0,
      "instrument": "ORG_D01",
      "pipi": 0,
      "volumeAutomation": [],
      "panAutomation": []
    },
    {
      "pitch": 135,
      "measure": 45,
      "beat": 7,
      "duration": 1,
      "velocity": 64,
      "pan": 0,
      "instrument": "ORG_D01",
      "pipi": 0,
      "volumeAutomation": [],
      "panAutomation": []
    },
    {
      "pitch": 135,
      "measure": 45,
      "beat": 12,
      "duration": 1,
      "velocity": 100,
      "pan": 0,
      "instrument": "ORG_D01",
      "pipi": 0,
      "volumeAutomation": [],
      "panAutomation": []
    },
    {
      "pitch": 135,
      "measure": 46,
      "beat": 4,
      "duration": 1,
      "velocity": 100,
      "pan": 0,
      "instrument": "ORG_D01",
      "pipi": 0,
      "volumeAutomation": [],
      "panAutomation": []
    },
    {
      "pitch": 135,
      "measure": 46,
      "beat": 7,
      "duration": 1,
      "velocity": 64,
      "pan": 0,
      "instrument": "ORG_D01",
      "pipi": 0,
      "volumeAutomation": [],
      "panAutomation": []
    },
    {
      "pitch": 135,
      "measure": 46,
      "beat": 12,
      "duration": 1,
      "velocity": 100,
      "pan": 0,
      "instrument": "ORG_D01",
      "pipi": 0,
      "volumeAutomation": [],
      "panAutomation": []
    },
    {
      "pitch": 135,
      "measure": 47,
      "beat": 0,
      "duration": 1,
      "velocity": 100,
      "pan": 0,
      "instrument": "ORG_D01",
      "pipi": 0,
      "volumeAutomation": [],
      "panAutomation": []
    },
    {
      "pitch": 135,
      "measure": 47,
      "beat": 10,
      "duration": 1,
      "velocity": 100,
      "pan": 0,
      "instrument": "ORG_D01",
      "pipi": 0,
      "volumeAutomation": [],
      "panAutomation": []
    },
    {
      "pitch": 135,
      "measure": 47,
      "beat": 11,
      "duration": 1,
      "velocity": 100,
      "pan": 0,
      "instrument": "ORG_D01",
      "pipi": 0,
      "volumeAutomation": [],
      "panAutomation": []
    },
    {
      "pitch": 135,
      "measure": 47,
      "beat": 14,
      "duration": 1,
      "velocity": 100,
      "pan": 0,
      "instrument": "ORG_D01",
      "pipi": 0,
      "volumeAutomation": [],
      "panAutomation": []
    },
    {
      "pitch": 135,
      "measure": 47,
      "beat": 15,
      "duration": 1,
      "velocity": 100,
      "pan": 0,
      "instrument": "ORG_D01",
      "pipi": 0,
      "volumeAutomation": [],
      "panAutomation": []
    },
    {
      "pitch": 73,
      "measure": 0,
      "beat": 0,
      "duration": 1,
      "velocity": 100,
      "pan": 0,
      "instrument": "ORG_D02",
      "pipi": 0,
      "volumeAutomation": [],
      "panAutomation": []
    },
    {
      "pitch": 73,
      "measure": 0,
      "beat": 2,
      "duration": 1,
      "velocity": 66,
      "pan": 0,
      "instrument": "ORG_D02",
      "pipi": 0,
      "volumeAutomation": [],
      "panAutomation": []
    },
    {
      "pitch": 73,
      "measure": 0,
      "beat": 6,
      "duration": 1,
      "velocity": 66,
      "pan": 0,
      "instrument": "ORG_D02",
      "pipi": 0,
      "volumeAutomation": [],
      "panAutomation": []
    },
    {
      "pitch": 73,
      "measure": 0,
      "beat": 7,
      "duration": 1,
      "velocity": 46,
      "pan": 0,
      "instrument": "ORG_D02",
      "pipi": 0,
      "volumeAutomation": [],
      "panAutomation": []
    },
    {
      "pitch": 73,
      "measure": 0,
      "beat": 8,
      "duration": 1,
      "velocity": 100,
      "pan": 0,
      "instrument": "ORG_D02",
      "pipi": 0,
      "volumeAutomation": [],
      "panAutomation": []
    },
    {
      "pitch": 73,
      "measure": 0,
      "beat": 10,
      "duration": 1,
      "velocity": 68,
      "pan": 0,
      "instrument": "ORG_D02",
      "pipi": 0,
      "volumeAutomation": [],
      "panAutomation": []
    },
    {
      "pitch": 73,
      "measure": 0,
      "beat": 14,
      "duration": 1,
      "velocity": 66,
      "pan": 0,
      "instrument": "ORG_D02",
      "pipi": 0,
      "volumeAutomation": [],
      "panAutomation": []
    },
    {
      "pitch": 73,
      "measure": 1,
      "beat": 0,
      "duration": 1,
      "velocity": 100,
      "pan": 0,
      "instrument": "ORG_D02",
      "pipi": 0,
      "volumeAutomation": [],
      "panAutomation": []
    },
    {
      "pitch": 73,
      "measure": 1,
      "beat": 2,
      "duration": 1,
      "velocity": 68,
      "pan": 0,
      "instrument": "ORG_D02",
      "pipi": 0,
      "volumeAutomation": [],
      "panAutomation": []
    },
    {
      "pitch": 73,
      "measure": 1,
      "beat": 6,
      "duration": 1,
      "velocity": 68,
      "pan": 0,
      "instrument": "ORG_D02",
      "pipi": 0,
      "volumeAutomation": [],
      "panAutomation": []
    },
    {
      "pitch": 73,
      "measure": 1,
      "beat": 8,
      "duration": 1,
      "velocity": 100,
      "pan": 0,
      "instrument": "ORG_D02",
      "pipi": 0,
      "volumeAutomation": [],
      "panAutomation": []
    },
    {
      "pitch": 73,
      "measure": 1,
      "beat": 10,
      "duration": 1,
      "velocity": 66,
      "pan": 0,
      "instrument": "ORG_D02",
      "pipi": 0,
      "volumeAutomation": [],
      "panAutomation": []
    },
    {
      "pitch": 73,
      "measure": 1,
      "beat": 14,
      "duration": 1,
      "velocity": 68,
      "pan": 0,
      "instrument": "ORG_D02",
      "pipi": 0,
      "volumeAutomation": [],
      "panAutomation": []
    },
    {
      "pitch": 73,
      "measure": 2,
      "beat": 0,
      "duration": 1,
      "velocity": 100,
      "pan": 0,
      "instrument": "ORG_D02",
      "pipi": 0,
      "volumeAutomation": [],
      "panAutomation": []
    },
    {
      "pitch": 73,
      "measure": 2,
      "beat": 2,
      "duration": 1,
      "velocity": 66,
      "pan": 0,
      "instrument": "ORG_D02",
      "pipi": 0,
      "volumeAutomation": [],
      "panAutomation": []
    },
    {
      "pitch": 73,
      "measure": 2,
      "beat": 6,
      "duration": 1,
      "velocity": 66,
      "pan": 0,
      "instrument": "ORG_D02",
      "pipi": 0,
      "volumeAutomation": [],
      "panAutomation": []
    },
    {
      "pitch": 73,
      "measure": 2,
      "beat": 7,
      "duration": 1,
      "velocity": 46,
      "pan": 0,
      "instrument": "ORG_D02",
      "pipi": 0,
      "volumeAutomation": [],
      "panAutomation": []
    },
    {
      "pitch": 73,
      "measure": 2,
      "beat": 8,
      "duration": 1,
      "velocity": 100,
      "pan": 0,
      "instrument": "ORG_D02",
      "pipi": 0,
      "volumeAutomation": [],
      "panAutomation": []
    },
    {
      "pitch": 73,
      "measure": 2,
      "beat": 10,
      "duration": 1,
      "velocity": 68,
      "pan": 0,
      "instrument": "ORG_D02",
      "pipi": 0,
      "volumeAutomation": [],
      "panAutomation": []
    },
    {
      "pitch": 73,
      "measure": 2,
      "beat": 14,
      "duration": 1,
      "velocity": 66,
      "pan": 0,
      "instrument": "ORG_D02",
      "pipi": 0,
      "volumeAutomation": [],
      "panAutomation": []
    },
    {
      "pitch": 73,
      "measure": 3,
      "beat": 0,
      "duration": 1,
      "velocity": 100,
      "pan": 0,
      "instrument": "ORG_D02",
      "pipi": 0,
      "volumeAutomation": [],
      "panAutomation": []
    },
    {
      "pitch": 73,
      "measure": 3,
      "beat": 2,
      "duration": 1,
      "velocity": 68,
      "pan": 0,
      "instrument": "ORG_D02",
      "pipi": 0,
      "volumeAutomation": [],
      "panAutomation": []
    },
    {
      "pitch": 73,
      "measure": 3,
      "beat": 6,
      "duration": 1,
      "velocity": 68,
      "pan": 0,
      "instrument": "ORG_D02",
      "pipi": 0,
      "volumeAutomation": [],
      "panAutomation": []
    },
    {
      "pitch": 73,
      "measure": 3,
      "beat": 8,
      "duration": 1,
      "velocity": 100,
      "pan": 0,
      "instrument": "ORG_D02",
      "pipi": 0,
      "volumeAutomation": [],
      "panAutomation": []
    },
    {
      "pitch": 73,
      "measure": 3,
      "beat": 10,
      "duration": 1,
      "velocity": 66,
      "pan": 0,
      "instrument": "ORG_D02",
      "pipi": 0,
      "volumeAutomation": [],
      "panAutomation": []
    },
    {
      "pitch": 73,
      "measure": 3,
      "beat": 14,
      "duration": 1,
      "velocity": 68,
      "pan": 0,
      "instrument": "ORG_D02",
      "pipi": 0,
      "volumeAutomation": [],
      "panAutomation": []
    },
    {
      "pitch": 73,
      "measure": 4,
      "beat": 0,
      "duration": 1,
      "velocity": 100,
      "pan": 0,
      "instrument": "ORG_D02",
      "pipi": 0,
      "volumeAutomation": [],
      "panAutomation": []
    },
    {
      "pitch": 73,
      "measure": 4,
      "beat": 2,
      "duration": 1,
      "velocity": 66,
      "pan": 0,
      "instrument": "ORG_D02",
      "pipi": 0,
      "volumeAutomation": [],
      "panAutomation": []
    },
    {
      "pitch": 73,
      "measure": 4,
      "beat": 6,
      "duration": 1,
      "velocity": 66,
      "pan": 0,
      "instrument": "ORG_D02",
      "pipi": 0,
      "volumeAutomation": [],
      "panAutomation": []
    },
    {
      "pitch": 73,
      "measure": 4,
      "beat": 7,
      "duration": 1,
      "velocity": 46,
      "pan": 0,
      "instrument": "ORG_D02",
      "pipi": 0,
      "volumeAutomation": [],
      "panAutomation": []
    },
    {
      "pitch": 73,
      "measure": 4,
      "beat": 8,
      "duration": 1,
      "velocity": 100,
      "pan": 0,
      "instrument": "ORG_D02",
      "pipi": 0,
      "volumeAutomation": [],
      "panAutomation": []
    },
    {
      "pitch": 73,
      "measure": 4,
      "beat": 10,
      "duration": 1,
      "velocity": 68,
      "pan": 0,
      "instrument": "ORG_D02",
      "pipi": 0,
      "volumeAutomation": [],
      "panAutomation": []
    },
    {
      "pitch": 73,
      "measure": 4,
      "beat": 14,
      "duration": 1,
      "velocity": 66,
      "pan": 0,
      "instrument": "ORG_D02",
      "pipi": 0,
      "volumeAutomation": [],
      "panAutomation": []
    },
    {
      "pitch": 73,
      "measure": 5,
      "beat": 0,
      "duration": 1,
      "velocity": 100,
      "pan": 0,
      "instrument": "ORG_D02",
      "pipi": 0,
      "volumeAutomation": [],
      "panAutomation": []
    },
    {
      "pitch": 73,
      "measure": 5,
      "beat": 2,
      "duration": 1,
      "velocity": 68,
      "pan": 0,
      "instrument": "ORG_D02",
      "pipi": 0,
      "volumeAutomation": [],
      "panAutomation": []
    },
    {
      "pitch": 73,
      "measure": 5,
      "beat": 6,
      "duration": 1,
      "velocity": 68,
      "pan": 0,
      "instrument": "ORG_D02",
      "pipi": 0,
      "volumeAutomation": [],
      "panAutomation": []
    },
    {
      "pitch": 73,
      "measure": 5,
      "beat": 8,
      "duration": 1,
      "velocity": 100,
      "pan": 0,
      "instrument": "ORG_D02",
      "pipi": 0,
      "volumeAutomation": [],
      "panAutomation": []
    },
    {
      "pitch": 73,
      "measure": 5,
      "beat": 10,
      "duration": 1,
      "velocity": 66,
      "pan": 0,
      "instrument": "ORG_D02",
      "pipi": 0,
      "volumeAutomation": [],
      "panAutomation": []
    },
    {
      "pitch": 73,
      "measure": 5,
      "beat": 14,
      "duration": 1,
      "velocity": 68,
      "pan": 0,
      "instrument": "ORG_D02",
      "pipi": 0,
      "volumeAutomation": [],
      "panAutomation": []
    },
    {
      "pitch": 73,
      "measure": 6,
      "beat": 0,
      "duration": 1,
      "velocity": 100,
      "pan": 0,
      "instrument": "ORG_D02",
      "pipi": 0,
      "volumeAutomation": [],
      "panAutomation": []
    },
    {
      "pitch": 73,
      "measure": 6,
      "beat": 2,
      "duration": 1,
      "velocity": 66,
      "pan": 0,
      "instrument": "ORG_D02",
      "pipi": 0,
      "volumeAutomation": [],
      "panAutomation": []
    },
    {
      "pitch": 73,
      "measure": 6,
      "beat": 6,
      "duration": 1,
      "velocity": 66,
      "pan": 0,
      "instrument": "ORG_D02",
      "pipi": 0,
      "volumeAutomation": [],
      "panAutomation": []
    },
    {
      "pitch": 73,
      "measure": 6,
      "beat": 7,
      "duration": 1,
      "velocity": 46,
      "pan": 0,
      "instrument": "ORG_D02",
      "pipi": 0,
      "volumeAutomation": [],
      "panAutomation": []
    },
    {
      "pitch": 73,
      "measure": 6,
      "beat": 8,
      "duration": 1,
      "velocity": 100,
      "pan": 0,
      "instrument": "ORG_D02",
      "pipi": 0,
      "volumeAutomation": [],
      "panAutomation": []
    },
    {
      "pitch": 73,
      "measure": 6,
      "beat": 10,
      "duration": 1,
      "velocity": 68,
      "pan": 0,
      "instrument": "ORG_D02",
      "pipi": 0,
      "volumeAutomation": [],
      "panAutomation": []
    },
    {
      "pitch": 73,
      "measure": 6,
      "beat": 14,
      "duration": 1,
      "velocity": 66,
      "pan": 0,
      "instrument": "ORG_D02",
      "pipi": 0,
      "volumeAutomation": [],
      "panAutomation": []
    },
    {
      "pitch": 73,
      "measure": 7,
      "beat": 0,
      "duration": 1,
      "velocity": 100,
      "pan": 0,
      "instrument": "ORG_D02",
      "pipi": 0,
      "volumeAutomation": [],
      "panAutomation": []
    },
    {
      "pitch": 73,
      "measure": 7,
      "beat": 2,
      "duration": 1,
      "velocity": 68,
      "pan": 0,
      "instrument": "ORG_D02",
      "pipi": 0,
      "volumeAutomation": [],
      "panAutomation": []
    },
    {
      "pitch": 73,
      "measure": 7,
      "beat": 6,
      "duration": 1,
      "velocity": 68,
      "pan": 0,
      "instrument": "ORG_D02",
      "pipi": 0,
      "volumeAutomation": [],
      "panAutomation": []
    },
    {
      "pitch": 73,
      "measure": 7,
      "beat": 8,
      "duration": 1,
      "velocity": 100,
      "pan": 0,
      "instrument": "ORG_D02",
      "pipi": 0,
      "volumeAutomation": [],
      "panAutomation": []
    },
    {
      "pitch": 73,
      "measure": 7,
      "beat": 10,
      "duration": 1,
      "velocity": 66,
      "pan": 0,
      "instrument": "ORG_D02",
      "pipi": 0,
      "volumeAutomation": [],
      "panAutomation": []
    },
    {
      "pitch": 73,
      "measure": 7,
      "beat": 14,
      "duration": 1,
      "velocity": 68,
      "pan": 0,
      "instrument": "ORG_D02",
      "pipi": 0,
      "volumeAutomation": [],
      "panAutomation": []
    },
    {
      "pitch": 73,
      "measure": 8,
      "beat": 0,
      "duration": 1,
      "velocity": 100,
      "pan": 0,
      "instrument": "ORG_D02",
      "pipi": 0,
      "volumeAutomation": [],
      "panAutomation": []
    },
    {
      "pitch": 73,
      "measure": 8,
      "beat": 2,
      "duration": 1,
      "velocity": 66,
      "pan": 0,
      "instrument": "ORG_D02",
      "pipi": 0,
      "volumeAutomation": [],
      "panAutomation": []
    },
    {
      "pitch": 73,
      "measure": 8,
      "beat": 6,
      "duration": 1,
      "velocity": 66,
      "pan": 0,
      "instrument": "ORG_D02",
      "pipi": 0,
      "volumeAutomation": [],
      "panAutomation": []
    },
    {
      "pitch": 73,
      "measure": 8,
      "beat": 7,
      "duration": 1,
      "velocity": 46,
      "pan": 0,
      "instrument": "ORG_D02",
      "pipi": 0,
      "volumeAutomation": [],
      "panAutomation": []
    },
    {
      "pitch": 73,
      "measure": 8,
      "beat": 8,
      "duration": 1,
      "velocity": 100,
      "pan": 0,
      "instrument": "ORG_D02",
      "pipi": 0,
      "volumeAutomation": [],
      "panAutomation": []
    },
    {
      "pitch": 73,
      "measure": 8,
      "beat": 10,
      "duration": 1,
      "velocity": 68,
      "pan": 0,
      "instrument": "ORG_D02",
      "pipi": 0,
      "volumeAutomation": [],
      "panAutomation": []
    },
    {
      "pitch": 73,
      "measure": 8,
      "beat": 14,
      "duration": 1,
      "velocity": 66,
      "pan": 0,
      "instrument": "ORG_D02",
      "pipi": 0,
      "volumeAutomation": [],
      "panAutomation": []
    },
    {
      "pitch": 73,
      "measure": 9,
      "beat": 0,
      "duration": 1,
      "velocity": 100,
      "pan": 0,
      "instrument": "ORG_D02",
      "pipi": 0,
      "volumeAutomation": [],
      "panAutomation": []
    },
    {
      "pitch": 73,
      "measure": 9,
      "beat": 2,
      "duration": 1,
      "velocity": 68,
      "pan": 0,
      "instrument": "ORG_D02",
      "pipi": 0,
      "volumeAutomation": [],
      "panAutomation": []
    },
    {
      "pitch": 73,
      "measure": 9,
      "beat": 6,
      "duration": 1,
      "velocity": 68,
      "pan": 0,
      "instrument": "ORG_D02",
      "pipi": 0,
      "volumeAutomation": [],
      "panAutomation": []
    },
    {
      "pitch": 73,
      "measure": 9,
      "beat": 8,
      "duration": 1,
      "velocity": 100,
      "pan": 0,
      "instrument": "ORG_D02",
      "pipi": 0,
      "volumeAutomation": [],
      "panAutomation": []
    },
    {
      "pitch": 73,
      "measure": 9,
      "beat": 10,
      "duration": 1,
      "velocity": 66,
      "pan": 0,
      "instrument": "ORG_D02",
      "pipi": 0,
      "volumeAutomation": [],
      "panAutomation": []
    },
    {
      "pitch": 73,
      "measure": 9,
      "beat": 14,
      "duration": 1,
      "velocity": 68,
      "pan": 0,
      "instrument": "ORG_D02",
      "pipi": 0,
      "volumeAutomation": [],
      "panAutomation": []
    },
    {
      "pitch": 73,
      "measure": 10,
      "beat": 0,
      "duration": 1,
      "velocity": 100,
      "pan": 0,
      "instrument": "ORG_D02",
      "pipi": 0,
      "volumeAutomation": [],
      "panAutomation": []
    },
    {
      "pitch": 73,
      "measure": 10,
      "beat": 2,
      "duration": 1,
      "velocity": 66,
      "pan": 0,
      "instrument": "ORG_D02",
      "pipi": 0,
      "volumeAutomation": [],
      "panAutomation": []
    },
    {
      "pitch": 73,
      "measure": 10,
      "beat": 6,
      "duration": 1,
      "velocity": 66,
      "pan": 0,
      "instrument": "ORG_D02",
      "pipi": 0,
      "volumeAutomation": [],
      "panAutomation": []
    },
    {
      "pitch": 73,
      "measure": 10,
      "beat": 7,
      "duration": 1,
      "velocity": 46,
      "pan": 0,
      "instrument": "ORG_D02",
      "pipi": 0,
      "volumeAutomation": [],
      "panAutomation": []
    },
    {
      "pitch": 73,
      "measure": 10,
      "beat": 8,
      "duration": 1,
      "velocity": 100,
      "pan": 0,
      "instrument": "ORG_D02",
      "pipi": 0,
      "volumeAutomation": [],
      "panAutomation": []
    },
    {
      "pitch": 73,
      "measure": 10,
      "beat": 10,
      "duration": 1,
      "velocity": 68,
      "pan": 0,
      "instrument": "ORG_D02",
      "pipi": 0,
      "volumeAutomation": [],
      "panAutomation": []
    },
    {
      "pitch": 73,
      "measure": 10,
      "beat": 14,
      "duration": 1,
      "velocity": 66,
      "pan": 0,
      "instrument": "ORG_D02",
      "pipi": 0,
      "volumeAutomation": [],
      "panAutomation": []
    },
    {
      "pitch": 73,
      "measure": 11,
      "beat": 0,
      "duration": 1,
      "velocity": 100,
      "pan": 0,
      "instrument": "ORG_D02",
      "pipi": 0,
      "volumeAutomation": [],
      "panAutomation": []
    },
    {
      "pitch": 73,
      "measure": 11,
      "beat": 2,
      "duration": 1,
      "velocity": 68,
      "pan": 0,
      "instrument": "ORG_D02",
      "pipi": 0,
      "volumeAutomation": [],
      "panAutomation": []
    },
    {
      "pitch": 73,
      "measure": 11,
      "beat": 6,
      "duration": 1,
      "velocity": 68,
      "pan": 0,
      "instrument": "ORG_D02",
      "pipi": 0,
      "volumeAutomation": [],
      "panAutomation": []
    },
    {
      "pitch": 73,
      "measure": 11,
      "beat": 8,
      "duration": 1,
      "velocity": 100,
      "pan": 0,
      "instrument": "ORG_D02",
      "pipi": 0,
      "volumeAutomation": [],
      "panAutomation": []
    },
    {
      "pitch": 73,
      "measure": 11,
      "beat": 10,
      "duration": 1,
      "velocity": 66,
      "pan": 0,
      "instrument": "ORG_D02",
      "pipi": 0,
      "volumeAutomation": [],
      "panAutomation": []
    },
    {
      "pitch": 73,
      "measure": 11,
      "beat": 14,
      "duration": 1,
      "velocity": 68,
      "pan": 0,
      "instrument": "ORG_D02",
      "pipi": 0,
      "volumeAutomation": [],
      "panAutomation": []
    },
    {
      "pitch": 73,
      "measure": 12,
      "beat": 0,
      "duration": 1,
      "velocity": 100,
      "pan": 0,
      "instrument": "ORG_D02",
      "pipi": 0,
      "volumeAutomation": [],
      "panAutomation": []
    },
    {
      "pitch": 73,
      "measure": 12,
      "beat": 2,
      "duration": 1,
      "velocity": 66,
      "pan": 0,
      "instrument": "ORG_D02",
      "pipi": 0,
      "volumeAutomation": [],
      "panAutomation": []
    },
    {
      "pitch": 73,
      "measure": 12,
      "beat": 6,
      "duration": 1,
      "velocity": 66,
      "pan": 0,
      "instrument": "ORG_D02",
      "pipi": 0,
      "volumeAutomation": [],
      "panAutomation": []
    },
    {
      "pitch": 73,
      "measure": 12,
      "beat": 7,
      "duration": 1,
      "velocity": 46,
      "pan": 0,
      "instrument": "ORG_D02",
      "pipi": 0,
      "volumeAutomation": [],
      "panAutomation": []
    },
    {
      "pitch": 73,
      "measure": 12,
      "beat": 8,
      "duration": 1,
      "velocity": 100,
      "pan": 0,
      "instrument": "ORG_D02",
      "pipi": 0,
      "volumeAutomation": [],
      "panAutomation": []
    },
    {
      "pitch": 73,
      "measure": 12,
      "beat": 10,
      "duration": 1,
      "velocity": 68,
      "pan": 0,
      "instrument": "ORG_D02",
      "pipi": 0,
      "volumeAutomation": [],
      "panAutomation": []
    },
    {
      "pitch": 73,
      "measure": 12,
      "beat": 14,
      "duration": 1,
      "velocity": 66,
      "pan": 0,
      "instrument": "ORG_D02",
      "pipi": 0,
      "volumeAutomation": [],
      "panAutomation": []
    },
    {
      "pitch": 73,
      "measure": 13,
      "beat": 0,
      "duration": 1,
      "velocity": 100,
      "pan": 0,
      "instrument": "ORG_D02",
      "pipi": 0,
      "volumeAutomation": [],
      "panAutomation": []
    },
    {
      "pitch": 73,
      "measure": 13,
      "beat": 2,
      "duration": 1,
      "velocity": 68,
      "pan": 0,
      "instrument": "ORG_D02",
      "pipi": 0,
      "volumeAutomation": [],
      "panAutomation": []
    },
    {
      "pitch": 73,
      "measure": 13,
      "beat": 6,
      "duration": 1,
      "velocity": 68,
      "pan": 0,
      "instrument": "ORG_D02",
      "pipi": 0,
      "volumeAutomation": [],
      "panAutomation": []
    },
    {
      "pitch": 73,
      "measure": 13,
      "beat": 8,
      "duration": 1,
      "velocity": 100,
      "pan": 0,
      "instrument": "ORG_D02",
      "pipi": 0,
      "volumeAutomation": [],
      "panAutomation": []
    },
    {
      "pitch": 73,
      "measure": 13,
      "beat": 10,
      "duration": 1,
      "velocity": 66,
      "pan": 0,
      "instrument": "ORG_D02",
      "pipi": 0,
      "volumeAutomation": [],
      "panAutomation": []
    },
    {
      "pitch": 73,
      "measure": 13,
      "beat": 14,
      "duration": 1,
      "velocity": 68,
      "pan": 0,
      "instrument": "ORG_D02",
      "pipi": 0,
      "volumeAutomation": [],
      "panAutomation": []
    },
    {
      "pitch": 73,
      "measure": 14,
      "beat": 0,
      "duration": 1,
      "velocity": 100,
      "pan": 0,
      "instrument": "ORG_D02",
      "pipi": 0,
      "volumeAutomation": [],
      "panAutomation": []
    },
    {
      "pitch": 73,
      "measure": 14,
      "beat": 2,
      "duration": 1,
      "velocity": 66,
      "pan": 0,
      "instrument": "ORG_D02",
      "pipi": 0,
      "volumeAutomation": [],
      "panAutomation": []
    },
    {
      "pitch": 73,
      "measure": 14,
      "beat": 6,
      "duration": 1,
      "velocity": 66,
      "pan": 0,
      "instrument": "ORG_D02",
      "pipi": 0,
      "volumeAutomation": [],
      "panAutomation": []
    },
    {
      "pitch": 73,
      "measure": 14,
      "beat": 7,
      "duration": 1,
      "velocity": 46,
      "pan": 0,
      "instrument": "ORG_D02",
      "pipi": 0,
      "volumeAutomation": [],
      "panAutomation": []
    },
    {
      "pitch": 73,
      "measure": 14,
      "beat": 8,
      "duration": 1,
      "velocity": 100,
      "pan": 0,
      "instrument": "ORG_D02",
      "pipi": 0,
      "volumeAutomation": [],
      "panAutomation": []
    },
    {
      "pitch": 73,
      "measure": 14,
      "beat": 10,
      "duration": 1,
      "velocity": 68,
      "pan": 0,
      "instrument": "ORG_D02",
      "pipi": 0,
      "volumeAutomation": [],
      "panAutomation": []
    },
    {
      "pitch": 73,
      "measure": 14,
      "beat": 14,
      "duration": 1,
      "velocity": 66,
      "pan": 0,
      "instrument": "ORG_D02",
      "pipi": 0,
      "volumeAutomation": [],
      "panAutomation": []
    },
    {
      "pitch": 73,
      "measure": 15,
      "beat": 0,
      "duration": 1,
      "velocity": 100,
      "pan": 0,
      "instrument": "ORG_D02",
      "pipi": 0,
      "volumeAutomation": [],
      "panAutomation": []
    },
    {
      "pitch": 73,
      "measure": 15,
      "beat": 2,
      "duration": 1,
      "velocity": 68,
      "pan": 0,
      "instrument": "ORG_D02",
      "pipi": 0,
      "volumeAutomation": [],
      "panAutomation": []
    },
    {
      "pitch": 73,
      "measure": 15,
      "beat": 6,
      "duration": 1,
      "velocity": 68,
      "pan": 0,
      "instrument": "ORG_D02",
      "pipi": 0,
      "volumeAutomation": [],
      "panAutomation": []
    },
    {
      "pitch": 73,
      "measure": 15,
      "beat": 8,
      "duration": 1,
      "velocity": 100,
      "pan": 0,
      "instrument": "ORG_D02",
      "pipi": 0,
      "volumeAutomation": [],
      "panAutomation": []
    },
    {
      "pitch": 73,
      "measure": 15,
      "beat": 10,
      "duration": 1,
      "velocity": 66,
      "pan": 0,
      "instrument": "ORG_D02",
      "pipi": 0,
      "volumeAutomation": [],
      "panAutomation": []
    },
    {
      "pitch": 73,
      "measure": 15,
      "beat": 14,
      "duration": 1,
      "velocity": 68,
      "pan": 0,
      "instrument": "ORG_D02",
      "pipi": 0,
      "volumeAutomation": [],
      "panAutomation": []
    },
    {
      "pitch": 73,
      "measure": 16,
      "beat": 0,
      "duration": 1,
      "velocity": 100,
      "pan": 0,
      "instrument": "ORG_D02",
      "pipi": 0,
      "volumeAutomation": [],
      "panAutomation": []
    },
    {
      "pitch": 73,
      "measure": 16,
      "beat": 2,
      "duration": 1,
      "velocity": 66,
      "pan": 0,
      "instrument": "ORG_D02",
      "pipi": 0,
      "volumeAutomation": [],
      "panAutomation": []
    },
    {
      "pitch": 73,
      "measure": 16,
      "beat": 6,
      "duration": 1,
      "velocity": 66,
      "pan": 0,
      "instrument": "ORG_D02",
      "pipi": 0,
      "volumeAutomation": [],
      "panAutomation": []
    },
    {
      "pitch": 73,
      "measure": 16,
      "beat": 7,
      "duration": 1,
      "velocity": 46,
      "pan": 0,
      "instrument": "ORG_D02",
      "pipi": 0,
      "volumeAutomation": [],
      "panAutomation": []
    },
    {
      "pitch": 73,
      "measure": 16,
      "beat": 8,
      "duration": 1,
      "velocity": 100,
      "pan": 0,
      "instrument": "ORG_D02",
      "pipi": 0,
      "volumeAutomation": [],
      "panAutomation": []
    },
    {
      "pitch": 73,
      "measure": 16,
      "beat": 10,
      "duration": 1,
      "velocity": 68,
      "pan": 0,
      "instrument": "ORG_D02",
      "pipi": 0,
      "volumeAutomation": [],
      "panAutomation": []
    },
    {
      "pitch": 73,
      "measure": 16,
      "beat": 14,
      "duration": 1,
      "velocity": 66,
      "pan": 0,
      "instrument": "ORG_D02",
      "pipi": 0,
      "volumeAutomation": [],
      "panAutomation": []
    },
    {
      "pitch": 73,
      "measure": 17,
      "beat": 0,
      "duration": 1,
      "velocity": 100,
      "pan": 0,
      "instrument": "ORG_D02",
      "pipi": 0,
      "volumeAutomation": [],
      "panAutomation": []
    },
    {
      "pitch": 73,
      "measure": 17,
      "beat": 2,
      "duration": 1,
      "velocity": 68,
      "pan": 0,
      "instrument": "ORG_D02",
      "pipi": 0,
      "volumeAutomation": [],
      "panAutomation": []
    },
    {
      "pitch": 73,
      "measure": 17,
      "beat": 6,
      "duration": 1,
      "velocity": 68,
      "pan": 0,
      "instrument": "ORG_D02",
      "pipi": 0,
      "volumeAutomation": [],
      "panAutomation": []
    },
    {
      "pitch": 73,
      "measure": 17,
      "beat": 8,
      "duration": 1,
      "velocity": 100,
      "pan": 0,
      "instrument": "ORG_D02",
      "pipi": 0,
      "volumeAutomation": [],
      "panAutomation": []
    },
    {
      "pitch": 73,
      "measure": 17,
      "beat": 10,
      "duration": 1,
      "velocity": 66,
      "pan": 0,
      "instrument": "ORG_D02",
      "pipi": 0,
      "volumeAutomation": [],
      "panAutomation": []
    },
    {
      "pitch": 73,
      "measure": 17,
      "beat": 14,
      "duration": 1,
      "velocity": 68,
      "pan": 0,
      "instrument": "ORG_D02",
      "pipi": 0,
      "volumeAutomation": [],
      "panAutomation": []
    },
    {
      "pitch": 73,
      "measure": 18,
      "beat": 0,
      "duration": 1,
      "velocity": 100,
      "pan": 0,
      "instrument": "ORG_D02",
      "pipi": 0,
      "volumeAutomation": [],
      "panAutomation": []
    },
    {
      "pitch": 73,
      "measure": 18,
      "beat": 2,
      "duration": 1,
      "velocity": 66,
      "pan": 0,
      "instrument": "ORG_D02",
      "pipi": 0,
      "volumeAutomation": [],
      "panAutomation": []
    },
    {
      "pitch": 73,
      "measure": 18,
      "beat": 6,
      "duration": 1,
      "velocity": 66,
      "pan": 0,
      "instrument": "ORG_D02",
      "pipi": 0,
      "volumeAutomation": [],
      "panAutomation": []
    },
    {
      "pitch": 73,
      "measure": 18,
      "beat": 7,
      "duration": 1,
      "velocity": 46,
      "pan": 0,
      "instrument": "ORG_D02",
      "pipi": 0,
      "volumeAutomation": [],
      "panAutomation": []
    },
    {
      "pitch": 73,
      "measure": 18,
      "beat": 8,
      "duration": 1,
      "velocity": 100,
      "pan": 0,
      "instrument": "ORG_D02",
      "pipi": 0,
      "volumeAutomation": [],
      "panAutomation": []
    },
    {
      "pitch": 73,
      "measure": 18,
      "beat": 10,
      "duration": 1,
      "velocity": 68,
      "pan": 0,
      "instrument": "ORG_D02",
      "pipi": 0,
      "volumeAutomation": [],
      "panAutomation": []
    },
    {
      "pitch": 73,
      "measure": 18,
      "beat": 14,
      "duration": 1,
      "velocity": 66,
      "pan": 0,
      "instrument": "ORG_D02",
      "pipi": 0,
      "volumeAutomation": [],
      "panAutomation": []
    },
    {
      "pitch": 73,
      "measure": 19,
      "beat": 0,
      "duration": 1,
      "velocity": 100,
      "pan": 0,
      "instrument": "ORG_D02",
      "pipi": 0,
      "volumeAutomation": [],
      "panAutomation": []
    },
    {
      "pitch": 73,
      "measure": 19,
      "beat": 2,
      "duration": 1,
      "velocity": 68,
      "pan": 0,
      "instrument": "ORG_D02",
      "pipi": 0,
      "volumeAutomation": [],
      "panAutomation": []
    },
    {
      "pitch": 73,
      "measure": 19,
      "beat": 6,
      "duration": 1,
      "velocity": 68,
      "pan": 0,
      "instrument": "ORG_D02",
      "pipi": 0,
      "volumeAutomation": [],
      "panAutomation": []
    },
    {
      "pitch": 73,
      "measure": 19,
      "beat": 8,
      "duration": 1,
      "velocity": 100,
      "pan": 0,
      "instrument": "ORG_D02",
      "pipi": 0,
      "volumeAutomation": [],
      "panAutomation": []
    },
    {
      "pitch": 73,
      "measure": 19,
      "beat": 10,
      "duration": 1,
      "velocity": 66,
      "pan": 0,
      "instrument": "ORG_D02",
      "pipi": 0,
      "volumeAutomation": [],
      "panAutomation": []
    },
    {
      "pitch": 73,
      "measure": 19,
      "beat": 14,
      "duration": 1,
      "velocity": 68,
      "pan": 0,
      "instrument": "ORG_D02",
      "pipi": 0,
      "volumeAutomation": [],
      "panAutomation": []
    },
    {
      "pitch": 73,
      "measure": 20,
      "beat": 0,
      "duration": 1,
      "velocity": 100,
      "pan": 0,
      "instrument": "ORG_D02",
      "pipi": 0,
      "volumeAutomation": [],
      "panAutomation": []
    },
    {
      "pitch": 73,
      "measure": 20,
      "beat": 2,
      "duration": 1,
      "velocity": 66,
      "pan": 0,
      "instrument": "ORG_D02",
      "pipi": 0,
      "volumeAutomation": [],
      "panAutomation": []
    },
    {
      "pitch": 73,
      "measure": 20,
      "beat": 6,
      "duration": 1,
      "velocity": 66,
      "pan": 0,
      "instrument": "ORG_D02",
      "pipi": 0,
      "volumeAutomation": [],
      "panAutomation": []
    },
    {
      "pitch": 73,
      "measure": 20,
      "beat": 7,
      "duration": 1,
      "velocity": 46,
      "pan": 0,
      "instrument": "ORG_D02",
      "pipi": 0,
      "volumeAutomation": [],
      "panAutomation": []
    },
    {
      "pitch": 73,
      "measure": 20,
      "beat": 8,
      "duration": 1,
      "velocity": 100,
      "pan": 0,
      "instrument": "ORG_D02",
      "pipi": 0,
      "volumeAutomation": [],
      "panAutomation": []
    },
    {
      "pitch": 73,
      "measure": 20,
      "beat": 10,
      "duration": 1,
      "velocity": 68,
      "pan": 0,
      "instrument": "ORG_D02",
      "pipi": 0,
      "volumeAutomation": [],
      "panAutomation": []
    },
    {
      "pitch": 73,
      "measure": 20,
      "beat": 14,
      "duration": 1,
      "velocity": 66,
      "pan": 0,
      "instrument": "ORG_D02",
      "pipi": 0,
      "volumeAutomation": [],
      "panAutomation": []
    },
    {
      "pitch": 73,
      "measure": 21,
      "beat": 0,
      "duration": 1,
      "velocity": 100,
      "pan": 0,
      "instrument": "ORG_D02",
      "pipi": 0,
      "volumeAutomation": [],
      "panAutomation": []
    },
    {
      "pitch": 73,
      "measure": 21,
      "beat": 2,
      "duration": 1,
      "velocity": 68,
      "pan": 0,
      "instrument": "ORG_D02",
      "pipi": 0,
      "volumeAutomation": [],
      "panAutomation": []
    },
    {
      "pitch": 73,
      "measure": 21,
      "beat": 6,
      "duration": 1,
      "velocity": 68,
      "pan": 0,
      "instrument": "ORG_D02",
      "pipi": 0,
      "volumeAutomation": [],
      "panAutomation": []
    },
    {
      "pitch": 73,
      "measure": 21,
      "beat": 8,
      "duration": 1,
      "velocity": 100,
      "pan": 0,
      "instrument": "ORG_D02",
      "pipi": 0,
      "volumeAutomation": [],
      "panAutomation": []
    },
    {
      "pitch": 73,
      "measure": 21,
      "beat": 10,
      "duration": 1,
      "velocity": 66,
      "pan": 0,
      "instrument": "ORG_D02",
      "pipi": 0,
      "volumeAutomation": [],
      "panAutomation": []
    },
    {
      "pitch": 73,
      "measure": 21,
      "beat": 14,
      "duration": 1,
      "velocity": 68,
      "pan": 0,
      "instrument": "ORG_D02",
      "pipi": 0,
      "volumeAutomation": [],
      "panAutomation": []
    },
    {
      "pitch": 73,
      "measure": 22,
      "beat": 0,
      "duration": 1,
      "velocity": 100,
      "pan": 0,
      "instrument": "ORG_D02",
      "pipi": 0,
      "volumeAutomation": [],
      "panAutomation": []
    },
    {
      "pitch": 73,
      "measure": 22,
      "beat": 2,
      "duration": 1,
      "velocity": 66,
      "pan": 0,
      "instrument": "ORG_D02",
      "pipi": 0,
      "volumeAutomation": [],
      "panAutomation": []
    },
    {
      "pitch": 73,
      "measure": 22,
      "beat": 6,
      "duration": 1,
      "velocity": 66,
      "pan": 0,
      "instrument": "ORG_D02",
      "pipi": 0,
      "volumeAutomation": [],
      "panAutomation": []
    },
    {
      "pitch": 73,
      "measure": 22,
      "beat": 7,
      "duration": 1,
      "velocity": 46,
      "pan": 0,
      "instrument": "ORG_D02",
      "pipi": 0,
      "volumeAutomation": [],
      "panAutomation": []
    },
    {
      "pitch": 73,
      "measure": 22,
      "beat": 8,
      "duration": 1,
      "velocity": 100,
      "pan": 0,
      "instrument": "ORG_D02",
      "pipi": 0,
      "volumeAutomation": [],
      "panAutomation": []
    },
    {
      "pitch": 73,
      "measure": 22,
      "beat": 10,
      "duration": 1,
      "velocity": 68,
      "pan": 0,
      "instrument": "ORG_D02",
      "pipi": 0,
      "volumeAutomation": [],
      "panAutomation": []
    },
    {
      "pitch": 73,
      "measure": 22,
      "beat": 14,
      "duration": 1,
      "velocity": 66,
      "pan": 0,
      "instrument": "ORG_D02",
      "pipi": 0,
      "volumeAutomation": [],
      "panAutomation": []
    },
    {
      "pitch": 73,
      "measure": 23,
      "beat": 0,
      "duration": 1,
      "velocity": 100,
      "pan": 0,
      "instrument": "ORG_D02",
      "pipi": 0,
      "volumeAutomation": [],
      "panAutomation": []
    },
    {
      "pitch": 73,
      "measure": 23,
      "beat": 2,
      "duration": 1,
      "velocity": 68,
      "pan": 0,
      "instrument": "ORG_D02",
      "pipi": 0,
      "volumeAutomation": [],
      "panAutomation": []
    },
    {
      "pitch": 73,
      "measure": 23,
      "beat": 6,
      "duration": 1,
      "velocity": 68,
      "pan": 0,
      "instrument": "ORG_D02",
      "pipi": 0,
      "volumeAutomation": [],
      "panAutomation": []
    },
    {
      "pitch": 73,
      "measure": 23,
      "beat": 8,
      "duration": 1,
      "velocity": 100,
      "pan": 0,
      "instrument": "ORG_D02",
      "pipi": 0,
      "volumeAutomation": [],
      "panAutomation": []
    },
    {
      "pitch": 73,
      "measure": 23,
      "beat": 10,
      "duration": 1,
      "velocity": 66,
      "pan": 0,
      "instrument": "ORG_D02",
      "pipi": 0,
      "volumeAutomation": [],
      "panAutomation": []
    },
    {
      "pitch": 73,
      "measure": 23,
      "beat": 14,
      "duration": 1,
      "velocity": 68,
      "pan": 0,
      "instrument": "ORG_D02",
      "pipi": 0,
      "volumeAutomation": [],
      "panAutomation": []
    },
    {
      "pitch": 73,
      "measure": 24,
      "beat": 0,
      "duration": 1,
      "velocity": 100,
      "pan": 0,
      "instrument": "ORG_D02",
      "pipi": 0,
      "volumeAutomation": [],
      "panAutomation": []
    },
    {
      "pitch": 73,
      "measure": 24,
      "beat": 2,
      "duration": 1,
      "velocity": 66,
      "pan": 0,
      "instrument": "ORG_D02",
      "pipi": 0,
      "volumeAutomation": [],
      "panAutomation": []
    },
    {
      "pitch": 73,
      "measure": 24,
      "beat": 6,
      "duration": 1,
      "velocity": 66,
      "pan": 0,
      "instrument": "ORG_D02",
      "pipi": 0,
      "volumeAutomation": [],
      "panAutomation": []
    },
    {
      "pitch": 73,
      "measure": 24,
      "beat": 7,
      "duration": 1,
      "velocity": 46,
      "pan": 0,
      "instrument": "ORG_D02",
      "pipi": 0,
      "volumeAutomation": [],
      "panAutomation": []
    },
    {
      "pitch": 73,
      "measure": 24,
      "beat": 8,
      "duration": 1,
      "velocity": 100,
      "pan": 0,
      "instrument": "ORG_D02",
      "pipi": 0,
      "volumeAutomation": [],
      "panAutomation": []
    },
    {
      "pitch": 73,
      "measure": 24,
      "beat": 10,
      "duration": 1,
      "velocity": 68,
      "pan": 0,
      "instrument": "ORG_D02",
      "pipi": 0,
      "volumeAutomation": [],
      "panAutomation": []
    },
    {
      "pitch": 73,
      "measure": 24,
      "beat": 14,
      "duration": 1,
      "velocity": 66,
      "pan": 0,
      "instrument": "ORG_D02",
      "pipi": 0,
      "volumeAutomation": [],
      "panAutomation": []
    },
    {
      "pitch": 73,
      "measure": 25,
      "beat": 0,
      "duration": 1,
      "velocity": 100,
      "pan": 0,
      "instrument": "ORG_D02",
      "pipi": 0,
      "volumeAutomation": [],
      "panAutomation": []
    },
    {
      "pitch": 73,
      "measure": 25,
      "beat": 2,
      "duration": 1,
      "velocity": 68,
      "pan": 0,
      "instrument": "ORG_D02",
      "pipi": 0,
      "volumeAutomation": [],
      "panAutomation": []
    },
    {
      "pitch": 73,
      "measure": 25,
      "beat": 6,
      "duration": 1,
      "velocity": 68,
      "pan": 0,
      "instrument": "ORG_D02",
      "pipi": 0,
      "volumeAutomation": [],
      "panAutomation": []
    },
    {
      "pitch": 73,
      "measure": 25,
      "beat": 8,
      "duration": 1,
      "velocity": 100,
      "pan": 0,
      "instrument": "ORG_D02",
      "pipi": 0,
      "volumeAutomation": [],
      "panAutomation": []
    },
    {
      "pitch": 73,
      "measure": 25,
      "beat": 10,
      "duration": 1,
      "velocity": 66,
      "pan": 0,
      "instrument": "ORG_D02",
      "pipi": 0,
      "volumeAutomation": [],
      "panAutomation": []
    },
    {
      "pitch": 73,
      "measure": 25,
      "beat": 14,
      "duration": 1,
      "velocity": 68,
      "pan": 0,
      "instrument": "ORG_D02",
      "pipi": 0,
      "volumeAutomation": [],
      "panAutomation": []
    },
    {
      "pitch": 73,
      "measure": 26,
      "beat": 0,
      "duration": 1,
      "velocity": 100,
      "pan": 0,
      "instrument": "ORG_D02",
      "pipi": 0,
      "volumeAutomation": [],
      "panAutomation": []
    },
    {
      "pitch": 73,
      "measure": 26,
      "beat": 2,
      "duration": 1,
      "velocity": 66,
      "pan": 0,
      "instrument": "ORG_D02",
      "pipi": 0,
      "volumeAutomation": [],
      "panAutomation": []
    },
    {
      "pitch": 73,
      "measure": 26,
      "beat": 6,
      "duration": 1,
      "velocity": 66,
      "pan": 0,
      "instrument": "ORG_D02",
      "pipi": 0,
      "volumeAutomation": [],
      "panAutomation": []
    },
    {
      "pitch": 73,
      "measure": 26,
      "beat": 7,
      "duration": 1,
      "velocity": 46,
      "pan": 0,
      "instrument": "ORG_D02",
      "pipi": 0,
      "volumeAutomation": [],
      "panAutomation": []
    },
    {
      "pitch": 73,
      "measure": 26,
      "beat": 8,
      "duration": 1,
      "velocity": 100,
      "pan": 0,
      "instrument": "ORG_D02",
      "pipi": 0,
      "volumeAutomation": [],
      "panAutomation": []
    },
    {
      "pitch": 73,
      "measure": 26,
      "beat": 10,
      "duration": 1,
      "velocity": 68,
      "pan": 0,
      "instrument": "ORG_D02",
      "pipi": 0,
      "volumeAutomation": [],
      "panAutomation": []
    },
    {
      "pitch": 73,
      "measure": 26,
      "beat": 14,
      "duration": 1,
      "velocity": 66,
      "pan": 0,
      "instrument": "ORG_D02",
      "pipi": 0,
      "volumeAutomation": [],
      "panAutomation": []
    },
    {
      "pitch": 73,
      "measure": 27,
      "beat": 0,
      "duration": 1,
      "velocity": 100,
      "pan": 0,
      "instrument": "ORG_D02",
      "pipi": 0,
      "volumeAutomation": [],
      "panAutomation": []
    },
    {
      "pitch": 73,
      "measure": 27,
      "beat": 2,
      "duration": 1,
      "velocity": 68,
      "pan": 0,
      "instrument": "ORG_D02",
      "pipi": 0,
      "volumeAutomation": [],
      "panAutomation": []
    },
    {
      "pitch": 73,
      "measure": 27,
      "beat": 6,
      "duration": 1,
      "velocity": 68,
      "pan": 0,
      "instrument": "ORG_D02",
      "pipi": 0,
      "volumeAutomation": [],
      "panAutomation": []
    },
    {
      "pitch": 73,
      "measure": 27,
      "beat": 8,
      "duration": 1,
      "velocity": 100,
      "pan": 0,
      "instrument": "ORG_D02",
      "pipi": 0,
      "volumeAutomation": [],
      "panAutomation": []
    },
    {
      "pitch": 73,
      "measure": 27,
      "beat": 10,
      "duration": 1,
      "velocity": 66,
      "pan": 0,
      "instrument": "ORG_D02",
      "pipi": 0,
      "volumeAutomation": [],
      "panAutomation": []
    },
    {
      "pitch": 73,
      "measure": 27,
      "beat": 14,
      "duration": 1,
      "velocity": 68,
      "pan": 0,
      "instrument": "ORG_D02",
      "pipi": 0,
      "volumeAutomation": [],
      "panAutomation": []
    },
    {
      "pitch": 73,
      "measure": 28,
      "beat": 0,
      "duration": 1,
      "velocity": 100,
      "pan": 0,
      "instrument": "ORG_D02",
      "pipi": 0,
      "volumeAutomation": [],
      "panAutomation": []
    },
    {
      "pitch": 73,
      "measure": 28,
      "beat": 2,
      "duration": 1,
      "velocity": 60,
      "pan": 0,
      "instrument": "ORG_D02",
      "pipi": 0,
      "volumeAutomation": [],
      "panAutomation": []
    },
    {
      "pitch": 73,
      "measure": 28,
      "beat": 3,
      "duration": 1,
      "velocity": 82,
      "pan": 0,
      "instrument": "ORG_D02",
      "pipi": 0,
      "volumeAutomation": [],
      "panAutomation": []
    },
    {
      "pitch": 73,
      "measure": 28,
      "beat": 6,
      "duration": 1,
      "velocity": 74,
      "pan": 0,
      "instrument": "ORG_D02",
      "pipi": 0,
      "volumeAutomation": [],
      "panAutomation": []
    },
    {
      "pitch": 73,
      "measure": 28,
      "beat": 7,
      "duration": 1,
      "velocity": 56,
      "pan": 0,
      "instrument": "ORG_D02",
      "pipi": 0,
      "volumeAutomation": [],
      "panAutomation": []
    },
    {
      "pitch": 73,
      "measure": 28,
      "beat": 8,
      "duration": 1,
      "velocity": 100,
      "pan": 0,
      "instrument": "ORG_D02",
      "pipi": 0,
      "volumeAutomation": [],
      "panAutomation": []
    },
    {
      "pitch": 73,
      "measure": 28,
      "beat": 10,
      "duration": 1,
      "velocity": 100,
      "pan": 0,
      "instrument": "ORG_D02",
      "pipi": 0,
      "volumeAutomation": [],
      "panAutomation": []
    },
    {
      "pitch": 73,
      "measure": 28,
      "beat": 14,
      "duration": 1,
      "velocity": 100,
      "pan": 0,
      "instrument": "ORG_D02",
      "pipi": 0,
      "volumeAutomation": [],
      "panAutomation": []
    },
    {
      "pitch": 73,
      "measure": 29,
      "beat": 2,
      "duration": 1,
      "velocity": 60,
      "pan": 0,
      "instrument": "ORG_D02",
      "pipi": 0,
      "volumeAutomation": [],
      "panAutomation": []
    },
    {
      "pitch": 73,
      "measure": 29,
      "beat": 6,
      "duration": 1,
      "velocity": 100,
      "pan": 0,
      "instrument": "ORG_D02",
      "pipi": 0,
      "volumeAutomation": [],
      "panAutomation": []
    },
    {
      "pitch": 73,
      "measure": 29,
      "beat": 10,
      "duration": 1,
      "velocity": 100,
      "pan": 0,
      "instrument": "ORG_D02",
      "pipi": 0,
      "volumeAutomation": [],
      "panAutomation": []
    },
    {
      "pitch": 73,
      "measure": 29,
      "beat": 14,
      "duration": 1,
      "velocity": 100,
      "pan": 0,
      "instrument": "ORG_D02",
      "pipi": 0,
      "volumeAutomation": [],
      "panAutomation": []
    },
    {
      "pitch": 73,
      "measure": 30,
      "beat": 0,
      "duration": 1,
      "velocity": 100,
      "pan": 0,
      "instrument": "ORG_D02",
      "pipi": 0,
      "volumeAutomation": [],
      "panAutomation": []
    },
    {
      "pitch": 73,
      "measure": 30,
      "beat": 2,
      "duration": 1,
      "velocity": 60,
      "pan": 0,
      "instrument": "ORG_D02",
      "pipi": 0,
      "volumeAutomation": [],
      "panAutomation": []
    },
    {
      "pitch": 73,
      "measure": 30,
      "beat": 3,
      "duration": 1,
      "velocity": 82,
      "pan": 0,
      "instrument": "ORG_D02",
      "pipi": 0,
      "volumeAutomation": [],
      "panAutomation": []
    },
    {
      "pitch": 73,
      "measure": 30,
      "beat": 6,
      "duration": 1,
      "velocity": 74,
      "pan": 0,
      "instrument": "ORG_D02",
      "pipi": 0,
      "volumeAutomation": [],
      "panAutomation": []
    },
    {
      "pitch": 73,
      "measure": 30,
      "beat": 7,
      "duration": 1,
      "velocity": 56,
      "pan": 0,
      "instrument": "ORG_D02",
      "pipi": 0,
      "volumeAutomation": [],
      "panAutomation": []
    },
    {
      "pitch": 73,
      "measure": 30,
      "beat": 8,
      "duration": 1,
      "velocity": 100,
      "pan": 0,
      "instrument": "ORG_D02",
      "pipi": 0,
      "volumeAutomation": [],
      "panAutomation": []
    },
    {
      "pitch": 73,
      "measure": 30,
      "beat": 10,
      "duration": 1,
      "velocity": 100,
      "pan": 0,
      "instrument": "ORG_D02",
      "pipi": 0,
      "volumeAutomation": [],
      "panAutomation": []
    },
    {
      "pitch": 73,
      "measure": 30,
      "beat": 14,
      "duration": 1,
      "velocity": 100,
      "pan": 0,
      "instrument": "ORG_D02",
      "pipi": 0,
      "volumeAutomation": [],
      "panAutomation": []
    },
    {
      "pitch": 73,
      "measure": 31,
      "beat": 2,
      "duration": 1,
      "velocity": 60,
      "pan": 0,
      "instrument": "ORG_D02",
      "pipi": 0,
      "volumeAutomation": [],
      "panAutomation": []
    },
    {
      "pitch": 73,
      "measure": 31,
      "beat": 6,
      "duration": 1,
      "velocity": 100,
      "pan": 0,
      "instrument": "ORG_D02",
      "pipi": 0,
      "volumeAutomation": [],
      "panAutomation": []
    },
    {
      "pitch": 73,
      "measure": 31,
      "beat": 10,
      "duration": 1,
      "velocity": 100,
      "pan": 0,
      "instrument": "ORG_D02",
      "pipi": 0,
      "volumeAutomation": [],
      "panAutomation": []
    },
    {
      "pitch": 73,
      "measure": 31,
      "beat": 14,
      "duration": 1,
      "velocity": 100,
      "pan": 0,
      "instrument": "ORG_D02",
      "pipi": 0,
      "volumeAutomation": [],
      "panAutomation": []
    },
    {
      "pitch": 73,
      "measure": 32,
      "beat": 0,
      "duration": 1,
      "velocity": 100,
      "pan": 0,
      "instrument": "ORG_D02",
      "pipi": 0,
      "volumeAutomation": [],
      "panAutomation": []
    },
    {
      "pitch": 73,
      "measure": 32,
      "beat": 2,
      "duration": 1,
      "velocity": 60,
      "pan": 0,
      "instrument": "ORG_D02",
      "pipi": 0,
      "volumeAutomation": [],
      "panAutomation": []
    },
    {
      "pitch": 73,
      "measure": 32,
      "beat": 3,
      "duration": 1,
      "velocity": 82,
      "pan": 0,
      "instrument": "ORG_D02",
      "pipi": 0,
      "volumeAutomation": [],
      "panAutomation": []
    },
    {
      "pitch": 73,
      "measure": 32,
      "beat": 6,
      "duration": 1,
      "velocity": 74,
      "pan": 0,
      "instrument": "ORG_D02",
      "pipi": 0,
      "volumeAutomation": [],
      "panAutomation": []
    },
    {
      "pitch": 73,
      "measure": 32,
      "beat": 7,
      "duration": 1,
      "velocity": 56,
      "pan": 0,
      "instrument": "ORG_D02",
      "pipi": 0,
      "volumeAutomation": [],
      "panAutomation": []
    },
    {
      "pitch": 73,
      "measure": 32,
      "beat": 8,
      "duration": 1,
      "velocity": 100,
      "pan": 0,
      "instrument": "ORG_D02",
      "pipi": 0,
      "volumeAutomation": [],
      "panAutomation": []
    },
    {
      "pitch": 73,
      "measure": 32,
      "beat": 10,
      "duration": 1,
      "velocity": 100,
      "pan": 0,
      "instrument": "ORG_D02",
      "pipi": 0,
      "volumeAutomation": [],
      "panAutomation": []
    },
    {
      "pitch": 73,
      "measure": 32,
      "beat": 14,
      "duration": 1,
      "velocity": 100,
      "pan": 0,
      "instrument": "ORG_D02",
      "pipi": 0,
      "volumeAutomation": [],
      "panAutomation": []
    },
    {
      "pitch": 73,
      "measure": 33,
      "beat": 2,
      "duration": 1,
      "velocity": 60,
      "pan": 0,
      "instrument": "ORG_D02",
      "pipi": 0,
      "volumeAutomation": [],
      "panAutomation": []
    },
    {
      "pitch": 73,
      "measure": 33,
      "beat": 6,
      "duration": 1,
      "velocity": 100,
      "pan": 0,
      "instrument": "ORG_D02",
      "pipi": 0,
      "volumeAutomation": [],
      "panAutomation": []
    },
    {
      "pitch": 73,
      "measure": 33,
      "beat": 10,
      "duration": 1,
      "velocity": 100,
      "pan": 0,
      "instrument": "ORG_D02",
      "pipi": 0,
      "volumeAutomation": [],
      "panAutomation": []
    },
    {
      "pitch": 73,
      "measure": 33,
      "beat": 14,
      "duration": 1,
      "velocity": 100,
      "pan": 0,
      "instrument": "ORG_D02",
      "pipi": 0,
      "volumeAutomation": [],
      "panAutomation": []
    },
    {
      "pitch": 73,
      "measure": 34,
      "beat": 0,
      "duration": 1,
      "velocity": 100,
      "pan": 0,
      "instrument": "ORG_D02",
      "pipi": 0,
      "volumeAutomation": [],
      "panAutomation": []
    },
    {
      "pitch": 73,
      "measure": 34,
      "beat": 2,
      "duration": 1,
      "velocity": 60,
      "pan": 0,
      "instrument": "ORG_D02",
      "pipi": 0,
      "volumeAutomation": [],
      "panAutomation": []
    },
    {
      "pitch": 73,
      "measure": 34,
      "beat": 3,
      "duration": 1,
      "velocity": 82,
      "pan": 0,
      "instrument": "ORG_D02",
      "pipi": 0,
      "volumeAutomation": [],
      "panAutomation": []
    },
    {
      "pitch": 73,
      "measure": 34,
      "beat": 6,
      "duration": 1,
      "velocity": 74,
      "pan": 0,
      "instrument": "ORG_D02",
      "pipi": 0,
      "volumeAutomation": [],
      "panAutomation": []
    },
    {
      "pitch": 73,
      "measure": 34,
      "beat": 7,
      "duration": 1,
      "velocity": 56,
      "pan": 0,
      "instrument": "ORG_D02",
      "pipi": 0,
      "volumeAutomation": [],
      "panAutomation": []
    },
    {
      "pitch": 73,
      "measure": 34,
      "beat": 8,
      "duration": 1,
      "velocity": 100,
      "pan": 0,
      "instrument": "ORG_D02",
      "pipi": 0,
      "volumeAutomation": [],
      "panAutomation": []
    },
    {
      "pitch": 73,
      "measure": 34,
      "beat": 10,
      "duration": 1,
      "velocity": 100,
      "pan": 0,
      "instrument": "ORG_D02",
      "pipi": 0,
      "volumeAutomation": [],
      "panAutomation": []
    },
    {
      "pitch": 73,
      "measure": 34,
      "beat": 14,
      "duration": 1,
      "velocity": 100,
      "pan": 0,
      "instrument": "ORG_D02",
      "pipi": 0,
      "volumeAutomation": [],
      "panAutomation": []
    },
    {
      "pitch": 73,
      "measure": 35,
      "beat": 2,
      "duration": 1,
      "velocity": 60,
      "pan": 0,
      "instrument": "ORG_D02",
      "pipi": 0,
      "volumeAutomation": [],
      "panAutomation": []
    },
    {
      "pitch": 73,
      "measure": 35,
      "beat": 6,
      "duration": 1,
      "velocity": 100,
      "pan": 0,
      "instrument": "ORG_D02",
      "pipi": 0,
      "volumeAutomation": [],
      "panAutomation": []
    },
    {
      "pitch": 73,
      "measure": 35,
      "beat": 10,
      "duration": 1,
      "velocity": 100,
      "pan": 0,
      "instrument": "ORG_D02",
      "pipi": 0,
      "volumeAutomation": [],
      "panAutomation": []
    },
    {
      "pitch": 73,
      "measure": 35,
      "beat": 14,
      "duration": 1,
      "velocity": 100,
      "pan": 0,
      "instrument": "ORG_D02",
      "pipi": 0,
      "volumeAutomation": [],
      "panAutomation": []
    },
    {
      "pitch": 73,
      "measure": 36,
      "beat": 0,
      "duration": 1,
      "velocity": 100,
      "pan": 0,
      "instrument": "ORG_D02",
      "pipi": 0,
      "volumeAutomation": [],
      "panAutomation": []
    },
    {
      "pitch": 73,
      "measure": 36,
      "beat": 2,
      "duration": 1,
      "velocity": 60,
      "pan": 0,
      "instrument": "ORG_D02",
      "pipi": 0,
      "volumeAutomation": [],
      "panAutomation": []
    },
    {
      "pitch": 73,
      "measure": 36,
      "beat": 3,
      "duration": 1,
      "velocity": 82,
      "pan": 0,
      "instrument": "ORG_D02",
      "pipi": 0,
      "volumeAutomation": [],
      "panAutomation": []
    },
    {
      "pitch": 73,
      "measure": 36,
      "beat": 6,
      "duration": 1,
      "velocity": 74,
      "pan": 0,
      "instrument": "ORG_D02",
      "pipi": 0,
      "volumeAutomation": [],
      "panAutomation": []
    },
    {
      "pitch": 73,
      "measure": 36,
      "beat": 7,
      "duration": 1,
      "velocity": 56,
      "pan": 0,
      "instrument": "ORG_D02",
      "pipi": 0,
      "volumeAutomation": [],
      "panAutomation": []
    },
    {
      "pitch": 73,
      "measure": 36,
      "beat": 8,
      "duration": 1,
      "velocity": 100,
      "pan": 0,
      "instrument": "ORG_D02",
      "pipi": 0,
      "volumeAutomation": [],
      "panAutomation": []
    },
    {
      "pitch": 73,
      "measure": 36,
      "beat": 10,
      "duration": 1,
      "velocity": 100,
      "pan": 0,
      "instrument": "ORG_D02",
      "pipi": 0,
      "volumeAutomation": [],
      "panAutomation": []
    },
    {
      "pitch": 73,
      "measure": 36,
      "beat": 14,
      "duration": 1,
      "velocity": 100,
      "pan": 0,
      "instrument": "ORG_D02",
      "pipi": 0,
      "volumeAutomation": [],
      "panAutomation": []
    },
    {
      "pitch": 73,
      "measure": 37,
      "beat": 2,
      "duration": 1,
      "velocity": 60,
      "pan": 0,
      "instrument": "ORG_D02",
      "pipi": 0,
      "volumeAutomation": [],
      "panAutomation": []
    },
    {
      "pitch": 73,
      "measure": 37,
      "beat": 6,
      "duration": 1,
      "velocity": 100,
      "pan": 0,
      "instrument": "ORG_D02",
      "pipi": 0,
      "volumeAutomation": [],
      "panAutomation": []
    },
    {
      "pitch": 73,
      "measure": 37,
      "beat": 10,
      "duration": 1,
      "velocity": 100,
      "pan": 0,
      "instrument": "ORG_D02",
      "pipi": 0,
      "volumeAutomation": [],
      "panAutomation": []
    },
    {
      "pitch": 73,
      "measure": 37,
      "beat": 14,
      "duration": 1,
      "velocity": 100,
      "pan": 0,
      "instrument": "ORG_D02",
      "pipi": 0,
      "volumeAutomation": [],
      "panAutomation": []
    },
    {
      "pitch": 73,
      "measure": 38,
      "beat": 0,
      "duration": 1,
      "velocity": 100,
      "pan": 0,
      "instrument": "ORG_D02",
      "pipi": 0,
      "volumeAutomation": [],
      "panAutomation": []
    },
    {
      "pitch": 73,
      "measure": 38,
      "beat": 2,
      "duration": 1,
      "velocity": 60,
      "pan": 0,
      "instrument": "ORG_D02",
      "pipi": 0,
      "volumeAutomation": [],
      "panAutomation": []
    },
    {
      "pitch": 73,
      "measure": 38,
      "beat": 3,
      "duration": 1,
      "velocity": 82,
      "pan": 0,
      "instrument": "ORG_D02",
      "pipi": 0,
      "volumeAutomation": [],
      "panAutomation": []
    },
    {
      "pitch": 73,
      "measure": 38,
      "beat": 6,
      "duration": 1,
      "velocity": 74,
      "pan": 0,
      "instrument": "ORG_D02",
      "pipi": 0,
      "volumeAutomation": [],
      "panAutomation": []
    },
    {
      "pitch": 73,
      "measure": 38,
      "beat": 7,
      "duration": 1,
      "velocity": 56,
      "pan": 0,
      "instrument": "ORG_D02",
      "pipi": 0,
      "volumeAutomation": [],
      "panAutomation": []
    },
    {
      "pitch": 73,
      "measure": 38,
      "beat": 8,
      "duration": 1,
      "velocity": 100,
      "pan": 0,
      "instrument": "ORG_D02",
      "pipi": 0,
      "volumeAutomation": [],
      "panAutomation": []
    },
    {
      "pitch": 73,
      "measure": 38,
      "beat": 10,
      "duration": 1,
      "velocity": 100,
      "pan": 0,
      "instrument": "ORG_D02",
      "pipi": 0,
      "volumeAutomation": [],
      "panAutomation": []
    },
    {
      "pitch": 73,
      "measure": 38,
      "beat": 14,
      "duration": 1,
      "velocity": 100,
      "pan": 0,
      "instrument": "ORG_D02",
      "pipi": 0,
      "volumeAutomation": [],
      "panAutomation": []
    },
    {
      "pitch": 73,
      "measure": 39,
      "beat": 2,
      "duration": 1,
      "velocity": 60,
      "pan": 0,
      "instrument": "ORG_D02",
      "pipi": 0,
      "volumeAutomation": [],
      "panAutomation": []
    },
    {
      "pitch": 73,
      "measure": 39,
      "beat": 6,
      "duration": 1,
      "velocity": 100,
      "pan": 0,
      "instrument": "ORG_D02",
      "pipi": 0,
      "volumeAutomation": [],
      "panAutomation": []
    },
    {
      "pitch": 73,
      "measure": 39,
      "beat": 10,
      "duration": 1,
      "velocity": 100,
      "pan": 0,
      "instrument": "ORG_D02",
      "pipi": 0,
      "volumeAutomation": [],
      "panAutomation": []
    },
    {
      "pitch": 73,
      "measure": 39,
      "beat": 14,
      "duration": 1,
      "velocity": 100,
      "pan": 0,
      "instrument": "ORG_D02",
      "pipi": 0,
      "volumeAutomation": [],
      "panAutomation": []
    },
    {
      "pitch": 73,
      "measure": 40,
      "beat": 0,
      "duration": 1,
      "velocity": 100,
      "pan": 0,
      "instrument": "ORG_D02",
      "pipi": 0,
      "volumeAutomation": [],
      "panAutomation": []
    },
    {
      "pitch": 73,
      "measure": 40,
      "beat": 2,
      "duration": 1,
      "velocity": 60,
      "pan": 0,
      "instrument": "ORG_D02",
      "pipi": 0,
      "volumeAutomation": [],
      "panAutomation": []
    },
    {
      "pitch": 73,
      "measure": 40,
      "beat": 3,
      "duration": 1,
      "velocity": 82,
      "pan": 0,
      "instrument": "ORG_D02",
      "pipi": 0,
      "volumeAutomation": [],
      "panAutomation": []
    },
    {
      "pitch": 73,
      "measure": 40,
      "beat": 6,
      "duration": 1,
      "velocity": 74,
      "pan": 0,
      "instrument": "ORG_D02",
      "pipi": 0,
      "volumeAutomation": [],
      "panAutomation": []
    },
    {
      "pitch": 73,
      "measure": 40,
      "beat": 7,
      "duration": 1,
      "velocity": 56,
      "pan": 0,
      "instrument": "ORG_D02",
      "pipi": 0,
      "volumeAutomation": [],
      "panAutomation": []
    },
    {
      "pitch": 73,
      "measure": 40,
      "beat": 8,
      "duration": 1,
      "velocity": 100,
      "pan": 0,
      "instrument": "ORG_D02",
      "pipi": 0,
      "volumeAutomation": [],
      "panAutomation": []
    },
    {
      "pitch": 73,
      "measure": 40,
      "beat": 10,
      "duration": 1,
      "velocity": 100,
      "pan": 0,
      "instrument": "ORG_D02",
      "pipi": 0,
      "volumeAutomation": [],
      "panAutomation": []
    },
    {
      "pitch": 73,
      "measure": 40,
      "beat": 14,
      "duration": 1,
      "velocity": 100,
      "pan": 0,
      "instrument": "ORG_D02",
      "pipi": 0,
      "volumeAutomation": [],
      "panAutomation": []
    },
    {
      "pitch": 73,
      "measure": 41,
      "beat": 2,
      "duration": 1,
      "velocity": 60,
      "pan": 0,
      "instrument": "ORG_D02",
      "pipi": 0,
      "volumeAutomation": [],
      "panAutomation": []
    },
    {
      "pitch": 73,
      "measure": 41,
      "beat": 6,
      "duration": 1,
      "velocity": 100,
      "pan": 0,
      "instrument": "ORG_D02",
      "pipi": 0,
      "volumeAutomation": [],
      "panAutomation": []
    },
    {
      "pitch": 73,
      "measure": 41,
      "beat": 10,
      "duration": 1,
      "velocity": 100,
      "pan": 0,
      "instrument": "ORG_D02",
      "pipi": 0,
      "volumeAutomation": [],
      "panAutomation": []
    },
    {
      "pitch": 73,
      "measure": 41,
      "beat": 14,
      "duration": 1,
      "velocity": 100,
      "pan": 0,
      "instrument": "ORG_D02",
      "pipi": 0,
      "volumeAutomation": [],
      "panAutomation": []
    },
    {
      "pitch": 73,
      "measure": 42,
      "beat": 0,
      "duration": 1,
      "velocity": 100,
      "pan": 0,
      "instrument": "ORG_D02",
      "pipi": 0,
      "volumeAutomation": [],
      "panAutomation": []
    },
    {
      "pitch": 73,
      "measure": 42,
      "beat": 2,
      "duration": 1,
      "velocity": 60,
      "pan": 0,
      "instrument": "ORG_D02",
      "pipi": 0,
      "volumeAutomation": [],
      "panAutomation": []
    },
    {
      "pitch": 73,
      "measure": 42,
      "beat": 3,
      "duration": 1,
      "velocity": 82,
      "pan": 0,
      "instrument": "ORG_D02",
      "pipi": 0,
      "volumeAutomation": [],
      "panAutomation": []
    },
    {
      "pitch": 73,
      "measure": 42,
      "beat": 6,
      "duration": 1,
      "velocity": 74,
      "pan": 0,
      "instrument": "ORG_D02",
      "pipi": 0,
      "volumeAutomation": [],
      "panAutomation": []
    },
    {
      "pitch": 73,
      "measure": 42,
      "beat": 7,
      "duration": 1,
      "velocity": 56,
      "pan": 0,
      "instrument": "ORG_D02",
      "pipi": 0,
      "volumeAutomation": [],
      "panAutomation": []
    },
    {
      "pitch": 73,
      "measure": 42,
      "beat": 8,
      "duration": 1,
      "velocity": 100,
      "pan": 0,
      "instrument": "ORG_D02",
      "pipi": 0,
      "volumeAutomation": [],
      "panAutomation": []
    },
    {
      "pitch": 73,
      "measure": 42,
      "beat": 10,
      "duration": 1,
      "velocity": 100,
      "pan": 0,
      "instrument": "ORG_D02",
      "pipi": 0,
      "volumeAutomation": [],
      "panAutomation": []
    },
    {
      "pitch": 73,
      "measure": 42,
      "beat": 14,
      "duration": 1,
      "velocity": 100,
      "pan": 0,
      "instrument": "ORG_D02",
      "pipi": 0,
      "volumeAutomation": [],
      "panAutomation": []
    },
    {
      "pitch": 73,
      "measure": 43,
      "beat": 2,
      "duration": 1,
      "velocity": 60,
      "pan": 0,
      "instrument": "ORG_D02",
      "pipi": 0,
      "volumeAutomation": [],
      "panAutomation": []
    },
    {
      "pitch": 73,
      "measure": 43,
      "beat": 6,
      "duration": 1,
      "velocity": 100,
      "pan": 0,
      "instrument": "ORG_D02",
      "pipi": 0,
      "volumeAutomation": [],
      "panAutomation": []
    },
    {
      "pitch": 73,
      "measure": 43,
      "beat": 10,
      "duration": 1,
      "velocity": 100,
      "pan": 0,
      "instrument": "ORG_D02",
      "pipi": 0,
      "volumeAutomation": [],
      "panAutomation": []
    },
    {
      "pitch": 73,
      "measure": 43,
      "beat": 14,
      "duration": 1,
      "velocity": 100,
      "pan": 0,
      "instrument": "ORG_D02",
      "pipi": 0,
      "volumeAutomation": [],
      "panAutomation": []
    },
    {
      "pitch": 73,
      "measure": 44,
      "beat": 0,
      "duration": 1,
      "velocity": 100,
      "pan": 0,
      "instrument": "ORG_D02",
      "pipi": 0,
      "volumeAutomation": [],
      "panAutomation": []
    },
    {
      "pitch": 73,
      "measure": 44,
      "beat": 2,
      "duration": 1,
      "velocity": 60,
      "pan": 0,
      "instrument": "ORG_D02",
      "pipi": 0,
      "volumeAutomation": [],
      "panAutomation": []
    },
    {
      "pitch": 73,
      "measure": 44,
      "beat": 3,
      "duration": 1,
      "velocity": 82,
      "pan": 0,
      "instrument": "ORG_D02",
      "pipi": 0,
      "volumeAutomation": [],
      "panAutomation": []
    },
    {
      "pitch": 73,
      "measure": 44,
      "beat": 6,
      "duration": 1,
      "velocity": 74,
      "pan": 0,
      "instrument": "ORG_D02",
      "pipi": 0,
      "volumeAutomation": [],
      "panAutomation": []
    },
    {
      "pitch": 73,
      "measure": 44,
      "beat": 7,
      "duration": 1,
      "velocity": 56,
      "pan": 0,
      "instrument": "ORG_D02",
      "pipi": 0,
      "volumeAutomation": [],
      "panAutomation": []
    },
    {
      "pitch": 73,
      "measure": 44,
      "beat": 8,
      "duration": 1,
      "velocity": 100,
      "pan": 0,
      "instrument": "ORG_D02",
      "pipi": 0,
      "volumeAutomation": [],
      "panAutomation": []
    },
    {
      "pitch": 73,
      "measure": 44,
      "beat": 10,
      "duration": 1,
      "velocity": 100,
      "pan": 0,
      "instrument": "ORG_D02",
      "pipi": 0,
      "volumeAutomation": [],
      "panAutomation": []
    },
    {
      "pitch": 73,
      "measure": 44,
      "beat": 14,
      "duration": 1,
      "velocity": 100,
      "pan": 0,
      "instrument": "ORG_D02",
      "pipi": 0,
      "volumeAutomation": [],
      "panAutomation": []
    },
    {
      "pitch": 73,
      "measure": 45,
      "beat": 2,
      "duration": 1,
      "velocity": 60,
      "pan": 0,
      "instrument": "ORG_D02",
      "pipi": 0,
      "volumeAutomation": [],
      "panAutomation": []
    },
    {
      "pitch": 73,
      "measure": 45,
      "beat": 6,
      "duration": 1,
      "velocity": 100,
      "pan": 0,
      "instrument": "ORG_D02",
      "pipi": 0,
      "volumeAutomation": [],
      "panAutomation": []
    },
    {
      "pitch": 73,
      "measure": 45,
      "beat": 10,
      "duration": 1,
      "velocity": 100,
      "pan": 0,
      "instrument": "ORG_D02",
      "pipi": 0,
      "volumeAutomation": [],
      "panAutomation": []
    },
    {
      "pitch": 73,
      "measure": 45,
      "beat": 14,
      "duration": 1,
      "velocity": 100,
      "pan": 0,
      "instrument": "ORG_D02",
      "pipi": 0,
      "volumeAutomation": [],
      "panAutomation": []
    },
    {
      "pitch": 73,
      "measure": 46,
      "beat": 0,
      "duration": 1,
      "velocity": 100,
      "pan": 0,
      "instrument": "ORG_D02",
      "pipi": 0,
      "volumeAutomation": [],
      "panAutomation": []
    },
    {
      "pitch": 73,
      "measure": 46,
      "beat": 2,
      "duration": 1,
      "velocity": 60,
      "pan": 0,
      "instrument": "ORG_D02",
      "pipi": 0,
      "volumeAutomation": [],
      "panAutomation": []
    },
    {
      "pitch": 73,
      "measure": 46,
      "beat": 3,
      "duration": 1,
      "velocity": 82,
      "pan": 0,
      "instrument": "ORG_D02",
      "pipi": 0,
      "volumeAutomation": [],
      "panAutomation": []
    },
    {
      "pitch": 73,
      "measure": 46,
      "beat": 6,
      "duration": 1,
      "velocity": 74,
      "pan": 0,
      "instrument": "ORG_D02",
      "pipi": 0,
      "volumeAutomation": [],
      "panAutomation": []
    },
    {
      "pitch": 73,
      "measure": 46,
      "beat": 7,
      "duration": 1,
      "velocity": 56,
      "pan": 0,
      "instrument": "ORG_D02",
      "pipi": 0,
      "volumeAutomation": [],
      "panAutomation": []
    },
    {
      "pitch": 73,
      "measure": 46,
      "beat": 8,
      "duration": 1,
      "velocity": 100,
      "pan": 0,
      "instrument": "ORG_D02",
      "pipi": 0,
      "volumeAutomation": [],
      "panAutomation": []
    },
    {
      "pitch": 73,
      "measure": 46,
      "beat": 10,
      "duration": 1,
      "velocity": 100,
      "pan": 0,
      "instrument": "ORG_D02",
      "pipi": 0,
      "volumeAutomation": [],
      "panAutomation": []
    },
    {
      "pitch": 73,
      "measure": 46,
      "beat": 14,
      "duration": 1,
      "velocity": 100,
      "pan": 0,
      "instrument": "ORG_D02",
      "pipi": 0,
      "volumeAutomation": [],
      "panAutomation": []
    },
    {
      "pitch": 73,
      "measure": 47,
      "beat": 2,
      "duration": 1,
      "velocity": 60,
      "pan": 0,
      "instrument": "ORG_D02",
      "pipi": 0,
      "volumeAutomation": [],
      "panAutomation": []
    },
    {
      "pitch": 73,
      "measure": 47,
      "beat": 6,
      "duration": 1,
      "velocity": 100,
      "pan": 0,
      "instrument": "ORG_D02",
      "pipi": 0,
      "volumeAutomation": [],
      "panAutomation": []
    },
    {
      "pitch": 73,
      "measure": 47,
      "beat": 10,
      "duration": 1,
      "velocity": 100,
      "pan": 0,
      "instrument": "ORG_D02",
      "pipi": 0,
      "volumeAutomation": [],
      "panAutomation": []
    },
    {
      "pitch": 73,
      "measure": 47,
      "beat": 14,
      "duration": 1,
      "velocity": 100,
      "pan": 0,
      "instrument": "ORG_D02",
      "pipi": 0,
      "volumeAutomation": [],
      "panAutomation": []
    },
    {
      "pitch": 62,
      "measure": 0,
      "beat": 0,
      "duration": 1,
      "velocity": 118,
      "pan": 0,
      "instrument": "ORG_D03",
      "pipi": 0,
      "volumeAutomation": [],
      "panAutomation": []
    },
    {
      "pitch": 62,
      "measure": 12,
      "beat": 0,
      "duration": 1,
      "velocity": 118,
      "pan": 0,
      "instrument": "ORG_D03",
      "pipi": 0,
      "volumeAutomation": [],
      "panAutomation": []
    },
    {
      "pitch": 50,
      "measure": 31,
      "beat": 12,
      "duration": 1,
      "velocity": 100,
      "pan": 0,
      "instrument": "ORG_D03",
      "pipi": 0,
      "volumeAutomation": [],
      "panAutomation": []
    },
    {
      "pitch": 62,
      "measure": 32,
      "beat": 0,
      "duration": 1,
      "velocity": 114,
      "pan": 0,
      "instrument": "ORG_D03",
      "pipi": 0,
      "volumeAutomation": [],
      "panAutomation": []
    },
    {
      "pitch": 54,
      "measure": 35,
      "beat": 0,
      "duration": 1,
      "velocity": 126,
      "pan": 0,
      "instrument": "ORG_D03",
      "pipi": 0,
      "volumeAutomation": [],
      "panAutomation": []
    }
  ]
}